<svg id="Layer_1" data-name="Layer 1" xmlns="http://www.w3.org/2000/svg" xmlns:xlink="http://www.w3.org/1999/xlink" viewBox="0 0 500 500"><defs><style>.cls-1{fill:url(#linear-gradient);}</style><linearGradient id="linear-gradient" x1="65.14" y1="250" x2="434.86" y2="250" gradientUnits="userSpaceOnUse"><stop offset="0" stop-color="#336cb5"/><stop offset="0.47" stop-color="#02c1ea"/><stop offset="1" stop-color="#65c189"/></linearGradient></defs><title>diagram-7</title><path class="cls-1" d="M348.66,0a38.43,38.43,0,0,0,2.95,4.23q40.29,43.85,80.57,87.71a10.31,10.31,0,0,1,2.56,6.36q.18,184.52.07,369.05c0,20.27-12.83,32.64-33.1,32.64H98.08c-19.73,0-32.3-12.24-32.86-31.94,0-.65,0-1.3,0-1.95q0-216-.07-432c0-11.27,3-21,12.31-27.74C81.16,3.63,85.71,2.08,89.87,0ZM329.05,26.2c-2.16-.1-3.75-.23-5.34-.23H99.64C92,26,91,27,91,34.76V465.33c0,7.72,1,8.71,8.71,8.71H400.43c7.67,0,8.61-1,8.62-8.8v-352H344.34c-10.22,0-15.27-5-15.28-15.14q0-33.2,0-66.39Zm63.37,60.74L355.19,46.57V86.94ZM355.19,46.57V86.94h37.23Zm-213.51,269a40.4,40.4,0,0,0-6.78.49c-5.05.86-8.06,4.51-8,9.42a9.09,9.09,0,0,0,7.74,9.2,34.86,34.86,0,0,0,6.29.55q105,0,209.9,0a31.33,31.33,0,0,0,6.77-.64,9.54,9.54,0,0,0,7.16-9.29,9.39,9.39,0,0,0-7.35-9.11,38.34,38.34,0,0,0-7.26-.61q-52,0-104,0Q193.91,315.59,141.68,315.61Zm0,35.84a40.4,40.4,0,0,0-6.78.49c-5.05.86-8.06,4.51-8,9.43a9.08,9.08,0,0,0,7.74,9.19,34,34,0,0,0,6.29.55q105,0,209.9,0a32,32,0,0,0,6.77-.63,9.56,9.56,0,0,0,7.16-9.3,9.39,9.39,0,0,0-7.35-9.11,38.34,38.34,0,0,0-7.26-.61q-52,0-104,0Q193.91,351.43,141.68,351.45Zm209.37-87.66c1.63,0,3.26.08,4.88-.08a9.36,9.36,0,0,0,8.6-8.5,9.08,9.08,0,0,0-6.52-10.1,21.75,21.75,0,0,0-6.24-.76q-105.91,0-211.83,0a25.39,25.39,0,0,0-4.86.25c-5.39,1-8.5,5.1-8.15,10.41.38,5.58,4.44,8.79,11.31,8.8H351.05Zm0,35.63a46.7,46.7,0,0,0,4.88-.08,9.36,9.36,0,0,0,8.6-8.5A9.07,9.07,0,0,0,358,280.75a21.75,21.75,0,0,0-6.24-.77q-105.91,0-211.83,0a26.22,26.22,0,0,0-4.86.25c-5.39,1-8.5,5.1-8.15,10.41.38,5.58,4.44,8.79,11.31,8.8q53.69,0,107.38,0ZM352,406.87c8,0,12.66-3.51,12.67-9.69,0-4.88-3.17-10.48-12.33-9.86-.49,0-1,0-1.47,0H140.48a37.9,37.9,0,0,0-5.84.29,9.15,9.15,0,0,0-7.72,8.74c-.35,6.73,4.15,10.51,12.74,10.52q53,0,105.92,0Q298.79,406.88,352,406.87Zm-1,35.64a37.79,37.79,0,0,0,4.88-.12A9.65,9.65,0,0,0,364.24,430c-1.28-4.69-5.16-7-12-7q-106.4,0-212.79,0a25.56,25.56,0,0,0-4.38.18,9.45,9.45,0,0,0-8.15,10.39c.37,5.66,4.57,8.89,11.78,8.89q53.44,0,106.89,0ZM182.79,94.09c-86,0,3.27.08,4.88-.08a9.36,9.36,0,0,0,8.61-8.5,9.08,9.08,0,0,0-6.53-10.1,21.68,21.68,0,0,0-6.23-.76c-70.61,0,27,0-43.58,0a25.39,25.39,0,0,0-4.86.25c-5.39,1-8.5,5.1-8.15,10.41.38,5.57,4.44,8.79,11.31,8.79C174,94.1,147.65,94.09,182.79,94.09ZM171.35,63.2c0,86,.08-3.26-.08-4.88a9.36,9.36,0,0,0-8.5-8.6,9.08,9.08,0,0,0-10.1,6.52,21.75,21.75,0,0,0-.76,6.24c0,70.61,0-27,0,43.57a25.3,25.3,0,0,0,.25,4.86c1,5.4,5.1,8.51,10.41,8.15,5.57-.37,8.79-4.43,8.79-11.31C171.36,72,171.35,98.34,171.35,63.2ZM350,156.9c-86,0,3.26.08,4.88-.08a9.36,9.36,0,0,0,8.6-8.5,9.08,9.08,0,0,0-6.52-10.1,21.4,21.4,0,0,0-6.24-.76c-70.61,0,27,0-43.57,0a26.14,26.14,0,0,0-4.86.24c-5.4,1-8.51,5.11-8.15,10.42.37,5.57,4.43,8.79,11.31,8.79C341.25,156.91,314.87,156.9,350,156.9ZM287,94.53c-86,0,3.26.08,4.88-.08a9.36,9.36,0,0,0,8.6-8.5,9.08,9.08,0,0,0-6.53-10.1,21.63,21.63,0,0,0-6.23-.76c-70.61,0,27,0-43.58,0a26.22,26.22,0,0,0-4.86.24c-5.39,1-8.5,5.11-8.14,10.42.37,5.57,4.43,8.79,11.3,8.79C278.22,94.54,251.84,94.53,287,94.53Zm63,98c-86,0,3.26.08,4.88-.08a9.36,9.36,0,0,0,8.6-8.5,9.08,9.08,0,0,0-6.52-10.1,21.75,21.75,0,0,0-6.24-.76c-70.61,0,27,0-43.57,0a26.14,26.14,0,0,0-4.86.24c-5.4,1-8.51,5.11-8.15,10.42.37,5.57,4.43,8.79,11.31,8.79C341.25,192.54,314.87,192.53,350,192.53Zm0,35.63c-86,0,3.26.08,4.88-.08a9.36,9.36,0,0,0,8.6-8.5,9.08,9.08,0,0,0-6.52-10.1,21.75,21.75,0,0,0-6.24-.76c-70.61,0,27,0-43.57,0a25.3,25.3,0,0,0-4.86.25c-5.4,1-8.51,5.1-8.15,10.41.37,5.57,4.43,8.79,11.31,8.79C341.25,228.17,314.87,228.16,350,228.16Zm-72.42-67.28A22.58,22.58,0,0,0,255,138.31H150.21a22.57,22.57,0,0,0-22.57,22.57V204a22.57,22.57,0,0,0,22.57,22.57H255A22.58,22.58,0,0,0,277.59,204Z"/></svg>