<svg id="Layer_1" data-name="Layer 1" xmlns="http://www.w3.org/2000/svg" xmlns:xlink="http://www.w3.org/1999/xlink" viewBox="0 0 500 500"><defs><style>.cls-1{fill:url(#linear-gradient);}.cls-2{fill:url(#linear-gradient-2);}.cls-3{fill:url(#linear-gradient-3);}.cls-4{fill:#fff;}.cls-5{fill:#e20613;}</style><linearGradient id="linear-gradient" x1="-20.02" y1="430.45" x2="195.15" y2="215.27" gradientUnits="userSpaceOnUse"><stop offset="0" stop-color="#336cb5"/><stop offset="0.47" stop-color="#02c1ea"/><stop offset="1" stop-color="#65c189"/></linearGradient><linearGradient id="linear-gradient-2" x1="12.03" y1="462.5" x2="227.2" y2="247.32" xlink:href="#linear-gradient"/><linearGradient id="linear-gradient-3" x1="31.64" y1="482.11" x2="246.81" y2="266.93" xlink:href="#linear-gradient"/></defs><title>diagram-3</title><g id="gkowni"><path class="cls-1" d="M0,202.09c2.4-6,5.14-12,11.43-14.67a36.12,36.12,0,0,1,13.4-3.15c40-.24,80,0,119.92-.22,15.82-.1,25,12,24.95,25q-.47,117,0,233.92c.06,14.37-10.63,25.22-24.87,25.1-40-.33-79.94-.1-119.92-.12-12.72,0-19.81-5.07-24.23-17-.12-.3-.45-.53-.68-.79ZM15.6,393.66H153.81V232H15.6Zm-.13,15.87c0,11.62,0,22.83,0,34,0,6.16,2.6,8.88,8.69,8.88q60.69.06,121.38,0c5.85,0,8.51-2.79,8.52-8.69q0-15.72,0-31.45c0-.93-.19-1.86-.28-2.78Zm0-193.54H154.07c0-1.34,0-2.44,0-3.53,0-2,.1-4,0-5.92-.38-4.68-3.41-6.89-9.55-6.89q-59.74,0-119.5,0a26.51,26.51,0,0,0-2.95.16c-3.62.43-6.23,2.89-6.46,6.45C15.36,209.42,15.52,212.61,15.52,216Z"/><path class="cls-2" d="M229.42,342.07v-8.69H177.16V312.72H349.72c1.23,0,2.47,0,3.7,0,3.95-.19,5-1.23,5.06-5.2,0-11.23,0-22.46,0-33.69V163.87c0-6.64-.5-7.14-7.19-7.14H128.11c-6.48,0-7.33.88-7.33,7.55,0,4.79,0,9.58,0,14.6H100.19c.54-9.9-1.89-20,3-29.38,4.39-8.38,11.52-12.9,21.09-13.31,1.11-.05,2.22-.06,3.33-.06q112.17,0,224.32,0c11,0,19.54,3.88,24.49,13.86A25,25,0,0,1,379,160.56q.24,74.22.07,148.44c0,13-10.23,23.93-23.18,24.06-33.44.32-66.88.19-100.31.24h-5.1v8.77c9.54,0,19-.11,28.48,0,8.31.13,13.21,8.5,9.14,15.4a9.88,9.88,0,0,1-8.84,5.17q-39.78.07-79.58,0a10.07,10.07,0,0,1-10.22-10.4c0-5.72,4.41-10.09,10.46-10.17,8.39-.11,16.78,0,25.17,0Z"/><path class="cls-3" d="M84.71,413.22A15.76,15.76,0,1,1,69,429.12C68.87,420.72,76.25,413.26,84.71,413.22Z"/></g><circle class="cls-4" cx="395.85" cy="136.08" r="104.15"/><circle class="cls-5" cx="395.85" cy="136.08" r="81.74"/><path class="cls-4" d="M423.75,124.85V108.22a27.9,27.9,0,1,0-55.8,0v16.63a9.3,9.3,0,0,0-8.14,9.23v48.44a9.3,9.3,0,0,0,9.3,9.31h53.48a9.31,9.31,0,0,0,9.31-9.31V134.08A9.31,9.31,0,0,0,423.75,124.85ZM395.85,91.3a16.92,16.92,0,0,1,16.92,16.92h0v16.55H378.93V108.22h0A16.93,16.93,0,0,1,395.85,91.3Zm4,67.84v9.46a4,4,0,0,1-8.07,0v-9.46a8.14,8.14,0,1,1,8.07,0Z"/></svg>