<svg id="Layer_1" data-name="Layer 1" xmlns="http://www.w3.org/2000/svg" xmlns:xlink="http://www.w3.org/1999/xlink" viewBox="0 0 500 193"><defs><style>.cls-1{fill:url(#linear-gradient);}</style><linearGradient id="linear-gradient" y1="96.5" x2="500" y2="96.5" gradientUnits="userSpaceOnUse"><stop offset="0" stop-color="#336cb5"/><stop offset="0.47" stop-color="#02c1ea"/><stop offset="1" stop-color="#65c189"/></linearGradient></defs><title>diagram-1</title><path class="cls-1" d="M45.27,152.39H7.06c-4.53,0-7.15-2.67-7.06-7.19a45.25,45.25,0,0,1,89.85-6.93,49.8,49.8,0,0,1,.65,7.53,6.28,6.28,0,0,1-6.57,6.59Q64.6,152.41,45.27,152.39ZM44.93,35.94A25.9,25.9,0,1,0,71.11,61.86,25.84,25.84,0,0,0,44.93,35.94Zm95,77a7.78,7.78,0,1,0-7.78-7.78A7.78,7.78,0,0,0,140,112.91Zm20.75,0a7.78,7.78,0,1,0-7.78-7.78A7.78,7.78,0,0,0,160.7,112.91Zm20.74,0a7.78,7.78,0,1,0-7.78-7.78A7.78,7.78,0,0,0,181.44,112.91Zm20.75,0a7.78,7.78,0,1,0-7.78-7.78A7.78,7.78,0,0,0,202.19,112.91Zm88-16.5H265.38q-30.91,0-61.84,0a8.25,8.25,0,1,0,0,16.49h84.54c1.14,0,2.28,0,3.42,0l.11.26-.81.8q-9.24,9.26-18.49,18.52A8.25,8.25,0,1,0,284,144q8.86-8.81,17.68-17.65c5.11-5.12,10.24-10.23,15.33-15.36,3.13-3.16,3.72-7.39,1.39-10.82a21.16,21.16,0,0,0-2.94-2.89l-5.61-5.61L286.63,68.42A8,8,0,0,0,281.34,66,8.23,8.23,0,0,0,275,80.11q7.67,7.68,15.35,15.35l.88.88C290.73,96.38,290.44,96.41,290.16,96.41Zm98.64-36a44.9,44.9,0,0,0-23.5,6.16,42.78,42.78,0,0,0-16.14,17.17,53,53,0,0,0-5.81,25.07,50.07,50.07,0,0,0,6.16,24.89A43.9,43.9,0,0,0,366.6,150.9a50.27,50.27,0,0,0,41.81,2.95A47.27,47.27,0,0,0,423,145.78a5.28,5.28,0,0,0,1.91-4,6.26,6.26,0,0,0-2.26-4.68,6.45,6.45,0,0,0-3.82-1.39,7.6,7.6,0,0,0-4.68,1.73A30.62,30.62,0,0,1,404,142.92a38.76,38.76,0,0,1-12.58,2.17q-14.56,0-24.28-8.85T356,113.17H426.1a6.28,6.28,0,0,0,4.51-1.65,5.82,5.82,0,0,0,1.74-4.43A51.84,51.84,0,0,0,426.88,83a40.87,40.87,0,0,0-15.35-16.57A43,43,0,0,0,388.8,60.43Zm0,12q13,0,21.34,8.15t9.71,21.51H356.36q1.9-13.35,10.58-21.51T388.8,72.4ZM500,67.2a6.54,6.54,0,0,0-6.76-6.77h-4.18l2.95-3a6.58,6.58,0,0,0,2.09-4.79,6.41,6.41,0,0,0-2-4.66,6.54,6.54,0,0,0-9.57,0L479.62,51V46.81A6.62,6.62,0,0,0,477.71,42a6.36,6.36,0,0,0-4.68-1.9,6.52,6.52,0,0,0-6.77,6.76V51L463.31,48A6.57,6.57,0,0,0,458.52,46a6.37,6.37,0,0,0-4.66,2,6.54,6.54,0,0,0,0,9.57l2.95,3h-4.34a6.29,6.29,0,0,0-4.77,1.91,6.72,6.72,0,0,0-1.82,4.86,6.51,6.51,0,0,0,6.59,6.59h4.34l-3.07,3.07a6.3,6.3,0,0,0-2,4.72,6.75,6.75,0,0,0,2.14,4.73,6.53,6.53,0,0,0,9.33,0l3.07-3.08v4.35a6.3,6.3,0,0,0,1.91,4.77A6.76,6.76,0,0,0,473,94.17a6.52,6.52,0,0,0,6.59-6.59V83.23l3.07,3.08a6.3,6.3,0,0,0,4.72,2,6.76,6.76,0,0,0,4.73-2.15,6.52,6.52,0,0,0,0-9.32l-3.08-3.07h4.18a6.58,6.58,0,0,0,4.85-1.91A6.37,6.37,0,0,0,500,67.2m-20.38-.09a6.68,6.68,0,1,1-6.68-6.68A6.68,6.68,0,0,1,479.62,67.11Z"/></svg>