<svg id="Layer_1" data-name="Layer 1" xmlns="http://www.w3.org/2000/svg" viewBox="0 0 500 500"><defs><style>.cls-1{fill:#4584ae;}.cls-2{fill:#5189b2;opacity:0.5;}</style></defs><title>diagram-5</title><path class="cls-1" d="M217.61,147.42q31.56,19.11,49,52.88t17.45,77c0,5.91-1.86,10.62-5.54,14.12s-8.5,5.26-14.4,5.26H40.42q4.42,45.41,35.44,73.64t77.52,28.24a123.15,123.15,0,0,0,40.14-6.92q20.21-6.92,32.39-17.44,7.2-5.54,15-5.54,6.09,0,12.19,4.43,7.18,6.65,7.19,14.95,0,7.2-6.09,12.74-18.27,15.51-46.51,25.75t-54.26,10.24q-44.31,0-79.18-19.66a140.25,140.25,0,0,1-54.55-54.82Q0,327.12,0,282.81q0-44.85,18.55-80T70,148q32.94-19.65,75-19.66Q186,128.32,217.61,147.42ZM75.3,192.55q-27.69,26-33.77,68.66H244.19q-4.44-42.63-31-68.66t-68.11-26Q103,166.53,75.3,192.55Z"/><path class="cls-2" d="M500,149.92a20.32,20.32,0,0,1-6.09,15,21,21,0,0,1-15.5,6.09H465.09l9.81,9.81a20.8,20.8,0,0,1,0,29.75q-6.66,6.66-15.08,6.85c-5.61.13-10.63-2-15.07-6.46l-9.81-9.81V215a20.8,20.8,0,0,1-21,21q-9.4,0-15.5-5.82T392.3,215V201.1l-9.8,9.81a20.79,20.79,0,0,1-29.76,0q-6.66-6.65-6.85-15.07t6.46-15.07l9.81-9.81H348.28a20.8,20.8,0,0,1-21-21q0-9.42,5.82-15.51t15.22-6.09h13.88l-9.42-9.42a20.84,20.84,0,0,1,0-30.54,20.36,20.36,0,0,1,14.88-6.26q8.63,0,15.27,6.66l9.41,9.41V84.85a20.86,20.86,0,0,1,21.6-21.59,20.32,20.32,0,0,1,15,6.09,21,21,0,0,1,6.09,15.5V98.17l9.42-9.41a20.84,20.84,0,0,1,30.54,0,20.32,20.32,0,0,1,6.26,14.88,21,21,0,0,1-6.65,15.26l-9.42,9.42h13.32A20.84,20.84,0,0,1,500,149.92m-86.38-21.6a21.32,21.32,0,1,0,21.32,21.32A21.33,21.33,0,0,0,413.62,128.32Z"/></svg>