<svg id="Layer_1" data-name="Layer 1" xmlns="http://www.w3.org/2000/svg" xmlns:xlink="http://www.w3.org/1999/xlink" viewBox="0 0 500 500"><defs><style>.cls-1{fill:url(#linear-gradient);}.cls-2{fill:#fff;}.cls-3{fill:#e20613;}</style><linearGradient id="linear-gradient" x1="53.45" y1="312.3" x2="331.04" y2="312.3" gradientUnits="userSpaceOnUse"><stop offset="0" stop-color="#336cb5"/><stop offset="0.47" stop-color="#02c1ea"/><stop offset="1" stop-color="#65c189"/></linearGradient></defs><title>diagram-4</title><path id="QN4O1u" class="cls-1" d="M266.32,124.59a26.53,26.53,0,0,0,2.22,3.18Q298.78,160.7,329,193.62A7.76,7.76,0,0,1,331,198.4q.14,138.54.05,277.08c0,15.22-9.63,24.51-24.85,24.52h-228c-14.81,0-24.25-9.2-24.67-24,0-.49,0-1,0-1.46q0-162.19,0-324.37c0-8.46,2.28-15.73,9.25-20.83,2.78-2,6.19-3.19,9.32-4.76Zm-14.73,19.67c-1.61-.07-2.81-.17-4-.17H79.35c-5.76,0-6.47.73-6.47,6.6q0,161.64,0,323.28c0,5.79.73,6.54,6.53,6.54H305.19c5.76,0,6.47-.73,6.47-6.61V209.63H263.08c-7.68,0-11.47-3.74-11.48-11.36q0-24.93,0-49.85Zm47.58,45.61-27.95-30.31v30.31Zm-27.95-30.31v30.31h27.95ZM110.92,276a30.89,30.89,0,0,0-5.09.36,7.09,7.09,0,0,0-.22,14,25.71,25.71,0,0,0,4.72.4q78.8,0,157.6,0a24,24,0,0,0,5.08-.48,7.18,7.18,0,0,0,5.38-7,7,7,0,0,0-5.52-6.84,27.71,27.71,0,0,0-5.46-.46q-39,0-78.06,0Q150.14,275.94,110.92,276ZM268.11,241.9c1.23,0,2.46.06,3.67-.06a7,7,0,0,0,6.46-6.38,6.82,6.82,0,0,0-4.9-7.58,16.32,16.32,0,0,0-4.68-.57q-79.53,0-159,0a19.3,19.3,0,0,0-3.65.19,7.12,7.12,0,0,0-6.11,7.82c.28,4.18,3.33,6.6,8.49,6.6H268.11Zm.71,95.92c6,0,9.5-2.64,9.51-7.28,0-3.66-2.38-7.87-9.26-7.4-.36,0-.73,0-1.1,0H110a28,28,0,0,0-4.39.22,6.86,6.86,0,0,0-5.79,6.56c-.27,5.06,3.11,7.89,9.56,7.9h79.52Q228.88,337.83,268.82,337.82Zm-.73,47.78a27.83,27.83,0,0,0,3.66-.09,7.25,7.25,0,0,0,6.27-9.3c-1-3.52-3.87-5.23-9-5.23H109.26a20,20,0,0,0-3.29.13,7.11,7.11,0,0,0-6.12,7.81c.28,4.25,3.43,6.67,8.85,6.67q40.12,0,80.25,0Z"/><circle class="cls-2" cx="321.95" cy="124.59" r="124.59"/><circle class="cls-3" cx="321.95" cy="124.59" r="97.79"/><path class="cls-2" d="M355.33,111.17V91.27a33.38,33.38,0,0,0-66.75,0v19.9a11.12,11.12,0,0,0-9.75,11v58A11.13,11.13,0,0,0,290,191.29h64a11.13,11.13,0,0,0,11.14-11.13V122.21A11.13,11.13,0,0,0,355.33,111.17ZM322,71A20.25,20.25,0,0,1,342.2,91.27h0v19.8H301.71V91.27h0A20.24,20.24,0,0,1,322,71Zm4.83,81.16V163.5a4.83,4.83,0,1,1-9.65,0V152.19a9.74,9.74,0,1,1,9.65,0Z"/></svg>