<svg id="Layer_1" data-name="Layer 1" xmlns="http://www.w3.org/2000/svg" xmlns:xlink="http://www.w3.org/1999/xlink" viewBox="0 0 500 500"><defs><style>.cls-1{fill:url(#linear-gradient);}.cls-2{fill:#4584ae;}</style><linearGradient id="linear-gradient" x1="-237.22" y1="711.19" x2="198.65" y2="275.32" gradientUnits="userSpaceOnUse"><stop offset="0" stop-color="#336cb5"/><stop offset="0.47" stop-color="#02c1ea"/><stop offset="1" stop-color="#65c189"/></linearGradient></defs><title>diagram-9</title><path class="cls-1" d="M499.78,92.32V90.84a44.61,44.61,0,0,0-4.55-19c-4.83-9.72-11.61-16.13-19.91-20-.95-.47-1.92-.89-2.92-1.29q-.79-.31-1.62-.6a44.8,44.8,0,0,0-5.29-1.5l-.42-.09a51.72,51.72,0,0,0-5.29-.81c-.83-.09-1.67-.18-2.52-.25-.23,0-.44,0-.67-.06-.42,0-.84,0-1.26,0-1.32-.07-2.62-.19-4-.19Q350.68,47.11,250,47T48.66,47c-1.37,0-2.66.12-4,.19-.42,0-.84,0-1.26,0-.23,0-.44,0-.67.06-.85.07-1.69.16-2.52.25a51.72,51.72,0,0,0-5.29.81l-.42.09a44.8,44.8,0,0,0-5.29,1.5q-.82.28-1.62.6c-1,.4-2,.82-2.92,1.29-8.3,3.91-15.08,10.32-19.91,20a44.61,44.61,0,0,0-4.55,19v1.48c-.34,5.56-.19,11.18,0,16.81Q-.13,233,.09,356.82c0,23.37,18.32,42.89,41.54,43.12q48.27.46,96.54.4v.18H230.5v15.56h-4.43c-14.15,0-28.24-.1-42.3.06-1.63,0-3.25,0-4.88,0-10.84.14-18.66,8-18.75,18.23A18,18,0,0,0,178.46,453h.3l.17,0c23.69,0,47.38,0,71.07,0s47.38.05,71.07,0l.17,0h.3a18,18,0,0,0,18.32-18.63c-.09-10.26-7.91-18.09-18.75-18.23-1.63,0-3.25,0-4.88,0-14.06-.16-28.15-.08-42.3-.06H269.5V400.52h92.33v-.18q48.27,0,96.54-.4c23.22-.23,41.5-19.75,41.54-43.12q.22-123.85-.12-247.7C500,103.49,500.12,97.87,499.78,92.32Zm-36.7,261.82c0,7.11-2,9-9.07,9.32-2.21.1-4.43,0-6.64,0H52.63c-2.21,0-4.43.07-6.63,0-7.08-.33-9-2.21-9.08-9.32-.09-20.12,0-40.24,0-60.37V123.67h.23c0-9,0-17.59,0-26.17,0-12,1.52-13.53,13.13-13.53H449.74c11.61,0,13.13,1.58,13.13,13.53,0,8.58,0,17.17,0,26.17h.23v170.1C463.11,313.9,463.17,334,463.08,354.14ZM213.6,275.85c-5-1.47-6.72-5-6.73-9.5q0-35,0-70.07c0-5.08,2.67-8.59,7.44-9a13.47,13.47,0,0,1,6.94,1.59c13.62,7.06,27.12,14.33,40.65,21.54q11.34,6,22.67,12.09a9.43,9.43,0,0,1,5,5.37c1.12,3.55-.34,7-4.21,9.22-8.93,5.23-17.92,10.34-26.9,15.48q-18.4,10.54-36.83,21a54.88,54.88,0,0,1-5.06,2.27Zm-74.76-44.31A109.56,109.56,0,1,1,248.4,341.1,109.56,109.56,0,0,1,138.84,231.54ZM248.4,316.1a84.56,84.56,0,1,0-84.56-84.56A84.55,84.55,0,0,0,248.4,316.1Z"/><path class="cls-2" d="M213.6,275.85c-5-1.47-6.72-5-6.73-9.5q0-35,0-70.07c0-5.08,2.67-8.59,7.44-9a13.47,13.47,0,0,1,6.94,1.59c13.62,7.06,27.12,14.33,40.65,21.54q11.34,6,22.67,12.09a9.43,9.43,0,0,1,5,5.37c1.12,3.55-.34,7-4.21,9.22-8.93,5.23-17.92,10.34-26.9,15.48q-18.4,10.54-36.83,21a54.88,54.88,0,0,1-5.06,2.27Zm-74.76-44.31A109.56,109.56,0,1,1,248.4,341.1,109.56,109.56,0,0,1,138.84,231.54ZM248.4,316.1a84.56,84.56,0,1,0-84.56-84.56A84.55,84.55,0,0,0,248.4,316.1Z"/></svg>