<svg id="Layer_1" data-name="Layer 1" xmlns="http://www.w3.org/2000/svg" xmlns:xlink="http://www.w3.org/1999/xlink" viewBox="0 0 500 500"><defs><style>.cls-1{fill:url(#linear-gradient);}.cls-2{fill:#fff;}.cls-3{fill:#e20613;}.cls-4{fill:#063;}</style><linearGradient id="linear-gradient" x1="73.24" y1="471.16" x2="280.09" y2="313.43" gradientUnits="userSpaceOnUse"><stop offset="0" stop-color="#336cb5"/><stop offset="0.47" stop-color="#02c1ea"/><stop offset="1" stop-color="#65c189"/></linearGradient></defs><title>diagram-6</title><path class="cls-1" d="M301.51,396.93a10.46,10.46,0,0,1,8,3.44,12.76,12.76,0,0,1,3.18,9,12.93,12.93,0,0,1-4.07,9.41Q281.15,441,246.29,441a94.73,94.73,0,0,1-40.84-8.9,98.37,98.37,0,0,1-32.7-24.69A96.27,96.27,0,0,1,152.9,371H132.54a12.71,12.71,0,0,1-8.78-3.05,10.64,10.64,0,0,1-3.43-8.4,9.54,9.54,0,0,1,3.43-7.38,12.75,12.75,0,0,1,8.78-3.05h16q-.51-6.61-.51-10.18a124.07,124.07,0,0,1,.77-13.74H132.54a12.75,12.75,0,0,1-8.78-3.05,10.36,10.36,0,0,1-3.43-8.15,9.79,9.79,0,0,1,3.43-7.63,12.71,12.71,0,0,1,8.78-3h21.38a99,99,0,0,1,20.48-34.48,97.6,97.6,0,0,1,32.19-23.29,95.34,95.34,0,0,1,39.7-8.39q19.34,0,33.46,5.09T308.38,259a12.12,12.12,0,0,1,4.07,4.71,14.84,14.84,0,0,1,1,5.72,10.8,10.8,0,0,1-3.69,8.4,12.39,12.39,0,0,1-8.53,3.31,13.78,13.78,0,0,1-8.9-3.31A74.15,74.15,0,0,0,272,265q-9.93-3.94-25.7-3.94a67.21,67.21,0,0,0-38.17,11.57,75.48,75.48,0,0,0-26.47,30.67h87a12.71,12.71,0,0,1,8.78,3,9.79,9.79,0,0,1,3.43,7.63,10.36,10.36,0,0,1-3.43,8.15,12.75,12.75,0,0,1-8.78,3.05H174.53a136.21,136.21,0,0,0-1,13.74q0,3.57.51,10.18h76.85a12.75,12.75,0,0,1,8.78,3.05,9.54,9.54,0,0,1,3.43,7.38,10.64,10.64,0,0,1-3.43,8.4,12.71,12.71,0,0,1-8.78,3.05h-71a75.32,75.32,0,0,0,26.59,33.21,67.72,67.72,0,0,0,39.83,12.6q24.42,0,46.82-16.8A14.64,14.64,0,0,1,301.51,396.93Z"/><circle class="cls-2" cx="386.89" cy="172.16" r="113.11"/><circle class="cls-3" cx="386.89" cy="172.16" r="88.78"/><path class="cls-2" d="M417.19,160V141.91a30.3,30.3,0,0,0-60.6,0V160a10.1,10.1,0,0,0-8.85,10V222.6a10.11,10.11,0,0,0,10.11,10.11h58.08A10.11,10.11,0,0,0,426,222.6V170A10.1,10.1,0,0,0,417.19,160Zm-30.3-36.44a18.38,18.38,0,0,1,18.38,18.38h0v18H368.51v-18h0A18.38,18.38,0,0,1,386.89,123.53Zm4.38,73.68v10.27a4.38,4.38,0,1,1-8.76,0V197.21a8.84,8.84,0,1,1,8.76,0Z"/><circle class="cls-2" cx="113.11" cy="172.16" r="113.11"/><path class="cls-4" d="M112.5,259.44a88,88,0,0,1-88.16-88.75c.11-47.4,40.46-87.3,88.27-87.31,48.39,0,88.26,40.27,88.22,89.14C200.8,220.24,160.92,259.49,112.5,259.44ZM96.73,183.1C91.45,177.2,87,171.72,82,166.81c-6.12-6-14.23-6-19.38-.62s-5,12.83.79,18.78c8,8.3,16.13,16.48,24.47,24.44,6.23,5.94,12.64,6.25,18.68.33,18.88-18.49,37.75-37,55.8-56.3,2.88-3.07,3.09-10.49,1.79-15.13-1.73-6.2-8.22-7.49-14-5.9-3.24.89-6.27,3.49-8.77,6C126.83,152.75,112.45,167.31,96.73,183.1Z"/></svg>