<svg id="Layer_1" data-name="Layer 1" xmlns="http://www.w3.org/2000/svg" xmlns:xlink="http://www.w3.org/1999/xlink" viewBox="0 0 500 500"><defs><style>.cls-1{fill:url(#linear-gradient);}</style><linearGradient id="linear-gradient" x1="9.75" y1="71.92" x2="463.77" y2="363.78" gradientUnits="userSpaceOnUse"><stop offset="0" stop-color="#336cb5"/><stop offset="0.47" stop-color="#02c1ea"/><stop offset="1" stop-color="#65c189"/></linearGradient></defs><title>diagram-2</title><path class="cls-1" d="M121.56,85.22a16.3,16.3,0,0,1-16.31,16.3h0A16.3,16.3,0,0,1,89,85.22V42.08a16.3,16.3,0,0,1,16.3-16.3h0a16.3,16.3,0,0,1,16.31,16.3ZM411.05,42.08a16.3,16.3,0,0,0-16.3-16.3h0a16.3,16.3,0,0,0-16.31,16.3V85.22a16.3,16.3,0,0,0,16.31,16.3h0a16.3,16.3,0,0,0,16.3-16.3ZM125.42,186.14a5.86,5.86,0,0,0-5.86-5.86H67.3a5.86,5.86,0,0,0-5.86,5.86v52A5.86,5.86,0,0,0,67.3,244h52.26a5.86,5.86,0,0,0,5.86-5.86Zm102.3,0a5.86,5.86,0,0,0-5.86-5.86H169.6a5.86,5.86,0,0,0-5.86,5.86v52A5.86,5.86,0,0,0,169.6,244h52.26a5.86,5.86,0,0,0,5.86-5.86Zm102.3,0a5.86,5.86,0,0,0-5.86-5.86H271.91a5.86,5.86,0,0,0-5.86,5.86v52a5.86,5.86,0,0,0,5.86,5.86h52.25a5.86,5.86,0,0,0,5.86-5.86Zm102.31,0a5.86,5.86,0,0,0-5.86-5.86H374.21a5.86,5.86,0,0,0-5.86,5.86v52a5.86,5.86,0,0,0,5.86,5.86h52.26a5.86,5.86,0,0,0,5.86-5.86ZM125.42,285.35a5.86,5.86,0,0,0-5.86-5.86H67.3a5.86,5.86,0,0,0-5.86,5.86v52a5.86,5.86,0,0,0,5.86,5.86h52.26a5.86,5.86,0,0,0,5.86-5.86Zm102.3,0a5.86,5.86,0,0,0-5.86-5.86H169.6a5.86,5.86,0,0,0-5.86,5.86v52a5.86,5.86,0,0,0,5.86,5.86h52.26a5.86,5.86,0,0,0,5.86-5.86ZM363.36,48.25H136.64v31H363.36Zm105.92,0H426.13v31h13A25.67,25.67,0,0,1,465,104.67v21.82c-.51,0-1-.07-1.52-.07H35V104.67A25.67,25.67,0,0,1,60.88,79.25h13v-31H30.72A30.74,30.74,0,0,0,0,79v294.7a30.74,30.74,0,0,0,30.72,30.76H258.79a117.68,117.68,0,0,1-2.11-22.2c0-1,0-2,0-3.06H60.88A25.67,25.67,0,0,1,35,353.79V162H463.51c.51,0,1,0,1.52-.07V308.55a117.3,117.3,0,0,1,25.26,87.59A30.69,30.69,0,0,0,500,373.71V79A30.74,30.74,0,0,0,469.28,48.25ZM266.05,285.35v50.93a117.61,117.61,0,0,1,51.45-56.79H271.91A5.86,5.86,0,0,0,266.05,285.35Zm145-243.27a16.3,16.3,0,0,0-16.3-16.3h0a16.3,16.3,0,0,0-16.31,16.3V85.22a16.3,16.3,0,0,0,16.31,16.3h0a16.3,16.3,0,0,0,16.3-16.3ZM281.94,382.27a92,92,0,1,1,91.95,92A92,92,0,0,1,281.94,382.27Zm142.4.52a5.23,5.23,0,0,0-5.26-5.16l-37.59.37V340.1a5.21,5.21,0,0,0-5.21-5.21H368a5.21,5.21,0,0,0-5.21,5.21v41.27a5,5,0,0,0-.39,2l.08,8.32a5.21,5.21,0,0,0,5.26,5.16h8.58a5,5,0,0,0,1-.09l42-.4a5.22,5.22,0,0,0,5.16-5.26Z"/></svg>