<svg id="Layer_1" data-name="Layer 1" xmlns="http://www.w3.org/2000/svg" xmlns:xlink="http://www.w3.org/1999/xlink" viewBox="0 0 500 500"><defs><style>.cls-1{fill:url(#linear-gradient);}.cls-2{fill:#fbb040;opacity:0.5;}</style><linearGradient id="linear-gradient" y1="250" x2="500" y2="250" gradientUnits="userSpaceOnUse"><stop offset="0" stop-color="#336cb5"/><stop offset="0.47" stop-color="#02c1ea"/><stop offset="1" stop-color="#65c189"/></linearGradient></defs><title>diagram-8</title><path class="cls-1" d="M496.79,233.89c-2.93-10.62-8.77-19.56-16.21-27.53-17.38-18.63-35-37.08-52-56-4.84-5.36-10.17-5.62-16-4.23-13.94,3.31-20.89,17.82-14.78,31.06,4.74,10.28,10.08,20.28,15.14,30.41,4.13,8.26,2.3,11.33-6.9,11.34-40.55,0-81.12.72-121.64-.3-18.58-.47-30.52,14.75-22.19,32.11-6.15,4.81-10.2,9.67-12.14,14.44-1.94-4.77-6-9.63-12.14-14.44,8.33-17.36-3.61-32.58-22.19-32.11-40.52,1-81.09.33-121.64.3-9.2,0-11-3.08-6.9-11.34,5.06-10.13,10.4-20.13,15.14-30.41,6.11-13.24-.84-27.75-14.78-31.06-5.87-1.39-11.2-1.13-16,4.23-17.07,18.92-34.65,37.37-52,56-7.44,8-13.28,16.91-16.21,27.53C2,238.3,1.06,242.8,0,247.26v45.79a12.18,12.18,0,0,1,.91,2.53c4.18,33.32,32.68,58.81,66.27,58.92q60.27.21,120.53,0c14,0,23.19-10.81,21.13-24.62a56.27,56.27,0,0,0-1.83-6.57c9.55-.52,19.51,1.78,27.18-5.87,7.92-7.92,7.75-17,3.58-26.53,6.21-4,10.28-8.35,12.23-12.88,1.95,4.53,6,8.87,12.23,12.88-4.17,9.48-4.34,18.61,3.58,26.53,7.67,7.65,17.63,5.35,27.18,5.87a56.27,56.27,0,0,0-1.83,6.57c-2.06,13.81,7.11,24.59,21.13,24.62q60.25.11,120.53,0c33.59-.11,62.09-25.6,66.27-58.92a12.18,12.18,0,0,1,.91-2.53V247.26C498.94,242.8,498,238.3,496.79,233.89ZM227.86,281.74q-37.12.08-74.25,0c-3.55,0-6.63.63-6.66,4.81s3,5.54,6.86,5.4c1.11,0,2.23,0,3.34,0,20.1,0,40.21.32,60.29-.16,8.12-.2,13,5.21,12.86,10.65-.2,6.62-4.82,10.65-12.92,10.66q-38.24,0-76.48,0c-1.3,0-2.61.06-3.91,0-3.66-.19-5.92,1.71-5.85,5.16s2.46,5,6.05,5q25.13-.11,50.24,0c7.52,0,12,4.87,11.33,11.95-.51,5.52-5.12,9.17-11.91,9.19-18,.05-36.1,0-54.15,0q-30.7,0-61.4,0c-32.79,0-56.58-19.5-60.29-51.89-1.86-16.29-.7-33.08.6-49.52.88-11.08,7-20.64,14.61-28.85C43.08,196,60.06,178,76.81,159.82c3.29-3.57,6.42-5.42,11-2.84s6.89,6.69,6.23,12a20.53,20.53,0,0,1-2.27,6.2c-4.74,9.65-9.62,19.23-14.37,28.87-6.82,13.85-.19,24.89,15.23,25,20.84.17,41.68,0,62.52,0,21,0,42.06-.06,63.09,0,8.63,0,13.34,5.42,11.75,13-1.1,5.23-5.64,8.26-12.88,8.28-20.1,0-40.19,0-60.29,0-1.49,0-3,.06-4.47,0-3.37-.13-6,1.54-5.28,4.74.43,2.06,3,4.45,5.15,5.16,2.68.91,5.89.26,8.86.26q33.49,0,67,0c8.08,0,13,4.12,12.93,10.55S235.71,281.73,227.86,281.74ZM489,292.51c-3.71,32.39-27.5,51.88-60.29,51.89q-30.7,0-61.4,0c-18.05,0-36.1,0-54.15,0-6.79,0-11.4-3.67-11.91-9.19-.66-7.08,3.81-11.92,11.33-11.95q25.11-.11,50.24,0c3.59,0,6-1.57,6.05-5s-2.19-5.35-5.85-5.16c-1.3.07-2.61,0-3.91,0q-38.24,0-76.48,0c-8.1,0-12.72-4-12.92-10.66-.17-5.44,4.74-10.85,12.86-10.65,20.08.48,40.19.16,60.29.16,1.11,0,2.23,0,3.34,0,3.83.14,6.88-1.09,6.86-5.4s-3.11-4.81-6.66-4.81q-37.12.11-74.25,0c-7.85,0-13.06-4.32-13.18-10.63s4.85-10.54,12.93-10.55q33.5,0,67,0c3,0,6.18.65,8.86-.26,2.13-.71,4.72-3.1,5.15-5.16.68-3.2-1.91-4.87-5.28-4.74-1.49.06-3,0-4.47,0-20.1,0-40.19,0-60.29,0-7.24,0-11.78-3.05-12.88-8.28-1.58-7.55,3.12-12.93,11.75-13,21-.1,42.06,0,63.09,0,20.84,0,41.68.13,62.52,0,15.42-.12,22.05-11.16,15.23-25-4.75-9.64-9.63-19.22-14.37-28.87a20.53,20.53,0,0,1-2.27-6.2c-.66-5.29,1.52-9.34,6.23-12s7.75-.73,11,2.84C439.94,178,456.92,196,473.78,214.14c7.65,8.21,13.73,17.77,14.61,28.85C489.69,259.43,490.85,276.22,489,292.51Z"/><path class="cls-2" d="M344.81,229.09c-21,0-42.06-.07-63.09,0-8.63,0-13.34,5.42-11.75,13,1.1,5.23,5.64,8.26,12.88,8.28,20.1,0,40.19,0,60.29,0,1.49,0,3,.06,4.47,0,3.37-.13,6,1.54,5.28,4.74-.43,2.06-3,4.45-5.15,5.16-2.68.91-5.89.26-8.86.26q-33.5,0-67,0c-8.08,0-13,4.12-12.93,10.55s5.33,10.62,13.18,10.63q37.13.08,74.25,0c3.55,0,6.63.63,6.66,4.81s-3,5.54-6.86,5.4c-1.11,0-2.23,0-3.34,0-20.1,0-40.21.32-60.29-.16-8.12-.2-13,5.21-12.86,10.65.2,6.62,4.82,10.65,12.92,10.66q38.24,0,76.48,0c1.3,0,2.61.06,3.91,0,3.66-.19,5.92,1.71,5.85,5.16s-2.46,5-6.05,5q-25.12-.11-50.24,0c-7.52,0-12,4.87-11.33,11.95.51,5.52,5.12,9.17,11.91,9.19,18.05.05,36.1,0,54.15,0q30.7,0,61.4,0c32.79,0,56.58-19.5,60.29-51.89,1.86-16.29.7-33.08-.6-49.52-.88-11.08-7-20.64-14.61-28.85C456.92,196,439.94,178,423.19,159.82c-3.29-3.57-6.42-5.42-11-2.84s-6.89,6.69-6.23,12a20.53,20.53,0,0,0,2.27,6.2c4.74,9.65,9.62,19.23,14.37,28.87,6.82,13.85.19,24.89-15.23,25C386.49,229.21,365.65,229.08,344.81,229.09Z"/></svg>