<?xml version="1.0" encoding="utf-8"?>
<!-- Generator: Adobe Illustrator 24.0.1, SVG Export Plug-In . SVG Version: 6.00 Build 0)  -->
<svg version="1.1" id="Layer_1" xmlns="http://www.w3.org/2000/svg" xmlns:xlink="http://www.w3.org/1999/xlink" x="0px" y="0px"
	 viewBox="0 0 457 107" style="enable-background:new 0 0 457 107;" xml:space="preserve">
<style type="text/css">
	.st0{fill:#24506D;}
	.st1{clip-path:url(#SVGID_2_);}
	.st2{fill:#4584AE;}
	.st3{clip-path:url(#SVGID_4_);}
	.st4{clip-path:url(#SVGID_6_);}
	.st5{clip-path:url(#SVGID_8_);}
	.st6{clip-path:url(#SVGID_10_);}
	.st7{opacity:0.25;fill:#4584AE;enable-background:new    ;}
</style>
<title>about_us_2</title>
<path class="st0" d="M161.1,5.6c0.8,0.5,1.5,1.2,1.9,2c0.5,0.9,0.7,2,0.7,3c0,0.2-0.1,0.4-0.2,0.5c-0.1,0.1-0.3,0.2-0.6,0.2h-8.6
	c0.1,2.3,2.1,4,4.3,3.9c0.5,0,1-0.1,1.5-0.3c0.5-0.1,0.9-0.4,1.2-0.7c0.2-0.1,0.4-0.2,0.6-0.2c0.2,0,0.3,0.1,0.5,0.2
	c0.2,0.1,0.3,0.3,0.3,0.6c0,0.2-0.1,0.4-0.2,0.5c-0.5,0.4-1.1,0.8-1.8,1c-1.7,0.6-3.5,0.5-5.1-0.4c-0.9-0.5-1.6-1.2-2.1-2.1
	c-0.5-0.9-0.8-2-0.8-3c0-1.1,0.2-2.1,0.7-3.1c0.5-0.9,1.1-1.6,2-2.1c0.9-0.5,1.9-0.8,2.9-0.8C159.3,4.9,160.2,5.1,161.1,5.6z
	 M155.6,7.3c-0.7,0.7-1.2,1.6-1.3,2.7h7.8c-0.1-1-0.5-1.9-1.2-2.6c-0.7-0.7-1.6-1-2.6-1C157.3,6.3,156.3,6.7,155.6,7.3z"/>
<path class="st0" d="M165.5,11.4c-0.2-0.2-0.2-0.4-0.2-0.6c0-0.2,0.1-0.4,0.2-0.6c0.1-0.2,0.4-0.2,0.6-0.2h5c0.5,0,0.8,0.4,0.8,0.8
	c0,0,0,0,0,0c0,0.2-0.1,0.4-0.2,0.6c-0.2,0.2-0.4,0.2-0.6,0.2h-5C165.9,11.6,165.7,11.5,165.5,11.4z"/>
<path class="st0" d="M182.2,5.7c0.9,0.5,1.6,1.2,2.1,2.1c0.5,0.9,0.8,1.9,0.8,3c0,1-0.3,2.1-0.8,3c-1,1.8-2.9,2.9-5,2.9
	c-0.9,0-1.7-0.2-2.5-0.6c-0.7-0.4-1.4-0.9-1.9-1.6v6.2c0,0.2-0.1,0.4-0.2,0.6c-0.2,0.2-0.4,0.2-0.6,0.2c-0.2,0-0.4-0.1-0.6-0.2
	c-0.2-0.2-0.2-0.4-0.2-0.6V16c0-0.1,0-0.1,0-0.2v-5c0-1.1,0.3-2.1,0.8-3c0.5-0.9,1.2-1.6,2.1-2.1C178.1,4.6,180.4,4.6,182.2,5.7
	L182.2,5.7z M181.4,14.6c0.7-0.4,1.2-0.9,1.6-1.6c0.4-0.7,0.6-1.5,0.6-2.3c0-0.8-0.2-1.6-0.6-2.3c-1.1-2.1-3.7-2.8-5.8-1.7
	c-0.7,0.4-1.3,1-1.7,1.7c-0.4,0.7-0.5,1.5-0.5,2.3c0,0.2,0,0.4,0,0.5c0,0,0,0.1,0,0.1c0.1,1,0.6,2,1.4,2.7c0.8,0.7,1.8,1.1,2.9,1.1
	C180,15.2,180.8,15,181.4,14.6z"/>
<path class="st0" d="M188.8,16.3c-0.8-0.3-1.4-0.7-2-1.3c-0.3-0.3-0.3-0.7,0-1c0,0,0.1-0.1,0.1-0.1c0.1-0.1,0.3-0.2,0.5-0.2
	c0.2,0,0.5,0.1,0.6,0.3c0.4,0.4,0.8,0.7,1.4,0.9c0.6,0.2,1.2,0.3,1.9,0.3c0.8,0.1,1.6-0.1,2.2-0.5c0.5-0.3,0.8-0.8,0.8-1.3
	c0-0.5-0.3-1-0.8-1.3c-0.7-0.4-1.5-0.7-2.4-0.8c-1.1-0.1-2.2-0.5-3.1-1.2c-0.6-0.5-1-1.2-1-2c0-1,0.4-1.9,1.2-2.4
	c0.9-0.6,1.9-0.9,3-0.8c0.8,0,1.7,0.1,2.4,0.5c0.7,0.3,1.2,0.7,1.7,1.3c0.1,0.1,0.2,0.3,0.2,0.5c0,0.2-0.1,0.5-0.3,0.6
	c-0.1,0.1-0.3,0.1-0.4,0.1c-0.3,0-0.6-0.1-0.8-0.3c-0.7-0.8-1.8-1.2-2.9-1.2c-0.7,0-1.3,0.1-1.9,0.5c-0.4,0.2-0.7,0.7-0.7,1.2
	c0,0.5,0.2,1,0.7,1.2c0.7,0.4,1.5,0.6,2.3,0.7c1.2,0.1,2.3,0.5,3.2,1.2c0.6,0.5,1,1.3,1,2.1c0,0.6-0.2,1.2-0.6,1.8
	c-0.4,0.5-1,0.9-1.6,1.2c-0.8,0.3-1.6,0.4-2.4,0.4C190.5,16.7,189.6,16.6,188.8,16.3z"/>
<path class="st0" d="M207.8,5.7c0,0.1,0,0.3-0.1,0.4l-6.9,15.1c-0.1,0.3-0.3,0.5-0.6,0.5c-0.1,0-0.3,0-0.4-0.1
	c-0.3-0.1-0.5-0.3-0.5-0.6c0-0.1,0-0.3,0.1-0.4l2.1-4.6l0,0l-4.7-9.8c-0.1-0.1-0.1-0.2-0.1-0.4c0-0.3,0.2-0.6,0.5-0.6
	c0.1-0.1,0.2-0.1,0.4-0.1c0.3,0,0.6,0.2,0.6,0.4l4.1,8.7l4-8.7c0.1-0.3,0.3-0.5,0.6-0.5c0.1,0,0.3,0,0.4,0.1
	C207.6,5.2,207.8,5.4,207.8,5.7z"/>
<path class="st0" d="M210.7,15.9c-0.9-0.5-1.6-1.2-2.1-2.1c-0.5-0.9-0.8-2-0.8-3c0-1.1,0.2-2.1,0.7-3.1c1-1.8,2.8-2.9,4.9-2.9
	c1.7-0.1,3.3,0.7,4.3,2c0.1,0.1,0.2,0.3,0.2,0.4c0,0.2-0.1,0.5-0.4,0.6c-0.1,0.1-0.3,0.1-0.4,0.1c-0.2,0-0.5-0.1-0.6-0.3
	c-0.4-0.4-0.9-0.8-1.4-1c-0.5-0.2-1.1-0.4-1.7-0.3c-0.7,0-1.5,0.2-2.1,0.6c-0.6,0.4-1.1,0.9-1.4,1.6c-0.3,0.7-0.5,1.5-0.5,2.3
	c0,0.8,0.2,1.6,0.5,2.3c0.3,0.7,0.9,1.2,1.5,1.6c0.7,0.4,1.4,0.6,2.2,0.6c1,0,2-0.3,2.7-0.9c0.2-0.1,0.4-0.2,0.6-0.2
	c0.2,0,0.3,0.1,0.5,0.2c0.2,0.1,0.3,0.3,0.3,0.6c0,0.2-0.1,0.4-0.2,0.5c-1.1,1-2.4,1.5-3.9,1.4C212.7,16.7,211.6,16.5,210.7,15.9z"
	/>
<path class="st0" d="M228.8,5.5c0.8,0.4,1.5,1.1,1.9,1.9c0.5,0.9,0.7,1.9,0.7,2.9v5.5c0,0.4-0.4,0.8-0.8,0.8c-0.2,0-0.4-0.1-0.6-0.2
	c-0.2-0.2-0.2-0.4-0.2-0.6v-5.5c0.1-1.1-0.3-2.1-1.1-2.9c-0.8-0.7-1.7-1-2.8-1c-0.6,0-1.3,0.1-1.9,0.4c-0.5,0.3-1,0.6-1.3,1.1
	c-0.3,0.5-0.5,1-0.5,1.6v6.3c0,0.2-0.1,0.4-0.2,0.6c-0.2,0.2-0.4,0.2-0.6,0.2c-0.2,0-0.4-0.1-0.6-0.2c-0.2-0.1-0.2-0.4-0.2-0.6v-15
	c0-0.2,0.1-0.4,0.2-0.6c0.2-0.2,0.4-0.2,0.6-0.2c0.2,0,0.4,0.1,0.6,0.2c0.1,0.2,0.2,0.4,0.2,0.6v5.7c0.5-0.5,1.1-1,1.8-1.2
	c0.7-0.3,1.4-0.4,2.2-0.4C227.1,4.8,228,5.1,228.8,5.5z"/>
<path class="st0" d="M236.4,16c-0.9-0.5-1.6-1.2-2.1-2.1c-0.5-0.9-0.8-2-0.8-3c0-1,0.3-2.1,0.8-3c0.5-0.9,1.2-1.6,2.1-2.1
	c0.9-0.5,1.9-0.8,3-0.8c1.1,0,2.1,0.2,3,0.8c0.9,0.5,1.6,1.2,2.1,2.1c0.5,0.9,0.8,2,0.8,3c0,1-0.2,2.1-0.8,3
	c-0.5,0.9-1.2,1.6-2.1,2.1C240.6,17,238.3,17,236.4,16z M241.7,14.7c0.6-0.4,1.2-0.9,1.5-1.6c0.4-0.7,0.6-1.5,0.6-2.3
	c0-0.8-0.2-1.6-0.6-2.3c-0.4-0.7-0.9-1.2-1.5-1.6c-1.4-0.8-3-0.8-4.4,0c-0.7,0.4-1.2,0.9-1.6,1.6c-0.4,0.7-0.6,1.5-0.6,2.3
	c0,0.8,0.2,1.6,0.6,2.3c0.4,0.7,0.9,1.2,1.6,1.6C238.6,15.5,240.3,15.5,241.7,14.7z"/>
<path class="st0" d="M248.2,15.6c-0.6-0.8-0.9-1.7-0.8-2.6V0.8c0-0.2,0.1-0.4,0.2-0.6c0.2-0.1,0.4-0.2,0.6-0.2
	c0.2,0,0.4,0.1,0.6,0.2c0.2,0.2,0.2,0.4,0.2,0.6v12.1c0,0.5,0.1,1,0.4,1.5c0.2,0.3,0.5,0.6,0.9,0.6h0.5c0.2,0,0.4,0.1,0.5,0.2
	c0.1,0.2,0.2,0.4,0.2,0.6c0,0.2-0.1,0.4-0.3,0.6c-0.2,0.2-0.4,0.2-0.7,0.2h-0.3C249.4,16.6,248.7,16.2,248.2,15.6z"/>
<path class="st0" d="M254.8,16c-0.9-0.5-1.6-1.2-2.1-2.1c-0.5-0.9-0.8-2-0.8-3c0-1,0.3-2.1,0.8-3c0.5-0.9,1.2-1.6,2.1-2.1
	c1.9-1,4.1-1,6,0c0.9,0.5,1.6,1.1,2.2,2c0.5,0.9,0.8,1.9,0.8,3c0,1.1-0.3,2.1-0.8,3c-0.5,0.9-1.2,1.7-2.1,2.2
	C259,17,256.7,17,254.8,16L254.8,16z M260.1,14.7c0.6-0.4,1.2-0.9,1.5-1.6c0.4-0.7,0.6-1.5,0.5-2.3c0-0.8-0.2-1.6-0.5-2.3
	c-0.4-0.7-0.9-1.2-1.5-1.6c-1.4-0.8-3-0.8-4.4,0c-0.7,0.4-1.2,0.9-1.6,1.6c-0.4,0.7-0.6,1.5-0.6,2.3c0,0.8,0.2,1.6,0.6,2.3
	c0.4,0.7,0.9,1.2,1.6,1.6C257,15.5,258.7,15.5,260.1,14.7z"/>
<path class="st0" d="M274.5,5.6c0.9,0.5,1.6,1.2,2.1,2.1c0.5,0.9,0.8,2,0.8,3.1v4.3c0,1.1-0.2,2.1-0.8,3.1c-0.5,0.9-1.2,1.7-2.1,2.2
	c-0.9,0.5-1.9,0.8-3,0.8c-1,0-2-0.2-2.9-0.6c-0.8-0.4-1.6-1-2.1-1.7c-0.1-0.1-0.2-0.3-0.2-0.5c0-0.2,0.1-0.4,0.3-0.5
	c0.1-0.1,0.3-0.1,0.5-0.1c0.1,0,0.3,0,0.4,0.1c0.1,0.1,0.2,0.1,0.3,0.2c0.4,0.5,1,1,1.6,1.3c0.7,0.3,1.5,0.5,2.2,0.4
	c1.6,0,3-0.8,3.7-2.2c0.4-0.7,0.6-1.6,0.5-2.4v-1c-0.4,0.8-1,1.5-1.8,1.9c-0.8,0.5-1.7,0.7-2.6,0.7c-1,0-2.1-0.2-3-0.8
	c-0.8-0.5-1.5-1.2-2-2.1c-0.5-0.9-0.7-2-0.7-3c0-1.1,0.2-2.1,0.8-3.1c0.5-0.9,1.2-1.6,2.1-2.1C270.3,4.6,272.6,4.6,274.5,5.6
	L274.5,5.6z M273.7,14.6c0.6-0.4,1.2-0.9,1.5-1.6c0.4-0.7,0.6-1.5,0.5-2.3c0-0.8-0.2-1.6-0.5-2.3c-0.4-0.7-0.9-1.2-1.5-1.6
	c-0.7-0.4-1.4-0.6-2.2-0.6c-0.8,0-1.6,0.2-2.2,0.6c-0.6,0.4-1.2,0.9-1.5,1.6c-0.4,0.7-0.6,1.5-0.5,2.3c0,0.8,0.2,1.6,0.5,2.3
	c0.4,0.7,0.9,1.2,1.5,1.6c0.7,0.4,1.5,0.6,2.2,0.6C272.2,15.2,273,15,273.7,14.6L273.7,14.6z"/>
<path class="st0" d="M289.3,5.7c0,0.1,0,0.3-0.1,0.4l-6.9,15.1c-0.1,0.3-0.3,0.5-0.6,0.5c-0.1,0-0.3,0-0.4-0.1
	c-0.3-0.1-0.5-0.3-0.5-0.6c0-0.1,0-0.3,0.1-0.4l2.1-4.7l0,0l-4.7-9.9c-0.1-0.1-0.1-0.2-0.1-0.4c0-0.3,0.2-0.6,0.5-0.6
	c0.1-0.1,0.2-0.1,0.4-0.1c0.3,0,0.5,0.2,0.6,0.4l4.1,8.7l4-8.7c0.1-0.3,0.3-0.5,0.6-0.5c0.1,0,0.3,0,0.4,0.1
	C289.1,5.1,289.3,5.4,289.3,5.7z"/>
<g>
	<defs>
		<circle id="SVGID_1_" cx="40.8" cy="58.8" r="40.8"/>
	</defs>
	<clipPath id="SVGID_2_">
		<use xlink:href="#SVGID_1_"  style="overflow:visible;"/>
	</clipPath>
	<g class="st1">
		<path class="st2" d="M26,57.6c1.6,1,2.9,2.3,3.7,4c0.9,1.8,1.3,3.8,1.3,5.8c0,0.4-0.1,0.8-0.4,1.1c-0.3,0.3-0.7,0.4-1.1,0.4H12.7
			c0.3,4.4,4,7.8,8.5,7.7c1,0,2-0.2,3-0.5c0.9-0.3,1.7-0.7,2.4-1.3c0.3-0.3,0.7-0.4,1.1-0.4c0.3,0,0.7,0.1,0.9,0.3
			c0.3,0.3,0.5,0.7,0.5,1.1c0,0.4-0.2,0.8-0.5,1c-1,0.8-2.2,1.5-3.5,1.9c-1.3,0.5-2.7,0.8-4.1,0.8c-2.1,0-4.2-0.5-6-1.5
			c-1.7-1-3.2-2.4-4.1-4.1c-1-1.8-1.5-3.9-1.5-6c0-2.1,0.4-4.1,1.4-6c0.9-1.7,2.2-3.1,3.9-4.1c1.7-1,3.7-1.5,5.7-1.5
			C22.5,56.1,24.4,56.6,26,57.6z M15.3,61c-1.4,1.4-2.3,3.2-2.5,5.2H28c-0.1-1.9-1-3.8-2.3-5.2c-1.4-1.3-3.2-2.1-5.1-2
			C18.6,58.9,16.8,59.7,15.3,61z"/>
		<path class="st0" d="M34.8,68.9c-0.3-0.3-0.5-0.7-0.5-1.1c0-0.4,0.1-0.9,0.4-1.2c0.3-0.3,0.7-0.5,1.2-0.5h9.8
			c0.9,0,1.6,0.7,1.6,1.5c0,0,0,0.1,0,0.1c0,0.4-0.2,0.8-0.5,1.1c-0.3,0.3-0.7,0.5-1.2,0.5h-9.8C35.5,69.4,35,69.2,34.8,68.9z"/>
		<path class="st2" d="M67.6,57.7c1.7,1,3.2,2.4,4.2,4.2c2,3.7,2,8.1,0,11.8c-0.9,1.7-2.3,3.2-4,4.2c-1.7,1-3.7,1.5-5.7,1.5
			c-1.7,0-3.5-0.4-5-1.2c-1.5-0.7-2.7-1.8-3.7-3.1v12.2c0,0.4-0.2,0.9-0.5,1.2c-0.3,0.3-0.7,0.5-1.2,0.5c-0.4,0-0.9-0.1-1.2-0.5
			c-0.3-0.3-0.5-0.7-0.4-1.2v-9.3c0-0.1,0-0.2,0-0.4v-9.8c0-2.1,0.5-4.1,1.5-5.9c1-1.7,2.4-3.2,4.2-4.2
			C59.4,55.7,63.9,55.7,67.6,57.7z M66,75.3c1.3-0.7,2.3-1.8,3-3.1c1.5-2.8,1.5-6.1,0-8.9c-0.7-1.3-1.7-2.4-3-3.1
			c-1.3-0.8-2.8-1.2-4.3-1.2c-3,0-5.8,1.6-7.3,4.3c-0.7,1.4-1.1,2.9-1.1,4.4c0,0.3,0,0.7,0,1c0,0.1,0,0.1,0,0.2
			c0.2,2.1,1.2,3.9,2.7,5.3c1.5,1.4,3.5,2.1,5.6,2.1C63.1,76.4,64.7,76.1,66,75.3z"/>
		<path class="st2" d="M80.4,78.5c-1.5-0.5-2.8-1.4-3.8-2.5c-0.3-0.3-0.4-0.6-0.4-1c0-0.5,0.3-1,0.7-1.2c0.3-0.2,0.6-0.4,1-0.4
			c0.5,0,0.9,0.2,1.2,0.6c0.7,0.8,1.6,1.4,2.6,1.8c1.2,0.4,2.4,0.6,3.7,0.6c1.5,0.1,3-0.2,4.4-1c0.9-0.6,1.5-1.5,1.5-2.6
			c0-1-0.6-2-1.5-2.5c-1.4-0.8-3-1.3-4.6-1.5c-2.2-0.2-4.3-1-6.1-2.2c-1.3-0.9-2-2.4-2-4c-0.1-1.9,0.8-3.7,2.4-4.7
			c1.7-1.2,3.8-1.7,5.9-1.7c1.6,0,3.3,0.3,4.8,0.9c1.3,0.6,2.4,1.5,3.3,2.6c0.2,0.3,0.3,0.6,0.3,1c0,0.5-0.3,0.9-0.7,1.1
			c-0.2,0.2-0.5,0.2-0.8,0.2c-0.6,0-1.1-0.2-1.5-0.6c-1.4-1.6-3.4-2.5-5.6-2.4c-1.3-0.1-2.6,0.3-3.7,0.9c-1.3,0.8-1.8,2.5-1,3.8
			c0.2,0.4,0.5,0.7,0.9,0.9c1.4,0.8,3,1.3,4.6,1.5c3,0.5,5.1,1.3,6.4,2.4c1.2,1,1.9,2.6,1.9,4.2c0,1.2-0.4,2.4-1.1,3.4
			c-0.8,1-1.9,1.9-3.2,2.3c-1.5,0.6-3,0.9-4.6,0.8C83.7,79.4,82,79.1,80.4,78.5z"/>
		<path class="st2" d="M117.6,57.7c0,0.3-0.1,0.5-0.2,0.8l-13.5,29.7c-0.1,0.6-0.6,1-1.2,1c-0.3,0-0.5-0.1-0.8-0.2
			c-0.6-0.1-1-0.7-1-1.2c0-0.3,0.1-0.5,0.2-0.8l4.1-9.1l0,0L96,58.5c-0.1-0.2-0.2-0.5-0.2-0.8c0-0.6,0.4-1.1,0.9-1.2
			c0.2-0.1,0.5-0.2,0.8-0.2c0.6,0,1.1,0.3,1.2,0.9l8.1,17.1l7.7-17.1c0.2-0.5,0.7-0.9,1.2-0.9c0.3,0,0.5,0.1,0.8,0.2
			C117.2,56.6,117.6,57.1,117.6,57.7z"/>
		<path class="st2" d="M123.3,77.8c-1.7-1-3.1-2.4-4.1-4.2c-1-1.8-1.5-3.8-1.5-5.9c0-2.1,0.5-4.2,1.4-6c0.9-1.7,2.3-3.1,3.9-4.1
			c1.7-1,3.7-1.5,5.6-1.5c3.3-0.1,6.4,1.4,8.4,4c0.2,0.2,0.3,0.5,0.3,0.9c-0.1,0.8-0.7,1.4-1.5,1.4c-0.5,0-0.9-0.3-1.2-0.6
			c-0.8-0.9-1.7-1.6-2.8-2c-1-0.5-2.2-0.7-3.3-0.7c-1.4,0-2.9,0.4-4.1,1.1c-1.2,0.7-2.2,1.8-2.8,3.1c-0.7,1.4-1,2.9-1,4.5
			c0,1.5,0.3,3.1,1,4.4c0.7,1.3,1.7,2.4,2.9,3.1c1.3,0.8,2.8,1.1,4.3,1.1c2,0.1,3.9-0.5,5.4-1.8c0.3-0.3,0.7-0.4,1.1-0.5
			c0.8,0,1.5,0.7,1.5,1.5c0,0.4-0.1,0.7-0.4,0.9c-2.1,1.9-4.8,2.9-7.6,2.8C127,79.4,125,78.9,123.3,77.8z"/>
		<path class="st2" d="M158.8,57.4c1.6,0.8,2.8,2.1,3.7,3.6c0.9,1.8,1.4,3.7,1.3,5.7v10.8c0,0.9-0.7,1.6-1.6,1.6c0,0,0,0,0,0
			c-0.4,0-0.9-0.2-1.2-0.5c-0.3-0.3-0.5-0.7-0.5-1.1V66.7c0.1-2.1-0.6-4.1-2.1-5.7c-1.5-1.3-3.4-2-5.4-1.9c-1.3,0-2.5,0.2-3.7,0.8
			c-1,0.5-1.9,1.2-2.6,2.2c-0.6,0.9-1,2-1,3.1v12.3c0,0.4-0.1,0.8-0.4,1.1c-0.3,0.3-0.7,0.5-1.1,0.4c-0.4,0-0.9-0.1-1.2-0.4
			c-0.3-0.3-0.5-0.7-0.5-1.1V48.2c0-0.9,0.7-1.6,1.5-1.6c0,0,0.1,0,0.1,0c0.4,0,0.8,0.1,1.1,0.5c0.3,0.3,0.5,0.7,0.4,1.2v11.2
			c0.9-1,2.1-1.9,3.4-2.4c1.3-0.6,2.8-0.9,4.2-0.9C155.3,56.1,157.1,56.5,158.8,57.4z"/>
		<path class="st2" d="M173.7,77.9c-1.7-1-3.2-2.4-4.1-4.1c-2-3.7-2-8.2,0-11.9c1-1.7,2.4-3.2,4.1-4.2c3.7-2,8.2-2,11.9,0
			c1.7,1,3.2,2.4,4.1,4.2c2,3.7,2,8.2,0,11.9c-1,1.7-2.4,3.2-4.1,4.1C181.9,79.9,177.4,79.9,173.7,77.9L173.7,77.9z M184,75.3
			c1.3-0.7,2.3-1.8,3-3.1c1.4-2.8,1.4-6.1,0-8.9c-0.7-1.3-1.7-2.4-3-3.1c-2.7-1.5-6-1.5-8.6,0c-1.3,0.7-2.3,1.8-3,3.1
			c-1.5,2.8-1.5,6.1,0,8.9c0.7,1.3,1.7,2.4,3,3.1C178,76.8,181.3,76.8,184,75.3z"/>
		<path class="st2" d="M196.7,77.1c-1.1-1.5-1.7-3.3-1.6-5.2V48.2c0-0.4,0.2-0.8,0.5-1.2c0.6-0.6,1.6-0.6,2.3,0
			c0.3,0.3,0.5,0.7,0.4,1.2v23.7c0,1,0.2,2,0.7,2.9c0.4,0.7,1.1,1.1,1.8,1.1h1c0.4,0,0.7,0.1,1,0.4c0.3,0.3,0.4,0.7,0.4,1.2
			c0,0.4-0.2,0.9-0.5,1.1c-0.4,0.3-0.9,0.5-1.4,0.4h-0.5C199.2,79.2,197.6,78.4,196.7,77.1z"/>
		<path class="st2" d="M209.7,77.9c-1.7-1-3.2-2.4-4.1-4.1c-2-3.7-2-8.2,0-11.9c1-1.7,2.4-3.2,4.1-4.2c3.7-2,8.2-2,11.9,0
			c1.7,1,3.2,2.4,4.1,4.2c2,3.7,2,8.2,0,11.9c-1,1.7-2.4,3.2-4.1,4.1C217.9,79.9,213.4,79.9,209.7,77.9L209.7,77.9z M220,75.3
			c1.3-0.7,2.3-1.8,3-3.1c1.4-2.8,1.4-6.1,0-8.9c-0.7-1.3-1.7-2.4-3-3.1c-2.7-1.5-6-1.5-8.6,0c-1.3,0.7-2.3,1.8-3,3.1
			c-1.5,2.8-1.5,6.1,0,8.9c0.7,1.3,1.7,2.4,3,3.1C214,76.8,217.3,76.8,220,75.3z"/>
		<path class="st2" d="M248.2,57.6c1.7,1,3.2,2.4,4.1,4.1c1,1.8,1.5,3.9,1.5,6v8.5c0,2.1-0.5,4.2-1.5,6c-1,1.8-2.4,3.2-4.1,4.3
			c-1.8,1.1-3.8,1.6-5.9,1.6c-2,0-3.9-0.4-5.7-1.2c-1.6-0.8-3.1-1.9-4.2-3.4c-0.3-0.3-0.4-0.6-0.4-1c0-0.4,0.2-0.8,0.6-1.1
			c0.3-0.2,0.6-0.3,0.9-0.3c0.3,0,0.5,0.1,0.8,0.2c0.2,0.1,0.4,0.3,0.6,0.5c0.8,1.1,1.9,1.9,3.2,2.5c1.4,0.6,2.8,0.9,4.3,0.9
			c3,0,5.8-1.6,7.2-4.3c0.7-1.5,1.1-3.1,1.1-4.7v-1.8c-0.8,1.5-2,2.8-3.5,3.7c-1.6,0.9-3.4,1.4-5.2,1.3c-2,0-4-0.5-5.8-1.5
			c-1.7-1-3.1-2.4-4-4.1c-1-1.8-1.5-3.9-1.4-6c0-2.1,0.5-4.2,1.5-6c1-1.7,2.4-3.2,4.1-4.1C240,55.7,244.5,55.7,248.2,57.6
			L248.2,57.6z M246.6,75.3c1.3-0.7,2.3-1.8,3-3.1c1.5-2.8,1.5-6.2,0-9c-0.7-1.3-1.7-2.4-3-3.1c-1.3-0.8-2.8-1.2-4.3-1.1
			c-1.5,0-3,0.4-4.4,1.1c-1.3,0.7-2.3,1.8-3,3.1c-1.5,2.8-1.5,6.2,0,9c0.7,1.3,1.7,2.4,3,3.1c1.3,0.8,2.8,1.1,4.4,1.1
			C243.8,76.5,245.3,76.1,246.6,75.3z"/>
		<path class="st2" d="M277.3,57.7c0,0.3-0.1,0.5-0.2,0.8l-13.5,29.7c-0.1,0.6-0.6,1-1.2,1c-0.3,0-0.5-0.1-0.8-0.2
			c-0.6-0.1-1-0.7-1-1.2c0-0.3,0.1-0.5,0.2-0.8l4.2-9.2l0,0l-9.3-19.3c-0.1-0.2-0.2-0.5-0.2-0.8c0-0.6,0.4-1.1,0.9-1.2
			c0.2-0.1,0.5-0.2,0.8-0.2c0.6,0,1.1,0.3,1.2,0.9l8.1,17.1l7.8-17.1c0.2-0.5,0.7-0.9,1.2-0.9c0.3,0,0.5,0.1,0.8,0.2
			C276.9,56.6,277.3,57.1,277.3,57.7z"/>
	</g>
</g>
<g>
	<defs>
		<circle id="SVGID_3_" cx="131.4" cy="67.8" r="40.8"/>
	</defs>
	<clipPath id="SVGID_4_">
		<use xlink:href="#SVGID_3_"  style="overflow:visible;"/>
	</clipPath>
	<g class="st3">
		<path class="st2" d="M116.6,57.6c1.6,1,2.9,2.3,3.7,4c0.9,1.8,1.3,3.8,1.3,5.8c0,0.4-0.1,0.8-0.4,1.1c-0.3,0.3-0.7,0.4-1.1,0.4
			h-16.8c0.3,4.4,4,7.8,8.5,7.7c1,0,2-0.2,3-0.5c0.9-0.3,1.7-0.7,2.4-1.3c0.3-0.3,0.7-0.4,1.1-0.4c0.3,0,0.7,0.1,0.9,0.3
			c0.3,0.3,0.5,0.7,0.5,1.1c0,0.4-0.2,0.8-0.5,1c-1,0.9-2.2,1.5-3.5,1.9c-1.3,0.5-2.7,0.8-4.1,0.8c-2.1,0-4.2-0.5-6-1.5
			c-1.7-1-3.2-2.4-4.1-4.1c-1-1.8-1.5-3.9-1.5-6c0-2.1,0.4-4.1,1.4-6c0.9-1.7,2.2-3.1,3.9-4.1c1.7-1,3.7-1.5,5.7-1.5
			C113,56.2,115,56.6,116.6,57.6z M105.9,61c-1.4,1.4-2.3,3.2-2.5,5.2h15.2c-0.1-1.9-1-3.8-2.3-5.2c-1.4-1.3-3.2-2.1-5.1-2
			C109.2,58.9,107.3,59.7,105.9,61z"/>
		<path class="st0" d="M125.3,58.9c-0.3-0.3-0.5-0.7-0.5-1.1c0-0.4,0.1-0.8,0.4-1.2c0.3-0.3,0.7-0.5,1.2-0.5h9.8
			c0.9,0,1.6,0.7,1.6,1.5c0,0,0,0.1,0,0.1c0,0.4-0.2,0.8-0.5,1.1c-0.3,0.3-0.7,0.5-1.2,0.5h-9.8C126,59.4,125.6,59.2,125.3,58.9z"/>
		<path class="st2" d="M158.1,57.7c1.7,1,3.2,2.4,4.2,4.2c2,3.7,2,8.1,0,11.8c-0.9,1.7-2.3,3.2-4,4.2c-1.7,1-3.7,1.5-5.7,1.5
			c-1.7,0-3.5-0.4-5-1.2c-1.5-0.7-2.7-1.8-3.7-3.1v12.2c0,0.4-0.2,0.9-0.5,1.2c-0.3,0.3-0.7,0.5-1.2,0.5c-0.4,0-0.9-0.1-1.1-0.5
			c-0.3-0.3-0.5-0.7-0.4-1.2v-9.3c0-0.1,0-0.2,0-0.4v-9.8c0-2.1,0.5-4.1,1.5-5.9c1-1.7,2.4-3.2,4.2-4.2
			C150,55.7,154.5,55.7,158.1,57.7L158.1,57.7z M156.6,75.3c1.3-0.7,2.3-1.8,3-3.1c1.5-2.8,1.5-6.1,0-8.9c-0.7-1.3-1.7-2.4-3-3.1
			c-1.3-0.8-2.8-1.2-4.3-1.2c-3,0-5.8,1.6-7.3,4.3c-0.9,1.7-1.2,3.6-1.1,5.5c0,0.1,0,0.1,0,0.2c0.2,2.1,1.2,3.9,2.7,5.3
			c1.5,1.4,3.5,2.1,5.6,2.1C153.7,76.5,155.2,76.1,156.6,75.3z"/>
		<path class="st2" d="M171,78.5c-1.5-0.5-2.8-1.4-3.8-2.5c-0.3-0.3-0.4-0.6-0.4-1c0-0.5,0.3-1,0.7-1.2c0.3-0.2,0.6-0.4,1-0.4
			c0.5,0,0.9,0.2,1.2,0.6c0.7,0.8,1.6,1.4,2.6,1.8c1.2,0.4,2.4,0.6,3.6,0.6c1.5,0.1,3-0.2,4.4-1c0.9-0.6,1.5-1.5,1.5-2.6
			c0-1-0.6-2-1.5-2.5c-1.4-0.8-3-1.3-4.6-1.5c-2.2-0.2-4.3-1-6.1-2.3c-1.3-0.9-2-2.4-2-4c0-1.9,0.9-3.6,2.4-4.6
			c1.7-1.2,3.8-1.7,5.9-1.7c1.6,0,3.3,0.3,4.8,0.9c1.3,0.6,2.4,1.5,3.3,2.6c0.2,0.3,0.3,0.6,0.3,1c0,0.5-0.3,0.9-0.7,1.1
			c-0.2,0.2-0.5,0.2-0.8,0.2c-0.6,0-1.1-0.2-1.5-0.6c-1.4-1.6-3.5-2.5-5.6-2.4c-1.3-0.1-2.6,0.3-3.7,0.9c-1.3,0.8-1.8,2.5-1,3.8
			c0.2,0.4,0.5,0.7,0.9,0.9c1.4,0.8,3,1.3,4.6,1.4c3,0.5,5.1,1.3,6.4,2.4c1.2,1,1.9,2.6,1.9,4.2c0,1.2-0.4,2.4-1.1,3.4
			c-0.8,1.1-1.9,1.9-3.2,2.3c-1.5,0.6-3,0.9-4.6,0.8C174.3,79.3,172.6,79.1,171,78.5z"/>
		<path class="st2" d="M208.2,57.7c0,0.3-0.1,0.5-0.2,0.8l-13.5,29.7c-0.1,0.6-0.6,1-1.2,1c-0.3,0-0.5-0.1-0.8-0.2
			c-0.6-0.1-1-0.7-1-1.2c0-0.3,0.1-0.5,0.2-0.8l4.1-9.1l0,0l-9.3-19.2c-0.1-0.2-0.2-0.5-0.2-0.8c0-0.6,0.4-1.1,0.9-1.2
			c0.2-0.1,0.5-0.2,0.8-0.2c0.6,0,1.1,0.3,1.2,0.9l8.1,17.1l7.7-17.1c0.2-0.5,0.7-0.9,1.2-0.9c0.3,0,0.5,0.1,0.8,0.2
			C207.7,56.7,208.1,57.1,208.2,57.7z"/>
		<path class="st2" d="M213.9,77.8c-1.7-1-3.1-2.4-4.1-4.2c-1-1.8-1.5-3.8-1.5-5.9c0-2.1,0.5-4.2,1.4-6c0.9-1.7,2.3-3.1,3.9-4.1
			c1.7-1,3.7-1.5,5.6-1.5c3.3-0.1,6.4,1.4,8.4,4c0.2,0.2,0.3,0.5,0.3,0.9c-0.1,0.8-0.7,1.4-1.5,1.4c-0.5,0-0.9-0.3-1.2-0.6
			c-0.8-0.9-1.7-1.6-2.8-2.1c-1-0.5-2.2-0.7-3.3-0.7c-1.4,0-2.9,0.4-4.1,1.1c-1.2,0.7-2.2,1.8-2.8,3.1c-0.7,1.4-1,2.9-1,4.5
			c0,1.5,0.3,3.1,1,4.4c0.7,1.3,1.7,2.4,2.9,3.1c1.3,0.8,2.8,1.1,4.3,1.1c2,0.1,3.9-0.5,5.4-1.8c0.3-0.3,0.7-0.4,1.1-0.5
			c0.8,0,1.5,0.7,1.5,1.5c0,0.4-0.1,0.7-0.4,0.9c-2.1,1.9-4.8,2.9-7.6,2.8C217.6,79.4,215.6,78.8,213.9,77.8z"/>
		<path class="st2" d="M249.4,57.4c1.6,0.8,2.8,2.1,3.7,3.6c0.9,1.8,1.4,3.7,1.3,5.7v10.8c0,0.9-0.7,1.6-1.6,1.6c0,0,0,0,0,0
			c-0.4,0-0.9-0.2-1.2-0.5c-0.3-0.3-0.5-0.7-0.5-1.1V66.7c0.1-2.1-0.6-4.1-2.1-5.7c-1.5-1.3-3.4-2-5.4-1.9c-1.3,0-2.5,0.2-3.7,0.8
			c-1,0.5-1.9,1.2-2.6,2.2c-0.6,0.9-1,2-1,3.1v12.3c0,0.4-0.1,0.8-0.4,1.1c-0.3,0.3-0.7,0.5-1.1,0.4c-0.4,0-0.9-0.1-1.2-0.4
			c-0.3-0.3-0.5-0.7-0.5-1.1V48.2c0-0.9,0.7-1.6,1.5-1.6c0,0,0.1,0,0.1,0c0.4,0,0.8,0.1,1.1,0.5c0.3,0.3,0.5,0.7,0.4,1.2v11.2
			c0.9-1,2.1-1.9,3.4-2.4c1.3-0.6,2.8-0.9,4.2-0.9C245.9,56.1,247.7,56.5,249.4,57.4z"/>
		<path class="st2" d="M264.3,77.9c-1.7-1-3.2-2.4-4.1-4.1c-2-3.7-2-8.2,0-11.9c1-1.7,2.4-3.2,4.1-4.2c3.7-2,8.2-2,11.9,0
			c1.7,1,3.2,2.4,4.1,4.2c2,3.7,2,8.2,0,11.9c-1,1.7-2.4,3.2-4.1,4.1C272.5,79.9,268,79.9,264.3,77.9L264.3,77.9z M274.6,75.3
			c1.3-0.7,2.3-1.8,3-3.1c1.4-2.8,1.4-6.1,0-8.9c-0.7-1.3-1.7-2.4-3-3.1c-2.7-1.5-6-1.5-8.6,0c-1.3,0.7-2.3,1.8-3,3.1
			c-1.5,2.8-1.5,6.1,0,8.9c0.7,1.3,1.7,2.4,3,3.1C268.6,76.8,271.9,76.8,274.6,75.3z"/>
		<path class="st2" d="M287.2,77.1c-1.1-1.5-1.7-3.3-1.6-5.2V48.2c0-0.4,0.2-0.8,0.5-1.2c0.6-0.6,1.6-0.6,2.3,0
			c0.3,0.3,0.5,0.7,0.4,1.2v23.7c0,1,0.2,2,0.7,2.9c0.4,0.7,1.1,1.1,1.9,1.1h1c0.4,0,0.7,0.1,1,0.4c0.3,0.3,0.4,0.7,0.4,1.2
			c0,0.4-0.2,0.9-0.5,1.1c-0.4,0.3-0.9,0.5-1.4,0.4h-0.5C289.7,79.2,288.2,78.4,287.2,77.1z"/>
		<path class="st2" d="M300.3,77.9c-1.7-1-3.2-2.4-4.1-4.1c-2-3.7-2-8.2,0-11.9c1-1.7,2.4-3.2,4.1-4.2c3.7-2,8.2-2,11.9,0
			c1.7,1,3.2,2.4,4.1,4.2c2,3.7,2,8.2,0,11.9c-1,1.7-2.4,3.2-4.1,4.1C308.5,79.9,304,79.9,300.3,77.9L300.3,77.9z M310.6,75.3
			c1.3-0.7,2.3-1.8,3-3.1c1.4-2.8,1.4-6.1,0-8.9c-0.7-1.3-1.7-2.4-3-3.1c-2.7-1.5-6-1.5-8.6,0c-1.3,0.7-2.3,1.8-3,3.1
			c-1.5,2.8-1.5,6.1,0,8.9c0.7,1.3,1.7,2.4,3,3.1C304.6,76.8,307.9,76.8,310.6,75.3z"/>
		<path class="st2" d="M338.8,57.6c1.7,1,3.2,2.4,4.1,4.1c1,1.8,1.5,3.9,1.5,6v8.5c0,2.1-0.5,4.2-1.5,6c-1,1.8-2.4,3.2-4.1,4.3
			c-1.8,1.1-3.8,1.6-5.9,1.6c-2,0-3.9-0.4-5.7-1.2c-1.6-0.8-3.1-1.9-4.2-3.4c-0.3-0.3-0.4-0.6-0.4-1c0-0.4,0.2-0.8,0.6-1.1
			c0.3-0.2,0.6-0.3,0.9-0.3c0.3,0,0.5,0.1,0.8,0.2c0.2,0.1,0.4,0.3,0.6,0.5c0.8,1.1,1.9,1.9,3.2,2.5c1.4,0.6,2.8,0.9,4.3,0.9
			c1.5,0,3-0.4,4.2-1.1c1.3-0.8,2.3-1.9,3-3.2c0.7-1.5,1.1-3.1,1.1-4.7v-1.8c-0.8,1.6-2,2.8-3.6,3.7c-1.6,0.9-3.4,1.4-5.2,1.3
			c-2,0-4-0.5-5.8-1.5c-1.7-1-3.1-2.4-4-4.1c-1-1.8-1.5-3.9-1.4-6c0-2.1,0.5-4.2,1.5-6c1-1.7,2.4-3.2,4.1-4.1
			C330.6,55.7,335.1,55.7,338.8,57.6L338.8,57.6z M337.2,75.3c1.3-0.7,2.3-1.8,3-3.1c1.5-2.8,1.5-6.2,0-9c-0.7-1.3-1.7-2.4-3-3.1
			c-1.3-0.8-2.8-1.2-4.3-1.1c-1.5,0-3,0.4-4.4,1.1c-1.3,0.7-2.3,1.8-3,3.1c-1.5,2.8-1.5,6.2,0,9c0.7,1.3,1.7,2.4,3,3.1
			c1.3,0.8,2.8,1.1,4.4,1.1C334.4,76.5,335.9,76.1,337.2,75.3z"/>
		<path class="st2" d="M367.9,57.7c0,0.3-0.1,0.5-0.2,0.8l-13.5,29.7c-0.1,0.6-0.6,1-1.2,1c-0.3,0-0.5-0.1-0.8-0.2
			c-0.6-0.1-1-0.7-1-1.2c0-0.3,0.1-0.5,0.2-0.8l4.1-9.1l0,0l-9.3-19.2c-0.1-0.2-0.2-0.5-0.2-0.8c0-0.6,0.4-1.1,0.9-1.2
			c0.2-0.1,0.5-0.2,0.8-0.2c0.6,0,1.1,0.3,1.2,0.9l8.1,17.1l7.7-17.1c0.2-0.5,0.7-0.9,1.2-0.9c0.3,0,0.5,0.1,0.8,0.2
			C367.4,56.7,367.8,57.1,367.9,57.7z"/>
	</g>
</g>
<g>
	<defs>
		<ellipse id="SVGID_5_" transform="matrix(0.1602 -0.9871 0.9871 0.1602 119.5209 276)" cx="222" cy="67.8" rx="40.8" ry="40.8"/>
	</defs>
	<clipPath id="SVGID_6_">
		<use xlink:href="#SVGID_5_"  style="overflow:visible;"/>
	</clipPath>
	<g class="st4">
		<path class="st2" d="M207.2,57.6c1.6,1,2.9,2.3,3.7,4c0.9,1.8,1.3,3.8,1.3,5.8c0,0.4-0.1,0.8-0.4,1.1c-0.3,0.3-0.7,0.4-1.1,0.4
			h-16.8c0.3,4.4,4.1,7.8,8.5,7.7c1,0,2-0.2,3-0.5c0.9-0.3,1.7-0.7,2.4-1.3c0.3-0.3,0.7-0.4,1.1-0.4c0.3,0,0.7,0.1,0.9,0.3
			c0.3,0.3,0.5,0.7,0.5,1.1c0,0.4-0.2,0.8-0.5,1c-1,0.9-2.2,1.5-3.5,1.9c-1.3,0.5-2.7,0.8-4.1,0.8c-2.1,0-4.1-0.5-5.9-1.5
			c-1.7-1-3.2-2.4-4.1-4.1c-1-1.8-1.5-3.9-1.5-6c0-2.1,0.4-4.1,1.4-6c0.9-1.7,2.2-3.1,3.9-4.1c1.7-1,3.7-1.5,5.6-1.5
			C203.7,56.2,205.6,56.6,207.2,57.6z M196.5,61c-1.4,1.4-2.3,3.2-2.5,5.2h15.2c-0.1-1.9-1-3.8-2.4-5.2c-1.4-1.3-3.2-2.1-5.1-2
			C199.8,58.9,197.9,59.7,196.5,61z"/>
		<path class="st0" d="M215.9,58.9c-0.3-0.3-0.5-0.7-0.5-1.1c0-0.4,0.1-0.9,0.4-1.2c0.3-0.3,0.7-0.5,1.1-0.5h9.8
			c0.9,0,1.6,0.6,1.6,1.5c0,0,0,0.1,0,0.1c0,0.4-0.2,0.8-0.5,1.1c-0.3,0.3-0.7,0.5-1.2,0.5h-9.8C216.6,59.4,216.2,59.2,215.9,58.9z"
			/>
		<path class="st2" d="M248.7,57.7c1.7,1,3.2,2.4,4.2,4.2c2,3.7,2,8.1,0,11.8c-0.9,1.7-2.3,3.2-4,4.2c-1.7,1-3.7,1.5-5.7,1.5
			c-1.7,0-3.4-0.4-4.9-1.2c-1.5-0.7-2.7-1.8-3.7-3.1v12.2c0,0.4-0.2,0.9-0.5,1.2c-0.3,0.3-0.7,0.5-1.2,0.5c-0.4,0-0.9-0.1-1.1-0.5
			c-0.3-0.3-0.5-0.7-0.4-1.2v-9.3c0-0.1,0-0.2,0-0.4v-9.8c0-2.1,0.5-4.1,1.5-5.9c1-1.7,2.4-3.2,4.2-4.2
			C240.7,55.7,245.1,55.7,248.7,57.7L248.7,57.7z M247.2,75.3c1.3-0.7,2.3-1.8,3-3.1c1.5-2.8,1.5-6.1,0-8.9c-0.7-1.3-1.7-2.4-3-3.1
			c-1.3-0.8-2.8-1.2-4.3-1.2c-3,0-5.8,1.6-7.3,4.3c-0.9,1.7-1.2,3.6-1.1,5.5c0,0.1,0,0.1,0,0.2c0.2,2.1,1.2,3.9,2.7,5.3
			c1.5,1.4,3.5,2.1,5.6,2.1C244.3,76.5,245.8,76.1,247.2,75.3L247.2,75.3z"/>
		<path class="st2" d="M261.6,78.5c-1.5-0.5-2.8-1.4-3.8-2.5c-0.3-0.3-0.4-0.6-0.4-1c0-0.5,0.3-1,0.7-1.2c0.3-0.2,0.6-0.4,1-0.4
			c0.5,0,0.9,0.2,1.2,0.6c0.7,0.8,1.6,1.4,2.6,1.8c1.2,0.4,2.4,0.6,3.6,0.6c1.5,0.1,3-0.2,4.4-1c0.9-0.6,1.5-1.5,1.5-2.6
			c0-1-0.6-2-1.5-2.5c-1.4-0.8-3-1.3-4.6-1.5c-2.2-0.2-4.3-1-6.1-2.3c-1.3-0.9-2-2.4-2-4c-0.1-1.9,0.8-3.7,2.4-4.7
			c1.7-1.2,3.8-1.7,5.9-1.7c1.6,0,3.3,0.3,4.8,0.9c1.3,0.6,2.4,1.5,3.3,2.6c0.2,0.3,0.3,0.6,0.3,1c0,0.5-0.3,0.9-0.7,1.1
			c-0.2,0.2-0.5,0.2-0.8,0.2c-0.6,0-1.1-0.2-1.5-0.6c-1.4-1.6-3.5-2.4-5.6-2.3c-1.3-0.1-2.6,0.3-3.7,0.9c-1.3,0.8-1.8,2.5-1,3.8
			c0.2,0.4,0.5,0.7,0.9,0.9c1.4,0.8,3,1.3,4.6,1.4c3,0.5,5.1,1.3,6.4,2.4c1.2,1,1.9,2.6,1.9,4.2c0,1.2-0.4,2.4-1.1,3.4
			c-0.8,1.1-1.9,1.9-3.2,2.3c-1.5,0.6-3,0.9-4.6,0.8C264.8,79.3,263.2,79.1,261.6,78.5z"/>
		<path class="st2" d="M298.8,57.7c0,0.3-0.1,0.5-0.2,0.8l-13.5,29.7c-0.1,0.6-0.6,1-1.2,1c-0.3,0-0.5-0.1-0.8-0.2
			c-0.6-0.1-1-0.7-1-1.2c0-0.3,0.1-0.5,0.2-0.8l4.1-9.1l0,0l-9.3-19.2c-0.1-0.2-0.2-0.5-0.2-0.8c0-0.6,0.4-1.1,0.9-1.2
			c0.2-0.1,0.5-0.2,0.8-0.2c0.6,0,1.1,0.3,1.2,0.9l8.1,17.1l7.7-17.1c0.2-0.5,0.7-0.9,1.2-0.9c0.3,0,0.5,0.1,0.8,0.2
			C298.3,56.7,298.7,57.1,298.8,57.7z"/>
		<path class="st2" d="M304.4,77.8c-1.7-1-3.1-2.4-4.1-4.2c-1-1.8-1.5-3.8-1.5-5.9c0-2.1,0.4-4.2,1.4-6c0.9-1.7,2.3-3.1,3.9-4.1
			c1.7-1,3.7-1.5,5.6-1.5c3.3-0.1,6.4,1.4,8.5,4c0.2,0.2,0.3,0.5,0.3,0.9c0,0.5-0.3,0.9-0.7,1.2c-0.2,0.2-0.5,0.2-0.8,0.2
			c-0.5,0-0.9-0.3-1.2-0.6c-0.8-0.9-1.7-1.6-2.8-2.1c-1-0.5-2.2-0.7-3.3-0.7c-1.4,0-2.9,0.4-4.1,1.1c-1.2,0.7-2.2,1.8-2.8,3.1
			c-0.7,1.4-1,2.9-1,4.5c0,1.5,0.3,3.1,1,4.4c0.7,1.3,1.7,2.4,2.9,3.1c1.3,0.8,2.8,1.1,4.3,1.1c2,0.1,3.9-0.5,5.4-1.8
			c0.3-0.3,0.7-0.4,1.1-0.5c0.8,0,1.5,0.7,1.5,1.5c0,0.4-0.1,0.7-0.4,0.9c-2.1,1.9-4.8,2.9-7.6,2.8
			C308.2,79.4,306.2,78.8,304.4,77.8z"/>
		<path class="st2" d="M340,57.4c1.5,0.8,2.8,2.1,3.7,3.6c0.9,1.8,1.4,3.7,1.3,5.7v10.8c0,0.9-0.7,1.6-1.6,1.6c0,0,0,0,0,0
			c-0.4,0-0.9-0.2-1.2-0.5c-0.3-0.3-0.5-0.7-0.5-1.1V66.7c0.1-2.1-0.6-4.1-2.1-5.7c-1.5-1.3-3.4-2-5.4-1.9c-1.3,0-2.5,0.2-3.7,0.8
			c-1,0.5-1.9,1.2-2.6,2.2c-0.6,0.9-1,2-1,3.1v12.3c0,0.4-0.1,0.8-0.4,1.1c-0.3,0.3-0.7,0.5-1.1,0.4c-0.4,0-0.9-0.1-1.2-0.4
			c-0.3-0.3-0.5-0.7-0.5-1.1V48.2c0-0.9,0.7-1.6,1.5-1.6c0,0,0.1,0,0.1,0c0.4,0,0.8,0.1,1.1,0.5c0.3,0.3,0.5,0.7,0.4,1.2v11.2
			c0.9-1,2.1-1.9,3.4-2.4c1.3-0.6,2.8-0.9,4.2-0.9C336.5,56.1,338.3,56.5,340,57.4z"/>
		<path class="st2" d="M354.9,77.9c-1.7-1-3.2-2.4-4.1-4.2c-1-1.8-1.5-3.9-1.5-5.9c0-2.1,0.5-4.2,1.5-6c1-1.7,2.4-3.2,4.1-4.2
			c3.7-2,8.2-2,11.9,0c1.7,1,3.2,2.4,4.1,4.2c2,3.7,2,8.2,0,11.9c-1,1.7-2.4,3.2-4.1,4.2C363,79.8,358.6,79.8,354.9,77.9L354.9,77.9
			z M365.2,75.3c1.3-0.7,2.3-1.8,3-3.1c1.4-2.8,1.4-6.1,0-8.9c-0.7-1.3-1.7-2.4-3-3.1c-2.7-1.5-6-1.5-8.6,0c-1.3,0.7-2.3,1.8-3,3.1
			c-1.5,2.8-1.5,6.1,0,8.9c0.7,1.3,1.7,2.4,3,3.1C359.2,76.8,362.5,76.8,365.2,75.3z"/>
		<path class="st2" d="M377.8,77.1c-1.1-1.5-1.7-3.3-1.6-5.2V48.2c0-0.4,0.2-0.8,0.5-1.2c0.6-0.6,1.6-0.6,2.3,0
			c0.3,0.3,0.5,0.7,0.4,1.2v23.7c0,1,0.2,2,0.7,2.9c0.4,0.7,1.1,1.1,1.9,1.1h1c0.4,0,0.7,0.1,1,0.4c0.3,0.3,0.4,0.7,0.4,1.2
			c0,0.4-0.2,0.9-0.5,1.1c-0.4,0.3-0.9,0.5-1.4,0.4H382C380.4,79.2,378.8,78.4,377.8,77.1z"/>
		<path class="st2" d="M390.9,77.9c-1.7-1-3.2-2.4-4.1-4.2c-1-1.8-1.5-3.9-1.5-5.9c0-2.1,0.5-4.2,1.5-6c1-1.7,2.4-3.2,4.1-4.2
			c3.7-2,8.2-2,11.9,0c1.7,1,3.2,2.4,4.1,4.2c2,3.7,2,8.2,0,11.9c-1,1.7-2.4,3.2-4.1,4.2C399.1,79.8,394.6,79.8,390.9,77.9
			L390.9,77.9z M401.2,75.3c1.3-0.7,2.3-1.8,3-3.1c1.4-2.8,1.4-6.1,0-8.9c-0.7-1.3-1.7-2.4-3-3.1c-2.7-1.5-6-1.5-8.6,0
			c-1.3,0.7-2.3,1.8-3,3.1c-1.5,2.8-1.5,6.1,0,8.9c0.7,1.3,1.7,2.4,3,3.1C395.2,76.8,398.5,76.8,401.2,75.3z"/>
		<path class="st2" d="M429.4,57.6c1.7,1,3.2,2.4,4.1,4.1c1,1.8,1.5,3.9,1.5,6v8.5c0,2.1-0.5,4.2-1.5,6c-1,1.8-2.4,3.2-4.1,4.3
			c-1.8,1.1-3.8,1.6-5.9,1.6c-2,0-3.9-0.4-5.7-1.2c-1.6-0.8-3.1-1.9-4.2-3.4c-0.3-0.3-0.4-0.6-0.4-1c0-0.4,0.2-0.8,0.6-1.1
			c0.3-0.2,0.6-0.3,0.9-0.3c0.3,0,0.5,0.1,0.8,0.2c0.2,0.1,0.4,0.3,0.6,0.5c0.8,1.1,1.9,1.9,3.2,2.5c1.4,0.6,2.8,0.9,4.3,0.9
			c1.5,0,3-0.4,4.2-1.1c1.3-0.8,2.3-1.9,3-3.2c0.7-1.5,1.1-3.1,1.1-4.7v-1.8c-0.8,1.6-2,2.8-3.6,3.7c-1.6,0.9-3.4,1.4-5.2,1.3
			c-2,0-4-0.5-5.8-1.5c-1.7-1-3.1-2.4-4-4.1c-1-1.8-1.5-3.9-1.4-6c0-2.1,0.5-4.2,1.5-6c1-1.7,2.4-3.2,4.1-4.1
			C421.2,55.7,425.7,55.7,429.4,57.6L429.4,57.6z M427.8,75.3c1.3-0.7,2.3-1.8,3-3.1c1.5-2.8,1.5-6.2,0-9c-0.7-1.3-1.7-2.4-3-3.1
			c-1.3-0.8-2.8-1.2-4.3-1.1c-1.5,0-3,0.4-4.4,1.1c-1.3,0.7-2.3,1.8-3,3.1c-1.5,2.8-1.5,6.2,0,9c0.7,1.3,1.7,2.4,3,3.1
			c1.3,0.8,2.8,1.1,4.4,1.1C425,76.5,426.5,76.1,427.8,75.3z"/>
		<path class="st2" d="M458.5,57.7c0,0.3-0.1,0.5-0.2,0.8l-13.5,29.7c-0.1,0.6-0.6,1-1.2,1c-0.3,0-0.5-0.1-0.8-0.2
			c-0.6-0.1-1-0.7-1-1.2c0-0.3,0.1-0.5,0.2-0.8l4.1-9.1l0,0l-9.3-19.2c-0.1-0.2-0.2-0.5-0.2-0.8c0-0.6,0.4-1.1,0.9-1.2
			c0.2-0.1,0.5-0.2,0.8-0.2c0.6,0,1.1,0.3,1.2,0.9l8.1,17.1l7.7-17.1c0.2-0.5,0.7-0.9,1.2-0.9c0.3,0,0.5,0.1,0.8,0.2
			C458,56.7,458.4,57.1,458.5,57.7z"/>
		<path class="st0" d="M223.1,63.8c-0.3,0.3-0.7,0.5-1.1,0.5c-0.4,0-0.8-0.1-1.2-0.4c-0.3-0.3-0.5-0.7-0.5-1.1v-9.8
			c0-0.9,0.7-1.6,1.6-1.6c0.4,0,0.8,0.2,1.1,0.5c0.3,0.3,0.5,0.7,0.5,1.2v9.8C223.6,63.1,223.4,63.5,223.1,63.8z"/>
	</g>
</g>
<g>
	<defs>
		<circle id="SVGID_7_" cx="312.5" cy="67.8" r="40.8"/>
	</defs>
	<clipPath id="SVGID_8_">
		<use xlink:href="#SVGID_7_"  style="overflow:visible;"/>
	</clipPath>
	<g class="st5">
		<path class="st2" d="M297.8,56.3c1.6,1,2.9,2.3,3.7,4c0.9,1.8,1.3,3.7,1.3,5.7c0,0.4-0.1,0.8-0.4,1.1c-0.3,0.3-0.7,0.4-1.1,0.4
			h-16.8c0.3,4.4,4.1,7.8,8.5,7.7c1,0,2-0.2,3-0.5c0.9-0.3,1.7-0.7,2.4-1.3c0.3-0.3,0.7-0.4,1.1-0.4c0.3,0,0.7,0.1,0.9,0.3
			c0.3,0.3,0.5,0.7,0.5,1.1c0,0.4-0.2,0.8-0.5,1c-1,0.9-2.2,1.5-3.5,1.9c-1.3,0.5-2.7,0.7-4,0.7c-2.1,0-4.2-0.5-6-1.5
			c-1.7-1-3.2-2.4-4.1-4.1c-1-1.8-1.5-3.9-1.5-6c0-2.1,0.4-4.1,1.4-6c0.9-1.7,2.2-3.1,3.9-4.1c1.7-1,3.7-1.5,5.6-1.5
			C294.3,54.8,296.2,55.3,297.8,56.3z M287.1,59.7c-1.4,1.4-2.3,3.2-2.5,5.2h15.2c-0.1-1.9-1-3.8-2.3-5.2c-1.4-1.3-3.2-2.1-5.1-2
			C290.4,57.6,288.5,58.3,287.1,59.7z"/>
		<path class="st0" d="M306.5,57.6c-0.3-0.3-0.5-0.7-0.5-1.1c0-0.4,0.1-0.8,0.4-1.2c0.3-0.3,0.7-0.5,1.1-0.5h9.8
			c0.9,0,1.6,0.6,1.6,1.5c0,0,0,0.1,0,0.1c0,0.4-0.2,0.8-0.5,1.1c-0.3,0.3-0.7,0.5-1.2,0.5h-9.8C307.2,58.1,306.8,57.9,306.5,57.6z"
			/>
		<path class="st2" d="M339.3,56.4c1.7,1,3.2,2.4,4.2,4.2c2,3.7,2,8.1,0,11.8c-0.9,1.7-2.3,3.2-4,4.2c-1.7,1-3.7,1.5-5.7,1.5
			c-1.7,0-3.4-0.4-5-1.2c-1.5-0.7-2.7-1.8-3.7-3.1V86c0,0.9-0.7,1.6-1.5,1.6c0,0-0.1,0-0.1,0c-0.4,0-0.8-0.1-1.1-0.5
			c-0.3-0.3-0.5-0.7-0.4-1.2v-9.4c0-0.1,0-0.2,0-0.4v-9.8c0-2.1,0.5-4.1,1.5-5.9c1-1.7,2.4-3.2,4.2-4.2
			C331.2,54.3,335.7,54.3,339.3,56.4L339.3,56.4z M337.7,74c1.3-0.7,2.3-1.8,3-3.1c1.5-2.8,1.5-6.1,0-8.9c-0.7-1.3-1.7-2.4-3-3.1
			c-1.3-0.8-2.8-1.2-4.3-1.2c-3,0-5.8,1.6-7.3,4.2c-0.9,1.7-1.2,3.6-1.1,5.5c0,0.1,0,0.1,0,0.2c0.2,2.1,1.2,3.9,2.8,5.3
			c1.5,1.4,3.5,2.1,5.6,2.1C334.9,75.1,336.4,74.7,337.7,74z"/>
		<path class="st2" d="M352.2,77.2c-1.5-0.5-2.8-1.3-3.8-2.5c-0.3-0.3-0.4-0.6-0.4-1c0-0.5,0.3-1,0.7-1.2c0.3-0.2,0.6-0.4,1-0.4
			c0.5,0,0.9,0.2,1.2,0.6c0.7,0.8,1.6,1.4,2.6,1.8c1.2,0.4,2.4,0.6,3.6,0.6c1.5,0.1,3.1-0.2,4.4-1c0.9-0.5,1.5-1.5,1.5-2.6
			c0-1-0.6-2-1.5-2.5c-1.4-0.8-3-1.3-4.6-1.5c-2.2-0.2-4.3-1-6.1-2.3c-1.3-0.9-2-2.4-2-4c-0.1-1.9,0.8-3.7,2.4-4.7
			c1.7-1.1,3.8-1.7,5.8-1.6c1.6,0,3.3,0.3,4.8,0.9c1.3,0.6,2.4,1.5,3.3,2.6c0.2,0.3,0.3,0.6,0.3,1c0,0.5-0.3,0.9-0.7,1.1
			c-0.2,0.2-0.5,0.2-0.8,0.2c-0.6,0-1.1-0.2-1.5-0.6c-1.4-1.6-3.4-2.4-5.5-2.4c-1.3-0.1-2.6,0.3-3.7,0.9c-1.3,0.8-1.8,2.5-1,3.8
			c0.2,0.4,0.5,0.7,0.9,0.9c1.4,0.8,3,1.3,4.6,1.4c3,0.5,5.1,1.3,6.4,2.4c1.2,1,1.9,2.6,1.9,4.2c0,1.2-0.4,2.4-1.1,3.4
			c-0.8,1.1-1.9,1.9-3.2,2.3c-1.5,0.6-3,0.9-4.6,0.8C355.5,78.1,353.8,77.8,352.2,77.2z"/>
		<path class="st2" d="M389.3,56.4c0,0.3-0.1,0.5-0.2,0.8l-13.5,29.7c-0.1,0.6-0.6,1-1.2,1c-0.3,0-0.5-0.1-0.8-0.2
			c-0.6-0.1-1-0.7-1-1.2c0-0.3,0.1-0.5,0.2-0.8l4.1-9.1l0,0l-9.3-19.2c-0.1-0.2-0.2-0.5-0.2-0.8c0-0.6,0.4-1.1,0.9-1.2
			c0.2-0.1,0.5-0.2,0.8-0.2c0.6,0,1.1,0.3,1.2,0.9l8.2,17l7.7-17.1c0.2-0.5,0.7-0.9,1.2-0.9c0.3,0,0.5,0.1,0.8,0.2
			C388.9,55.3,389.3,55.8,389.3,56.4z"/>
		<path class="st2" d="M395,76.5c-1.7-1-3.1-2.4-4-4.2c-1-1.8-1.5-3.8-1.5-5.9c0-2.1,0.5-4.2,1.4-6c0.9-1.7,2.3-3.1,3.9-4.1
			c1.7-1,3.7-1.5,5.6-1.5c3.3-0.1,6.4,1.4,8.5,4c0.2,0.2,0.3,0.5,0.3,0.9c0,0.5-0.3,0.9-0.7,1.2c-0.2,0.2-0.5,0.2-0.8,0.2
			c-0.5,0-0.9-0.3-1.2-0.6c-0.8-0.9-1.7-1.6-2.8-2.1c-1-0.5-2.2-0.7-3.3-0.7c-1.4,0-2.9,0.4-4.1,1.1c-1.2,0.7-2.2,1.8-2.8,3.1
			c-0.7,1.4-1,2.9-1,4.5c0,1.5,0.3,3.1,1,4.4c0.7,1.3,1.7,2.4,2.9,3.1c1.3,0.8,2.8,1.1,4.3,1.1c2,0.1,3.9-0.5,5.4-1.8
			c0.3-0.3,0.7-0.4,1.1-0.5c0.8,0,1.5,0.7,1.5,1.5c0,0.4-0.1,0.7-0.4,0.9c-2.1,1.9-4.8,2.9-7.6,2.8C398.8,78,396.8,77.5,395,76.5z"
			/>
		<path class="st2" d="M430.6,56c1.6,0.8,2.8,2.1,3.7,3.6c0.9,1.8,1.4,3.7,1.3,5.7v10.8c0,0.9-0.7,1.6-1.6,1.6c0,0,0,0,0,0
			c-0.4,0-0.9-0.2-1.2-0.5c-0.3-0.3-0.5-0.7-0.5-1.1V65.4c0.1-2.1-0.6-4.1-2.1-5.7c-1.5-1.3-3.4-2-5.4-1.9c-1.3,0-2.5,0.2-3.7,0.8
			c-1,0.5-1.9,1.2-2.6,2.2c-0.6,0.9-1,2-1,3.1v12.3c0,0.4-0.1,0.8-0.4,1.1c-0.3,0.3-0.7,0.5-1.1,0.4c-0.4,0-0.9-0.1-1.2-0.4
			c-0.3-0.3-0.5-0.7-0.5-1.1V46.9c0-0.9,0.7-1.6,1.5-1.6c0,0,0.1,0,0.1,0c0.4,0,0.9,0.1,1.1,0.5c0.3,0.3,0.5,0.7,0.4,1.2v11.2
			c0.9-1,2.1-1.9,3.4-2.4c1.3-0.6,2.8-0.9,4.2-0.9C427.1,54.8,428.9,55.2,430.6,56z"/>
		<path class="st2" d="M445.5,76.5c-1.7-1-3.2-2.4-4.1-4.1c-2-3.7-2-8.2,0-11.9c1-1.7,2.4-3.2,4.1-4.2c3.7-2,8.2-2,11.9,0
			c1.7,1,3.2,2.4,4.1,4.2c2,3.7,2,8.2,0,11.9c-1,1.7-2.4,3.2-4.1,4.1C453.6,78.5,449.2,78.5,445.5,76.5L445.5,76.5z M455.8,74
			c1.3-0.7,2.3-1.8,3-3.1c1.4-2.8,1.4-6.1,0-8.9c-0.7-1.3-1.7-2.4-3-3.1c-2.7-1.5-6-1.5-8.6,0c-1.3,0.7-2.3,1.8-3,3.1
			c-1.5,2.8-1.5,6.1,0,8.9c0.7,1.3,1.7,2.4,3,3.1C449.8,75.5,453.1,75.5,455.8,74z"/>
		<path class="st0" d="M313.7,62.5c-0.3,0.3-0.7,0.5-1.1,0.5c-0.4,0-0.8-0.1-1.2-0.4c-0.3-0.3-0.5-0.7-0.5-1.1v-9.8
			c0-0.9,0.6-1.6,1.5-1.6c0,0,0.1,0,0.1,0c0.4,0,0.8,0.2,1.1,0.5c0.3,0.3,0.5,0.7,0.5,1.2v9.8C314.2,61.8,314,62.2,313.7,62.5z"/>
		<path class="st0" d="M309.1,61.5c-0.4,0-0.8-0.2-1.1-0.5c-0.3-0.3-0.5-0.7-0.5-1.1c0-0.4,0.2-0.8,0.5-1.1l6.9-6.9
			c0.3-0.3,0.7-0.5,1.1-0.5c0.4,0,0.9,0.2,1.1,0.5c0.3,0.3,0.5,0.7,0.5,1.1c0,0.4-0.2,0.9-0.5,1.2l-6.9,6.9
			C309.9,61.4,309.5,61.5,309.1,61.5z"/>
		<path class="st0" d="M317.6,59.9c0,0.4-0.2,0.8-0.5,1.1c-0.3,0.3-0.7,0.5-1.1,0.5c-0.4,0-0.8-0.2-1.1-0.5l-6.9-6.9
			c-0.3-0.3-0.5-0.7-0.5-1.2c0-0.4,0.2-0.8,0.5-1.2c0.3-0.3,0.7-0.5,1.1-0.5c0.4,0,0.9,0.2,1.1,0.5l6.9,6.9
			C317.5,59.1,317.7,59.5,317.6,59.9z"/>
	</g>
</g>
<g>
	<defs>
		<circle id="SVGID_9_" cx="403.1" cy="70.8" r="40.8"/>
	</defs>
	<clipPath id="SVGID_10_">
		<use xlink:href="#SVGID_9_"  style="overflow:visible;"/>
	</clipPath>
	<g class="st6">
		<path class="st2" d="M388.4,56.7c1.6,1,2.9,2.3,3.7,4c0.9,1.8,1.3,3.8,1.3,5.8c0,0.4-0.1,0.8-0.4,1.1c-0.3,0.3-0.7,0.4-1.1,0.4
			h-16.8c0.3,4.4,4.1,7.8,8.5,7.7c1,0,2-0.2,3-0.5c0.9-0.3,1.7-0.7,2.4-1.4c0.3-0.3,0.7-0.4,1.1-0.4c0.3,0,0.7,0.1,0.9,0.3
			c0.3,0.3,0.5,0.7,0.5,1.1c0,0.4-0.2,0.8-0.5,1c-1,0.9-2.2,1.5-3.5,1.9c-3.3,1.2-6.9,1-10-0.7c-1.7-1-3.2-2.4-4.1-4.1
			c-1-1.8-1.5-3.9-1.5-6c0-2.1,0.4-4.1,1.4-6c0.9-1.7,2.2-3.1,3.9-4.1c1.7-1,3.7-1.6,5.7-1.5C384.9,55.3,386.8,55.8,388.4,56.7z
			 M377.7,60.1c-1.4,1.4-2.3,3.2-2.5,5.2h15.2c-0.1-1.9-1-3.8-2.3-5.2c-1.4-1.3-3.2-2.1-5.1-2C381,58.1,379.1,58.8,377.7,60.1
			L377.7,60.1z"/>
		<path class="st2" d="M429.9,56.8c1.7,1,3.2,2.4,4.2,4.2c1,1.8,1.5,3.8,1.5,5.9c0,2.1-0.5,4.1-1.5,5.9c-2,3.5-5.7,5.7-9.8,5.7
			c-1.7,0-3.4-0.4-5-1.1c-1.5-0.7-2.7-1.8-3.7-3.2v12.2c0,0.4-0.1,0.9-0.5,1.2c-0.3,0.3-0.7,0.5-1.2,0.5c-0.4,0-0.8-0.1-1.1-0.5
			c-0.3-0.3-0.5-0.7-0.4-1.2v-9.3c0-0.1,0-0.3,0-0.4v-9.8c0-2.1,0.5-4.1,1.6-5.9c1-1.8,2.4-3.2,4.2-4.2
			C421.8,54.8,426.3,54.8,429.9,56.8L429.9,56.8z M428.3,74.5c1.3-0.7,2.3-1.8,3-3.1c1.5-2.8,1.5-6.1,0-8.9c-0.7-1.3-1.7-2.4-3-3.1
			c-1.3-0.8-2.8-1.2-4.3-1.1c-3,0-5.9,1.6-7.3,4.3c-0.9,1.7-1.2,3.6-1,5.5c0,0.1,0,0.1,0,0.2c0.2,2.1,1.2,4,2.7,5.3
			c1.5,1.4,3.5,2.1,5.6,2.1C425.5,75.6,427,75.2,428.3,74.5L428.3,74.5z"/>
		<path class="st2" d="M442.8,77.6c-1.5-0.5-2.8-1.3-3.8-2.5c-0.3-0.3-0.4-0.6-0.4-1c0-0.5,0.3-1,0.7-1.2c0.3-0.2,0.7-0.4,1-0.4
			c0.5,0,0.9,0.2,1.2,0.6c0.7,0.8,1.6,1.5,2.6,1.9c1.2,0.4,2.4,0.6,3.6,0.6c1.5,0.1,3-0.2,4.4-1c0.9-0.6,1.5-1.6,1.5-2.6
			c0-1-0.6-2-1.5-2.5c-1.4-0.8-3-1.3-4.6-1.5c-2.2-0.2-4.3-1-6.1-2.3c-1.3-0.9-2-2.4-2-4c-0.1-1.9,0.8-3.6,2.4-4.7
			c1.7-1.2,3.8-1.8,5.9-1.7c1.6,0,3.3,0.3,4.8,0.9c1.3,0.6,2.4,1.5,3.3,2.6c0.2,0.3,0.3,0.6,0.3,1c0,0.5-0.3,0.9-0.7,1.1
			c-0.2,0.2-0.5,0.2-0.8,0.2c-0.6,0-1.1-0.2-1.5-0.6c-1.4-1.6-3.5-2.4-5.6-2.3c-1.3-0.1-2.6,0.3-3.7,0.9c-1.3,0.8-1.8,2.5-1,3.8
			c0.2,0.4,0.5,0.7,0.9,0.9c1.4,0.8,3,1.3,4.6,1.4c3,0.5,5.1,1.3,6.4,2.4c1.2,1,1.9,2.6,1.9,4.2c0,1.2-0.4,2.4-1.1,3.4
			c-0.8,1-1.9,1.9-3.2,2.3c-1.5,0.6-3,0.9-4.6,0.8C446,78.5,444.3,78.2,442.8,77.6z"/>
		<path class="st0" d="M408,58.5h-1l0.7,0.7c0.3,0.3,0.5,0.7,0.5,1.1c0,0.4-0.2,0.8-0.5,1.1c-0.3,0.3-0.7,0.5-1.1,0.5
			c-0.4,0-0.8-0.2-1.1-0.5l-0.7-0.7v1c0,0.9-0.7,1.6-1.5,1.6c0,0,0,0-0.1,0c-0.4,0-0.8-0.1-1.1-0.3c-0.3-0.3-0.5-0.7-0.5-1.1v-1
			l-0.7,0.7c-0.3,0.3-0.7,0.5-1.1,0.5c-0.4,0-0.8-0.2-1.1-0.5c-0.3-0.3-0.5-0.7-0.5-1.1c0-0.4,0.2-0.8,0.5-1.1l0.7-0.7h-1
			c-0.4,0-0.8-0.2-1.1-0.5c-0.3-0.3-0.5-0.7-0.5-1.1c0-0.4,0.1-0.8,0.4-1.2c0.3-0.3,0.7-0.5,1.1-0.5h1l-0.7-0.7
			c-0.3-0.3-0.5-0.7-0.5-1.2c0-0.4,0.2-0.8,0.5-1.2c0.3-0.3,0.7-0.5,1.1-0.5c0.4,0,0.8,0.2,1.1,0.5l0.7,0.7V52
			c0-0.9,0.6-1.6,1.5-1.6c0,0,0.1,0,0.1,0c0.4,0,0.8,0.2,1.1,0.5c0.3,0.3,0.5,0.7,0.5,1.2v1l0.7-0.7c0.3-0.3,0.7-0.5,1.1-0.5
			c0.4,0,0.9,0.2,1.1,0.5c0.3,0.3,0.5,0.7,0.5,1.1c0,0.4-0.2,0.9-0.5,1.2l-0.7,0.7h1c0.4,0,0.9,0.2,1.2,0.5c0.3,0.3,0.5,0.7,0.5,1.2
			c0,0.4-0.2,0.8-0.5,1.1C408.9,58.3,408.4,58.5,408,58.5z M403.1,55.3c-0.9,0-1.6,0.7-1.6,1.6s0.7,1.6,1.6,1.6
			c0.9,0,1.6-0.7,1.6-1.6c0,0,0,0,0,0C404.7,56,404,55.3,403.1,55.3L403.1,55.3z"/>
	</g>
</g>
<circle class="st7" cx="40.8" cy="58.8" r="25.4"/>
<circle class="st7" cx="131.4" cy="58.4" r="25.4"/>
<circle class="st7" cx="222" cy="58.4" r="25.4"/>
<circle class="st7" cx="312.5" cy="57.4" r="25.4"/>
<circle class="st7" cx="403.1" cy="57.4" r="25.4"/>
</svg>
