<svg id="Layer_1" data-name="Layer 1" xmlns="http://www.w3.org/2000/svg" viewBox="0 0 171 84"><defs><style>.cls-1{fill:none;stroke:#4584ae;stroke-miterlimit:10;stroke-width:0.69px;}</style></defs><title>about_us_3</title><path class="cls-1" d="M153,50.46h-5.42l4,4a8.46,8.46,0,0,1,0,12.11,8.73,8.73,0,0,1-6.14,2.79,8.14,8.14,0,0,1-6.13-2.63l-4-4v5.65A8.47,8.47,0,0,1,126.77,77a8.79,8.79,0,0,1-6.32-2.37,8.19,8.19,0,0,1-2.48-6.2V62.74l-4,4a8.48,8.48,0,0,1-12.12,0,8.81,8.81,0,0,1-2.79-6.13,8.18,8.18,0,0,1,2.63-6.14l4-4h-5.65a8.47,8.47,0,0,1-8.57-8.56,8.79,8.79,0,0,1,2.37-6.32,8.19,8.19,0,0,1,6.2-2.48h5.65l-3.84-3.83a8.49,8.49,0,0,1,0-12.44,8.28,8.28,0,0,1,6.06-2.55A8.59,8.59,0,0,1,114.14,17L118,20.83V15.4a8.49,8.49,0,0,1,8.8-8.79,8.27,8.27,0,0,1,6.08,2.48,8.54,8.54,0,0,1,2.48,6.31v5.43L139.17,17a8.48,8.48,0,0,1,12.43,0,8.31,8.31,0,0,1,2.55,6.06,8.55,8.55,0,0,1-2.71,6.22l-3.83,3.83H153a8.49,8.49,0,0,1,8.79,8.8A8.24,8.24,0,0,1,159.34,48,8.52,8.52,0,0,1,153,50.46ZM126.65,33.1a8.68,8.68,0,1,0,8.68,8.68A8.68,8.68,0,0,0,126.65,33.1Z"/><path class="cls-1" d="M9.18,42.11a8.82,8.82,0,0,1,2.38-6.35,8.23,8.23,0,0,1,6.24-2.49H71.1A8.52,8.52,0,0,1,80,42.11a8.33,8.33,0,0,1-2.49,6.13,8.64,8.64,0,0,1-6.36,2.49H17.8a8.5,8.5,0,0,1-8.62-8.62"/><path class="cls-1" d="M50.8,74.89a8.29,8.29,0,0,1-6.12,2.5A8.85,8.85,0,0,1,38.33,75a8.22,8.22,0,0,1-2.5-6.24V15.46a8.55,8.55,0,0,1,8.85-8.85,8.29,8.29,0,0,1,6.12,2.5,8.57,8.57,0,0,1,2.5,6.35V68.77A8.29,8.29,0,0,1,50.8,74.89Z"/><path class="cls-1" d="M25.72,69.67a8.29,8.29,0,0,1-6.1-2.57,8.82,8.82,0,0,1-2.81-6.17,8.25,8.25,0,0,1,2.65-6.18l37.7-37.69a8.53,8.53,0,0,1,12.51,0,8.32,8.32,0,0,1,2.56,6.09,8.63,8.63,0,0,1-2.72,6.26L31.81,67.1A8.29,8.29,0,0,1,25.72,69.67Z"/><path class="cls-1" d="M72.23,60.85a8.28,8.28,0,0,1-2.56,6.09,8.86,8.86,0,0,1-6.18,2.81,8.23,8.23,0,0,1-6.17-2.65L19.62,29.41a8.53,8.53,0,0,1,0-12.51,8.31,8.31,0,0,1,6.1-2.57A8.58,8.58,0,0,1,32,17.06l37.7,37.69A8.28,8.28,0,0,1,72.23,60.85Z"/></svg>