<svg xmlns="http://www.w3.org/2000/svg" viewBox="0 0 619 1000"><defs><style>.cls-1{isolation:isolate;}.cls-2{fill:#a6a8ab;}.cls-3{fill:#4584ae;}.cls-4,.cls-7{opacity:0.5;}.cls-5{opacity:0.75;}.cls-6{fill:#662d91;}.cls-7{mix-blend-mode:multiply;}.cls-8{fill:#00a79d;}</style></defs><title>about_us_1</title><g class="cls-1"><g id="Layer_1" data-name="Layer 1"><g id="_1I1Ezv" data-name="1I1Ezv"><path class="cls-2" d="M555.83,382.5c3.5,3.48,6.95,6.89,10.37,10.31,6.58,6.56,13.18,13.11,19.71,19.72,3.34,3.38,4.39,7.47,2.68,11.93a11.17,11.17,0,0,1-18.65,3.87q-14.4-14.4-28.83-28.79c-.36-.36-.66-.8-1-1.21-16.71,11-34.57,13.9-53.5,8.21a59.13,59.13,0,0,1-33.21-24.4c-18-27.19-12.45-60.56,9.3-80.47,22.48-20.59,56-22.59,81.23-2.5,12.6,10,19.85,23.42,22.18,39.31S565,369,555.83,382.5Zm-11.6-35.22c.34-21.57-18.21-39.55-39.48-39.56s-39.56,18.19-39.56,39.56,18,39.56,39.56,39.56S544.56,368.77,544.23,347.28Z"/></g><g id="gkowni"><path class="cls-3" d="M260.83,567.24c2-5.07,4.34-10.14,9.65-12.39a30.63,30.63,0,0,1,11.33-2.67c33.77-.2,67.54,0,101.31-.19,13.37-.08,21.11,10.11,21.07,21.13q-.37,98.8,0,197.61c.05,12.14-9,21.31-21,21.21-33.77-.28-67.54-.08-101.31-.11-10.75,0-16.74-4.27-20.48-14.39-.09-.26-.37-.44-.57-.66ZM274,729.08H390.77V592.48H274Zm-.11,13.41c0,9.81,0,19.28,0,28.75,0,5.2,2.2,7.5,7.35,7.51q51.26,0,102.53,0c5,0,7.19-2.36,7.21-7.34q0-13.29,0-26.57a22.9,22.9,0,0,0-.24-2.34Zm0-163.51H391c0-1.13,0-2.06,0-3,0-1.67.09-3.34,0-5-.32-4-2.89-5.82-8.07-5.83H281.93a20.67,20.67,0,0,0-2.49.14,5.8,5.8,0,0,0-5.46,5.44C273.81,573.43,273.94,576.12,273.94,579Z"/><path class="cls-3" d="M454.64,685.49v-7.34H410.5V660.69H556.27c1.05,0,2.09,0,3.13,0,3.34-.16,4.26-1,4.28-4.4,0-9.48,0-19,0-28.45q0-46.44,0-92.88c0-5.61-.42-6-6.07-6H369.06c-5.48,0-6.19.74-6.2,6.37v12.34H345.47c.46-8.36-1.59-16.93,2.54-24.82,3.7-7.08,9.73-10.9,17.82-11.25.93,0,1.87,0,2.81,0q94.76,0,189.5,0c9.29,0,16.51,3.28,20.69,11.71a21.06,21.06,0,0,1,2.15,9q.21,62.7.06,125.4c0,11-8.63,20.22-19.58,20.33-28.25.28-56.49.16-84.74.2h-4.3v7.42c8.05,0,16.06-.1,24.05,0,7,.11,11.16,7.19,7.72,13a8.31,8.31,0,0,1-7.46,4.36q-33.62.06-67.23,0a8.5,8.5,0,0,1-8.64-8.78,8.58,8.58,0,0,1,8.84-8.59c7.09-.1,14.18,0,21.26,0Z"/><path class="cls-3" d="M332.39,745.6A13.31,13.31,0,1,1,319.12,759,13.64,13.64,0,0,1,332.39,745.6Z"/></g><g class="cls-4"><g id="I4Y4rf" class="cls-5"><path class="cls-6" d="M59.48,153.37H9.27c-5.95,0-9.39-3.51-9.27-9.45a59.45,59.45,0,0,1,118.05-9.11,65.47,65.47,0,0,1,.86,9.89c.11,5.07-3.56,8.65-8.63,8.66Q84.89,153.39,59.48,153.37Z"/><path class="cls-6" d="M93.43,34.41a34,34,0,0,1-67.94.29C25.37,15.86,40.45.42,59,.37A33.87,33.87,0,0,1,93.43,34.41Z"/></g><g class="cls-5"><circle class="cls-6" cx="145.53" cy="85.51" r="10.22"/><circle class="cls-6" cx="172.8" cy="85.51" r="10.22"/><circle class="cls-6" cx="200.06" cy="85.51" r="10.22"/><circle class="cls-6" cx="227.32" cy="85.51" r="10.22"/><g id="W9nU3k"><path class="cls-6" d="M344.3,74l-1.16-1.16Q333.06,62.73,323,52.64a10.81,10.81,0,0,1,8.33-18.52,10.5,10.5,0,0,1,6.95,3.16l30.57,30.58c2.45,2.45,4.9,4.92,7.37,7.36,1.28,1.27,2.86,2.34,3.85,3.8,3.07,4.51,2.29,10.07-1.82,14.22-6.69,6.75-13.43,13.46-20.15,20.18q-11.59,11.6-23.22,23.19c-4.08,4-9.81,4.6-14.23,1.47a10.81,10.81,0,0,1-1.18-16.68q12.12-12.2,24.29-24.33c.35-.36.71-.71,1.06-1.06l-.14-.34c-1.5,0-3,.06-4.49.06H229.09a10.84,10.84,0,1,1,0-21.67H342.9C343.27,74.06,343.64,74,344.3,74Z"/></g></g><g class="cls-5"><path class="cls-6" d="M502.36,34.64a53.74,53.74,0,0,1,20.17,21.77q7.19,13.91,7.18,31.68a7.65,7.65,0,0,1-2.28,5.82,8.25,8.25,0,0,1-5.92,2.16H429.42q1.83,18.69,14.59,30.32T475.92,138a50.79,50.79,0,0,0,16.53-2.85A40.06,40.06,0,0,0,505.78,128a9.94,9.94,0,0,1,6.15-2.28,8.49,8.49,0,0,1,5,1.83,8.22,8.22,0,0,1,3,6.15,6.92,6.92,0,0,1-2.5,5.24,61.92,61.92,0,0,1-19.15,10.6,65.24,65.24,0,0,1-22.34,4.22q-18.24,0-32.59-8.09a57.72,57.72,0,0,1-22.45-22.57q-8.1-14.47-8.1-32.71,0-18.45,7.64-32.93a56.29,56.29,0,0,1,21.2-22.57q13.56-8.08,30.88-8.09Q489.38,26.78,502.36,34.64ZM443.78,53.22q-11.4,10.72-13.9,28.26H513.3q-1.83-17.53-12.76-28.26t-28-10.71Q455.17,42.51,443.78,53.22Z"/><path class="cls-6" d="M618.61,35.67a8.35,8.35,0,0,1-2.51,6.15,8.63,8.63,0,0,1-6.38,2.51h-5.49l4,4a8.56,8.56,0,0,1,0,12.25,8.9,8.9,0,0,1-6.2,2.82,8.29,8.29,0,0,1-6.21-2.66l-4-4v5.71a8.54,8.54,0,0,1-8.66,8.66,8.86,8.86,0,0,1-6.38-2.39,8.28,8.28,0,0,1-2.51-6.27V56.74l-4,4a8.56,8.56,0,0,1-12.25,0,8.84,8.84,0,0,1-2.82-6.21,8.27,8.27,0,0,1,2.65-6.2l4-4h-5.71a8.57,8.57,0,0,1-8.66-8.66,8.85,8.85,0,0,1,2.4-6.38,8.26,8.26,0,0,1,6.26-2.51h5.71L558,22.9a8.58,8.58,0,0,1,0-12.57,8.36,8.36,0,0,1,6.12-2.58,8.68,8.68,0,0,1,6.29,2.74l3.87,3.88V8.89A8.59,8.59,0,0,1,583.16,0a8.37,8.37,0,0,1,6.16,2.51,8.64,8.64,0,0,1,2.5,6.38v5.48l3.88-3.88a8.57,8.57,0,0,1,12.57,0,8.36,8.36,0,0,1,2.58,6.12,8.6,8.6,0,0,1-2.74,6.28l-3.88,3.88h5.49a8.59,8.59,0,0,1,8.89,8.89m-35.56-8.89a8.78,8.78,0,1,0,8.77,8.78A8.78,8.78,0,0,0,583.05,26.78Z"/></g></g><g class="cls-7"><path class="cls-8" d="M587.61,962.51a8.93,8.93,0,0,1,6.83,2.93,10.88,10.88,0,0,1,2.7,7.69,11,11,0,0,1-3.46,8A82.34,82.34,0,0,1,540.59,1000a80.83,80.83,0,0,1-34.78-7.58,83.7,83.7,0,0,1-27.85-21,82,82,0,0,1-16.9-31H443.72a10.87,10.87,0,0,1-7.48-2.6,9.09,9.09,0,0,1-2.92-7.15,8.11,8.11,0,0,1,2.92-6.29,10.87,10.87,0,0,1,7.48-2.6h13.65q-.44-5.62-.43-8.67a106.69,106.69,0,0,1,.65-11.7H443.72a10.87,10.87,0,0,1-7.48-2.6,8.8,8.8,0,0,1-2.92-6.93,8.33,8.33,0,0,1,2.92-6.5,10.82,10.82,0,0,1,7.48-2.61h18.2a84.37,84.37,0,0,1,17.45-29.36,83.19,83.19,0,0,1,27.41-19.83,81.2,81.2,0,0,1,33.81-7.15q16.45,0,28.49,4.34t24.38,14.3a10.31,10.31,0,0,1,3.47,4,12.65,12.65,0,0,1,.87,4.87,9.18,9.18,0,0,1-3.15,7.16,10.56,10.56,0,0,1-7.26,2.81,11.8,11.8,0,0,1-7.58-2.81,63,63,0,0,0-17.34-11q-8.44-3.36-21.88-3.36a57.24,57.24,0,0,0-32.51,9.86,64.46,64.46,0,0,0-22.54,26.11h74.12a10.8,10.8,0,0,1,7.47,2.61,8.34,8.34,0,0,1,2.93,6.5,8.81,8.81,0,0,1-2.93,6.93,10.84,10.84,0,0,1-7.47,2.6H479.48a115.69,115.69,0,0,0-.87,11.7q0,3,.43,8.67h65.45a10.84,10.84,0,0,1,7.47,2.6,8.12,8.12,0,0,1,2.93,6.29,9.09,9.09,0,0,1-2.93,7.15,10.84,10.84,0,0,1-7.47,2.6H484a64.18,64.18,0,0,0,22.64,28.28,57.7,57.7,0,0,0,33.92,10.72q20.79,0,39.87-14.3A12.46,12.46,0,0,1,587.61,962.51Z"/></g></g></g></svg>