<?xml version="1.0" encoding="utf-8"?>
<!-- Generator: Adobe Illustrator 24.0.1, SVG Export Plug-In . SVG Version: 6.00 Build 0)  -->
<svg version="1.1" id="Capa_1" xmlns="http://www.w3.org/2000/svg" xmlns:xlink="http://www.w3.org/1999/xlink" x="0px" y="0px"
	 viewBox="0 0 435.2 435.2" style="enable-background:new 0 0 435.2 435.2;" xml:space="preserve">
<style type="text/css">
	.st0{fill:#FFFFFF;}
</style>
<title>audio</title>
<path class="st0" d="M356.9,224.8c0-8.5-6.9-15.4-15.4-15.4c-8.5,0-15.4,6.9-15.4,15.4c0,59.9-48.6,108.5-108.5,108.5
	s-108.5-48.6-108.5-108.5c0-8.5-6.9-15.4-15.4-15.4s-15.4,6.9-15.4,15.4c0,71.2,53.2,131.1,123.9,138.8v41h-55.8
	c-8.5,0-15.4,6.9-15.4,15.4c0,8.5,6.9,15.4,15.4,15.4h142.3c8.5,0,15.4-6.9,15.4-15.4c0-8.5-6.9-15.4-15.4-15.4H233v-41
	C303.6,355.8,356.9,295.9,356.9,224.8z"/>
<path class="st0" d="M217.6,0c-47.2,0.1-85.4,38.3-85.5,85.5v138.8c0,47.6,38.4,85.5,85.5,86c47.2-0.1,85.4-38.3,85.5-85.5V85.5
	C303,38.3,264.8,0.1,217.6,0z"/>
<g>
	<path class="st0" d="M67.5,396.4c-1.6,1.6-4.3,1.6-5.9,0l-22.7-22.7c-1.6-1.6-1.6-4.3,0-5.9l329-329c1.6-1.6,4.3-1.6,5.9,0
		l22.7,22.7c1.6,1.6,1.6,4.3,0,5.9L67.5,396.4z"/>
</g>
</svg>
