<svg id="Capa_1" data-name="Capa 1" xmlns="http://www.w3.org/2000/svg" viewBox="0 0 435.2 435.2"><defs><style>.cls-1{fill:#fff;}</style></defs><title>audio</title><path class="cls-1" d="M356.86,224.77a15.36,15.36,0,1,0-30.72,0,108.54,108.54,0,0,1-217.08,0,15.36,15.36,0,1,0-30.72,0c0,71.17,53.24,131.07,123.9,138.75v41H146.43a15.36,15.36,0,0,0,0,30.72H288.77a15.36,15.36,0,1,0,0-30.72H233v-41C303.62,355.84,356.86,295.94,356.86,224.77Z"/><path class="cls-1" d="M217.6,0a85.65,85.65,0,0,0-85.5,85.5V224.26c0,47.61,38.4,85.5,85.5,86a85.65,85.65,0,0,0,85.5-85.5V85.5A85.65,85.65,0,0,0,217.6,0Z"/></svg>