<?xml version="1.0" encoding="utf-8"?>
<!-- Generator: Adobe Illustrator 22.0.1, SVG Export Plug-In . SVG Version: 6.00 Build 0)  -->
<svg version="1.1" id="Capa_1" xmlns="http://www.w3.org/2000/svg" xmlns:xlink="http://www.w3.org/1999/xlink" x="0px" y="0px"
	 viewBox="0 0 482.9 482.9" style="enable-background:new 0 0 482.9 482.9;" xml:space="preserve">
<style type="text/css">
	.st0{fill:#CED4DA;}
</style>
<rect class="st0" width="482.9" height="482.9"/>
<g>
	<g>
		<path d="M240.4,252.5c0.3,0,0.6,0,0.9,0c0.1,0,0.2,0,0.4,0c0.2,0,0.4,0,0.6,0c17.2-0.3,31.1-6.3,41.4-17.9
			c22.6-25.5,18.8-69.1,18.4-73.3c-1.5-31.3-16.3-46.3-28.5-53.2c-9.1-5.2-19.7-8-31.6-8.3h-0.4c-0.1,0-0.2,0-0.2,0h-0.4
			c-6.5,0-19.3,1.1-31.6,8c-12.3,7-27.4,22-28.8,53.5c-0.4,4.2-4.2,47.8,18.4,73.3C209.3,246.1,223.2,252.2,240.4,252.5z
			 M196.3,162.7c0-0.2,0.1-0.4,0.1-0.5c1.9-42.1,31.8-46.6,44.6-46.6h0.2c0.1,0,0.3,0,0.5,0c15.8,0.4,42.8,6.8,44.6,46.6
			c0,0.2,0,0.4,0.1,0.5c0.1,0.4,4.2,40.3-14.5,61.3c-7.4,8.3-17.3,12.4-30.2,12.6c-0.1,0-0.2,0-0.3,0l0,0c-0.1,0-0.2,0-0.3,0
			c-12.9-0.1-22.8-4.2-30.2-12.6C192.3,203.1,196.3,163.1,196.3,162.7z"/>
		<path d="M362,324.9c0-0.1,0-0.1,0-0.2c0-0.5-0.1-0.9-0.1-1.5c-0.4-11.6-1.1-38.8-26.6-47.5c-0.2-0.1-0.4-0.1-0.6-0.2
			c-26.5-6.8-48.5-22-48.7-22.2c-3.6-2.5-8.5-1.6-11,1.9c-2.5,3.6-1.6,8.5,1.9,11c1,0.7,24.4,17,53.6,24.5
			c13.7,4.9,15.2,19.5,15.6,32.9c0,0.5,0,1,0.1,1.5c0.1,5.3-0.3,13.4-1.2,18.1c-9.5,5.4-46.8,24.1-103.5,24.1
			c-56.5,0-94-18.7-103.5-24.1c-0.9-4.7-1.4-12.9-1.2-18.1c0-0.5,0.1-0.9,0.1-1.5c0.4-13.4,1.9-28,15.6-32.9
			c29.2-7.5,52.6-23.8,53.6-24.5c3.6-2.5,4.5-7.5,1.9-11c-2.5-3.6-7.5-4.5-11-1.9c-0.2,0.2-22.1,15.4-48.7,22.2
			c-0.2,0.1-0.4,0.1-0.6,0.2c-25.5,8.7-26.2,35.9-26.6,47.5c0,0.5,0,1-0.1,1.5c0,0.1,0,0.1,0,0.2c-0.1,3.1-0.1,18.7,3,26.6
			c0.6,1.5,1.6,2.8,3.1,3.7c1.8,1.2,44,28.1,114.6,28.1s112.8-26.9,114.6-28.1c1.4-0.9,2.5-2.2,3.1-3.7
			C362.1,343.6,362.1,327.9,362,324.9z"/>
	</g>
</g>
</svg>
