<?xml version="1.0" encoding="utf-8"?>
<!-- Generator: Adobe Illustrator 24.0.1, SVG Export Plug-In . SVG Version: 6.00 Build 0)  -->
<svg version="1.1" id="Layer_1" xmlns="http://www.w3.org/2000/svg" xmlns:xlink="http://www.w3.org/1999/xlink" x="0px" y="0px"
	 viewBox="0 0 472 472" style="enable-background:new 0 0 472 472;" xml:space="preserve">
<style type="text/css">
	.st0{fill:#FFFFFF;}
</style>
<title>camera</title>
<path class="st0" d="M467.1,113.5c-3-1.8-6.8-1.9-9.9-0.2l-108.3,59.1V137c0-27.6-22.4-50-50-50H50c-27.6,0-50,22.4-50,50v197.4
	c0,27.6,22.4,50,50,50h248.9c27.6,0,50-22.4,50-50v-34.8l108.3,59.1c4.8,2.6,10.9,0.9,13.6-4c0.8-1.5,1.2-3.1,1.2-4.8V122.1
	C472,118.6,470.1,115.3,467.1,113.5z"/>
<g>
	<path class="st0" d="M56.3,450c-1.9,1.9-5.1,1.9-7.1,0L22,422.8c-1.9-1.9-1.9-5.1,0-7.1L415.7,22c1.9-1.9,5.1-1.9,7.1,0L450,49.2
		c1.9,1.9,1.9,5.1,0,7.1L56.3,450z"/>
</g>
</svg>
