<svg id="Capa_1" data-name="Capa 1" xmlns="http://www.w3.org/2000/svg" viewBox="0 0 500 350"><defs><style>.cls-1{fill:#fff;}</style></defs><title>cancel_share_screen</title><path class="cls-1" d="M410,315a40,40,0,0,0,39.8-40L450,75a40,40,0,0,0-40-40H90A39.86,39.86,0,0,0,50,75V275a40,40,0,0,0,40,40ZM270,244.4V200.6c-55.6,0-92.2,17-120,54.4,11.2-53.4,42.2-106.6,120-117.4V95l80,74.6Z"/><path class="cls-1" d="M104,348.84a4.16,4.16,0,0,1-5.77,0L76.16,326.75a4.16,4.16,0,0,1,0-5.77L396,1.16a4.16,4.16,0,0,1,5.77,0l22.09,22.09a4.16,4.16,0,0,1,0,5.77Z"/></svg>