<svg id="Layer_1" data-name="Layer 1" xmlns="http://www.w3.org/2000/svg" viewBox="0 0 384 384"><defs><style>.cls-1{fill:#fff;}</style></defs><title>clock</title><path class="cls-1" d="M298.59,128a11.26,11.26,0,0,0-5.23,15A111.35,111.35,0,0,1,304.5,192,112.5,112.5,0,1,1,192,79.5a111.13,111.13,0,0,1,69.84,24.27,11.25,11.25,0,1,0,14-17.61A135.2,135.2,0,0,0,192,57C117.56,57,57,117.56,57,192s60.56,135,135,135,135-60.56,135-135a133.52,133.52,0,0,0-13.39-58.73A11.24,11.24,0,0,0,298.59,128Z"/><path class="cls-1" d="M192,102a11.25,11.25,0,0,0-11.25,11.25V192A11.25,11.25,0,0,0,192,203.25h56.25a11.25,11.25,0,0,0,0-22.5h-45v-67.5A11.25,11.25,0,0,0,192,102Z"/></svg>