<?xml version="1.0" encoding="utf-8"?>
<!-- Generator: Adobe Illustrator 24.0.1, SVG Export Plug-In . SVG Version: 6.00 Build 0)  -->
<svg version="1.1" id="Capa_1" xmlns="http://www.w3.org/2000/svg" xmlns:xlink="http://www.w3.org/1999/xlink" x="0px" y="0px"
	 viewBox="0 0 539.2 114.8" style="enable-background:new 0 0 539.2 114.8;" xml:space="preserve">
<style type="text/css">
	.st0{fill:#1D1D1B;}
	.st1{fill:#94C122;}
	.st2{fill:#95C11F;}
</style>
<title>epsychology_business_logo</title>
<path class="st0" d="M38.9,25.5c3.1,1.9,5.6,4.6,7.3,7.8c1.8,3.5,2.7,7.5,2.6,11.4c0,0.8-0.3,1.5-0.8,2.1c-0.6,0.5-1.4,0.8-2.1,0.8
	H12.6c0.6,8.8,8,15.5,16.8,15.1c2,0,4.1-0.3,6-1c1.8-0.5,3.4-1.4,4.8-2.6c0.6-0.5,1.4-0.8,2.2-0.8c0.7,0,1.3,0.3,1.8,0.7
	c0.7,0.6,1,1.4,1.1,2.2c0,0.7-0.3,1.4-0.9,1.9c-2.1,1.7-4.4,3-6.9,3.8c-6.5,2.4-13.7,1.9-19.8-1.4c-3.4-1.9-6.2-4.7-8.1-8.2
	c-2-3.6-3-7.7-2.9-11.8c-0.1-4.1,0.9-8.2,2.8-11.9c1.7-3.4,4.4-6.2,7.6-8.1c3.4-2,7.2-3,11.1-2.9C31.9,22.6,35.6,23.6,38.9,25.5z
	 M17.8,32.2c-2.8,2.7-4.6,6.3-5,10.2h30c-0.3-3.8-1.9-7.5-4.6-10.2c-2.7-2.6-6.3-4-10.1-3.9C24.3,28.2,20.6,29.6,17.8,32.2z"/>
<path class="st0" d="M120.7,25.7c3.5,2,6.3,4.8,8.3,8.3c2,3.6,3,7.6,3,11.7c0,4.1-1,8-3,11.6c-3.9,7-11.3,11.3-19.3,11.2
	c-3.4,0-6.7-0.7-9.7-2.3c-2.9-1.5-5.4-3.6-7.3-6.2v24.1c0.1,1.7-1.3,3.1-3,3.2c-0.1,0-0.2,0-0.2,0c-0.8,0-1.7-0.3-2.3-0.9
	c-0.6-0.6-0.9-1.4-0.9-2.3V65.7c-0.1-0.2-0.1-0.5-0.1-0.7V45.6c0-4.1,1-8.1,3-11.7c1.9-3.4,4.8-6.3,8.2-8.3
	C104.7,21.7,113.5,21.7,120.7,25.7z M117.6,60.5c2.5-1.5,4.6-3.6,6-6.1c1.5-2.7,2.2-5.7,2.2-8.8c0-3.1-0.7-6.1-2.2-8.8
	c-4.4-8-14.5-10.9-22.5-6.4c-2.7,1.5-4.9,3.7-6.4,6.4c-1.5,2.7-2.2,5.7-2.2,8.8c0,0.7,0,1.3,0.1,2c0.1,0.1,0.1,0.3,0.1,0.4
	c0.4,4.1,2.3,7.8,5.4,10.5c3,2.7,7,4.2,11.1,4.1C112.1,62.7,115,62,117.6,60.5z"/>
<path class="st0" d="M146.1,66.7c-2.9-1-5.5-2.6-7.6-4.8c-0.5-0.5-0.8-1.2-0.8-1.9c0-1,0.5-1.9,1.3-2.5c0.6-0.5,1.3-0.7,2.1-0.7
	c0.9,0,1.8,0.4,2.4,1.2c1.4,1.6,3.2,2.8,5.2,3.5c2.3,0.8,4.7,1.3,7.2,1.2c3.8,0,6.7-0.7,8.6-2c1.8-1.1,3-3.1,3-5.2
	c0-2-1.1-3.9-2.9-4.9c-1.9-1.3-5-2.3-9.1-3c-5.4-0.9-9.4-2.4-12-4.6c-2.5-1.8-4-4.7-4-7.8c-0.1-3.6,1.6-7.1,4.6-9.2
	c3.4-2.3,7.5-3.4,11.6-3.3c3.2-0.1,6.5,0.6,9.4,1.9c2.6,1.1,4.8,2.9,6.5,5.1c0.4,0.6,0.6,1.2,0.7,1.9c0,0.9-0.5,1.8-1.3,2.2
	c-0.5,0.3-1,0.4-1.6,0.4c-1.1,0-2.2-0.4-2.9-1.2c-2.7-3.1-6.3-4.6-11-4.6c-2.5-0.1-5.1,0.5-7.2,1.9c-2.6,1.5-3.5,4.9-2,7.5
	c0.4,0.8,1.1,1.4,1.8,1.9c1.7,1.2,4.7,2.1,9,2.8c5.9,1,10,2.6,12.6,4.8c2.4,2,3.8,5.1,3.8,8.3c0,2.4-0.8,4.8-2.3,6.7
	c-1.6,2.1-3.8,3.7-6.3,4.6c-2.9,1.1-6,1.7-9.1,1.6C152.5,68.5,149.2,67.9,146.1,66.7z"/>
<path class="st0" d="M219.4,25.7c0,0.5-0.1,1-0.3,1.5l-26.6,58.5c-0.3,1.1-1.3,1.9-2.4,1.9c-0.5,0-1-0.1-1.5-0.3
	c-1.1-0.3-1.9-1.3-1.9-2.5c0-0.5,0.1-1,0.3-1.5l8.1-18v-0.1l-18.3-37.9c-0.2-0.5-0.3-1-0.3-1.5c0-1.1,0.7-2.1,1.8-2.5
	c0.5-0.2,1-0.3,1.5-0.3c1.1,0,2.1,0.7,2.5,1.7l16,33.8l15.3-33.7c0.3-1.1,1.3-1.8,2.5-1.8c0.5,0,1,0.1,1.5,0.3
	C218.6,23.6,219.4,24.6,219.4,25.7z"/>
<path class="st0" d="M230.6,65.4c-3.4-2-6.1-4.8-8-8.2c-2-3.6-3-7.6-2.9-11.6c-0.1-4.1,0.9-8.2,2.8-11.8c1.8-3.4,4.4-6.2,7.7-8.2
	c3.4-2,7.2-3,11.1-3c6.5-0.2,12.7,2.8,16.7,7.9c0.4,0.5,0.7,1.1,0.7,1.7c0,1-0.6,1.8-1.4,2.3c-0.5,0.3-1,0.5-1.6,0.5
	c-0.9-0.1-1.8-0.5-2.4-1.2c-1.5-1.7-3.4-3.1-5.4-4.1c-2.1-0.9-4.3-1.4-6.6-1.4c-2.8,0-5.6,0.7-8.1,2.2c-2.4,1.5-4.3,3.6-5.5,6.1
	c-1.3,2.8-2,5.8-1.9,8.9c-0.1,3,0.6,6,2,8.8c1.3,2.5,3.3,4.7,5.8,6.1c2.6,1.5,5.5,2.3,8.5,2.2c4.4,0,7.9-1.2,10.6-3.5
	c0.6-0.6,1.4-0.9,2.2-0.9c0.7,0,1.3,0.2,1.8,0.7c0.7,0.5,1.1,1.3,1.1,2.2c0,0.7-0.3,1.4-0.8,1.8c-3.9,3.7-8.9,5.5-14.9,5.5
	C238.1,68.5,234.1,67.5,230.6,65.4z"/>
<path class="st0" d="M300.7,25.1c3.1,1.6,5.6,4.1,7.3,7.2c1.8,3.5,2.7,7.4,2.6,11.3v21.4c0,1.7-1.4,3.1-3.1,3.1c0,0,0,0,0,0
	c-0.9,0-1.7-0.3-2.3-0.9c-0.6-0.6-0.9-1.4-0.9-2.2V43.6c0-4.9-1.4-8.6-4.1-11.1c-2.9-2.6-6.7-4-10.6-3.8c-2.5,0-5,0.5-7.3,1.6
	c-2.1,1-3.8,2.4-5.1,4.3c-1.2,1.8-1.9,3.9-1.9,6.1v24.3c0,1.7-1.3,3-2.9,3.1c-0.1,0-0.1,0-0.2,0c-0.8,0-1.7-0.3-2.3-0.9
	c-0.6-0.6-0.9-1.4-0.9-2.3V7.1c-0.1-1.7,1.3-3.1,3-3.2c0.1,0,0.2,0,0.2,0c0.8,0,1.7,0.3,2.3,0.9c0.6,0.6,0.9,1.4,0.9,2.3v22
	c1.8-2,4.1-3.7,6.6-4.8c2.6-1.2,5.5-1.7,8.4-1.7C293.8,22.5,297.4,23.4,300.7,25.1z"/>
<path class="st0" d="M330.1,65.5c-3.4-1.9-6.2-4.7-8.1-8.2c-2-3.6-3-7.6-3-11.7c0-4.1,1-8.2,3-11.8c1.9-3.4,4.7-6.3,8.2-8.2
	c3.6-2,7.6-3,11.7-3c4.1,0,8.1,1,11.7,3c3.4,1.9,6.3,4.8,8.2,8.2c2,3.6,3.1,7.6,3,11.8c0,4.1-1,8.1-3,11.7c-1.9,3.4-4.7,6.3-8.2,8.2
	C346.2,69.4,337.4,69.4,330.1,65.5L330.1,65.5z M350.4,60.5c2.5-1.5,4.5-3.6,5.9-6.1c1.4-2.7,2.2-5.7,2.1-8.8
	c0.1-3.1-0.7-6.1-2.1-8.8c-1.4-2.5-3.4-4.7-5.9-6.1c-5.3-2.9-11.7-2.9-17,0c-2.5,1.5-4.6,3.6-6,6.1c-1.5,2.7-2.2,5.7-2.2,8.8
	c0,3.1,0.7,6.1,2.2,8.8c1.4,2.6,3.5,4.7,6,6.1C338.7,63.4,345.1,63.4,350.4,60.5z"/>
<path class="st0" d="M375.4,64.1c-2.2-2.9-3.3-6.6-3.2-10.2V7c0-0.8,0.3-1.7,0.9-2.3c0.6-0.6,1.4-0.9,2.2-0.9
	c1.7-0.1,3.1,1.2,3.1,2.9c0,0.1,0,0.2,0,0.2v46.8c-0.1,2,0.4,4,1.4,5.8c0.7,1.3,2.1,2.2,3.7,2.2h2c0.8,0,1.5,0.3,2,0.9
	c0.5,0.6,0.8,1.4,0.7,2.3c0,0.9-0.3,1.7-1,2.3c-0.8,0.6-1.7,0.9-2.7,0.9h-1.1C380.3,68.1,377.3,66.6,375.4,64.1z"/>
<path class="st0" d="M401.1,65.5c-3.4-1.9-6.2-4.8-8.1-8.2c-2-3.6-3-7.6-3-11.7c0-4.1,1-8.2,3-11.8c1.9-3.4,4.7-6.3,8.2-8.2
	c7.3-3.9,16.1-3.9,23.4,0c3.4,1.9,6.2,4.8,8.2,8.2c2,3.6,3.1,7.6,3,11.8c0.1,4.1-1,8.1-3,11.7c-1.9,3.4-4.7,6.3-8.2,8.2
	C417.2,69.4,408.4,69.4,401.1,65.5L401.1,65.5z M421.4,60.5c2.5-1.5,4.5-3.6,5.9-6.1c1.4-2.7,2.2-5.7,2.1-8.8
	c0.1-3.1-0.7-6.1-2.1-8.8c-1.4-2.5-3.4-4.7-5.9-6.1c-5.3-3-11.8-3-17,0c-2.5,1.5-4.6,3.6-6,6.1c-1.5,2.7-2.2,5.7-2.2,8.8
	c0,3.1,0.7,6.1,2.2,8.8c1.4,2.5,3.5,4.7,6,6.1C409.6,63.4,416.1,63.4,421.4,60.5z"/>
<path class="st0" d="M477,25.6c3.4,1.9,6.2,4.7,8.1,8.1c2,3.6,3,7.7,3,11.9v16.8c0.1,4.2-0.9,8.3-2.9,11.9c-1.9,3.5-4.7,6.4-8.1,8.4
	c-3.5,2.1-7.6,3.1-11.7,3.1c-3.9,0.1-7.7-0.7-11.2-2.4c-3.2-1.6-6.1-3.8-8.3-6.7c-0.5-0.5-0.7-1.2-0.7-1.9c0-0.9,0.4-1.7,1.1-2.1
	c0.5-0.4,1.2-0.6,1.8-0.6c0.5,0,1,0.1,1.5,0.4c0.5,0.2,0.9,0.5,1.1,0.9c1.7,2.1,3.8,3.8,6.3,4.8c2.7,1.2,5.6,1.7,8.5,1.7
	c6,0.1,11.5-3.2,14.2-8.6c1.5-2.9,2.2-6.1,2.1-9.3v-3.7c-1.6,3.1-4,5.6-7,7.3c-3.1,1.8-6.7,2.7-10.3,2.7c-4,0.1-8-0.9-11.5-2.9
	c-3.3-1.9-6.1-4.7-7.9-8.1c-1.9-3.6-2.9-7.7-2.8-11.8c-0.1-4.2,1-8.2,3-11.9c1.9-3.4,4.7-6.2,8.2-8.1
	C460.9,21.7,469.7,21.7,477,25.6L477,25.6z M473.8,60.5c2.5-1.4,4.5-3.5,5.9-6.1c1.5-2.7,2.2-5.8,2.1-8.8c0.1-3.1-0.7-6.1-2.1-8.8
	c-1.4-2.5-3.4-4.7-5.9-6.1c-5.3-3-11.8-3-17.2,0c-2.5,1.5-4.5,3.6-5.9,6.1c-1.4,2.7-2.2,5.8-2.1,8.8c-0.1,3.1,0.7,6.1,2.1,8.8
	c1.4,2.5,3.4,4.6,5.9,6.1C462,63.4,468.4,63.4,473.8,60.5z"/>
<path class="st0" d="M534.3,25.7c0,0.5-0.1,1-0.3,1.5l-26.6,58.5c-0.3,1.1-1.3,1.9-2.4,1.9c-0.5,0-1-0.1-1.5-0.3
	c-1.1-0.3-1.9-1.3-1.9-2.5c0-0.5,0.1-1,0.3-1.5l8.1-18v-0.1l-18.3-37.9c-0.2-0.5-0.3-1-0.3-1.5c0-1.1,0.7-2.1,1.8-2.5
	c0.5-0.2,1-0.3,1.5-0.3c1.1,0,2.1,0.7,2.5,1.7l16,33.8l15.3-33.7c0.3-1.1,1.4-1.8,2.5-1.8c0.5,0,1,0.1,1.5,0.3
	C533.6,23.6,534.3,24.6,534.3,25.7z"/>
<path class="st1" d="M77.6,29h-2l1.4,1.5c1.2,1.2,1.2,3.1,0.1,4.4c0,0,0,0-0.1,0.1c-0.6,0.6-1.4,1-2.2,1c-0.9,0-1.7-0.4-2.2-1
	l-1.5-1.5v2.1c0,0.8-0.3,1.6-0.9,2.2c-0.6,0.6-1.4,0.9-2.2,0.9c-0.8,0-1.7-0.3-2.3-0.9c-0.6-0.6-0.9-1.4-0.9-2.3v-2l-1.5,1.5
	c-1.2,1.2-3.1,1.2-4.4,0.1c0,0,0,0-0.1-0.1c-0.6-0.6-1-1.4-1-2.2c0-0.9,0.4-1.7,1-2.2l1.4-1.5h-2.1c-1.7,0-3.1-1.4-3.1-3.1
	c0,0,0,0,0-0.1c0-0.9,0.3-1.7,0.9-2.3c0.6-0.6,1.4-0.9,2.3-0.9h2.1l-1.4-1.4c-1.3-1.2-1.3-3.1-0.2-4.4c0.1-0.1,0.1-0.1,0.2-0.2
	c0.6-0.6,1.4-0.9,2.2-0.9c0.9,0,1.7,0.4,2.3,1l1.4,1.4v-2c-0.1-1.7,1.2-3.1,2.9-3.2c0.1,0,0.2,0,0.3,0c0.8,0,1.6,0.3,2.2,0.9
	c0.6,0.6,0.9,1.4,0.9,2.3v2l1.4-1.4c0.6-0.6,1.4-1,2.3-1c0.9,0,1.7,0.4,2.3,1c0.6,0.6,1,1.4,0.9,2.2c0,0.9-0.4,1.7-1,2.3l-1.4,1.4h2
	c1.7-0.1,3.1,1.3,3.2,3c0,0.1,0,0.1,0,0.2c0,0.8-0.3,1.6-0.9,2.2C79.3,28.7,78.4,29,77.6,29z M68,22.7c-1.8,0-3.2,1.4-3.2,3.2
	c0,1.8,1.4,3.2,3.2,3.2c1.8,0,3.2-1.4,3.2-3.2c0,0,0,0,0,0C71.2,24.1,69.7,22.7,68,22.7z"/>
<g>
	<g>
		<path class="st2" d="M225.2,91.1c-1.1-0.8-2.5-1.2-4-1.2c-1.3,0-2.5,0.2-3.4,0.7c-0.9,0.5-1.7,1.2-2.3,2c-0.6,0.8-1.1,1.8-1.3,2.9
			c-0.3,1.1-0.4,2.2-0.4,3.3c0,1.3,0.1,2.5,0.4,3.6c0.3,1.1,0.7,2.1,1.3,2.9c0.6,0.8,1.4,1.5,2.3,2s2.1,0.7,3.4,0.7
			c1,0,1.8-0.2,2.6-0.5s1.4-0.8,2-1.3c0.5-0.6,1-1.2,1.3-2s0.5-1.6,0.6-2.5h2.9c-0.3,2.8-1.3,5-2.9,6.5c-1.6,1.5-3.9,2.3-6.7,2.3
			c-1.7,0-3.2-0.3-4.5-0.9c-1.3-0.6-2.3-1.4-3.2-2.4c-0.8-1-1.5-2.3-1.9-3.7c-0.4-1.4-0.6-2.9-0.6-4.5s0.2-3.1,0.7-4.5
			c0.5-1.4,1.1-2.7,2-3.7c0.9-1.1,2-1.9,3.3-2.5s2.8-0.9,4.5-0.9c1.2,0,2.3,0.2,3.3,0.5c1,0.3,2,0.8,2.8,1.4s1.5,1.3,2,2.2
			c0.5,0.9,0.9,1.9,1.1,3.1h-2.9C227.1,93.1,226.4,91.9,225.2,91.1z"/>
		<path class="st2" d="M242.1,94.7c0.4-1.4,1.1-2.6,2-3.7c0.9-1.1,2-1.9,3.3-2.6c1.3-0.6,2.9-1,4.6-1c1.8,0,3.3,0.3,4.6,1
			c1.3,0.6,2.4,1.5,3.3,2.6c0.9,1.1,1.6,2.3,2,3.7c0.4,1.4,0.7,2.8,0.7,4.4c0,1.5-0.2,3-0.7,4.4c-0.4,1.4-1.1,2.6-2,3.7
			s-2,1.9-3.3,2.6c-1.3,0.6-2.9,0.9-4.6,0.9c-1.8,0-3.3-0.3-4.6-0.9c-1.3-0.6-2.4-1.5-3.3-2.6c-0.9-1.1-1.6-2.3-2-3.7
			c-0.4-1.4-0.7-2.8-0.7-4.4C241.4,97.6,241.6,96.1,242.1,94.7z M244.8,102.4c0.3,1.1,0.7,2.1,1.4,2.9s1.4,1.6,2.4,2.1
			c1,0.5,2.1,0.8,3.5,0.8s2.5-0.3,3.5-0.8c1-0.5,1.8-1.2,2.4-2.1c0.6-0.9,1.1-1.8,1.4-2.9c0.3-1.1,0.4-2.2,0.4-3.3
			c0-1.1-0.1-2.2-0.4-3.3c-0.3-1.1-0.7-2.1-1.4-2.9c-0.6-0.9-1.4-1.6-2.4-2.1c-1-0.5-2.1-0.8-3.5-0.8s-2.5,0.3-3.5,0.8
			c-1,0.5-1.8,1.2-2.4,2.1s-1.1,1.8-1.4,2.9c-0.3,1.1-0.4,2.2-0.4,3.3C244.3,100.2,244.5,101.3,244.8,102.4z"/>
		<path class="st2" d="M278.7,88l7,18.6l7-18.6h4v22.1h-2.8V91.7h-0.1l-6.9,18.4h-2.5l-6.9-18.4h-0.1v18.4h-2.8V88H278.7z"/>
		<path class="st2" d="M319.7,88c2.2,0,3.9,0.6,5.1,1.7c1.1,1.1,1.7,2.8,1.7,4.8s-0.6,3.7-1.7,4.8c-1.1,1.2-2.8,1.7-5.1,1.7h-6.8
			v9.1H310V88H319.7z M318.7,98.6c1.7,0,2.9-0.3,3.7-1c0.8-0.7,1.2-1.7,1.2-3s-0.4-2.3-1.2-3c-0.8-0.7-2-1-3.7-1h-5.8v8.1H318.7z"/>
		<path class="st2" d="M345.5,88l8.6,22.1h-3.3l-2.4-6.7h-9.4l-2.5,6.7h-3l8.6-22.1H345.5z M347.5,101l-3.7-10.3h-0.1L340,101H347.5
			z"/>
		<path class="st2" d="M367.8,88l11.7,17.9h0.1V88h2.8v22.1h-3.2l-11.6-17.8h-0.1v17.8h-2.8V88H367.8z"/>
		<path class="st2" d="M404.6,110.1h-2.9v-9.1L393.1,88h3.5l6.6,10.5l6.5-10.5h3.3l-8.5,13.1V110.1z"/>
	</g>
</g>
</svg>
