<svg id="Capa_1" data-name="Capa 1" xmlns="http://www.w3.org/2000/svg" xmlns:xlink="http://www.w3.org/1999/xlink" viewBox="0 0 737.01 552.42"><defs><style>.cls-1{font-size:12.98px;fill:#1d1d1b;font-family:HelveticaNeue, Helvetica Neue;}.cls-2{fill:url(#linear-gradient);}.cls-3,.cls-4{fill:#518ab3;}.cls-16,.cls-4{opacity:0.5;}.cls-5{fill:url(#linear-gradient-2);}.cls-6{fill:url(#linear-gradient-3);}.cls-7{fill:url(#linear-gradient-4);}.cls-8{fill:url(#linear-gradient-5);}.cls-9{fill:#fff;}.cls-10{fill:#e30613;}.cls-11{fill:url(#linear-gradient-6);}.cls-12{fill:url(#linear-gradient-7);}.cls-13{fill:#063;}.cls-14{fill:url(#linear-gradient-8);}.cls-15{fill:url(#linear-gradient-9);}.cls-16{fill:#f9b233;}.cls-17{fill:url(#linear-gradient-10);}</style><linearGradient id="linear-gradient" x1="22.78" y1="48.84" x2="217.43" y2="48.84" gradientUnits="userSpaceOnUse"><stop offset="0" stop-color="#3566af"/><stop offset="0.47" stop-color="#2ebde9"/><stop offset="1" stop-color="#6ebb81"/></linearGradient><linearGradient id="linear-gradient-2" x1="361.3" y1="42.91" x2="416.1" y2="78.14" xlink:href="#linear-gradient"/><linearGradient id="linear-gradient-3" x1="571.91" y1="93.88" x2="614.97" y2="50.82" xlink:href="#linear-gradient"/><linearGradient id="linear-gradient-4" x1="578.33" y1="100.29" x2="621.39" y2="57.23" xlink:href="#linear-gradient"/><linearGradient id="linear-gradient-5" x1="582.25" y1="104.22" x2="625.31" y2="61.16" xlink:href="#linear-gradient"/><linearGradient id="linear-gradient-6" x1="96.03" y1="260.5" x2="142.47" y2="260.5" xlink:href="#linear-gradient"/><linearGradient id="linear-gradient-7" x1="588.07" y1="300.62" x2="626.18" y2="271.55" xlink:href="#linear-gradient"/><linearGradient id="linear-gradient-8" x1="547.57" y1="534" x2="617.31" y2="464.26" xlink:href="#linear-gradient"/><linearGradient id="linear-gradient-9" x1="344.24" y1="444.94" x2="445.7" y2="444.94" xlink:href="#linear-gradient"/><linearGradient id="linear-gradient-10" x1="93.94" y1="453.92" x2="140.38" y2="453.92" xlink:href="#linear-gradient"/></defs><title>epsychology_diagram</title><text class="cls-1" transform="translate(28.44 106.81)">Hacer sesiones individuales, <tspan x="-13.71" y="15.57">familiares, grupales y supervisión </tspan><tspan x="30.4" y="31.15">online y presencial</tspan></text><path class="cls-2" d="M40.4,70.6H25.53a2.51,2.51,0,0,1-2.75-2.8,17.62,17.62,0,0,1,35-2.7A19.31,19.31,0,0,1,58,68a2.44,2.44,0,0,1-2.56,2.57C50.44,70.61,45.42,70.6,40.4,70.6Zm-.13-45.33A10.08,10.08,0,1,0,50.46,35.36,10.06,10.06,0,0,0,40.27,25.27Zm37,30a3,3,0,1,0-3-3A3,3,0,0,0,77.26,55.23Zm8.08,0a3,3,0,1,0-3-3A3,3,0,0,0,85.34,55.23Zm8.08,0a3,3,0,1,0-3-3A3,3,0,0,0,93.42,55.23Zm8.07,0a3,3,0,1,0-3-3A3,3,0,0,0,101.49,55.23Zm34.25-6.42H102a3.21,3.21,0,1,0,0,6.42h32.91l1.33,0,0,.1-.31.32-7.2,7.2a3.21,3.21,0,1,0,4.57,4.51c2.3-2.28,4.59-4.58,6.88-6.87,2-2,4-4,6-6a3.22,3.22,0,0,0,.54-4.21,9.37,9.37,0,0,0-1.14-1.13L143.42,47l-9.06-9.06a3.11,3.11,0,0,0-2.05-.94,3.21,3.21,0,0,0-2.47,5.49l6,6,.35.34Zm38.4-14A17.5,17.5,0,0,0,165,37.2a16.72,16.72,0,0,0-6.28,6.68,20.6,20.6,0,0,0-2.26,9.76,19.55,19.55,0,0,0,2.39,9.69A17.13,17.13,0,0,0,165.5,70a19.55,19.55,0,0,0,16.27,1.15A18.36,18.36,0,0,0,187.45,68a2.07,2.07,0,0,0,.74-1.56,2.42,2.42,0,0,0-.88-1.82,2.51,2.51,0,0,0-1.49-.54,3,3,0,0,0-1.82.68,11.94,11.94,0,0,1-3.95,2.12,14.83,14.83,0,0,1-4.9.85,13.29,13.29,0,0,1-13.77-12.43h27.28a2.44,2.44,0,0,0,1.76-.64,2.26,2.26,0,0,0,.67-1.72A20.29,20.29,0,0,0,189,43.58a15.92,15.92,0,0,0-6-6.45A16.8,16.8,0,0,0,174.14,34.8Zm0,4.66a11.4,11.4,0,0,1,8.31,3.17A13.22,13.22,0,0,1,186.23,51H161.51a13.81,13.81,0,0,1,4.12-8.38A12,12,0,0,1,174.14,39.46Zm43.29-2a2.53,2.53,0,0,0-2.63-2.63h-1.63l1.15-1.15a2.56,2.56,0,0,0,.81-1.86,2.45,2.45,0,0,0-.76-1.81,2.53,2.53,0,0,0-1.86-.82,2.56,2.56,0,0,0-1.86.81l-1.15,1.15V29.5a2.53,2.53,0,0,0-.75-1.89,2.44,2.44,0,0,0-1.82-.74,2.53,2.53,0,0,0-2.63,2.63v1.62L203.15,30a2.56,2.56,0,0,0-1.86-.81,2.5,2.5,0,0,0-1.82.77,2.54,2.54,0,0,0,0,3.72l1.15,1.15h-1.69a2.46,2.46,0,0,0-1.86.74,2.65,2.65,0,0,0-.71,1.89A2.53,2.53,0,0,0,198.93,40h1.69l-1.2,1.2a2.47,2.47,0,0,0-.79,1.84,2.64,2.64,0,0,0,.84,1.83,2.52,2.52,0,0,0,3.63,0l1.2-1.19v1.69a2.44,2.44,0,0,0,.74,1.86,2.64,2.64,0,0,0,1.89.71,2.56,2.56,0,0,0,2.57-2.57V43.68l1.19,1.19a2.41,2.41,0,0,0,1.84.79,2.59,2.59,0,0,0,1.84-.83,2.55,2.55,0,0,0,0-3.63l-1.2-1.2h1.63a2.59,2.59,0,0,0,1.89-.74,2.5,2.5,0,0,0,.74-1.83m-7.93,0a2.6,2.6,0,1,1-2.6-2.6A2.6,2.6,0,0,1,209.5,37.4Z"/><path class="cls-3" d="M386.79,250.66A32.91,32.91,0,0,1,399.17,264a41.85,41.85,0,0,1,4.4,19.44,4.68,4.68,0,0,1-1.4,3.56,5,5,0,0,1-3.63,1.33H342.05q1.11,11.48,8.94,18.6t19.58,7.13a31,31,0,0,0,10.14-1.75,24.53,24.53,0,0,0,8.18-4.4,6.13,6.13,0,0,1,3.77-1.4,5.2,5.2,0,0,1,3.08,1.12,5.05,5.05,0,0,1,1.82,3.77,4.22,4.22,0,0,1-1.54,3.22,38,38,0,0,1-11.74,6.5,40.53,40.53,0,0,1-33.7-2.37,35.42,35.42,0,0,1-13.78-13.85,40.37,40.37,0,0,1-5-20.06,42.67,42.67,0,0,1,4.68-20.21,34.46,34.46,0,0,1,13-13.84,36.23,36.23,0,0,1,18.94-5A34.64,34.64,0,0,1,386.79,250.66Zm-35.93,11.39q-7,6.58-8.53,17.34H393.5q-1.11-10.75-7.83-17.34t-17.2-6.57Q357.85,255.48,350.86,262.05Z"/><path class="cls-4" d="M458.11,251.29a5.14,5.14,0,0,1-1.54,3.77,5.3,5.3,0,0,1-3.92,1.54h-3.36l2.48,2.48a5.25,5.25,0,0,1,0,7.51,5.43,5.43,0,0,1-3.81,1.73,5.09,5.09,0,0,1-3.81-1.63l-2.47-2.48v3.51a5.26,5.26,0,0,1-5.32,5.31,5.42,5.42,0,0,1-3.91-1.47,5.05,5.05,0,0,1-1.54-3.84v-3.51l-2.48,2.48a5.25,5.25,0,0,1-7.51,0,5.43,5.43,0,0,1-1.73-3.81,5,5,0,0,1,1.63-3.8l2.48-2.48h-3.51a5.26,5.26,0,0,1-5.31-5.31,5.45,5.45,0,0,1,1.47-3.92,5.09,5.09,0,0,1,3.84-1.54h3.51l-2.38-2.38a5.26,5.26,0,0,1,0-7.71,5.14,5.14,0,0,1,3.75-1.58,5.3,5.3,0,0,1,3.86,1.68l2.38,2.38v-3.36a5.27,5.27,0,0,1,5.45-5.46,5.16,5.16,0,0,1,3.78,1.54,5.34,5.34,0,0,1,1.54,3.92v3.36l2.37-2.38a5.27,5.27,0,0,1,7.72,0,5.16,5.16,0,0,1,1.58,3.76,5.29,5.29,0,0,1-1.68,3.85l-2.38,2.38h3.36a5.27,5.27,0,0,1,5.46,5.46m-21.82-5.46a5.39,5.39,0,1,0,5.39,5.39A5.38,5.38,0,0,0,436.29,245.83Z"/><text class="cls-1" transform="translate(333.8 110.31)">Agenda y calendario <tspan x="14.78" y="15.57">de las sesiones </tspan></text><path class="cls-5" d="M374.8,44.51a2,2,0,0,1-2,2h0a2,2,0,0,1-2-2V39.3a2,2,0,0,1,2-2h0a2,2,0,0,1,2,2Zm34.94-5.21a2,2,0,0,0-2-2h0a2,2,0,0,0-2,2v5.21a2,2,0,0,0,2,2h0a2,2,0,0,0,2-2ZM375.26,56.69a.7.7,0,0,0-.71-.7h-6.3a.7.7,0,0,0-.71.7V63a.71.71,0,0,0,.71.71h6.3a.71.71,0,0,0,.71-.71Zm12.35,0a.7.7,0,0,0-.71-.7h-6.3a.7.7,0,0,0-.71.7V63a.71.71,0,0,0,.71.71h6.3a.71.71,0,0,0,.71-.71Zm12.35,0a.7.7,0,0,0-.71-.7h-6.31a.7.7,0,0,0-.7.7V63a.7.7,0,0,0,.7.71h6.31A.71.71,0,0,0,400,63Zm12.35,0a.7.7,0,0,0-.71-.7h-6.31a.7.7,0,0,0-.7.7V63a.7.7,0,0,0,.7.71h6.31a.71.71,0,0,0,.71-.71Zm-37.05,12a.71.71,0,0,0-.71-.71h-6.3a.71.71,0,0,0-.71.71v6.27a.71.71,0,0,0,.71.71h6.3a.7.7,0,0,0,.71-.71Zm12.35,0a.71.71,0,0,0-.71-.71h-6.3a.71.71,0,0,0-.71.71v6.27a.71.71,0,0,0,.71.71h6.3a.71.71,0,0,0,.71-.71ZM404,40.05H376.62v3.74H404Zm12.78,0h-5.21v3.74h1.57a3.1,3.1,0,0,1,3.13,3.07v2.63H364.34V46.86a3.1,3.1,0,0,1,3.13-3.07H369V40.05h-5.21a3.71,3.71,0,0,0-3.71,3.71V79.34a3.71,3.71,0,0,0,3.71,3.71h27.53a13.92,13.92,0,0,1-.25-2.68V80H367.47a3.1,3.1,0,0,1-3.13-3.07V53.77h51.92v17.7a14.09,14.09,0,0,1,3.15,8.9,15.28,15.28,0,0,1-.1,1.67,3.69,3.69,0,0,0,1.17-2.7V43.76A3.71,3.71,0,0,0,416.77,40.05ZM392.24,68.67v6.15A14.2,14.2,0,0,1,398.45,68h-5.51A.7.7,0,0,0,392.24,68.67Zm17.5-29.37a2,2,0,0,0-2-2h0a2,2,0,0,0-2,2v5.21a2,2,0,0,0,2,2h0a2,2,0,0,0,2-2ZM394.16,80.37a11.1,11.1,0,1,1,11.1,11.1A11.1,11.1,0,0,1,394.16,80.37Zm17.19.06a.64.64,0,0,0-.64-.62l-4.54,0V75.28a.63.63,0,0,0-.63-.63h-1a.63.63,0,0,0-.63.63v5a.69.69,0,0,0-.05.24v1a.63.63,0,0,0,.64.62h1.15l5.07-.05a.62.62,0,0,0,.62-.63Z"/><text class="cls-1" transform="translate(564.82 117.95)">Sistema de llamada, <tspan x="-36.04" y="15.57">videollamada y chat incorporado </tspan><tspan x="24.53" y="31.15">y encriptado</tspan></text><g id="gkowni"><path class="cls-6" d="M575.92,48.18a4.73,4.73,0,0,1,2.29-2.94,7.35,7.35,0,0,1,2.68-.63c8,0,16,0,24,0a4.82,4.82,0,0,1,5,5q-.09,23.42,0,46.81a4.86,4.86,0,0,1-5,5c-8-.07-16,0-24,0A4.56,4.56,0,0,1,576.06,98a.66.66,0,0,0-.14-.15ZM579,86.52H606.7V54.16H579Zm0,3.17c0,2.33,0,4.57,0,6.82,0,1.23.52,1.77,1.74,1.77q12.13,0,24.29,0c1.17,0,1.7-.56,1.7-1.74,0-2.1,0-4.19,0-6.29a5.32,5.32,0,0,0-.06-.56ZM579,51h27.72v-.71c0-.39,0-.79,0-1.18-.07-.94-.68-1.38-1.91-1.38H580.92a5.68,5.68,0,0,0-.59,0A1.39,1.39,0,0,0,579,49C579,49.64,579,50.28,579,51Z"/><path class="cls-7" d="M621.83,76.19V74.45H611.38V70.32h34.53c.24,0,.49,0,.74,0,.79,0,1-.24,1-1q0-3.36,0-6.74,0-11,0-22c0-1.33-.1-1.43-1.43-1.43H601.56c-1.3,0-1.47.18-1.47,1.51v2.92H596c.11-2-.38-4,.6-5.88A4.73,4.73,0,0,1,600.79,35h.67q22.44,0,44.89,0a5,5,0,0,1,5.41,4.9q0,14.85,0,29.7a4.77,4.77,0,0,1-4.64,4.82c-6.7.06-13.39,0-20.08,0h-1v1.75c1.91,0,3.81,0,5.7,0a2,2,0,0,1,1.83,3.08,2,2,0,0,1-1.77,1q-8,0-15.93,0a2.06,2.06,0,1,1,0-4.11c1.68,0,3.36,0,5,0Z"/><path class="cls-8" d="M592.87,90.43a3.16,3.16,0,1,1-3.14,3.18A3.24,3.24,0,0,1,592.87,90.43Z"/></g><circle class="cls-9" cx="655.14" cy="34.97" r="20.84"/><circle class="cls-10" cx="655.14" cy="34.97" r="16.36"/><path class="cls-9" d="M660.72,32.72V29.39a5.58,5.58,0,0,0-11.16,0v3.33a1.87,1.87,0,0,0-1.63,1.85v9.69a1.87,1.87,0,0,0,1.86,1.87h10.7a1.87,1.87,0,0,0,1.86-1.87V34.57A1.87,1.87,0,0,0,660.72,32.72ZM655.14,26a3.38,3.38,0,0,1,3.39,3.38h0v3.32h-6.78V29.39h0A3.38,3.38,0,0,1,655.14,26ZM656,39.58v1.9a.81.81,0,0,1-1.62,0v-1.9a1.61,1.61,0,0,1-.82-1.4,1.63,1.63,0,1,1,3.26,0A1.61,1.61,0,0,1,656,39.58Z"/><text class="cls-1" transform="translate(42.17 308.75)">Absoluta confdencialidad <tspan x="5.77" y="15.57">de los datos personales </tspan><tspan x="25.71" y="31.15">de los pacientes.</tspan></text><path id="QN4O1u" class="cls-11" d="M131.64,229.1a5,5,0,0,0,.37.53c3.37,3.67,6.76,7.33,10.12,11a1.32,1.32,0,0,1,.32.8q0,23.18,0,46.36a3.83,3.83,0,0,1-4.16,4.1H100.17a3.85,3.85,0,0,1-4.13-4v-.24q0-27.13,0-54.26a4,4,0,0,1,1.55-3.49,9.91,9.91,0,0,1,1.56-.79Zm-2.46,3.29-.67,0H100.36c-1,0-1.08.12-1.08,1.1v54.08c0,1,.12,1.1,1.09,1.1h37.77c1,0,1.08-.13,1.08-1.11V243.32H131.1a1.68,1.68,0,0,1-1.92-1.9c0-2.78,0-5.56,0-8.34Zm8,7.63L132.46,235V240ZM132.46,235V240h4.68Zm-26.82,19.47a4.86,4.86,0,0,0-.85.06,1.19,1.19,0,0,0,0,2.34,4.07,4.07,0,0,0,.79.07h26.36a4.08,4.08,0,0,0,.85-.08,1.22,1.22,0,0,0,.9-1.17,1.2,1.2,0,0,0-.93-1.15,5.41,5.41,0,0,0-.91-.07H105.64Zm26.3-5.7c.2,0,.41,0,.61,0a1.17,1.17,0,0,0,1.08-1.07,1.12,1.12,0,0,0-.82-1.26,2.53,2.53,0,0,0-.78-.1h-26.6a3.18,3.18,0,0,0-.62,0,1.2,1.2,0,0,0-1,1.31c0,.7.56,1.1,1.42,1.1h26.73Zm.12,16c1,0,1.59-.44,1.59-1.22,0-.61-.4-1.32-1.55-1.24H105.49a4.47,4.47,0,0,0-.73,0,1.15,1.15,0,0,0-1,1.1c0,.84.52,1.32,1.6,1.32h26.67Zm-.12,8a4.15,4.15,0,0,0,.61,0,1.21,1.21,0,0,0,1-1.55c-.16-.59-.65-.88-1.51-.88H105.37a3.32,3.32,0,0,0-.55,0,1.18,1.18,0,0,0-1,1.3c0,.71.58,1.12,1.48,1.12h26.67Z"/><circle class="cls-9" cx="140.95" cy="229.1" r="20.84"/><circle class="cls-10" cx="140.95" cy="229.1" r="16.36"/><path class="cls-9" d="M146.53,226.85v-3.33a5.59,5.59,0,0,0-11.17,0v3.33a1.87,1.87,0,0,0-1.63,1.85v9.69a1.87,1.87,0,0,0,1.87,1.86h10.7a1.86,1.86,0,0,0,1.86-1.86V228.7A1.87,1.87,0,0,0,146.53,226.85ZM141,220.14a3.38,3.38,0,0,1,3.38,3.38h0v3.32h-6.77v-3.32h0A3.38,3.38,0,0,1,141,220.14Zm.8,13.57v1.9a.81.81,0,0,1-1.61,0v-1.9a1.61,1.61,0,0,1-.82-1.4,1.63,1.63,0,1,1,2.43,1.4Z"/><text class="cls-1" transform="translate(569.51 309.35)">Cobro automático, <tspan x="15.75" y="15.57">fácil y seguro </tspan></text><path class="cls-12" d="M630.13,286.94a2,2,0,0,1,1.48.63,2.52,2.52,0,0,1-.17,3.4A17.82,17.82,0,0,1,620,295.05a17.51,17.51,0,0,1-7.52-1.64,18.21,18.21,0,0,1-6-4.55,17.72,17.72,0,0,1-3.65-6.7H599a2.31,2.31,0,0,1-1.61-.57,1.93,1.93,0,0,1-.64-1.54,1.72,1.72,0,0,1,.64-1.36,2.31,2.31,0,0,1,1.61-.57h3c-.07-.81-.1-1.43-.1-1.87a23.69,23.69,0,0,1,.14-2.53h-3a2.31,2.31,0,0,1-1.61-.57,1.87,1.87,0,0,1-.64-1.5,1.77,1.77,0,0,1,.64-1.4,2.31,2.31,0,0,1,1.61-.57h3.94a18.3,18.3,0,0,1,3.78-6.35,17.94,17.94,0,0,1,5.93-4.29,17.56,17.56,0,0,1,7.31-1.55,18.11,18.11,0,0,1,6.17.94,18.78,18.78,0,0,1,5.27,3.09,2.18,2.18,0,0,1,.75.87,2.64,2.64,0,0,1,.19,1.06,2,2,0,0,1-.68,1.54,2.27,2.27,0,0,1-1.57.61,2.53,2.53,0,0,1-1.64-.61,13.55,13.55,0,0,0-3.75-2.36,12.9,12.9,0,0,0-4.74-.73,12.4,12.4,0,0,0-7,2.13,14,14,0,0,0-4.88,5.65h16a2.32,2.32,0,0,1,1.62.57,1.79,1.79,0,0,1,.63,1.4,1.9,1.9,0,0,1-.63,1.5,2.32,2.32,0,0,1-1.62.57H606.73c-.12,1.12-.19,2-.19,2.53s0,1.06.1,1.87H620.8a2.31,2.31,0,0,1,1.61.57,1.72,1.72,0,0,1,.64,1.36,1.93,1.93,0,0,1-.64,1.54,2.31,2.31,0,0,1-1.61.57H607.72a13.77,13.77,0,0,0,4.9,6.11A12.44,12.44,0,0,0,620,290.6a14.21,14.21,0,0,0,8.63-3.1A2.73,2.73,0,0,1,630.13,286.94Z"/><circle class="cls-9" cx="645.86" cy="245.52" r="20.84"/><circle class="cls-10" cx="645.86" cy="245.52" r="16.36"/><path class="cls-9" d="M651.44,243.27V240a5.58,5.58,0,1,0-11.16,0v3.32a1.87,1.87,0,0,0-1.63,1.85v9.7a1.86,1.86,0,0,0,1.86,1.86h10.7a1.86,1.86,0,0,0,1.86-1.86v-9.7A1.87,1.87,0,0,0,651.44,243.27Zm-5.58-6.71a3.39,3.39,0,0,1,3.39,3.39h0v3.31h-6.78V240h0A3.39,3.39,0,0,1,645.86,236.56Zm.81,13.58V252a.81.81,0,0,1-1.62,0v-1.89a1.63,1.63,0,1,1,1.62,0Z"/><circle class="cls-9" cx="595.41" cy="245.52" r="20.84"/><path class="cls-13" d="M595.3,261.6a16.19,16.19,0,0,1-16.24-16.35,16.26,16.26,0,0,1,32.52.34A16.23,16.23,0,0,1,595.3,261.6Zm-2.91-14.06c-1-1.09-1.78-2.1-2.7-3a2.41,2.41,0,0,0-3.57-.12,2.38,2.38,0,0,0,.14,3.46c1.48,1.53,3,3,4.51,4.5a2.21,2.21,0,0,0,3.44.07c3.48-3.41,7-6.83,10.29-10.38a3.47,3.47,0,0,0,.33-2.79c-.32-1.14-1.52-1.38-2.59-1.08a4.08,4.08,0,0,0-1.61,1.09C597.94,241.94,595.29,244.63,592.39,247.54Z"/><text class="cls-1" transform="translate(598.59 510.74)">Webinars</text><path class="cls-14" d="M665.49,435v-.23a7,7,0,0,0-.73-3.05,6.69,6.69,0,0,0-3.18-3.21l-.47-.2-.26-.1c-.27-.09-.55-.17-.85-.24h-.06a7.91,7.91,0,0,0-.85-.13l-.4,0h-.31c-.21,0-.42,0-.64,0H593.31c-.22,0-.42,0-.64,0h-.31l-.4,0a7.91,7.91,0,0,0-.85.13h-.06c-.29.07-.58.15-.85.24l-.26.1-.47.2a6.69,6.69,0,0,0-3.18,3.21,7,7,0,0,0-.73,3.05V435c0,.89,0,1.79,0,2.69q-.06,19.81,0,39.63a6.83,6.83,0,0,0,6.65,6.9c5.15.05,10.29.06,15.44.07v0h14.78v2.49h-.71c-2.27,0-4.52,0-6.77,0h-.78a2.92,2.92,0,0,0-3,2.92,2.88,2.88,0,0,0,2.93,3H637a2.88,2.88,0,0,0,2.93-3,2.92,2.92,0,0,0-3-2.92h-.78c-2.25,0-4.5,0-6.77,0h-.7v-2.49h14.77v0c5.15,0,10.3,0,15.44-.07a6.82,6.82,0,0,0,6.65-6.9q0-19.82,0-39.63A26.82,26.82,0,0,0,665.49,435Zm-5.87,41.89c0,1.14-.32,1.44-1.45,1.49-.36,0-.71,0-1.06,0H594c-.36,0-.71,0-1.06,0-1.14-.05-1.45-.35-1.46-1.49,0-3.22,0-6.44,0-9.66V440h0c0-1.44,0-2.82,0-4.19,0-1.91.24-2.16,2.1-2.16h63.91c1.86,0,2.1.25,2.11,2.16V440h0v27.21C659.62,470.43,659.63,473.65,659.62,476.87ZM619.7,464.35a1.41,1.41,0,0,1-1.07-1.52q0-5.61,0-11.21a1.29,1.29,0,0,1,1.19-1.45,2.19,2.19,0,0,1,1.11.26c2.18,1.13,4.34,2.29,6.5,3.44l3.63,1.94a1.53,1.53,0,0,1,.8.86,1.24,1.24,0,0,1-.68,1.47c-1.43.84-2.87,1.66-4.3,2.48-2,1.12-3.93,2.25-5.9,3.36a7.28,7.28,0,0,1-.8.37Zm-12-7.09a17.53,17.53,0,1,1,17.53,17.53A17.53,17.53,0,0,1,607.74,457.26Zm17.53,13.53a13.53,13.53,0,1,0-13.53-13.53A13.53,13.53,0,0,0,625.27,470.79Z"/><path class="cls-3" d="M619.7,464.35a1.41,1.41,0,0,1-1.07-1.52q0-5.61,0-11.21a1.29,1.29,0,0,1,1.19-1.45,2.19,2.19,0,0,1,1.11.26c2.18,1.13,4.34,2.29,6.5,3.44l3.63,1.94a1.53,1.53,0,0,1,.8.86,1.24,1.24,0,0,1-.68,1.47c-1.43.84-2.87,1.66-4.3,2.48-2,1.12-3.93,2.25-5.9,3.36a7.28,7.28,0,0,1-.8.37Zm-12-7.09a17.53,17.53,0,1,1,17.53,17.53A17.53,17.53,0,0,1,607.74,457.26Zm17.53,13.53a13.53,13.53,0,1,0-13.53-13.53A13.53,13.53,0,0,0,625.27,470.79Z"/><path class="cls-15" d="M445.05,441.67a13.31,13.31,0,0,0-3.29-5.58c-3.53-3.78-7.09-7.53-10.56-11.37a3,3,0,0,0-3.25-.86,4.44,4.44,0,0,0-3,6.31c1,2.08,2,4.11,3.07,6.17.84,1.67.47,2.3-1.4,2.3-8.23,0-16.46.14-24.68-.06-3.77-.1-6.19,3-4.51,6.51A7.77,7.77,0,0,0,395,448a7.59,7.59,0,0,0-2.46-2.93c1.69-3.52-.73-6.61-4.5-6.51-8.23.2-16.46.07-24.69.06-1.86,0-2.24-.63-1.4-2.3,1-2.06,2.11-4.09,3.07-6.17a4.44,4.44,0,0,0-3-6.31,3,3,0,0,0-3.25.86c-3.46,3.84-7,7.59-10.56,11.37a13.42,13.42,0,0,0-3.29,5.58c-.24.9-.43,1.81-.65,2.72v9.29a2.64,2.64,0,0,1,.19.51,13.69,13.69,0,0,0,13.44,12c8.16,0,16.31,0,24.46,0a4.16,4.16,0,0,0,4.29-5,13.65,13.65,0,0,0-.37-1.34c1.94-.1,4,.36,5.51-1.19s1.58-3.46.73-5.38a6.25,6.25,0,0,0,2.48-2.62,6.32,6.32,0,0,0,2.48,2.62c-.84,1.92-.88,3.77.73,5.38s3.58,1.09,5.52,1.19a9.69,9.69,0,0,0-.37,1.34,4.16,4.16,0,0,0,4.28,5c8.15,0,16.31,0,24.46,0a13.69,13.69,0,0,0,13.45-12,2.59,2.59,0,0,1,.18-.51v-9.29C445.49,443.48,445.3,442.57,445.05,441.67Zm-54.57,9.71H375.41c-.72,0-1.34.13-1.35,1s.62,1.13,1.39,1.1h.68c4.08,0,8.16.07,12.24,0a2.29,2.29,0,0,1,2.6,2.16c0,1.34-1,2.16-2.62,2.16H372.83c-.26,0-.53,0-.79,0a1,1,0,0,0-1.19,1.05c0,.7.5,1,1.23,1q5.1,0,10.2,0a2.1,2.1,0,0,1,2.29,2.42,2.16,2.16,0,0,1-2.41,1.86H358.71c-6.65,0-11.48-4-12.23-10.53a52,52,0,0,1,.12-10.05,9.9,9.9,0,0,1,3-5.85c3.42-3.68,6.87-7.33,10.27-11,.67-.72,1.3-1.1,2.24-.57a2.27,2.27,0,0,1,1.26,2.43,4,4,0,0,1-.46,1.26c-1,1.95-1.95,3.9-2.91,5.85-1.39,2.81,0,5.05,3.09,5.08,4.23,0,8.45,0,12.68,0s8.54,0,12.8,0c1.76,0,2.71,1.09,2.39,2.63-.22,1.06-1.15,1.67-2.61,1.68H375.17c-.69,0-1.21.31-1.08,1a1.76,1.76,0,0,0,1.05,1,6,6,0,0,0,1.8.05h13.59c1.64,0,2.65.83,2.62,2.13S392.07,451.38,390.48,451.38Zm53,2.19c-.76,6.57-5.58,10.53-12.24,10.53H407.79a2.17,2.17,0,0,1-2.42-1.86,2.1,2.1,0,0,1,2.3-2.42c3.4,0,6.79,0,10.19,0,.73,0,1.22-.32,1.23-1s-.44-1.09-1.19-1.05c-.26,0-.53,0-.79,0H401.59c-1.64,0-2.58-.82-2.62-2.16a2.3,2.3,0,0,1,2.61-2.16c4.07.1,8.15,0,12.23,0h.68c.78,0,1.4-.22,1.39-1.1s-.63-1-1.35-1H399.46c-1.59,0-2.65-.87-2.67-2.16s1-2.13,2.62-2.13H413a5.92,5.92,0,0,0,1.79-.05,1.73,1.73,0,0,0,1.05-1c.14-.65-.39-1-1.07-1H401.64c-1.47,0-2.39-.62-2.62-1.68-.32-1.54.64-2.63,2.39-2.63,4.27,0,8.53,0,12.8,0s8.46,0,12.69,0c3.13,0,4.47-2.27,3.09-5.08-1-1.95-2-3.9-2.92-5.85a4.26,4.26,0,0,1-.46-1.26,2.28,2.28,0,0,1,1.27-2.43c.93-.53,1.57-.15,2.24.57,3.4,3.7,6.84,7.35,10.26,11a9.92,9.92,0,0,1,3,5.85A52.77,52.77,0,0,1,443.47,453.57Z"/><path class="cls-16" d="M414.21,440.7c-4.27,0-8.53,0-12.8,0-1.75,0-2.71,1.09-2.39,2.63.23,1.06,1.15,1.67,2.62,1.68h13.14c.68,0,1.21.31,1.07,1a1.73,1.73,0,0,1-1.05,1,5.92,5.92,0,0,1-1.79.05h-13.6c-1.64,0-2.64.83-2.62,2.13s1.08,2.16,2.67,2.16h15.07c.72,0,1.35.13,1.35,1s-.61,1.13-1.39,1.1h-.68c-4.08,0-8.16.07-12.23,0a2.3,2.3,0,0,0-2.61,2.16c0,1.34,1,2.16,2.62,2.16h15.52c.26,0,.53,0,.79,0,.75,0,1.2.35,1.19,1.05s-.5,1-1.23,1c-3.4,0-6.79,0-10.19,0a2.1,2.1,0,0,0-2.3,2.42,2.17,2.17,0,0,0,2.42,1.86h23.44c6.66,0,11.48-4,12.24-10.53a52.77,52.77,0,0,0-.12-10.05,9.92,9.92,0,0,0-3-5.85c-3.42-3.68-6.86-7.33-10.26-11-.67-.72-1.31-1.1-2.24-.57a2.28,2.28,0,0,0-1.27,2.43,4.26,4.26,0,0,0,.46,1.26c1,1.95,1.95,3.9,2.92,5.85,1.38,2.81,0,5.05-3.09,5.08C422.67,440.72,418.44,440.7,414.21,440.7Z"/><text class="cls-1" transform="translate(338.73 500.98)">Posibilidad de traer<tspan x="18.38" y="15.57">a tus propios </tspan><tspan x="28.12" y="31.15">pacientes</tspan></text><text class="cls-1" transform="translate(52.63 502.18)">Posibilidad de insertar<tspan x="16.47" y="15.57"> la historia clínica</tspan><tspan x="16.57" y="31.15">de tus pacientes</tspan></text><path class="cls-17" d="M129.55,422.52a4.15,4.15,0,0,0,.37.53c3.37,3.68,6.76,7.34,10.12,11a1.32,1.32,0,0,1,.32.8q0,23.17,0,46.35a3.83,3.83,0,0,1-4.16,4.1H98.08a3.85,3.85,0,0,1-4.13-4v-.25q0-27.12,0-54.26a4,4,0,0,1,1.55-3.48,10,10,0,0,1,1.56-.8Zm-2.46,3.29-.67,0H98.27c-1,0-1.08.13-1.08,1.11V481c0,1,.12,1.09,1.09,1.09h37.77c1,0,1.08-.12,1.08-1.1V436.75H129a1.68,1.68,0,0,1-1.92-1.9c0-2.78,0-5.56,0-8.34Zm8,7.63-4.68-5.07v5.07Zm-4.68-5.07v5.07h4.68Zm-26.82,33.79a6.07,6.07,0,0,0-.85.06,1.19,1.19,0,0,0,0,2.34,4.07,4.07,0,0,0,.79.07h26.36a4.08,4.08,0,0,0,.85-.08,1.2,1.2,0,0,0,.9-1.17,1.19,1.19,0,0,0-.93-1.14,4.53,4.53,0,0,0-.91-.08H103.55Zm0,4.5a6.09,6.09,0,0,0-.85.07,1.14,1.14,0,0,0-1,1.18,1.16,1.16,0,0,0,1,1.16,5.06,5.06,0,0,0,.79.06h26.36a4.08,4.08,0,0,0,.85-.08,1.2,1.2,0,0,0,.9-1.16,1.19,1.19,0,0,0-.93-1.15,4.54,4.54,0,0,0-.91-.07H103.55Zm26.3-11c.2,0,.41,0,.61,0a1.18,1.18,0,0,0,1.08-1.07,1.14,1.14,0,0,0-.82-1.27,2.53,2.53,0,0,0-.78-.1h-26.6a3.18,3.18,0,0,0-.62,0,1.2,1.2,0,0,0-1,1.31c0,.7.56,1.1,1.42,1.1h26.73Zm0,4.47c.2,0,.41,0,.61,0a1.17,1.17,0,0,0,1.08-1.07,1.14,1.14,0,0,0-.82-1.27,2.87,2.87,0,0,0-.78-.09h-26.6a3.18,3.18,0,0,0-.62,0,1.19,1.19,0,0,0-1,1.3c0,.71.56,1.11,1.42,1.11h26.73Zm.12,13.5c1,0,1.59-.45,1.59-1.22,0-.61-.4-1.32-1.55-1.24H103.4a4.47,4.47,0,0,0-.73,0,1.15,1.15,0,0,0-1,1.1c0,.84.52,1.32,1.6,1.32H130Zm-.12,4.47c.2,0,.41,0,.61,0a1.22,1.22,0,0,0,1-1.56c-.16-.59-.65-.87-1.51-.87H103.28a3.33,3.33,0,0,0-.55,0,1.19,1.19,0,0,0-1,1.3c0,.72.58,1.12,1.48,1.12h26.67Zm-21.13-43.76c-10.8,0,.41,0,.61,0a1.17,1.17,0,0,0,1.08-1.07,1.12,1.12,0,0,0-.82-1.26,2.57,2.57,0,0,0-.78-.1h-5.47a3.18,3.18,0,0,0-.62,0,1.2,1.2,0,0,0-1,1.31c0,.7.56,1.1,1.42,1.1Zm-1.44-3.88c0,10.8,0-.41,0-.61a1.17,1.17,0,0,0-1.07-1.08,1.14,1.14,0,0,0-1.27.82,2.92,2.92,0,0,0-.09.78c0,8.87,0-3.4,0,5.47a3,3,0,0,0,0,.61,1.19,1.19,0,0,0,1.3,1c.7-.05,1.11-.56,1.11-1.42Zm22.44,11.77c-10.8,0,.41,0,.61,0a1.18,1.18,0,0,0,1.08-1.07,1.14,1.14,0,0,0-.82-1.27,2.87,2.87,0,0,0-.78-.09c-8.87,0,3.4,0-5.47,0a3,3,0,0,0-.61,0,1.19,1.19,0,0,0-1,1.3c0,.7.56,1.11,1.42,1.11Zm-7.92-7.83c-10.8,0,.41,0,.62,0a1.19,1.19,0,0,0,1.08-1.07,1.15,1.15,0,0,0-.82-1.27,2.6,2.6,0,0,0-.79-.1h-5.47a3.12,3.12,0,0,0-.61,0,1.18,1.18,0,0,0-1,1.31c0,.7.55,1.1,1.42,1.11Zm7.92,12.3c-10.8,0,.41,0,.61,0a1.16,1.16,0,0,0,1.08-1.06,1.14,1.14,0,0,0-.82-1.27,2.53,2.53,0,0,0-.78-.1h-5.47a3,3,0,0,0-.61,0,1.2,1.2,0,0,0-1,1.31c0,.7.56,1.1,1.42,1.1Zm0,4.48c-10.8,0,.41,0,.61,0a1.18,1.18,0,0,0,1.08-1.07,1.14,1.14,0,0,0-.82-1.27,2.87,2.87,0,0,0-.78-.09h-5.47a3,3,0,0,0-.61,0,1.19,1.19,0,0,0-1,1.3c0,.7.56,1.11,1.42,1.11Zm-9.1-8.45a2.83,2.83,0,0,0-2.83-2.83H104.62a2.83,2.83,0,0,0-2.83,2.83v5.41a2.84,2.84,0,0,0,2.83,2.84h13.17a2.84,2.84,0,0,0,2.83-2.84Z"/></svg>