<svg id="Icon_Set" data-name="Icon Set" xmlns="http://www.w3.org/2000/svg" viewBox="0 0 512 512"><defs><style>.cls-1{fill:#44c7b6;}.cls-2{fill:#b76c6c;}.cls-3{fill:#ff4a73;}.cls-4{fill:#5fcdff;}.cls-5{fill:#30b6ff;}.cls-6{fill:#73d7f9;}.cls-7{fill:#ffbb98;}.cls-8{fill:#ffcaa6;}.cls-9{fill:#ffaa80;}.cls-10{fill:#f9d335;}.cls-11{fill:#f2c300;}.cls-12{fill:#f9e27d;}.cls-13{fill:#3bb2a0;}.cls-14{fill:#4bdbc3;}.cls-15{fill:#87828e;}.cls-16{fill:#796e84;}.cls-17{fill:#a4a4a5;}.cls-18{fill:#965959;}.cls-19{fill:#c98585;}.cls-20{fill:#ea2a6a;}.cls-21{fill:#f973a3;}.cls-22{fill:#5f266d;}</style></defs><title>family</title><path class="cls-1" d="M238,454.59v35a10,10,0,0,1-10,10H121a10,10,0,0,1-10-10v-35a63.54,63.54,0,0,1,37.33-57.85,61.94,61.94,0,0,1,7.66-2.91,63.8,63.8,0,0,1,37.06,0,67.9,67.9,0,0,1,7.68,2.91A63.48,63.48,0,0,1,238,454.59Z"/><path class="cls-2" d="M405,341.86V451.12H271.84V341.86c0-33.86,29.81-61.29,66.56-61.29a69.34,69.34,0,0,1,47.09,17.95C397.54,309.61,405,324.92,405,341.86Z"/><path class="cls-3" d="M405,456.17v33.39a10,10,0,0,1-10,10H281.84a10,10,0,0,1-10-10V456.17c0-33.65,29.58-61.3,66.56-61.3a69.54,69.54,0,0,1,47.07,18C398,424.37,405,439.84,405,456.17Z"/><path class="cls-4" d="M314.08,194v34.85a10,10,0,0,1-10,10H197.35a10,10,0,0,1-10-10V194a63.37,63.37,0,0,1,81.84-60.61,65.69,65.69,0,0,1,7.66,2.9A63.33,63.33,0,0,1,314.08,194Z"/><path class="cls-5" d="M314.09,194v34.86a10,10,0,0,1-10,10h-30a10,10,0,0,0,10-10V194a63.33,63.33,0,0,0-37.24-57.7,61.67,61.67,0,0,0-7.66-2.9q-1.71-.54-3.48-1a63.32,63.32,0,0,1,33.48,1,61.67,61.67,0,0,1,7.66,2.9A63.33,63.33,0,0,1,314.09,194Z"/><path class="cls-6" d="M265.71,132.42q-1.77.42-3.48,1a59.48,59.48,0,0,0-7.64,2.9c-1.26.54-2.48,1.16-3.68,1.8A63.32,63.32,0,0,0,217.35,194v34.86a10,10,0,0,0,10,10h-30a10,10,0,0,1-10-10V194c0-26.89,17-49,37.24-57.7a59.48,59.48,0,0,1,7.64-2.9,63.32,63.32,0,0,1,33.48-1Z"/><path class="cls-7" d="M276.85,136.27c-12.57,21.79-17.5,30.31-17.48,30.27a10,10,0,0,1-17.32,0c-10.55-18.29-6.65-11.52-17.47-30.27a63.87,63.87,0,0,1,7.64-2.9,63.72,63.72,0,0,1,37,0,67.54,67.54,0,0,1,7.66,2.9Z"/><path class="cls-8" d="M261.83,162.28l-2.46,4.26a10,10,0,0,1-17.32,0l-17.46-30.26a62.6,62.6,0,0,1,7.64-2.9,61.85,61.85,0,0,1,10-2.2c17.11,29.68,16.32,29.28,19.56,31.1Z"/><path class="cls-7" d="M207.06,108a15.82,15.82,0,1,1-3.27-28.87A47.69,47.69,0,0,0,207.06,108Z"/><path class="cls-7" d="M318.05,94.23a15.82,15.82,0,0,1-23.69,13.71,47.5,47.5,0,0,0,3.26-28.86,16,16,0,0,1,4.61-.68A15.81,15.81,0,0,1,318.05,94.23Z"/><circle class="cls-7" cx="250.78" cy="88.33" r="47.86"/><path class="cls-9" d="M298.55,88.4a47.84,47.84,0,0,1-47.84,47.84,47.15,47.15,0,0,1-15-2.42,47.83,47.83,0,0,0,0-90.84,47.15,47.15,0,0,1,15-2.42A47.84,47.84,0,0,1,298.55,88.4Z"/><path class="cls-8" d="M265.71,133.82a47.15,47.15,0,0,1-15,2.42,47.84,47.84,0,0,1,0-95.68,47.15,47.15,0,0,1,15,2.42,47.84,47.84,0,0,0,0,90.84Z"/><path class="cls-10" d="M187.35,75.83v6h12c8.32,0,16-4.85,20.18-12.75l6.7-12.74,6.72,12.74a24.44,24.44,0,0,0,8.54,9.34,21.82,21.82,0,0,0,11.64,3.41h61v-6a63.37,63.37,0,0,0-126.74,0Z"/><path class="cls-11" d="M314.09,75.84v6h-30v-6a63.37,63.37,0,0,0-48.36-61.56,62.14,62.14,0,0,1,15-1.8A63.38,63.38,0,0,1,314.09,75.84Z"/><path class="cls-12" d="M265.73,14.28A63.41,63.41,0,0,0,217.45,72.4a22.57,22.57,0,0,1-18.14,9.48h-12v-6a63.38,63.38,0,0,1,78.38-61.56Z"/><path class="cls-13" d="M238,454.6v35a10,10,0,0,1-10,10H198a10,10,0,0,0,10-10v-35a63.4,63.4,0,0,0-31.86-55q-2.64-1.53-5.46-2.82a69.07,69.07,0,0,0-7.68-2.9c-1.16-.36-2.32-.68-3.52-1a63.46,63.46,0,0,1,33.52,1,69.07,69.07,0,0,1,7.68,2.9A63.47,63.47,0,0,1,238,454.6Z"/><path class="cls-14" d="M189.51,392.88q-1.8.42-3.54,1a64.17,64.17,0,0,0-7.66,2.9c-1.26.56-2.48,1.16-3.68,1.82a62.18,62.18,0,0,0-8.24,5.22A63.46,63.46,0,0,0,141,454.6v35a10,10,0,0,0,10,10H121a10,10,0,0,1-10-10v-35a63.51,63.51,0,0,1,37.32-57.86,64.17,64.17,0,0,1,7.66-2.9,63.54,63.54,0,0,1,33.54-1Z"/><path class="cls-7" d="M200.71,396.74,192,411.83l-8.84,15.3a10,10,0,0,1-17.32,0L157,411.83l-8.71-15.09a61.79,61.79,0,0,1,7.65-2.91,63.84,63.84,0,0,1,37.07,0,67.9,67.9,0,0,1,7.68,2.91Z"/><path class="cls-8" d="M186.27,421.76l-3.1,5.36a10,10,0,0,1-17.32,0L157,411.84l-8.72-15.1a64.17,64.17,0,0,1,7.66-2.9,60.76,60.76,0,0,1,12.7-2.48L177,405.84C177.27,406.25,186,421.38,186.27,421.76Z"/><path class="cls-7" d="M130.74,368.34a15.87,15.87,0,1,1-3.28-28.94,47.85,47.85,0,0,0,3.28,28.94Z"/><path class="cls-7" d="M242,354.58a15.85,15.85,0,0,1-23.75,13.75,47.81,47.81,0,0,0,3.28-28.93A15.87,15.87,0,0,1,242,354.58Z"/><circle class="cls-7" cx="174.5" cy="348.74" r="47.96"/><path class="cls-9" d="M222.47,348.74a48,48,0,0,1-63,45.56,48,48,0,0,0,0-91.12,48,48,0,0,1,63,45.56Z"/><path class="cls-8" d="M189.51,394.3a48,48,0,1,1,0-91.12,48,48,0,0,0,0,91.12Z"/><path class="cls-15" d="M217.78,293.53a53.38,53.38,0,0,0-61.94-9.83c.29-3.79-.7-7.08-3.13-9.11-5.32-4.46-15.45-1.14-22.61,7.42-5.12,6.12-7.32,13.24-6.22,18.44-4.76,2-8.28,9.16-8.28,17.65,0,10.08,5,18.26,11.07,18.26H178a18.34,18.34,0,0,0,9.81-2.88,20.5,20.5,0,0,0,7.19-7.86l5.66-10.74,5.64,10.74a19.39,19.39,0,0,0,17,10.74h10.07v-5.1a53.14,53.14,0,0,0-15.63-37.73Z"/><path class="cls-16" d="M233.41,331.26v5.1H223.35a19.35,19.35,0,0,1-17-10.74l-5.3-10.08a53.35,53.35,0,0,0-36-35.48,53.36,53.36,0,0,1,68.38,51.2Z"/><path class="cls-17" d="M160.11,282c-5.12,6.1-7.32,13.24-6.22,18.44-4.76,2-8.28,9.16-8.28,17.64,0,10.08,5,18.26,11.06,18.26h-30c-6.1,0-11.06-8.18-11.06-18.26,0-8.48,3.52-15.6,8.28-17.64-1.1-5.2,1.1-12.34,6.22-18.44,7.16-8.56,17.28-11.88,22.6-7.42,2.44,2,3.42,5.32,3.14,9.1a50.24,50.24,0,0,1,4.6-2.06C160.33,281.76,160.21,281.9,160.11,282Z"/><path class="cls-18" d="M405,341.86V451.12H375V341.86c0-16.94-7.44-32.24-19.5-43.34a68.27,68.27,0,0,0-32.08-16.38,72.41,72.41,0,0,1,15-1.56,69.31,69.31,0,0,1,47.08,17.94C397.55,309.62,405,324.92,405,341.86Z"/><path class="cls-19" d="M353.41,282.14c-29.54,6.26-51.56,30.6-51.56,59.72V451.12h-30V341.86c0-33.86,29.8-61.28,66.56-61.28A72.41,72.41,0,0,1,353.41,282.14Z"/><path class="cls-20" d="M405,456.18v33.38a10,10,0,0,1-10,10H365a10,10,0,0,0,10-10V456.18a58.52,58.52,0,0,0-17.46-41.38c-.66-.66-1.36-1.32-2.06-2a67.54,67.54,0,0,0-19.6-12.5,70.6,70.6,0,0,0-8-2.8c-1.46-.42-2.92-.78-4.42-1.08a71.07,71.07,0,0,1,15-1.58c17.83,0,34.85,6.61,47.06,18A58.69,58.69,0,0,1,405,456.18Z"/><path class="cls-21" d="M353.41,396.46c-1.5.3-3,.66-4.42,1.08a68.16,68.16,0,0,0-8,2.8,66.24,66.24,0,0,0-20.18,13c-11.72,11-18.92,26.14-18.92,42.8v33.38a10,10,0,0,0,10,10h-30a10,10,0,0,1-10-10V456.18c0-33.73,29.62-61.3,66.56-61.3a71.07,71.07,0,0,1,15,1.58Z"/><path class="cls-7" d="M385.47,412.83c-9,16.3-27.39,27.43-48.6,27.43-20.37,0-38.13-10.28-47.49-25.5,10.38-10.81,28.09-19.89,49-19.89a69.54,69.54,0,0,1,47.07,18Z"/><path class="cls-9" d="M385.47,412.84c-9,16.28-27.38,27.42-48.6,27.42a58.89,58.89,0,0,1-15-1.92,53.79,53.79,0,0,0,33.62-25.5,67.54,67.54,0,0,0-19.6-12.5,70.6,70.6,0,0,0-8-2.8c-1.46-.42-2.92-.78-4.42-1.08a71.07,71.07,0,0,1,15-1.58c17.83,0,34.85,6.62,47.06,18Z"/><path class="cls-8" d="M351.85,438.34a58.46,58.46,0,0,1-15,1.92c-20.36,0-38.12-10.28-47.48-25.5,10.59-11.09,28.44-19.88,49-19.88a71.07,71.07,0,0,1,15,1.58c-1.5.3-3,.66-4.42,1.08a68.16,68.16,0,0,0-8,2.8,66.24,66.24,0,0,0-20.18,13q-.72.69-1.38,1.38a54.18,54.18,0,0,0,32.46,23.58Z"/><ellipse class="cls-7" cx="338.41" cy="354.02" rx="50.26" ry="46.28"/><path class="cls-9" d="M388.67,354c0,25.56-22.5,46.28-50.26,46.28a54.36,54.36,0,0,1-15-2.1c20.44-5.88,35.26-23.44,35.26-44.18s-14.82-38.3-35.26-44.18a54.36,54.36,0,0,1,15-2.1C366.17,307.74,388.67,328.46,388.67,354Z"/><path class="cls-8" d="M353.41,398.2a54.36,54.36,0,0,1-15,2.1c-27.76,0-50.26-20.72-50.26-46.28s22.5-46.28,50.26-46.28a54.36,54.36,0,0,1,15,2.1C333,315.72,318.15,333.28,318.15,354S333,392.32,353.41,398.2Z"/><path class="cls-2" d="M405,341.86v6H345.73A27.31,27.31,0,0,1,332,344.15a27.71,27.71,0,0,1-10-10.1l-7.89-13.8-7.87,13.8a27.32,27.32,0,0,1-23.72,13.79H271.84v-6c0-33.86,29.81-61.29,66.56-61.29a69.3,69.3,0,0,1,47.09,18C397.54,309.61,405,324.92,405,341.86Z"/><path class="cls-18" d="M405,341.86v6H375v-6c0-16.94-7.44-32.24-19.5-43.34a68.27,68.27,0,0,0-32.08-16.38,72.41,72.41,0,0,1,15-1.56,69.31,69.31,0,0,1,47.08,17.94C397.55,309.62,405,324.92,405,341.86Z"/><path class="cls-19" d="M353.41,282.14c-28.82,6.1-50.5,29.46-51.52,57.64a27.3,27.3,0,0,1-19.36,8.06H271.85v-6c0-33.86,29.8-61.28,66.56-61.28A72.41,72.41,0,0,1,353.41,282.14Z"/><path class="cls-22" d="M222.13,378.08c23.85,4.26,37.95-26.23,19.28-41.84,0-51-43.19-75.2-79.94-63.48a16.19,16.19,0,0,0-3.62-4.3c-14.78-12.38-41.26,7.09-42.22,28-9.12,8.6-10.28,26.12-4.44,37.28-23.31,13.05-10.44,49,15.7,44.3a56.07,56.07,0,0,0,12.54,14.22A71.28,71.28,0,0,0,103,454.6v35a18,18,0,0,0,18,18H228a18,18,0,0,0,18-18v-35c0-24-11.6-47.41-36.44-62.3A56.07,56.07,0,0,0,222.13,378.08ZM230,489.56a2,2,0,0,1-2,2H121a2,2,0,0,1-2-2v-35a55.36,55.36,0,0,1,26.26-47.16l13.66,23.68a18,18,0,0,0,31.18,0l13.68-23.68A55.38,55.38,0,0,1,230,454.6ZM120.11,361.94A7.85,7.85,0,0,1,118.55,348a55.56,55.56,0,0,0,1.56,13.94Zm11.6-63.14c-1.73-8.23,12.12-20.45,15.86-18.08a4,4,0,0,1,.3,2.38,8,8,0,0,0,11.62,7.74c29.09-14.87,63.89,5.27,65.84,37.52-2.2,0-5.25.3-8.62-2.44-5.38-10-.68.92-8.92-14.76a8,8,0,0,0-14.16,0c-1.35,2.54-.34.61-5.66,10.72a11.46,11.46,0,0,1-9.92,6.48H126.93c-2-1.28-3.32-6.16-3.32-10.26,0-6.2,2.42-9.82,3.44-10.3A8,8,0,0,0,131.71,298.8ZM230.45,348a7.86,7.86,0,0,1-1.56,13.94A58.62,58.62,0,0,0,230.45,348Zm-95.66-3.64h43.26a27.17,27.17,0,0,0,22.64-12.58A27.94,27.94,0,0,0,214,342.6a1.27,1.27,0,0,0,0,.14.44.44,0,0,1,0,.16c2.75,16.17-6,34.4-22.86,42.14a39.75,39.75,0,0,1-33.32,0c-16.14-7.39-25.08-24.51-23.06-40.68Zm53,58.74-11.56,20a2,2,0,0,1-3.46,0l-11.56-20A56.08,56.08,0,0,0,187.79,403.1Z"/><path class="cls-22" d="M338.41,272.58c-41.12,0-74.56,31.08-74.56,69.28v147.7a18,18,0,0,0,18,18H395a18,18,0,0,0,18-18V341.86c0-39-34.17-69.28-74.58-69.28Zm58.58,217a2,2,0,0,1-2,2H281.85a2,2,0,0,1-2-2V456.18A49.51,49.51,0,0,1,289,427.54a62.33,62.33,0,0,0,22.18,15.58,67,67,0,0,0,51.44,0,61.37,61.37,0,0,0,23.74-17.5,50.48,50.48,0,0,1,10.34,25.5c.33,3.14.26,1.64.26,38.44ZM279.85,355.84h.36C280.75,372,289,386.38,301.49,396a73,73,0,0,0-21.64,17.32Zm58.56-67.26c32.67,0,58.52,24.58,58.52,51.26h-51.2A19.37,19.37,0,0,1,329,330.08c-7.56-13.22-6.18-10.8-7.88-13.8a8,8,0,0,0-13.9,0s-7.85,13.75-7.86,13.78c-4.5,7.8-11.27,9.78-19.4,9.78,0-25.88,25.18-51.26,58.5-51.26Zm36.42,125.9c-18,23.12-55.63,23.77-74.74,1.42a60.26,60.26,0,0,1,20-10.36,62,62,0,0,0,36.58,0,60.1,60.1,0,0,1,18.14,8.94ZM356,388.84a46.22,46.22,0,0,1-35.08,0c-16.7-6.92-25.54-22.46-24.7-35.78a35.4,35.4,0,0,0,17-15l.94-1.64.94,1.66a35.37,35.37,0,0,0,30.66,17.8h34.88c-.76,14.68-10.66,27.2-24.66,33Zm41,24.46A73.2,73.2,0,0,0,375.35,396l0,0c12.56-9.58,20.76-24,21.3-40.14H397Z"/><path class="cls-22" d="M203.21,117.68a55.57,55.57,0,0,0,12.48,14.16A71.19,71.19,0,0,0,179.35,194v34.86a18,18,0,0,0,18,18H304.09a18,18,0,0,0,18-18V194c0-28-17.09-52.5-36.36-62.14a55.36,55.36,0,0,0,12.5-14.16c20.34,3.69,35.39-19.37,23.86-36.62,0-48-32.64-75.31-68.74-76.54-35.55-1.66-74,24.69-74,76.52-11.54,17.3,3.44,40.35,23.86,36.64Zm47.52-97.2a55.12,55.12,0,0,1,55.32,53.4h-53c-5.63,0-10.51-3.52-13.1-8.48l-6.72-12.74s0,0,0-.06a8,8,0,0,0-13.94-.24c-.28.46-6.61,12.56-6.86,13-3.87,7.35-9.36,8.48-17,8.48a55.33,55.33,0,0,1,55.34-53.4ZM305,101.54a54.13,54.13,0,0,0,1.54-11.66h2.22A7.85,7.85,0,0,1,305,101.54Zm1.1,127.3a2,2,0,0,1-2,2H197.35a2,2,0,0,1-2-2V194a55.28,55.28,0,0,1,26.16-47l13.62,23.58a18,18,0,0,0,31.18,0L279.91,147a55.25,55.25,0,0,1,26.18,47Zm-42.16-86.2-11.48,19.9a2,2,0,0,1-3.46,0l-11.48-19.9A55.41,55.41,0,0,0,263.93,142.64Zm3.4-18.06a39.57,39.57,0,0,1-33.24,0c-15.76-7.23-24.07-23.77-23.18-37.1a31.92,31.92,0,0,0,15.3-13.94C232,84,242.33,89.88,253.09,89.88h37.42a39.86,39.86,0,0,1-23.18,34.7Zm-70.9-23a7.82,7.82,0,0,1-3.74-11.66h2.2A57.65,57.65,0,0,0,196.43,101.54Z"/></svg>