<?xml version="1.0" encoding="utf-8"?>
<!-- Generator: Adobe Illustrator 23.1.1, SVG Export Plug-In . SVG Version: 6.00 Build 0)  -->
<svg version="1.1" id="b353ec75-bcce-4419-97dd-3622db29ecf5"
	 xmlns="http://www.w3.org/2000/svg" xmlns:xlink="http://www.w3.org/1999/xlink" x="0px" y="0px" viewBox="0 0 962.2 788.6"
	 style="enable-background:new 0 0 962.2 788.6;" xml:space="preserve">
<style type="text/css">
	.st0{fill:#F2F2F2;}
	.st1{fill:#6C63FF;}
	.st2{fill:#FFB9B9;}
	.st3{fill:#2F2E41;}
	.st4{fill:#575A89;}
	.st5{opacity:0.1;enable-background:new    ;}
	.st6{fill:#3F3D56;}
</style>
<title>online discussion</title>
<polygon class="st0" points="264.5,199 267.9,480 415.1,551.7 411.7,270.7 "/>
<polygon class="st0" points="219.8,176.6 109.8,402.3 259,475 255.6,194 "/>
<polygon class="st0" points="881.1,493.7 584.1,349 587.5,630 771.1,719.4 "/>
<polygon class="st0" points="425,270.7 428.4,551.7 575.5,623.4 572.1,342.4 "/>
<rect x="739.1" y="283" transform="matrix(0.9992 -3.874900e-02 3.874900e-02 0.9992 -10.8658 29.2185)" class="st1" width="18.5" height="23.8"/>
<path class="st2" d="M673.7,365.9c0,0-25.6-12.2-25.2-1.7c0.4,10.6,25.8,17.5,25.8,17.5L673.7,365.9z"/>
<path class="st3" d="M687.8,455.2c0,0-12.1,29.6-16.5,50.9c-4.5,21.3-11.3,50.7-2.5,71.5s33.6,82,33.8,88.6s-2.1,13.3,3.2,13.1
	s34-9.3,35.2-13.3c1.2-4-9.8-14.2-9.8-14.2L704,567l28.3-55.3l20.4,82.5l4,103c0,0,19.6-6,22.4-0.9c0,0,8.8-12.2,9.9-17.6
	c1.1-5.3-4.1-106.9-4.1-106.9s18-115.7,3.5-115.1C773.8,457.2,716.9,422.4,687.8,455.2z"/>
<path class="st3" d="M705.5,674c0,0-13.4,29.6-14.7,31c-1.3,1.4-10,14.9-3.4,14.7c6.6-0.3,22.2-7.5,33.7-18.5s26.6-30.1,25.2-31.4
	c-1.4-1.3-10.8-4.9-10.8-4.9L705.5,674z"/>
<path class="st3" d="M759,690.4c0,0-0.8,13.3-3.2,18.6s-2.1,13.3,4.5,13s23.7-3.6,23.7-3.6s1-8-0.4-9.2c-1.4-1.3-7.2-15.6-4.7-19.6
	S759,690.4,759,690.4z"/>
<path class="st2" d="M768.8,260.4c0,0,14.1,21.9,19.6,27c5.5,5.1-9.9,16.2-9.9,16.2l-27.6,3.7c0,0,0.3-25.1-1.1-27.7
	C748.3,277.1,768.8,260.4,768.8,260.4z"/>
<path class="st1" d="M744.8,289.1c0,0,5.7,10.4,11,10.2s32.6-11.8,33.8-15.9c1.2-4,9,28.7,9,28.7l-66.8,117.6l-16.3-11.3l7.9-69
	l6.5-37.3L744.8,289.1z"/>
<path class="st4" d="M792,394.4c-2.7,5.6-4.3,11.4-4.1,17.3c0,0.3,0,0.5,0,0.8c0.6,12.2,5.1,26.3,6.7,36.6c1.2,7.4,0.8,12.8-3.5,14
	c-10.5,3,1.5,5.2-38.9,18.7s-47.5,1.8-47.6-0.8s5.7-22.7,4.4-24c-1.4-1.3-19.2,16.6-24.6,14.2s-0.6-15.8-0.6-15.8
	s12.1-28.2,11.9-34.8s18.4-37.7,18.4-37.7l12.7-82.5c0,0,4.9-10.8,11.4-12.3c6.5-1.6,12,2.2,12,2.2l-11,24.2l-11.6,42.7l1.9,15.8
	c0,0,13.4-28.3,22.3-39.2s27.7-36.8,27.7-36.8s4.4-14.8,1.1-19.3c-3.3-4.4,13.8-5.1,21.2,13.1c3.9,9.7,10.2,24.1,14.1,37.5
	c3.5,11.9,5.2,23,1.7,29.3C812.2,367.4,798.8,380.1,792,394.4z"/>
<path class="st5" d="M817.5,357.7c-5.3,9.7-18.7,22.4-25.5,36.7c-1.8-6.4-4-13.1-4-13.1s-8.3-44.6,16.3-56.2
	c4.1-0.4,8.2,0.7,11.5,3.2C819.3,340.2,821,351.3,817.5,357.7z"/>
<path class="st4" d="M719.6,354.9l-20.9,6.1l-29,1.1l-3,25.2l47.7,3.4C714.4,390.8,726.3,357.2,719.6,354.9z"/>
<path class="st2" d="M753.7,439.7c0,0-28,4.6-21.6,13.1c6.4,8.4,31.2-0.4,31.2-0.4L753.7,439.7z"/>
<path class="st5" d="M787.9,412.5c0.6,12.2,5.1,26.3,6.7,36.6c-8.9,8.4-17.4,15.9-20.6,16c-6.6,0.3-17.2-0.7-21.1,0.8
	c-3.9,1.5-6.2-23.6-6.2-23.6s2.3-8,12.7-12.4C766.5,427,780,419,787.9,412.5z"/>
<path class="st4" d="M804.1,317.2c0,0,22.3-3.5,21.1,33.6s2.4,60.7-6.6,67.7s-38.2,38.5-44.8,38.7c-6.6,0.3-17.2-0.7-21.1,0.8
	c-3.9,1.5-6.2-23.6-6.2-23.6s2.3-8,12.7-12.4c10.4-4.4,34.9-19.9,34.7-25.1s-6.2-23.6-6.2-23.6S779.4,328.7,804.1,317.2z"/>
<circle class="st2" cx="749.1" cy="263.8" r="29.1"/>
<path class="st3" d="M729.5,222.2c-0.7,0.6-1.5,1-2.4,1.2c-0.9,0.2-1.8-0.5-2-1.4c-0.7,1.4-1.4,2.8-2.8,3.6
	c-1.4,0.7-3.5,0.1-3.7-1.4c-0.2,1.2-0.7,2.2-1.5,3.1c-0.8,0.8-2.4,1-3.1,0.1c0.6,3.2,0.2,6.6,0.4,9.9s1.1,6.8,3.6,9
	c3.6,3.2,9.1,2.4,13.9,1.8c0.7-0.2,1.5-0.1,2.2,0.1c1.8,0.8,1.7,3.3,1.7,5.2c0.3,7,5.6,12.8,12.6,13.7c1.9,0.3,3.8-0.2,5.4-1.3
	c1.4-1.2,2.1-3,3.6-3.9c2.5-1.4,5.6,0.6,7.4,2.9s3.7,5,6.5,5.4c3.8,0.5,6.7-3.3,8.1-6.9c3.9-10.1,3.7-21.3-0.8-31.2
	C770.8,214.8,743.8,212.1,729.5,222.2z"/>
<circle class="st1" cx="575.8" cy="186.2" r="59.9"/>
<path class="st6" d="M510.6,123.1c13.8,14.1,35,15.9,35,15.9s-1.2-21.2-15-35.4c-13.8-14.1-35-15.9-35-15.9S496.8,108.9,510.6,123.1
	z"/>
<path class="st1" d="M515.3,115.8c19.1,5.1,30.9,22.8,30.9,22.8s-19.1,9.3-38.2,4.2c-19.1-5.1-30.9-22.8-30.9-22.8
	S496.2,110.7,515.3,115.8z"/>
<path class="st6" d="M534,102.3c0.1,19.8,14.2,35.7,14.2,35.7s13.9-16.1,13.7-35.9s-14.2-35.7-14.2-35.7S533.9,82.6,534,102.3z"/>
<path class="st1" d="M542.4,100.3c10.2,16.9,6.4,37.9,6.4,37.9s-20.2-6.5-30.4-23.5S512,76.8,512,76.8S532.2,83.4,542.4,100.3z"/>
<circle class="st0" cx="570.3" cy="181.7" r="30.8"/>
<circle class="st6" cx="555.9" cy="191.2" r="10"/>
<circle class="st1" cx="254" cy="657.5" r="59.9"/>
<path class="st6" d="M227.9,570.7c5.2,19.1,22.8,30.9,22.8,30.9s9.3-19.1,4.1-38.2c-5.2-19.1-22.8-30.9-22.8-30.9
	S222.7,551.6,227.9,570.7z"/>
<path class="st1" d="M235.5,566.6c14.2,13.8,15.9,35,15.9,35s-21.2-1.2-35.4-14.9c-14.2-13.8-15.9-35-15.9-35
	S221.3,552.8,235.5,566.6z"/>
<path class="st6" d="M258.4,563.9c-9.5,17.3-5,38.1-5,38.1s20-7.3,29.5-24.6c9.5-17.3,5-38.1,5-38.1S267.9,546.6,258.4,563.9z"/>
<path class="st1" d="M266.7,566.2c0.6,19.7-12.8,36.2-12.8,36.2s-14.5-15.6-15.1-35.3c-0.6-19.7,12.8-36.2,12.8-36.2
	S266.1,546.5,266.7,566.2z"/>
<circle class="st0" cx="251.5" cy="650.9" r="30.8"/>
<circle class="st6" cx="261.5" cy="635.9" r="10"/>
<rect x="89.4" y="716.6" class="st3" width="311.8" height="1.7"/>
<rect x="549.2" y="719.9" class="st3" width="311.8" height="1.7"/>
<path class="st3" d="M160.8,717.8l-1.5-0.8c19.2-37.1,8.9-85.3-3.1-119.2c-8.1-22.8-18.5-44.7-31-65.4l1.4-0.9
	c12.5,20.8,23,42.9,31.2,65.7C170,631.5,180.3,680.2,160.8,717.8z"/>
<rect x="140.5" y="560.7" transform="matrix(0.1798 -0.9837 0.9837 0.1798 -412.5342 628.2781)" class="st3" width="60" height="1.7"/>
<rect x="129.7" y="571.8" transform="matrix(0.7321 -0.6812 0.6812 0.7321 -382.3662 253.09)" class="st3" width="1.7" height="81.8"/>
<rect x="165.9" y="667.1" transform="matrix(0.5858 -0.8104 0.8104 0.5858 -462.6117 430.6178)" class="st3" width="48.2" height="1.7"/>
<circle class="st1" cx="180" cy="507.9" r="8.3"/>
<circle class="st6" cx="89.4" cy="571.9" r="8.3"/>
<circle class="st6" cx="126" cy="580.2" r="8.3"/>
<circle class="st1" cx="109.4" cy="612.6" r="8.3"/>
<circle class="st6" cx="213.3" cy="633.4" r="8.3"/>
<circle class="st6" cx="185.9" cy="642.6" r="8.3"/>
<circle class="st6" cx="205" cy="669.2" r="8.3"/>
<circle class="st6" cx="117.7" cy="517.9" r="8.3"/>
<rect x="251.2" y="215.5" class="st6" width="400.8" height="240.3"/>
<circle class="st1" cx="267" cy="224.6" r="4.2"/>
<circle class="st1" cx="282" cy="224.6" r="4.2"/>
<circle class="st1" cx="296.9" cy="224.6" r="4.2"/>
<rect x="251.5" y="233.9" class="st3" width="400.4" height="1.7"/>
<polygon class="st1" points="484.8,282.8 484.8,357.7 376.1,357.7 356,381.8 358.3,357.7 348.5,357.7 348.5,282.8 "/>
<rect x="435.8" y="308.6" class="st5" width="49.1" height="49.1"/>
<polygon class="st1" points="446.6,319.4 582.9,319.4 582.9,394.2 573.2,394.2 575.5,418.4 555.4,394.2 446.6,394.2 "/>
<ellipse class="st5" cx="356.8" cy="390.9" rx="29.9" ry="2.9"/>
<ellipse class="st5" cx="575.5" cy="430" rx="34.1" ry="3.3"/>
</svg>
