<svg id="Layer_1" data-name="Layer 1" xmlns="http://www.w3.org/2000/svg" viewBox="0 0 1000 1000"><defs><style>.cls-1{fill:#a9c0d9;}</style></defs><title>flower</title><path class="cls-1" d="M433,15.79c-42.2,27.67-55.5,57.18-55.5,122.61v58.1L346.28,167c-49.77-47.12-70.87-58.1-112.15-58.1-69,0-126.36,54.67-126.36,120.09,0,40.26,10.09,59.71,52.29,103.4l32.79,34.54-56.41,5C36.9,381.1-6,424.79.67,510.57c2.52,38.66,7.57,49.64,33.71,75.72C64,615.8,69,617.4,129.56,619.92l64,3.43L164,654.46c-45.41,47.81-56.42,68.85-56.42,110,0,89,99.53,153.72,175.21,114.37,12.62-6.63,36.24-25.16,51.37-42.09,16.06-16.7,32.8-30.19,36.24-30.19S377,831.74,377,861.93c0,66.34,18.58,103.4,62.38,124.44,57.33,27,117.19,13.5,160.08-37,19.49-22.65,22-34.55,22-84.87,0-32,2.53-58.1,6-58.1S651.07,824,672.86,845c32.1,32,46.32,39.57,77.51,42.77,94.49,11,166-80.75,132.33-169-4.13-11.67-23.62-38.66-42.2-58.79l-34.17-36.38,64-3.43c59.86-2.51,64.91-4.11,93.57-33.62C989.11,562,996,548.77,999.2,514.23c7.57-84-38.76-132.9-137.37-142l-55.5-5,32.8-34.54c42.19-43.69,52.28-63.13,52.28-103.39,0-65.65-57.33-120.1-126.36-120.1-41.28,0-62.38,11-111.23,58.11l-32.11,29.5v-58.1C621.71,47.12,580.43,0,499.48,0,472.64,0,449,5.72,433,15.79ZM563.46,397.57c81,53.76,72.47,170.65-14.22,211.82-85.08,40.26-184.61-35.22-169.48-127.64C394.21,394.14,491.91,349.53,563.46,397.57Z"/></svg>