<svg id="Layer_1" data-name="Layer 1" xmlns="http://www.w3.org/2000/svg" viewBox="0 0 1920 1080"><defs><style>.cls-1{fill:#fff;}</style></defs><title>fullscreen</title><rect class="cls-1" x="95.38" y="10.5" width="1729.24" height="1060" rx="10.96"/><path d="M1813.66,20.5a1,1,0,0,1,1,1V1059.54a1,1,0,0,1-1,1H106.34a1,1,0,0,1-1-1V21.46a1,1,0,0,1,1-1H1813.66m0-20H106.34a21,21,0,0,0-21,21V1059.54a21,21,0,0,0,21,21H1813.66a21,21,0,0,0,21-21V21.46a21,21,0,0,0-21-21Z"/><rect x="186.2" y="703.79" width="469" height="281.92"/><path d="M645.2,713.79V975.71h-449V713.79h449m14.14-20H182.06a5.86,5.86,0,0,0-5.86,5.86v290.2a5.86,5.86,0,0,0,5.86,5.86H659.34a5.86,5.86,0,0,0,5.86-5.86V699.65a5.86,5.86,0,0,0-5.86-5.86Z"/></svg>