<svg id="Icon_Set" data-name="Icon Set" xmlns="http://www.w3.org/2000/svg" viewBox="0 0 512 512"><defs><style>.cls-1{fill:#44c7b6;}.cls-2{fill:#b76c6c;}.cls-3{fill:#ff4a73;}.cls-4{fill:#5fcdff;}.cls-5{fill:#30b6ff;}.cls-6{fill:#73d7f9;}.cls-7{fill:#ffbb98;}.cls-8{fill:#ffcaa6;}.cls-9{fill:#ffaa80;}.cls-10{fill:#f9d335;}.cls-11{fill:#f2c300;}.cls-12{fill:#f9e27d;}.cls-13{fill:#3bb2a0;}.cls-14{fill:#4bdbc3;}.cls-15{fill:#87828e;}.cls-16{fill:#796e84;}.cls-17{fill:#a4a4a5;}.cls-18{fill:#ea2a6a;}.cls-19{fill:#f973a3;}.cls-20{fill:#5f266d;}.cls-21{fill:#333;}.cls-22{fill:#555;}.cls-23{fill:#965959;}.cls-24{fill:#c98585;}.cls-25{fill:#f6993f;}</style></defs><title>group</title><path class="cls-1" d="M321.34,324.52v35a10,10,0,0,1-10,10h-107a10,10,0,0,1-10-10v-35a63.53,63.53,0,0,1,82-60.76,66,66,0,0,1,7.68,2.9A63.53,63.53,0,0,1,321.34,324.52Z"/><path class="cls-2" d="M498.57,71.3V180.56H365.42V71.3C365.42,37.44,395.23,10,432,10a69.33,69.33,0,0,1,47.08,18C491.13,39.05,498.57,54.36,498.57,71.3Z"/><path class="cls-3" d="M498.57,185.61V219a10,10,0,0,1-10,10H375.42a10,10,0,0,1-10-10V185.61c0-33.65,29.58-61.3,66.57-61.3a69.51,69.51,0,0,1,47.06,18c12.53,11.54,19.52,27,19.52,43.34Z"/><path class="cls-4" d="M150.22,193.87v34.85a10,10,0,0,1-10,10H33.49a10,10,0,0,1-10-10V193.87a63.37,63.37,0,0,1,81.84-60.61,65.69,65.69,0,0,1,7.66,2.9,63.33,63.33,0,0,1,37.23,57.71Z"/><path class="cls-5" d="M150.22,193.87v34.86a10,10,0,0,1-10,10h-30a10,10,0,0,0,10-10V193.87A63.33,63.33,0,0,0,83,136.17a61.67,61.67,0,0,0-7.66-2.9q-1.71-.54-3.48-1a63.32,63.32,0,0,1,33.48,1,61.67,61.67,0,0,1,7.66,2.9,63.33,63.33,0,0,1,37.24,57.7Z"/><path class="cls-6" d="M101.84,132.31q-1.77.42-3.48,1a59.48,59.48,0,0,0-7.64,2.9c-1.26.54-2.48,1.16-3.68,1.8a63.32,63.32,0,0,0-33.56,55.9v34.86a10,10,0,0,0,10,10h-30a10,10,0,0,1-10-10V193.87c0-26.89,17-49,37.24-57.7a59.48,59.48,0,0,1,7.64-2.9,63.32,63.32,0,0,1,33.48-1Z"/><path class="cls-7" d="M113,136.16,95.51,166.43a10,10,0,0,1-17.32,0c-10.55-18.29-6.65-11.52-17.47-30.27a63.49,63.49,0,0,1,44.61-2.9,67.54,67.54,0,0,1,7.66,2.9Z"/><path class="cls-8" d="M98,162.17l-2.46,4.26a10,10,0,0,1-17.32,0c-10.61-18.4-6.79-11.79-17.46-30.26a62.6,62.6,0,0,1,7.64-2.9,61.85,61.85,0,0,1,10-2.2c17.12,29.68,16.33,29.28,19.56,31.1Z"/><path class="cls-7" d="M43.2,107.84a15.82,15.82,0,1,1-7.88-29.55,16,16,0,0,1,4.61.68,47.69,47.69,0,0,0,3.27,28.87Z"/><path class="cls-7" d="M154.19,94.12a15.82,15.82,0,0,1-23.69,13.71A47.73,47.73,0,0,0,133.76,79a16,16,0,0,1,4.61-.68A15.81,15.81,0,0,1,154.19,94.12Z"/><circle class="cls-7" cx="86.92" cy="88.22" r="47.86"/><path class="cls-9" d="M134.68,88.29a47.84,47.84,0,0,1-47.84,47.84,47.15,47.15,0,0,1-15-2.42,47.83,47.83,0,0,0,0-90.84,47.15,47.15,0,0,1,15-2.42A47.84,47.84,0,0,1,134.68,88.29Z"/><path class="cls-8" d="M101.84,133.71a47.15,47.15,0,0,1-15,2.42,47.84,47.84,0,0,1,0-95.68,47.15,47.15,0,0,1,15,2.42,47.84,47.84,0,0,0,0,90.84Z"/><path class="cls-10" d="M23.49,75.72v6h12c8.32,0,16-4.85,20.18-12.75l6.7-12.74L69.05,69a24.44,24.44,0,0,0,8.54,9.34,21.82,21.82,0,0,0,11.64,3.41h61v-6a63.37,63.37,0,0,0-126.73,0Z"/><path class="cls-11" d="M148.9,91.33v6h-30v-6A63.37,63.37,0,0,0,70.54,29.77a62.14,62.14,0,0,1,15-1.8A63.37,63.37,0,0,1,148.9,91.33Z"/><path class="cls-12" d="M101.86,14.17A63.41,63.41,0,0,0,53.58,72.29a22.57,22.57,0,0,1-18.14,9.48h-12v-6a63.38,63.38,0,0,1,78.38-61.56Z"/><path class="cls-13" d="M321.33,324.52v35a10,10,0,0,1-10,10h-30a10,10,0,0,0,10-10v-35a63.42,63.42,0,0,0-31.86-55q-2.64-1.53-5.46-2.82a69.07,69.07,0,0,0-7.68-2.9c-1.16-.36-2.32-.68-3.52-1a63.46,63.46,0,0,1,33.52,1,69.07,69.07,0,0,1,7.68,2.9A63.47,63.47,0,0,1,321.33,324.52Z"/><path class="cls-14" d="M272.81,262.8q-1.8.42-3.54,1a64.17,64.17,0,0,0-7.66,2.9c-1.26.56-2.48,1.16-3.68,1.82a62.18,62.18,0,0,0-8.24,5.22,63.47,63.47,0,0,0-25.4,50.82v35a10,10,0,0,0,10,10h-30a10,10,0,0,1-10-10v-35A63.5,63.5,0,0,1,257.81,261,62.86,62.86,0,0,1,272.81,262.8Z"/><path class="cls-7" d="M284,266.66l-8.71,15.1-8.83,15.29a10,10,0,0,1-17.32,0l-8.83-15.29-8.71-15.1a63.52,63.52,0,0,1,44.73-2.9,67.7,67.7,0,0,1,7.67,2.9Z"/><path class="cls-8" d="M269.57,291.68l-3.1,5.36a10,10,0,0,1-17.32,0l-8.82-15.28-8.72-15.1a64.17,64.17,0,0,1,7.66-2.9,60.76,60.76,0,0,1,12.7-2.48l8.36,14.48C260.57,276.18,269.27,291.31,269.57,291.68Z"/><path class="cls-7" d="M214,238.27a15.86,15.86,0,1,1-7.9-29.63,16.05,16.05,0,0,1,4.63.68,47.72,47.72,0,0,0,3.27,29Z"/><path class="cls-7" d="M325.32,224.51a15.86,15.86,0,0,1-23.75,13.75,47.65,47.65,0,0,0,3.27-28.93,15.85,15.85,0,0,1,20.48,15.18Z"/><circle class="cls-7" cx="257.81" cy="218.67" r="47.96"/><path class="cls-9" d="M305.77,218.66a48,48,0,0,1-63,45.56,48,48,0,0,0,0-91.12,48,48,0,0,1,63,45.56Z"/><path class="cls-8" d="M272.81,264.22a48,48,0,1,1,0-91.12,48,48,0,0,0,0,91.12Z"/><path class="cls-15" d="M301.08,163.46a53.37,53.37,0,0,0-61.93-9.83c.29-3.79-.71-7.08-3.13-9.11-5.33-4.46-15.45-1.14-22.61,7.42-5.12,6.11-7.32,13.24-6.23,18.44-4.76,2-8.27,9.16-8.27,17.65,0,10.08,5,18.26,11.07,18.26h51.37a18.3,18.3,0,0,0,9.8-2.88,20.67,20.67,0,0,0,7.2-7.86L284,184.81l5.64,10.74a19.41,19.41,0,0,0,17,10.74h10.07v-5.1a53.1,53.1,0,0,0-15.63-37.73Z"/><path class="cls-16" d="M316.71,201.18v5.1H306.65a19.35,19.35,0,0,1-17-10.74l-5.3-10.08a53.35,53.35,0,0,0-36-35.48,53.36,53.36,0,0,1,68.38,51.2Z"/><path class="cls-17" d="M243.41,151.94c-5.12,6.1-7.32,13.24-6.22,18.44-4.76,2-8.28,9.16-8.28,17.64,0,10.08,5,18.26,11.06,18.26H210c-6.1,0-11.06-8.18-11.06-18.26,0-8.48,3.52-15.6,8.28-17.64-1.1-5.2,1.1-12.34,6.22-18.44,7.16-8.56,17.28-11.88,22.6-7.42,2.44,2,3.42,5.32,3.14,9.1a50.24,50.24,0,0,1,4.6-2.06C243.63,151.68,243.51,151.82,243.41,151.94Z"/><path class="cls-11" d="M498.57,71.3V180.56h-30V71.3c0-16.94-7.44-32.24-19.5-43.34A68.27,68.27,0,0,0,417,11.58,72.41,72.41,0,0,1,432,10,69.31,69.31,0,0,1,479.07,28C491.13,39.06,498.57,54.36,498.57,71.3Z"/><path class="cls-12" d="M447,11.58c-29.54,6.26-51.56,30.6-51.56,59.72V180.56h-30V71.3C365.43,37.44,395.23,10,432,10A72.41,72.41,0,0,1,447,11.58Z"/><path class="cls-18" d="M498.57,185.62V219a10,10,0,0,1-10,10h-30a10,10,0,0,0,10-10V185.62a58.52,58.52,0,0,0-17.46-41.38c-.66-.66-1.36-1.32-2.06-2a67.54,67.54,0,0,0-19.6-12.5,70.6,70.6,0,0,0-8-2.8c-1.46-.42-2.92-.78-4.42-1.08a71.07,71.07,0,0,1,15-1.58c17.84,0,34.86,6.61,47.06,18a58.69,58.69,0,0,1,19.52,43.34Z"/><path class="cls-19" d="M447,125.9c-1.5.3-3,.66-4.42,1.08a68.16,68.16,0,0,0-8,2.8,66.24,66.24,0,0,0-20.18,13c-11.72,11-18.92,26.14-18.92,42.8V219a10,10,0,0,0,10,10h-30a10,10,0,0,1-10-10V185.62c0-33.73,29.62-61.3,66.56-61.3a71.07,71.07,0,0,1,15,1.58Z"/><path class="cls-7" d="M479.05,142.27c-9,16.3-27.39,27.43-48.6,27.43-20.37,0-38.12-10.28-47.49-25.5,10.38-10.81,28.09-19.89,49-19.89a69.51,69.51,0,0,1,47.06,18Z"/><path class="cls-9" d="M479.05,142.28c-9,16.28-27.38,27.42-48.6,27.42a58.89,58.89,0,0,1-15-1.92,53.79,53.79,0,0,0,33.62-25.5,67.54,67.54,0,0,0-19.6-12.5,70.6,70.6,0,0,0-8-2.8c-1.46-.42-2.92-.78-4.42-1.08a71.07,71.07,0,0,1,15-1.58c17.84,0,34.86,6.62,47.06,18Z"/><path class="cls-8" d="M445.43,167.78a58.46,58.46,0,0,1-15,1.92c-20.36,0-38.12-10.28-47.48-25.5,10.6-11.09,28.44-19.88,49-19.88a71.07,71.07,0,0,1,15,1.58c-1.5.3-3,.66-4.42,1.08a68.16,68.16,0,0,0-8,2.8,66.24,66.24,0,0,0-20.18,13q-.72.69-1.38,1.38a54.18,54.18,0,0,0,32.46,23.58Z"/><ellipse class="cls-7" cx="431.99" cy="83.46" rx="50.26" ry="46.28"/><path class="cls-9" d="M482.25,83.46c0,25.56-22.5,46.28-50.26,46.28a54.36,54.36,0,0,1-15-2.1c20.44-5.88,35.26-23.44,35.26-44.18S437.43,45.16,417,39.28a54.36,54.36,0,0,1,15-2.1C459.75,37.18,482.25,57.9,482.25,83.46Z"/><path class="cls-8" d="M447,127.64a54.36,54.36,0,0,1-15,2.1c-27.76,0-50.26-20.72-50.26-46.28S404.23,37.18,432,37.18a54.36,54.36,0,0,1,15,2.1c-20.44,5.88-35.26,23.44-35.26,44.18S426.55,121.76,447,127.64Z"/><path class="cls-10" d="M498.57,71.3v6H439.31a27.24,27.24,0,0,1-13.68-3.69,27.71,27.71,0,0,1-10-10.1l-7.89-13.8-7.87,13.8A27.35,27.35,0,0,1,376.1,77.28H365.42v-6C365.42,37.44,395.23,10,432,10a69.29,69.29,0,0,1,47.08,18C491.13,39.05,498.57,54.36,498.57,71.3Z"/><path class="cls-11" d="M498.57,71.3v6h-30v-6c0-16.94-7.44-32.24-19.5-43.34A68.27,68.27,0,0,0,417,11.58,72.41,72.41,0,0,1,432,10,69.31,69.31,0,0,1,479.07,28C491.13,39.06,498.57,54.36,498.57,71.3Z"/><path class="cls-12" d="M447,11.58c-28.82,6.1-50.5,29.46-51.52,57.64a27.3,27.3,0,0,1-19.36,8.06H365.43v-6C365.43,37.44,395.23,10,432,10A72.41,72.41,0,0,1,447,11.58Z"/><path class="cls-20" d="M305.43,248c23.86,4.27,38-26.23,19.28-41.84,0-51-43.19-75.19-79.94-63.48a16.19,16.19,0,0,0-3.62-4.3c-14.78-12.37-41.25,7.1-42.22,28-9.12,8.61-10.28,26.12-4.44,37.28-23.3,13.06-10.43,49,15.7,44.3a56.07,56.07,0,0,0,12.54,14.22,71.31,71.31,0,0,0-36.44,62.3v35a18,18,0,0,0,18,18h107a18,18,0,0,0,18-18v-35c0-24-11.59-47.4-36.44-62.3A56.07,56.07,0,0,0,305.43,248Zm7.9,111.48a2,2,0,0,1-2,2h-107a2,2,0,0,1-2-2v-35a55.4,55.4,0,0,1,26.26-47.16L242.21,301a18,18,0,0,0,31.18,0l13.68-23.68a55.41,55.41,0,0,1,26.26,47.16ZM203.41,231.86a7.85,7.85,0,0,1-1.56-13.94,55.93,55.93,0,0,0,1.56,13.94ZM215,168.72c-1.72-8.22,12.12-20.44,15.86-18.08a4,4,0,0,1,.3,2.38,8,8,0,0,0,11.62,7.74c29.1-14.86,63.89,5.27,65.84,37.52-2.19,0-5.24.31-8.62-2.44-5.37-10-.67.93-8.92-14.76a8,8,0,0,0-14.16,0c-1.35,2.54-.33.62-5.66,10.72a11.44,11.44,0,0,1-9.92,6.48H210.23c-2-1.27-3.32-6.15-3.32-10.26,0-6.2,2.42-9.82,3.44-10.3A8,8,0,0,0,215,168.72Zm98.74,49.2a7.86,7.86,0,0,1-1.56,13.94A58,58,0,0,0,313.75,217.92Zm-95.66-3.64h43.26A27.12,27.12,0,0,0,284,201.7a27.94,27.94,0,0,0,13.28,10.82,1.27,1.27,0,0,0,0,.14.44.44,0,0,1,0,.16c2.75,16.18-6,34.41-22.86,42.14a39.67,39.67,0,0,1-33.32,0c-16.13-7.38-25.08-24.5-23.06-40.68Zm53,58.74-11.56,20a2,2,0,0,1-3.46,0l-11.56-20A55.82,55.82,0,0,0,271.09,273Z"/><path class="cls-20" d="M432,2C390.87,2,357.43,33.1,357.43,71.3V219a18,18,0,0,0,18,18H488.57a18,18,0,0,0,18-18V71.3C506.57,32.29,472.41,2,432,2Zm58.58,217a2,2,0,0,1-2,2H375.43a2,2,0,0,1-2-2V185.62A49.58,49.58,0,0,1,382.61,157a62.33,62.33,0,0,0,22.18,15.58,67,67,0,0,0,51.44,0A61.37,61.37,0,0,0,480,155.06a50.48,50.48,0,0,1,10.34,25.5c.34,3.14.26,1.64.26,38.44ZM373.43,85.28h.36c.54,16.16,8.74,30.54,21.28,40.12a73,73,0,0,0-21.64,17.32ZM432,18c32.68,0,58.52,24.58,58.52,51.26h-51.2a19.39,19.39,0,0,1-16.78-9.76l-7.88-13.8a8,8,0,0,0-13.9,0L392.89,59.5c-4.5,7.8-11.27,9.78-19.4,9.78C373.49,43.4,398.67,18,432,18Zm36.42,125.9c-18,23.12-55.63,23.77-74.74,1.42a60.45,60.45,0,0,1,20-10.36,62,62,0,0,0,36.58,0,60.1,60.1,0,0,1,18.14,8.94Zm-18.88-25.64a46.22,46.22,0,0,1-35.08,0c-16.69-6.92-25.53-22.46-24.7-35.78a35.4,35.4,0,0,0,17-15l.94-1.64.94,1.66a35.37,35.37,0,0,0,30.66,17.8h34.88c-.76,14.68-10.66,27.2-24.66,33Zm41,24.46a73.07,73.07,0,0,0-21.64-17.3s0,0,0,0c12.56-9.58,20.76-24,21.3-40.14h.38Z"/><path class="cls-20" d="M39.34,117.57a55.57,55.57,0,0,0,12.48,14.16,71.21,71.21,0,0,0-36.34,62.14v34.86a18,18,0,0,0,18,18H140.22a18,18,0,0,0,18-18V193.87c0-28-17.09-52.5-36.36-62.14a55.36,55.36,0,0,0,12.5-14.16c20.35,3.69,35.4-19.37,23.86-36.62,0-48-32.63-75.31-68.74-76.54-35.54-1.66-74,24.69-74,76.52C4,98.23,18.93,121.28,39.34,117.57Zm47.52-97.2a55.11,55.11,0,0,1,55.32,53.4h-53c-5.62,0-10.5-3.52-13.1-8.48L69.4,52.55s0,0,0-.06a8,8,0,0,0-13.94-.24c-.27.46-6.61,12.56-6.86,13-3.86,7.35-9.35,8.48-17,8.48a55.34,55.34,0,0,1,55.34-53.4Zm54.26,81.06a52.83,52.83,0,0,0,1.54-11.66h2.22A7.84,7.84,0,0,1,141.12,101.43Zm1.1,127.3a2,2,0,0,1-2,2H33.48a2,2,0,0,1-2-2V193.87a55.28,55.28,0,0,1,26.16-47l13.62,23.58a18,18,0,0,0,31.18,0L116,146.87a55.22,55.22,0,0,1,26.18,47Zm-42.16-86.2-11.48,19.9a2,2,0,0,1-3.46,0l-11.48-19.9A55.41,55.41,0,0,0,100.06,142.53Zm3.4-18.06a39.57,39.57,0,0,1-33.24,0C54.47,117.24,46.15,100.7,47,87.37a31.92,31.92,0,0,0,15.3-13.94c5.8,10.42,16.12,16.34,26.88,16.34h37.42a39.83,39.83,0,0,1-23.18,34.7Zm-70.9-23a7.84,7.84,0,0,1-3.74-11.66H31A58.37,58.37,0,0,0,32.56,101.43Z"/><path class="cls-21" d="M500.06,455v35a10,10,0,0,1-10,10H383a10,10,0,0,1-10-10V455a63.55,63.55,0,0,1,37.33-57.86,60.33,60.33,0,0,1,7.66-2.9,63.62,63.62,0,0,1,37.07,0,66.53,66.53,0,0,1,7.67,2.9A63.51,63.51,0,0,1,500.06,455Z"/><path d="M500.05,455v35a10,10,0,0,1-10,10h-30a10,10,0,0,0,10-10V455a63.41,63.41,0,0,0-31.86-55q-2.64-1.53-5.46-2.82a69.07,69.07,0,0,0-7.68-2.9c-1.16-.36-2.32-.68-3.52-1a63.46,63.46,0,0,1,33.52,1,69.07,69.07,0,0,1,7.68,2.9A63.47,63.47,0,0,1,500.05,455Z"/><path class="cls-22" d="M451.53,393.3q-1.8.42-3.54,1a64.17,64.17,0,0,0-7.66,2.9c-1.26.56-2.48,1.16-3.68,1.82a62.18,62.18,0,0,0-8.24,5.22A63.47,63.47,0,0,0,403,455v35a10,10,0,0,0,10,10H383a10,10,0,0,1-10-10V455a63.51,63.51,0,0,1,37.32-57.86,64.17,64.17,0,0,1,7.66-2.9,63.54,63.54,0,0,1,33.54-1Z"/><path class="cls-7" d="M462.73,397.16,454,412.25l-8.84,15.3a10,10,0,0,1-17.32,0L419,412.25l-8.71-15.09a60.33,60.33,0,0,1,7.66-2.9,63.58,63.58,0,0,1,37.06,0,66,66,0,0,1,7.68,2.9Z"/><path class="cls-8" d="M448.29,422.18l-3.1,5.36a10,10,0,0,1-17.32,0l-8.82-15.28-8.72-15.1a64.17,64.17,0,0,1,7.66-2.9,60.76,60.76,0,0,1,12.7-2.48l8.36,14.48C439.29,406.67,448,421.81,448.29,422.18Z"/><path class="cls-7" d="M392.76,368.77a15.86,15.86,0,1,1-7.9-29.63,16,16,0,0,1,4.62.68,47.88,47.88,0,0,0,3.28,28.95Z"/><path class="cls-7" d="M504,355a15.85,15.85,0,0,1-23.75,13.74,47.81,47.81,0,0,0,3.28-28.93A15.87,15.87,0,0,1,504,355Z"/><circle class="cls-7" cx="436.53" cy="349.17" r="47.96"/><path class="cls-9" d="M484.49,349.16a48,48,0,0,1-63,45.56,48,48,0,0,0,0-91.12,48,48,0,0,1,63,45.56Z"/><path class="cls-8" d="M451.53,394.72a48,48,0,1,1,0-91.12,48,48,0,0,0,0,91.12Z"/><path class="cls-2" d="M479.8,294a53.32,53.32,0,0,0-61.93-9.83c.29-3.79-.71-7.09-3.14-9.11-5.32-4.46-15.44-1.14-22.61,7.41-5.12,6.12-7.32,13.24-6.22,18.44-4.76,2.05-8.28,9.16-8.28,17.65,0,10.09,5,18.26,11.07,18.26h51.38a18.32,18.32,0,0,0,9.8-2.87,20.57,20.57,0,0,0,7.19-7.86l5.66-10.74,5.64,10.74a19.38,19.38,0,0,0,17,10.73h10.07v-5.09A53.14,53.14,0,0,0,479.8,294Z"/><path class="cls-23" d="M495.43,331.68v5.1H485.37a19.35,19.35,0,0,1-17-10.74L463.07,316a53.35,53.35,0,0,0-36-35.48,53.36,53.36,0,0,1,68.38,51.2Z"/><path class="cls-24" d="M422.13,282.44c-5.12,6.1-7.32,13.24-6.22,18.44-4.76,2-8.28,9.16-8.28,17.64,0,10.08,5,18.26,11.06,18.26h-30c-6.1,0-11.06-8.18-11.06-18.26,0-8.48,3.52-15.6,8.28-17.64-1.1-5.2,1.1-12.34,6.22-18.44,7.16-8.56,17.28-11.88,22.6-7.42,2.44,2,3.42,5.32,3.14,9.1a50.24,50.24,0,0,1,4.6-2.06C422.35,282.18,422.23,282.32,422.13,282.44Z"/><path class="cls-20" d="M484.15,378.5c23.85,4.27,38-26.23,19.28-41.84,0-51-43.19-75.2-79.94-63.48a16.19,16.19,0,0,0-3.62-4.3c-14.78-12.37-41.26,7.1-42.22,28-9.12,8.61-10.28,26.12-4.44,37.28-23.3,13.06-10.43,49,15.7,44.3a56.07,56.07,0,0,0,12.54,14.22A71.31,71.31,0,0,0,365,455v35a18,18,0,0,0,18,18h107a18,18,0,0,0,18-18V455c0-24-11.59-47.4-36.44-62.3A56.07,56.07,0,0,0,484.15,378.5ZM492.05,490a2,2,0,0,1-2,2H383a2,2,0,0,1-2-2V455a55.36,55.36,0,0,1,26.26-47.16l13.66,23.68a18,18,0,0,0,31.18,0l13.68-23.68A55.4,55.4,0,0,1,492.05,455ZM382.13,362.36a7.85,7.85,0,0,1-1.56-13.94,55.51,55.51,0,0,0,1.56,13.94Zm11.6-63.14c-1.73-8.23,12.12-20.45,15.86-18.08a4,4,0,0,1,.3,2.38,8,8,0,0,0,11.62,7.74c29.09-14.86,63.89,5.27,65.84,37.52-2.19,0-5.24.3-8.62-2.44-5.38-9.95-.67.93-8.92-14.76a8,8,0,0,0-14.16,0c-1.35,2.54-.33.62-5.66,10.72a11.46,11.46,0,0,1-9.92,6.48H389c-2-1.27-3.32-6.16-3.32-10.26,0-6.2,2.42-9.82,3.44-10.3A8,8,0,0,0,393.73,299.22Zm98.74,49.2a7.86,7.86,0,0,1-1.56,13.94A58.57,58.57,0,0,0,492.47,348.42Zm-95.66-3.64h43.26a27.16,27.16,0,0,0,22.64-12.58A27.94,27.94,0,0,0,476,343a1.27,1.27,0,0,0,0,.14.44.44,0,0,1,0,.16c2.75,16.18-6,34.41-22.86,42.14a39.75,39.75,0,0,1-33.32,0c-16.14-7.39-25.08-24.51-23.06-40.68Zm53,58.74-11.56,20a2,2,0,0,1-3.46,0l-11.56-20A56.08,56.08,0,0,0,449.81,403.52Z"/><path class="cls-2" d="M145.91,343.58V452.83H12.77V343.58c0-33.86,29.81-61.3,66.56-61.3a69.3,69.3,0,0,1,47.08,18C138.47,311.32,145.91,326.64,145.91,343.58Z"/><path class="cls-25" d="M145.91,457.88v33.39a10,10,0,0,1-10,10H22.77a10,10,0,0,1-10-10V457.88c0-33.64,29.58-61.29,66.56-61.29a69.48,69.48,0,0,1,47.06,18c12.54,11.54,19.52,27,19.52,43.34Z"/><path class="cls-23" d="M145.91,343.57V452.83h-30V343.57c0-16.94-7.44-32.24-19.5-43.34a68.27,68.27,0,0,0-32.08-16.38,72.41,72.41,0,0,1,15-1.56,69.31,69.31,0,0,1,47.08,17.94C138.47,311.33,145.91,326.63,145.91,343.57Z"/><path class="cls-24" d="M94.33,283.85c-29.54,6.26-51.56,30.6-51.56,59.72V452.83h-30V343.57c0-33.86,29.8-61.28,66.56-61.28A72.41,72.41,0,0,1,94.33,283.85Z"/><path class="cls-25" d="M145.91,457.89v33.38a10,10,0,0,1-10,10h-30a10,10,0,0,0,10-10V457.89a58.52,58.52,0,0,0-17.46-41.38c-.66-.66-1.36-1.32-2.06-2a67.28,67.28,0,0,0-19.6-12.5,70.6,70.6,0,0,0-8-2.8c-1.46-.42-2.92-.78-4.42-1.08a71.07,71.07,0,0,1,15-1.58c17.84,0,34.86,6.62,47.06,18a58.71,58.71,0,0,1,19.52,43.34Z"/><path class="cls-25" d="M94.33,398.17c-1.5.3-3,.66-4.42,1.08a68.16,68.16,0,0,0-8,2.8,66.36,66.36,0,0,0-20.18,13c-11.72,11-18.92,26.14-18.92,42.8v33.38a10,10,0,0,0,10,10h-30a10,10,0,0,1-10-10V457.89c0-33.73,29.63-61.3,66.56-61.3a71.07,71.07,0,0,1,15,1.58Z"/><path class="cls-7" d="M126.39,414.54C117.38,430.84,99,442,77.8,442c-20.37,0-38.13-10.28-47.49-25.51,10.38-10.8,28.09-19.88,49-19.88a69.48,69.48,0,0,1,47.06,18Z"/><path class="cls-9" d="M126.39,414.55C117.37,430.83,99,442,77.79,442a58.89,58.89,0,0,1-15-1.92,53.79,53.79,0,0,0,33.62-25.5,67.28,67.28,0,0,0-19.6-12.5,70.6,70.6,0,0,0-8-2.8c-1.46-.42-2.92-.78-4.42-1.08a71.07,71.07,0,0,1,15-1.58c17.84,0,34.86,6.62,47.06,18Z"/><path class="cls-8" d="M92.77,440.05a58.46,58.46,0,0,1-15,1.92c-20.36,0-38.12-10.28-47.48-25.5,10.6-11.08,28.44-19.88,49-19.88a71.07,71.07,0,0,1,15,1.58c-1.5.3-3,.66-4.42,1.08a68.16,68.16,0,0,0-8,2.8,66.36,66.36,0,0,0-20.18,13q-.72.69-1.38,1.38a54.18,54.18,0,0,0,32.46,23.58Z"/><ellipse class="cls-7" cx="79.34" cy="355.74" rx="50.26" ry="46.28"/><path class="cls-9" d="M129.59,355.73c0,25.56-22.5,46.28-50.26,46.28a54.36,54.36,0,0,1-15-2.1c20.44-5.88,35.26-23.44,35.26-44.18s-14.82-38.3-35.26-44.18a54.36,54.36,0,0,1,15-2.1C107.09,309.45,129.59,330.17,129.59,355.73Z"/><path class="cls-8" d="M94.33,399.91a54.36,54.36,0,0,1-15,2.1c-27.76,0-50.26-20.72-50.26-46.28s22.5-46.28,50.26-46.28a54.36,54.36,0,0,1,15,2.1C73.89,317.43,59.07,335,59.07,355.73S73.89,394,94.33,399.91Z"/><path class="cls-2" d="M145.91,343.58v6H86.66A27.16,27.16,0,0,1,73,345.86a27.56,27.56,0,0,1-10-10.1L55,322l-7.87,13.8a27.35,27.35,0,0,1-23.72,13.8H12.77v-6c0-33.86,29.81-61.3,66.56-61.3a69.3,69.3,0,0,1,47.08,18C138.47,311.32,145.91,326.64,145.91,343.58Z"/><path class="cls-23" d="M145.91,343.57v6h-30v-6c0-16.94-7.44-32.24-19.5-43.34a68.27,68.27,0,0,0-32.08-16.38,72.41,72.41,0,0,1,15-1.56,69.31,69.31,0,0,1,47.08,17.94C138.47,311.33,145.91,326.63,145.91,343.57Z"/><path class="cls-24" d="M94.33,283.85c-28.82,6.1-50.5,29.46-51.52,57.64a27.3,27.3,0,0,1-19.36,8.06H12.77v-6c0-33.86,29.8-61.28,66.56-61.28A72.41,72.41,0,0,1,94.33,283.85Z"/><path class="cls-20" d="M79.33,274.29c-41.12,0-74.56,31.08-74.56,69.28v147.7a18,18,0,0,0,18,18H135.91a18,18,0,0,0,18-18V343.57c0-39-34.16-69.28-74.58-69.28Zm58.58,217a2,2,0,0,1-2,2H22.77a2,2,0,0,1-2-2V457.89A49.58,49.58,0,0,1,30,429.25a62.33,62.33,0,0,0,22.18,15.58,67,67,0,0,0,51.44,0,61.37,61.37,0,0,0,23.74-17.5,50.39,50.39,0,0,1,10.34,25.5c.34,3.14.26,1.64.26,38.44ZM20.77,357.55h.36c.54,16.16,8.74,30.54,21.28,40.12A73.37,73.37,0,0,0,20.77,415Zm58.56-67.26c32.68,0,58.52,24.59,58.52,51.26H86.65a19.4,19.4,0,0,1-16.78-9.76L62,318a8,8,0,0,0-13.9,0s-7.84,13.75-7.86,13.78c-4.49,7.81-11.27,9.78-19.4,9.78,0-25.88,25.18-51.26,58.5-51.26Zm36.42,125.9C97.76,439.31,60.13,440,41,417.61a60.45,60.45,0,0,1,20-10.36,62,62,0,0,0,36.58,0,60.46,60.46,0,0,1,18.14,8.94ZM96.87,390.55a46.17,46.17,0,0,1-35.08,0c-16.69-6.91-25.53-22.46-24.7-35.78a35.4,35.4,0,0,0,17-15l.94-1.64.94,1.66a35.39,35.39,0,0,0,30.66,17.8h34.88c-.76,14.68-10.66,27.2-24.66,33Zm41,24.46a73.23,73.23,0,0,0-21.64-17.3l0,0c12.56-9.58,20.76-24,21.3-40.14h.38Z"/></svg>