<svg id="Icon_Set" data-name="Icon Set" xmlns="http://www.w3.org/2000/svg" viewBox="0 0 512 512"><defs><style>.cls-1{fill:#5fcdff;}.cls-2{fill:#30b6ff;}.cls-3{fill:#73d7f9;}.cls-4{fill:#ffbb98;}.cls-5{fill:#ffcaa6;}.cls-6{fill:#ffaa80;}.cls-7{fill:#f9d335;}.cls-8{fill:#f2c300;}.cls-9{fill:#f9e27d;}.cls-10{fill:#5f266d;}</style></defs><title>individual</title><path class="cls-1" d="M348.48,355.73v50.86a14.6,14.6,0,0,1-14.59,14.59H178.13a14.6,14.6,0,0,1-14.59-14.59V355.73c0-38.88,24-70.85,54.33-84.22a92.49,92.49,0,0,1,65.1-4.23,98.89,98.89,0,0,1,11.17,4.23,92.44,92.44,0,0,1,54.34,84.22Z"/><path class="cls-2" d="M348.48,355.72v50.87a14.6,14.6,0,0,1-14.59,14.6H290.11a14.6,14.6,0,0,0,14.59-14.6V355.72a92.4,92.4,0,0,0-54.34-84.2,91.3,91.3,0,0,0-11.18-4.23c-1.66-.53-3.35-1-5.08-1.4a92.53,92.53,0,0,1,114.38,89.83Z"/><path class="cls-3" d="M277.88,265.89c-1.72.41-3.41.87-5.08,1.4a87.93,87.93,0,0,0-11.15,4.23c-1.83.79-3.61,1.69-5.37,2.63a92.41,92.41,0,0,0-49,81.57v50.87a14.6,14.6,0,0,0,14.59,14.6H178.13a14.6,14.6,0,0,1-14.6-14.6V355.72c0-39.23,24.81-71.55,54.35-84.2A87.36,87.36,0,0,1,229,267.29a92.29,92.29,0,0,1,48.85-1.4Z"/><path class="cls-4" d="M294.15,271.52l-25.51,44.17a14.6,14.6,0,0,1-25.28,0c-15.4-26.7-9.7-16.82-25.49-44.17A90.69,90.69,0,0,1,229,267.29a92.73,92.73,0,0,1,54,0,96,96,0,0,1,11.18,4.23Z"/><path class="cls-5" d="M272.22,309.46l-3.59,6.22a14.57,14.57,0,0,1-25.27,0l-25.48-44.16A92.1,92.1,0,0,1,229,267.29a89.85,89.85,0,0,1,14.65-3.21c25,43.32,23.81,42.74,28.54,45.38Z"/><path class="cls-4" d="M192.3,230.19a23.09,23.09,0,1,1-11.5-43.13,23.26,23.26,0,0,1,6.73,1,68.63,68.63,0,0,0-1.35,13.6A69.37,69.37,0,0,0,192.3,230.19Z"/><path class="cls-4" d="M354.26,210.16a23.08,23.08,0,0,1-34.57,20,69.61,69.61,0,0,0,4.77-42.11,23.08,23.08,0,0,1,29.8,22.1Z"/><circle class="cls-4" cx="256.1" cy="201.56" r="69.85"/><path class="cls-6" d="M325.8,201.65A69.8,69.8,0,0,1,256,271.46a68.72,68.72,0,0,1-21.89-3.53,69.79,69.79,0,0,0,0-132.56A69,69,0,0,1,256,131.84,69.81,69.81,0,0,1,325.8,201.65Z"/><path class="cls-5" d="M277.88,267.93A68.68,68.68,0,0,1,256,271.46a69.81,69.81,0,0,1,0-139.62,69,69,0,0,1,21.89,3.53,69.81,69.81,0,0,0,0,132.56Z"/><path class="cls-7" d="M163.54,183.31v8.84H181c12.15,0,23.37-7.08,29.46-18.61l9.77-18.6,9.8,18.6a35.67,35.67,0,0,0,12.47,13.62,31.71,31.71,0,0,0,17,5h89v-8.84a92.47,92.47,0,0,0-184.94,0Z"/><path class="cls-8" d="M348.48,183.32v8.82H304.7v-8.82a92.48,92.48,0,0,0-70.57-89.83A90.67,90.67,0,0,1,256,90.86,92.48,92.48,0,0,1,348.48,183.32Z"/><path class="cls-9" d="M277.91,93.49a92.52,92.52,0,0,0-70.45,84.81A32.93,32.93,0,0,1,181,192.14H163.53v-8.82A92.48,92.48,0,0,1,277.91,93.49Z"/><path class="cls-10" d="M186.68,244.38A81,81,0,0,0,204.89,265a103.91,103.91,0,0,0-53,90.68v50.87a26.31,26.31,0,0,0,26.27,26.27H333.89a26.31,26.31,0,0,0,26.27-26.27V355.72c0-40.9-24.94-76.6-53.06-90.68a80.87,80.87,0,0,0,18.24-20.66c29.68,5.4,51.65-28.26,34.82-53.44,0-70-47.63-109.89-100.31-111.69-51.87-2.42-108,36-108,111.66-16.84,25.26,5,58.89,34.82,53.47ZM256,102.54a80.43,80.43,0,0,1,80.73,77.92H259.47c-8.21,0-15.34-5.13-19.12-12.37l-9.81-18.59s0-.06-.06-.09a11.65,11.65,0,0,0-20.34-.35c-.4.67-9.64,18.33-10,19-5.64,10.72-13.65,12.37-24.86,12.37A80.75,80.75,0,0,1,256,102.54ZM335.2,220.83c2.11-9.85,2.06-12.58,2.25-17h3.24A11.46,11.46,0,0,1,335.2,220.83Zm1.61,185.76a2.93,2.93,0,0,1-2.92,2.92H178.13a2.92,2.92,0,0,1-2.92-2.92V355.72a80.67,80.67,0,0,1,38.17-68.61l19.88,34.41a26.26,26.26,0,0,0,45.5,0l19.84-34.38a80.59,80.59,0,0,1,38.21,68.58ZM275.28,280.8l-16.75,29a2.9,2.9,0,0,1-5,0l-16.75-29A80.54,80.54,0,0,0,275.28,280.8Zm5-26.35a57.72,57.72,0,0,1-48.51,0c-23-10.55-35.13-34.69-33.83-54.14A46.52,46.52,0,0,0,220.24,180c8.46,15.21,23.52,23.84,39.23,23.84h54.6a58.14,58.14,0,0,1-33.82,50.64ZM176.78,220.83a11.42,11.42,0,0,1-5.45-17h3.21A84.46,84.46,0,0,0,176.78,220.83Z"/></svg>