<?xml version="1.0" encoding="utf-8"?>
<!-- Generator: Adobe Illustrator 24.0.1, SVG Export Plug-In . SVG Version: 6.00 Build 0)  -->
<svg version="1.1" id="Capa_1" xmlns="http://www.w3.org/2000/svg" xmlns:xlink="http://www.w3.org/1999/xlink" x="0px" y="0px"
	 viewBox="0 0 512 512" style="enable-background:new 0 0 512 512;" xml:space="preserve">
<style type="text/css">
	.st0{fill:#FFFFFF;}
</style>
<path class="st0" d="M512,304c0-12.8-5.1-24.8-13.9-33.6c10-10.9,15-25.5,13.7-40.7c-2.5-27.1-26.9-48.4-55.6-48.4H324.4
	c6.5-19.8,17-56.1,17-85.3c0-46.3-39.3-85.3-64-85.3c-22.1,0-38,12.5-38.7,13c-2.5,2-4,5.1-4,8.3v72.3l-61.5,133.1l-2.5,1.3v-4.1
	c0-5.9-4.8-10.7-10.7-10.7H53.3C23.9,224,0,247.9,0,277.3V448c0,29.4,23.9,53.3,53.3,53.3h64c23.1,0,42.8-14.7,50.2-35.3
	c17.8,9.1,41.6,13.9,56.5,13.9h195.8c23.2,0,43.6-15.7,48.3-37.2c2.5-11.1,1-22.3-3.8-32.1c15.7-7.9,26.3-24.2,26.3-42.7
	c0-7.6-1.7-14.8-5-21.3C501.4,338.8,512,322.5,512,304z"/>
</svg>
