<?xml version="1.0" encoding="utf-8"?>
<!-- Generator: Adobe Illustrator 22.0.1, SVG Export Plug-In . SVG Version: 6.00 Build 0)  -->
<svg version="1.1" id="Layer_1" xmlns="http://www.w3.org/2000/svg" xmlns:xlink="http://www.w3.org/1999/xlink" x="0px" y="0px"
	 viewBox="0 0 512 512" style="enable-background:new 0 0 512 512;" xml:space="preserve">
<style type="text/css">
	.st0{fill:#E74C3C;}
	.st1{fill:#F0938A;}
</style>
<g>
	<path class="st0" d="M256,512c-1.3,0-2.5-0.6-3.2-1.6l-47.9-65.2c-48.5-11.3-92.6-38.8-124.1-77.8c-32.3-40-50.2-90.4-50.2-141.9
		c0-60.2,23.4-116.9,66-159.4C139.2,23.5,195.8,0,256,0s116.8,23.5,159.4,66c42.6,42.6,66,99.2,66,159.4
		c0,51.5-17.8,101.9-50.2,141.8c-31.6,39-75.6,66.5-124.1,77.8l-47.9,65.2C258.5,511.4,257.3,512,256,512z"/>
</g>
<g>
	<ellipse class="st1" cx="256.1" cy="225.4" rx="96" ry="96"/>
</g>
</svg>
