<?xml version="1.0" encoding="utf-8"?>
<!-- Generator: Adobe Illustrator 24.0.1, SVG Export Plug-In . SVG Version: 6.00 Build 0)  -->
<svg version="1.1" id="Layer_1" xmlns="http://www.w3.org/2000/svg" xmlns:xlink="http://www.w3.org/1999/xlink" x="0px" y="0px"
	 viewBox="0 0 200 200" style="enable-background:new 0 0 200 200;" xml:space="preserve">
<style type="text/css">
	.st0{fill:#A9C0D9;}
	.st1{fill:#30546E;}
</style>
<g>
	<title>logo_sm</title>
	<path class="st0" d="M139.6,52.2c-1.9,1.2-2.5,2.6-2.5,5.5v2.6l-1.4-1.3c-2.2-2.1-3.2-2.6-5-2.6c-3.1,0-5.7,2.5-5.7,5.4
		c0,1.8,0.5,2.7,2.3,4.6l1.5,1.5l-2.5,0.2c-4.5,0.4-6.4,2.4-6.1,6.2c0.1,1.7,0.3,2.2,1.5,3.4c1.3,1.3,1.5,1.4,4.3,1.5l2.9,0.2
		l-1.3,1.4c-2,2.2-2.5,3.1-2.5,4.9c0,4,4.5,6.9,7.9,5.1c0.6-0.3,1.6-1.1,2.3-1.9c0.7-0.8,1.5-1.4,1.6-1.4s0.3,1.1,0.3,2.5
		c0,3,0.8,4.6,2.8,5.6c2.6,1.2,5.3,0.6,7.2-1.7c0.9-1,1-1.5,1-3.8c0-1.4,0.1-2.6,0.3-2.6c0.2,0,1.1,0.8,2,1.7
		c1.4,1.4,2.1,1.8,3.5,1.9c4.2,0.5,7.4-3.6,5.9-7.6c-0.2-0.5-1.1-1.7-1.9-2.6l-1.5-1.7l2.9-0.2c2.7-0.1,2.9-0.2,4.2-1.5
		c1.1-1.1,1.4-1.7,1.6-3.2c0.3-3.8-1.7-6-6.2-6.4l-2.5-0.2l1.5-1.5c1.9-2,2.3-2.8,2.3-4.6c0-2.9-2.6-5.4-5.7-5.4
		c-1.9,0-2.8,0.5-5,2.6l-1.4,1.3v-2.6c0-4.1-1.9-6.2-5.5-6.2C141.4,51.5,140.3,51.7,139.6,52.2z M145.4,69.3
		c3.6,2.4,3.2,7.7-0.6,9.5c-3.8,1.8-8.3-1.6-7.6-5.7C137.8,69.2,142.2,67.2,145.4,69.3z"/>
	<path class="st1" d="M64.6,69.1c-1.4,0.3-3.7,0.9-5.3,1.5C47.1,74.8,38,86,35.6,99.9c-0.8,4.6-0.8,12.7,0,17
		c2.9,15.1,13.5,26.6,28,30.3c4.5,1.2,12.4,1.6,16.7,0.9c8.8-1.4,20.6-7,22.1-10.6c1.4-3.3-1.7-7.2-5.4-6.7c-0.9,0.1-2.5,0.9-4,1.9
		c-9.6,6.6-22.6,7.6-32.4,2.4c-5.3-2.8-9.1-6.7-11.8-12.2c-1.5-2.9-3-8-3-9.9v-0.9h29.5c32,0,31.1,0,32.8-2.1
		c0.7-0.9,0.8-1.5,0.8-4.7c0-18.1-11.5-33-28-36.4C77.1,68.3,68,68.3,64.6,69.1z M77,78.7c11.2,1.8,19.2,10.2,21.1,22.1l0.3,2.1
		H72.2H45.9l0.2-1.7c0.4-2.8,2.1-7.4,3.7-10.2c0.9-1.4,2.8-3.9,4.3-5.3C59.8,80,68.5,77.3,77,78.7z"/>
</g>
</svg>
