<?xml version="1.0" encoding="utf-8"?>
<!-- Generator: Adobe Illustrator 24.0.1, SVG Export Plug-In . SVG Version: 6.00 Build 0)  -->
<svg version="1.1" id="Layer_1" xmlns="http://www.w3.org/2000/svg" xmlns:xlink="http://www.w3.org/1999/xlink" x="0px" y="0px"
	 viewBox="0 0 128 128" style="enable-background:new 0 0 128 128;" xml:space="preserve">
<style type="text/css">
	.st0{fill:#FFFFFF;}
</style>
<title>logo_sm</title>
<path class="st0" d="M103,16.2c-1.9,1.2-2.4,2.5-2.4,5.4v2.6l-1.4-1.3c-2.2-2.1-3.1-2.6-5-2.6c-3,0-5.5,2.3-5.6,5.3
	c0,1.8,0.4,2.6,2.3,4.6l1.4,1.5L89.9,32c-4.4,0.4-6.3,2.3-6,6.1c-0.1,1.3,0.5,2.5,1.5,3.3c1.3,1.3,1.5,1.4,4.2,1.5l2.8,0.2l-1.3,1.4
	c-2,2.1-2.5,3-2.5,4.9c0,3.9,4.4,6.8,7.7,5.1c0.8-0.5,1.6-1.1,2.3-1.9c0.5-0.5,1-1,1.6-1.3c0.3,0.8,0.4,1.6,0.3,2.5
	c0,2.9,0.8,4.6,2.8,5.5c2.4,1.2,5.4,0.5,7.1-1.6c0.9-1,1-1.5,1-3.8c-0.1-0.9,0-1.7,0.3-2.6c0.7,0.5,1.4,1.1,2,1.7
	c1.4,1.4,2.1,1.8,3.4,1.9c3,0.4,5.8-1.8,6.2-4.8c0.1-0.9,0-1.8-0.3-2.7c-0.5-1-1.1-1.8-1.9-2.6l-1.5-1.6l2.8-0.2
	c2.6-0.1,2.9-0.2,4.1-1.5c1-0.8,1.6-2,1.6-3.2c0.3-3.7-1.7-5.9-6.1-6.3l-2.4-0.2l1.4-1.5c1.9-1.9,2.3-2.8,2.3-4.6
	c-0.1-3-2.6-5.4-5.6-5.3c-1.8,0-2.8,0.5-4.9,2.6l-1.4,1.3v-2.6c0-4-1.8-6.1-5.4-6.1C104.9,15.4,103.9,15.7,103,16.2z M108.8,33.1
	c2.5,1.6,3.2,4.9,1.7,7.3c-1.6,2.5-4.9,3.2-7.3,1.7c-1.8-1.1-2.7-3.2-2.4-5.3c0.4-2.9,3.1-4.9,6-4.5
	C107.4,32.4,108.1,32.7,108.8,33.1L108.8,33.1z"/>
<path class="st0" d="M29.1,32.8c-1.8,0.4-3.5,0.9-5.2,1.5C11.9,38.5,3,49.5,0.6,63.2c-0.8,5.6-0.8,11.2,0,16.7
	c2.8,14.8,13.3,26.2,27.6,29.9c5.4,1.2,10.9,1.5,16.4,0.9c8.6-1.3,20.3-6.9,21.7-10.4c1.3-3.3-1.7-7.1-5.3-6.6c-1.4,0.4-2.8,1-4,1.9
	c-9.5,6.5-22.2,7.4-31.9,2.3C20,95.3,15.9,91.1,13.5,86c-1.4-2.9-3-7.9-3-9.8v-0.9h29c31.5,0,30.6,0,32.3-2c0.7-0.9,0.8-1.5,0.8-4.7
	C72.6,51,61.3,36.2,45,32.9C39.7,32.1,34.4,32.1,29.1,32.8z M41.4,42.2c11,1.8,18.9,10,20.8,21.8l0.3,2H10.8l0.2-1.6
	c0.7-3.5,1.9-6.9,3.7-10c1.2-1.9,2.6-3.6,4.2-5.2C24.5,43.5,33,41,41.4,42.2z"/>
</svg>
