<?xml version="1.0" encoding="utf-8"?>
<!-- Generator: Adobe Illustrator 24.0.1, SVG Export Plug-In . SVG Version: 6.00 Build 0)  -->
<svg version="1.1" id="Layer_1" xmlns="http://www.w3.org/2000/svg" xmlns:xlink="http://www.w3.org/1999/xlink" x="0px" y="0px"
	 viewBox="0 0 1000 200" style="enable-background:new 0 0 1000 200;" xml:space="preserve">
<style type="text/css">
	.st0{fill:#FFFFFF;}
</style>
<g transform="translate(0.000000,802.000000) scale(0.100000,-0.100000)">
	<path class="st0" d="M5001.7,7726.5c-9.9-5.1-18.4-13.2-22.8-21.3c-6.2-12.1-6.6-36-6.6-519.2c0-549.3-1.1-515.5,19.8-535
		c14-13.2,48.1-15.4,65.8-4.4c25,15.4,24.6,11.4,24.6,262.3c0,246.5-0.4,243.2,22.4,285.8c42.6,79.7,147.3,126.8,255.4,113.9
		c106.9-12.5,177.5-70.2,205.8-167.5c5.9-19.5,6.6-47.8,8.5-244.3c1.5-158.4,3.3-224.5,6.6-229.6c9.9-17.6,22.8-25.4,44.5-26.8
		c17.3-1.1,23.1,0,33.8,7.3c26.5,17.6,25.7,11,25.7,232.6c0,122-1.5,211.3-4,231.5c-20.9,170.8-127.1,278.5-295.8,299.8
		c-105.1,13.2-208.3-18.4-283.3-86.3L5083,7308l-1.1,195.8l-1.1,195.8l-8.1,11.4c-9.6,13.2-28.7,23.5-44.1,23.5
		C5022.7,7734.6,5010.6,7730.9,5001.7,7726.5z"/>
	<path class="st0" d="M6763.5,7727.6c-8.5-4.4-18.4-13.2-22-19.5c-7.3-11.8-7.3-20.9-7.3-442v-429.9l8.5-32.7
		c17.6-69.8,55.8-121.2,109.1-147.7c26.8-13.2,30.1-14,71.3-15.4c38.9-1.5,44.5-0.7,58.8,6.2c27.6,14.3,36.7,49.2,19.8,77.9
		c-9.6,16.2-19.1,19.5-58.8,21.7c-33.8,1.8-38.6,2.9-52.9,12.9c-8.5,6.2-20.2,19.5-25.7,29.4c-22.4,40-21.7,22-21.7,483.1
		c0,393.1-0.4,421.4-6.6,433.2C6822.3,7731.7,6791.1,7741.6,6763.5,7727.6z"/>
	<path class="st0" d="M1517.2,7569.7c-18.4-12.1-24.2-25-24.2-53.6v-25.4l-13.6,12.9c-21.7,20.6-30.9,25.4-48.9,25.4
		c-30.1,0-55.1-23.9-55.1-52.5c0-17.6,4.4-26.1,22.8-45.2l14.3-15.1l-24.6-2.2c-43.4-4-62.1-23.1-59.2-60.6
		c1.1-16.9,3.3-21.7,14.7-33.1c12.9-12.9,15.1-13.6,41.5-14.7l27.9-1.5l-12.9-13.6c-19.8-20.9-24.6-30.1-24.6-48.1
		c0-38.9,43.4-67.2,76.4-50c5.5,2.9,15.8,11,22.4,18.4c7,7.3,14.3,13.2,15.8,13.2s2.9-11,2.9-24.2c0-29,8.1-45.2,27.2-54.4
		c25-11.8,51.1-5.9,69.8,16.2c8.5,9.9,9.6,15.1,9.6,37.1c0,14,1.1,25.4,2.6,25.4s10.3-7.7,19.8-16.9c14-14,20.2-17.3,33.8-18.7
		c41.2-4.8,72.4,35.3,57.7,73.9c-1.8,5.1-10.3,16.9-18.4,25.7L1680,7304l27.9,1.5c26.1,1.1,28.3,1.8,40.8,14.7
		c11,10.7,14,16.5,15.4,31.6c3.3,36.7-16.9,58.1-59.9,62.1l-24.2,2.2l14.3,15.1c18.4,19.1,22.8,27.6,22.8,45.2
		c0,28.7-25,52.5-55.1,52.5c-18,0-27.2-4.8-48.5-25.4l-14-12.9v25.4c0,40-18,60.6-53.3,60.6
		C1534.5,7576.6,1524.2,7574.1,1517.2,7569.7z M1574.1,7402.8c35.3-23.5,31.6-74.6-6.2-92.6c-37.1-17.6-80.5,15.4-73.9,55.8
		C1500.3,7404.3,1542.9,7423.8,1574.1,7402.8z"/>
	<path class="st0" d="M3003,7410.6c-125.3-9.6-217.5-76.1-234.8-170.1c-12.9-68.3,5.1-122.3,54.7-167.5
		c45.6-41.5,111.3-68,217.5-87.4c145.5-26.8,207.6-70.9,200.2-142.2c-3.7-36.7-27.6-68.7-64.7-87.4c-35.3-18-59.5-22-129-22.4
		c-56.2,0-68,1.1-93.7,8.5c-45.9,13.2-79.7,31.6-110.6,60.6c-25.7,24.2-29,26.1-46.7,27.6c-22,1.5-38.9-7.3-52.9-28.3
		c-15.8-23.5-10.3-41.9,21.7-72.4c33.4-32.3,73.1-55.1,125.3-72.7c56.2-18.7,83.4-22.4,158.7-22c62.8,0,73.5,1.1,105.1,9.6
		c109.1,29.4,178.6,96.3,190.7,183.3c8.8,63.6-11.4,118.7-59.2,162.8c-45.9,42.6-106.6,66.1-227.4,88.5
		c-61.7,11.4-113.2,26.8-135.9,41.5c-56.9,36-68.3,98.1-26.5,144.4c31.6,34.9,90.8,53.6,158.7,49.6c67.6-4,114.6-23.1,159.1-64.7
		c30.1-27.9,39.7-33.1,62.5-33.1c26.5,0,50.3,21.3,50.3,44.5c0,16.2-15.4,39.7-41.9,65C3215.4,7391.5,3121.7,7419.7,3003,7410.6z"/>
	<path class="st0" d="M6181.1,7410.6c-177.1-11.8-316.7-137.4-347.2-311.2c-7-40-7-119.8,0-157.3
		c27.9-147.3,131.2-258.7,275.9-297.6c33.4-9.2,41.9-9.9,108-9.9c77.5,0,96.6,3.3,153.2,25.7c59.5,23.1,119.4,69.4,159.8,122.7
		c52.5,69.1,80.1,165.3,75.3,260.9c-5.5,103.6-46.3,195.1-117.2,263.1C6407.5,7385.2,6306.4,7419.4,6181.1,7410.6z M6289.9,7304.7
		c50-12.5,86.7-33.4,124.6-71.6c50-49.6,74.2-101.4,82.3-176c17.6-155.4-74.2-290.3-217.1-319.7c-158-32.7-303.1,59.2-339.1,214.6
		c-8.1,36-7.3,108,1.8,147c24.6,102.1,102.9,181.5,203.5,206.1C6183.7,7314.3,6252.1,7314.3,6289.9,7304.7z"/>
	<path class="st0" d="M7391.8,7410.9c-246.2-15.8-404.5-249.5-339.9-501.2c9.9-37.5,38.2-95.9,61.7-126.8
		c40.4-53.3,100.3-99.6,159.8-122.7c56.6-22.4,75.7-25.7,153.2-25.7c65.8,0,74.6,0.7,106.9,9.6c146.2,39.7,249.1,150.3,277,298
		c8.1,41.9,7.3,124.2-1.5,166.1c-31.2,150.3-141.8,262.3-292.5,296.1C7488.8,7410.6,7432.6,7413.5,7391.8,7410.9z M7514.9,7301.4
		c91.5-29.8,157.3-98.8,184.4-193.6c7-24.6,8.5-37.5,8.1-86c0-66.5-4.4-86.7-29-137.8c-33.8-69.8-90-117.6-165.3-141.5
		c-34.9-11-106.6-14-144-6.2c-56.9,12.1-100.3,35.6-142.6,77.9c-48.9,48.5-76.4,111.7-81.6,187.7c-9.6,147,80.5,273.4,217.5,305
		C7396.6,7314.7,7484,7311.7,7514.9,7301.4z"/>
	<path class="st0" d="M8284.6,7410.6c-165.3-11-297.2-120.9-340.2-284.4c-8.1-29.4-8.8-40.4-8.8-106.2c0.4-68,1.1-76.1,10.3-110.2
		c11.4-42.3,36.4-96.3,59.2-128.2c18.4-25.7,62.5-69.1,86.7-85.6c80.8-54.7,196.9-77.2,295.8-56.6c82.7,16.9,161.3,69.8,202.1,135.6
		c7.7,12.5,14.7,22.8,15.8,22.8s0.7-25.4-0.4-56.2c-4.4-104-29.4-169.4-87.1-226.7c-61.4-61.7-140-87.8-231.5-77.2
		c-45.2,5.1-71.6,12.1-105.8,27.9c-37.1,17.3-68.7,40-95.2,69.1c-11.8,12.9-26.5,26.1-33.1,29.4c-41.5,20.9-88.5-20.9-69.1-61.7
		c9.2-19.1,61-70.2,94.8-93.3c117.9-81.2,287-96.6,412.2-37.8c121.6,56.9,202.8,172,219,310.5c2.6,21.3,3.3,101.8,2.6,220.8
		l-1.5,187.4l-9.6,35.3c-18.7,69.1-47,122.3-89.3,167.9C8531.1,7380.1,8420.5,7419.7,8284.6,7410.6z M8395.2,7304.7
		c50-12.5,86.7-33.4,124.9-71.6c28.3-27.9,36-38.6,50.3-68c25-50.7,32.7-83.4,32.7-141.5c0.4-52.2-5.9-86.3-21.7-124.9
		c-27.2-65-83.4-121.2-146.2-146.6c-66.5-26.5-158.4-27.2-223.8-1.8c-54.7,21.7-109.1,70.5-137.4,123.8
		c-41.2,77.9-45.9,188.1-11.4,271.5c33.8,80.8,107.3,142.6,192.2,160.9C8290.5,7314.3,8360.6,7313.6,8395.2,7304.7z"/>
	<path class="st0" d="M787.5,7405.4c-13.2-2.6-36.4-9.2-51.4-14.7c-118.7-41.2-206.5-150.3-230-285.5c-8.1-45.2-8.1-123.5,0-165.3
		c27.9-146.6,131.2-258.7,272.3-295c43.7-11.4,120.9-15.8,162-9.2c85.2,13.2,200.2,68.3,214.6,102.9c13.2,32.3-16.9,70.2-52.5,65.4
		c-8.8-1.1-23.9-8.5-38.9-18.7c-93.7-64.3-219.7-73.5-315.2-23.1c-51.8,27.2-88.9,65.4-115,118.3c-14.3,28.3-29.4,78.3-29.4,96.3
		v8.5h286.6c311.2,0,302.7-0.4,318.9,20.2c7,8.8,8.1,14.7,8.1,45.9c0,175.6-111.7,321.1-272.6,354.2
		C909.1,7412.8,821.3,7412.8,787.5,7405.4z M908.7,7312.1c109.1-17.3,187-98.8,205-214.9l3.3-20.2H861.7H606.4l2.2,16.5
		c4,26.8,20.2,71.6,36.4,99.2c8.5,14,27.2,37.5,41.5,51.8C741.6,7299.6,825.7,7325,908.7,7312.1z"/>
	<path class="st0" d="M2161.6,7403.9c-140.7-30.1-247.6-130.1-288.1-269.3c-17.3-58.8-18-84.9-15.1-449.7
		c2.6-318.9,2.9-339.1,9.6-349.8c9.9-16.2,23.5-23.9,43.4-23.9c20.9,0.4,38.9,9.2,48.1,24.6c7,11.4,7.3,20.2,7.3,224.9v213.1
		l19.5-21.7c42.3-48.1,113.5-92.2,177.1-109.5c25-7,39.3-8.1,95.5-8.1c57.7,0,70.2,0.7,97.4,8.5c37.5,9.9,83.4,30.9,117.2,53.3
		c32.3,21.7,82.3,73.9,104.3,109.5c46.7,74.6,68,169.7,57.7,259.4c-19.1,172.7-137,304.6-303.1,339.1
		C2288,7413.5,2205.4,7413.5,2161.6,7403.9z M2313.4,7306.2c34.2-7.7,79-28.7,108.8-51.1c45.6-34.9,84.1-94.1,99.9-154.3
		c11.4-41.5,11.4-116.5,0-158c-26.1-99.2-94.1-170.1-191.4-201c-23.9-7.3-35.3-8.5-82.7-8.5s-58.8,1.1-82.7,8.5
		c-48.1,15.1-75.7,32-114.3,70.5c-56.9,56.6-79.4,109.9-83,195.1c-4,96.6,25,171.2,91.9,233.3c32,30.1,73.9,52.9,116.5,63.9
		C2211.6,7313.6,2276.3,7314.3,2313.4,7306.2z"/>
	<path class="st0" d="M4424.9,7405.8c-123.8-25-222.7-112.4-266.7-235.5c-16.9-47.8-23.5-88.5-23.5-148.4
		c0-118.7,35.6-206.1,115.7-284.7c72-70.9,158.4-104.7,266.4-104.7c93.3,0,169.7,24.6,233.3,75.7c29,22.8,34.5,30.9,34.9,49.2
		c0,27.2-22.4,47.8-52.5,47.8c-14,0-20.2-2.9-41.5-18.7c-48.5-36-89.6-50.3-154.7-53.6c-90.4-4.4-157.6,19.5-214.6,76.1
		c-29.8,29.8-50.7,64.3-66.5,110.2c-11.8,34.2-12.1,36-12.1,101c0,75.3,4,97,27.6,147c34.2,73.1,88.9,119,165.7,138.5
		c40.8,10.3,113.5,8.1,150.3-4.4c41.5-14,74.6-34.9,104.7-65.8c25.4-26.1,37.8-33.4,58.1-33.4c31.2,0,55.8,32.3,46.7,60.6
		c-5.9,17.6-57.3,69.1-92.2,92.2c-60.3,40-120.1,56.6-203.5,56.2C4471.9,7410.6,4438.1,7408.4,4424.9,7405.8z"/>
	<path class="st0" d="M3425.5,7400.6c-21.7-11.8-27.6-20.9-27.2-42.3c0-16.9,14.3-48.1,157.6-343.9
		c86.3-178.9,157.3-326.6,157.3-328.8c0-1.8-32-73.9-70.9-159.8c-75-165.3-78.3-175.6-65-196.2c8.5-12.5,32.7-23.9,51.8-24.2
		c11,0,16.5,2.6,25.7,12.1c17.3,17.6,473.6,1022.1,473.6,1042.4c0,19.1-8.1,30.5-28.3,40c-19.8,9.2-35.3,9.9-50.7,1.8
		c-13.2-7-9.2,1.5-166.4-345.7c-62.5-138.1-114.6-249.5-116.1-248c-1.1,1.5-63.9,132.3-138.9,291
		c-75.3,158.7-140.4,292.5-145.5,297.2C3470.7,7408.4,3443.2,7410.6,3425.5,7400.6z"/>
	<path class="st0" d="M8797.1,7400.6c-21.7-11.8-27.6-20.9-27.2-42.3c0-16.9,14.3-48.5,157.6-343.9
		c86.3-178.9,157.3-326.6,157.3-328.8c0-1.8-32-73.9-70.9-159.8c-75-165.3-78.3-175.6-65-196.2c8.5-12.5,32.7-23.9,51.8-24.2
		c11,0,16.5,2.6,25.7,12.1c17.3,17.6,473.6,1022.1,473.6,1042.4c0,19.1-8.1,30.5-28.3,40c-19.8,9.2-35.3,9.9-50.3,2.2
		c-13.2-7-15.1-11-166.8-346.1c-62.5-138.1-114.6-249.5-116.1-248c-1.1,1.5-63.9,132.3-138.9,291
		c-75.3,158.7-140.4,292.5-145.5,297.2C8842.3,7408.4,8814.8,7410.6,8797.1,7400.6z"/>
</g>
</svg>
