<?xml version="1.0" encoding="utf-8"?>
<!-- Generator: Adobe Illustrator 24.0.1, SVG Export Plug-In . SVG Version: 6.00 Build 0)  -->
<svg version="1.1" id="Layer_1" xmlns="http://www.w3.org/2000/svg" xmlns:xlink="http://www.w3.org/1999/xlink" x="0px" y="0px"
	 viewBox="0 0 505.7 505.7" style="enable-background:new 0 0 505.7 505.7;" xml:space="preserve">
<style type="text/css">
	.st0{fill:#FFFFFF;}
</style>
<title>phone-answer</title>
<path class="st0" d="M492.1,374.8l-79.8-80.1c-18.1-18.3-47.5-18.3-65.6-0.1l-0.1,0.1L301,340.7c-3.5,3.5-8.9,4-12.9,1.1
	c-25-17.6-48.4-37.5-70-59.2c-19.3-19.4-37-40.3-53-62.5c-2.9-4-2.5-9.5,1-13l46.8-47.2c18.1-18.3,18.1-47.9,0-66.1l-79.8-80.4
	c-18.4-17.7-47.3-17.7-65.7,0L42.1,38.8C4,76.8-9.6,133.2,6.9,184.7c12.4,37.6,29.8,73.4,51.9,106.2c19.9,30.1,42.8,58.1,68.2,83.6
	c27.6,28.1,58.2,53,91.3,74.3c36.3,23.9,76.2,41.8,118.1,52.9c10.8,2.7,21.8,4,32.9,4c38-0.2,74.4-15.7,101.2-42.9l21.7-21.9
	C510.2,422.6,510.2,393,492.1,374.8z"/>
</svg>
