<svg id="Capa_1" data-name="Capa 1" xmlns="http://www.w3.org/2000/svg" viewBox="0 0 512 512"><defs><style>.cls-1{fill:#fff;}</style></defs><title>pin</title><path class="cls-1" d="M505.41,144.48h0L367.52,6.59A22.5,22.5,0,0,0,335.7,38.41L351.28,54,231.33,160.27A157.4,157.4,0,0,0,86.45,202.81a7.5,7.5,0,0,0,0,10.61l90.16,90.15L17.2,463A58.34,58.34,0,0,0,0,504.5,7.5,7.5,0,0,0,7.5,512,58.34,58.34,0,0,0,49,494.8L208.43,335.39l90.15,90.16a7.5,7.5,0,0,0,10.61,0,157.42,157.42,0,0,0,42.54-144.88L458,160.71l15.58,15.58a22.5,22.5,0,1,0,31.82-31.81Z"/></svg>