<?xml version="1.0" encoding="utf-8"?>
<!-- Generator: Adobe Illustrator 23.1.1, SVG Export Plug-In . SVG Version: 6.00 Build 0)  -->
<svg version="1.1" id="Layer_1" xmlns="http://www.w3.org/2000/svg" xmlns:xlink="http://www.w3.org/1999/xlink" x="0px" y="0px"
	 viewBox="0 0 1081.4 714.8" style="enable-background:new 0 0 1081.4 714.8;" xml:space="preserve">
<style type="text/css">
	.st0{opacity:0.1;fill:#6C63FF;enable-background:new    ;}
	.st1{opacity:0.1;}
	.st2{fill:#6C63FF;}
	.st3{opacity:0.2;fill:#6C63FF;enable-background:new    ;}
	.st4{fill:#DC9BA3;}
	.st5{opacity:5.000000e-02;enable-background:new    ;}
	.st6{opacity:0.1;enable-background:new    ;}
	.st7{fill:#FFD2D9;}
	.st8{fill:#E9E9EF;}
	.st9{fill:#CEDAD5;}
	.st10{fill:#844F6E;}
	.st11{opacity:5.000000e-02;}
	.st12{opacity:0.2;fill:#FFFFFF;enable-background:new    ;}
	.st13{opacity:5.000000e-02;fill:#00FF00;enable-background:new    ;}
	.st14{fill:#7679B4;}
	.st15{fill:#565388;}
	.st16{opacity:0.5;}
	.st17{fill:#865A61;}
	.st18{fill:#FDC2CC;}
	.st19{fill:#EC7580;}
	.st20{fill:#535461;}
	.st21{opacity:0.2;enable-background:new    ;}
	.st22{opacity:0.3;fill:#FFFFFF;enable-background:new    ;}
</style>
<title>vr_chat</title>
<rect x="637.6" y="107.4" class="st0" width="264.7" height="18.3"/>
<rect x="637.6" y="186.4" class="st0" width="264.7" height="18.3"/>
<rect x="637.6" y="268.8" class="st0" width="264.7" height="18.3"/>
<rect x="660.9" y="59.9" class="st0" width="16.6" height="47.4"/>
<rect x="660.9" y="67.4" class="st0" width="16.6" height="3.3"/>
<rect x="660.9" y="93.2" class="st0" width="16.6" height="3.3"/>
<rect x="685.9" y="59.9" class="st0" width="16.6" height="47.4"/>
<rect x="685.9" y="67.4" class="st0" width="16.6" height="3.3"/>
<rect x="685.9" y="93.2" class="st0" width="16.6" height="3.3"/>
<rect x="710.9" y="59.9" class="st0" width="16.6" height="47.4"/>
<rect x="710.9" y="67.4" class="st0" width="16.6" height="3.3"/>
<rect x="710.9" y="93.2" class="st0" width="16.6" height="3.3"/>
<rect x="735.8" y="59.9" class="st0" width="16.6" height="47.4"/>
<rect x="735.8" y="67.4" class="st0" width="16.6" height="3.3"/>
<rect x="735.8" y="93.2" class="st0" width="16.6" height="3.3"/>
<rect x="760.8" y="59.9" class="st0" width="16.6" height="47.4"/>
<rect x="760.8" y="67.4" class="st0" width="16.6" height="3.3"/>
<rect x="760.8" y="93.2" class="st0" width="16.6" height="3.3"/>
<rect x="785.8" y="59.9" class="st0" width="16.6" height="47.4"/>
<rect x="785.8" y="67.4" class="st0" width="16.6" height="3.3"/>
<rect x="785.8" y="93.2" class="st0" width="16.6" height="3.3"/>
<rect x="810.7" y="59.9" class="st0" width="16.6" height="47.4"/>
<rect x="810.7" y="67.4" class="st0" width="16.6" height="3.3"/>
<rect x="810.7" y="93.2" class="st0" width="16.6" height="3.3"/>
<rect x="812.4" y="221.4" transform="matrix(0.8939 -0.4482 0.4482 0.8939 -22.7902 393.8739)" class="st0" width="16.6" height="47.4"/>
<rect x="805.9" y="230.4" transform="matrix(0.8939 -0.4482 0.4482 0.8939 -17.6485 389.5638)" class="st0" width="16.6" height="3.3"/>
<rect x="817.4" y="253.5" transform="matrix(0.8939 -0.4482 0.4482 0.8939 -26.7619 397.1966)" class="st0" width="16.6" height="3.3"/>
<rect x="660.9" y="139.8" class="st0" width="16.6" height="47.4"/>
<rect x="660.9" y="147.3" class="st0" width="16.6" height="3.3"/>
<rect x="660.9" y="173.1" class="st0" width="16.6" height="3.3"/>
<rect x="685.9" y="139.8" class="st0" width="16.6" height="47.4"/>
<rect x="685.9" y="147.3" class="st0" width="16.6" height="3.3"/>
<rect x="685.9" y="173.1" class="st0" width="16.6" height="3.3"/>
<rect x="710.9" y="139.8" class="st0" width="16.6" height="47.4"/>
<rect x="710.9" y="147.3" class="st0" width="16.6" height="3.3"/>
<rect x="710.9" y="173.1" class="st0" width="16.6" height="3.3"/>
<rect x="814.9" y="139.8" class="st0" width="16.6" height="47.4"/>
<rect x="814.9" y="147.3" class="st0" width="16.6" height="3.3"/>
<rect x="814.9" y="173.1" class="st0" width="16.6" height="3.3"/>
<rect x="839.9" y="139.8" class="st0" width="16.6" height="47.4"/>
<rect x="839.9" y="147.3" class="st0" width="16.6" height="3.3"/>
<rect x="839.9" y="173.1" class="st0" width="16.6" height="3.3"/>
<rect x="864.8" y="139.8" class="st0" width="16.6" height="47.4"/>
<rect x="864.8" y="147.3" class="st0" width="16.6" height="3.3"/>
<rect x="864.8" y="173.1" class="st0" width="16.6" height="3.3"/>
<rect x="660.9" y="221.4" class="st0" width="16.6" height="47.4"/>
<rect x="660.9" y="228.9" class="st0" width="16.6" height="3.3"/>
<rect x="660.9" y="254.7" class="st0" width="16.6" height="3.3"/>
<rect x="685.9" y="221.4" class="st0" width="16.6" height="47.4"/>
<rect x="685.9" y="228.9" class="st0" width="16.6" height="3.3"/>
<rect x="685.9" y="254.7" class="st0" width="16.6" height="3.3"/>
<rect x="710.9" y="221.4" class="st0" width="16.6" height="47.4"/>
<rect x="710.9" y="228.9" class="st0" width="16.6" height="3.3"/>
<rect x="710.9" y="254.7" class="st0" width="16.6" height="3.3"/>
<rect x="735.8" y="221.4" class="st0" width="16.6" height="47.4"/>
<rect x="735.8" y="228.9" class="st0" width="16.6" height="3.3"/>
<rect x="735.8" y="254.7" class="st0" width="16.6" height="3.3"/>
<rect x="760.8" y="221.4" class="st0" width="16.6" height="47.4"/>
<rect x="760.8" y="228.9" class="st0" width="16.6" height="3.3"/>
<rect x="760.8" y="254.7" class="st0" width="16.6" height="3.3"/>
<rect x="785.8" y="221.4" class="st0" width="16.6" height="47.4"/>
<rect x="785.8" y="228.9" class="st0" width="16.6" height="3.3"/>
<rect x="785.8" y="254.7" class="st0" width="16.6" height="3.3"/>
<g class="st1">
	<path class="st2" d="M761.1,170c0,0-5-1.7-7.5,2.7c-1.3,2.4-1.3,5.4,0.1,7.8c1.6,2.9,4.9,6.7,11.1,6.3c5.3-0.3,7-4.3,7.5-8.1
		c0.6-4.6-2.7-8.7-7.2-9.3c-1.3-0.2-2.6,0-3.8,0.4L761.1,170z"/>
	<path class="st0" d="M754.8,180.9c-1.4-2.4-1.4-5.4-0.1-7.8c2.4-4.4,7.5-2.7,7.5-2.7l0.3-0.1c1.9-0.7,4-0.6,5.9,0.1
		c-2.1-1.3-4.7-1.5-7-0.7l-0.3,0.1c0,0-5-1.7-7.5,2.7c-1.3,2.4-1.3,5.4,0.1,7.8c1.3,2.4,3.3,4.3,5.7,5.4
		C757.5,184.6,755.9,183,754.8,180.9z"/>
	<path class="st3" d="M758.5,172.2c0,0,1.9,1.5,6.4,0"/>
	<path class="st2" d="M758.1,161.5c0,0,3.2,8.7,2.9,11l2.5-0.3c0,0-4.3-7.6-3.2-10.7H758.1z"/>
	<path class="st3" d="M758.1,161.5c0,0,3.2,8.7,2.9,11l2.5-0.3c0,0-4.3-7.6-3.2-10.7H758.1z"/>
	<path class="st2" d="M771.2,162.2c0,0-5.1-2.6-7.3-0.4s-2.6,7.6-2.6,7.6S769.6,170.5,771.2,162.2z"/>
	<path class="st0" d="M771.2,162.2c0,0-5.1-2.6-7.3-0.4s-2.6,7.6-2.6,7.6S769.6,170.5,771.2,162.2z"/>
	<path class="st2" d="M761.3,169.3c0,0,1.3-6.3,9.9-7.1"/>
</g>
<g class="st1">
	<path class="st2" d="M867.7,252.4c0,0-5-1.7-7.5,2.7c-1.3,2.4-1.3,5.4,0.1,7.8c1.6,2.9,4.9,6.7,11.1,6.3c5.3-0.3,7-4.3,7.5-8.1
		c0.6-4.6-2.7-8.7-7.2-9.3c-1.3-0.2-2.6,0-3.8,0.4L867.7,252.4z"/>
	<path class="st0" d="M861.4,263.3c-1.4-2.4-1.4-5.4-0.1-7.8c2.4-4.4,7.5-2.7,7.5-2.7l0.3-0.1c1.9-0.7,4-0.6,5.9,0.1
		c-2.1-1.3-4.7-1.5-7-0.7l-0.3,0.1c0,0-5-1.7-7.5,2.7c-1.3,2.4-1.3,5.4,0.1,7.8c1.3,2.4,3.3,4.3,5.7,5.4
		C864,267,862.4,265.4,861.4,263.3z"/>
	<path class="st3" d="M865.1,254.6c0,0,1.9,1.5,6.4,0"/>
	<path class="st2" d="M864.7,243.9c0,0,3.2,8.7,2.9,11l2.5-0.3c0,0-4.3-7.6-3.2-10.7H864.7z"/>
	<path class="st3" d="M864.7,243.9c0,0,3.2,8.7,2.9,11l2.5-0.3c0,0-4.3-7.6-3.2-10.7H864.7z"/>
	<path class="st2" d="M877.8,244.6c0,0-5.1-2.6-7.3-0.4s-2.6,7.6-2.6,7.6S876.1,252.9,877.8,244.6z"/>
	<path class="st0" d="M877.8,244.6c0,0-5.1-2.6-7.3-0.4s-2.6,7.6-2.6,7.6S876.1,252.9,877.8,244.6z"/>
	<path class="st2" d="M867.8,251.7c0,0,1.3-6.3,9.9-7.1"/>
</g>
<path class="st0" d="M738.9,365.4c20.4,11.8,39.2,28.1,60.4,37.2c25.9,11.1,53.8,11,81.1,10.7l110.3-1
	c-22.3,50.3-61.8,88.2-106.3,102.1c-17.5,5.5-36.1,7.6-51.6,19.3c-19.2,14.6-30.6,42.1-50.1,56c-21.5,15.3-48.3,11.2-72.3,18.8
	c-31.3,9.9-57.4,39.5-89.3,45.3c-30.8,5.6-60.9-11.9-90.8-22.9c-106.8-39.4-222.1,2.7-332.4-16.8c-4.2-0.7-8.7-1.8-11.8-5.5
	c-3.9-4.8-4.3-12.6-3.5-19.4c3.9-34.2,28.4-59.3,54.1-71.7c54.8-26.4,116.3-9.8,174.4-19.3c39.9-6.5,78-25.4,115.4-44
	c39.3-19.5,79.1-38.7,116.3-64C680.8,364.4,693,338.8,738.9,365.4z"/>
<path class="st4" d="M383.8,517.7c0,0-1.7,25,1.7,29.1c0,0-73.2,13.3-82.4,9.2c-9.2-4.2-5-10.8,0-13.3c5-2.5,30-11.7,33.3-29.1
	c0,0-10.8-5,24.1,1.7C395.4,521.9,383.8,517.7,383.8,517.7z"/>
<path class="st5" d="M383.8,517.7c0,0-1.7,25,1.7,29.1c0,0-73.2,13.3-82.4,9.2c-9.2-4.2-5-10.8,0-13.3c5-2.5,30-11.7,33.3-29.1
	c0,0-10.8-5,24.1,1.7C395.4,521.9,383.8,517.7,383.8,517.7z"/>
<path class="st2" d="M669.4,170l0.3,0.1c15.1,7.1,28.3,17.8,38.3,31.2c5.7,7.5,12.7,14.6,19.3,15.8c14.7,2.6,123,115.3,97,220.1
	c-26,104.9-177.6,109.2-177.6,109.2s-32.3,5.5-50.8,16.4c-8.8,5.2-19.3,6.2-28.9,2.8c-22-7.8-58.3-19.2-74.6-15.7
	c-24.3,5.2-232.2-81.5-232.2-81.5s86.7-83.2,214-81.5c0,0,201-140.4,194.1-198.4L669.4,170z"/>
<path class="st6" d="M669.4,170l0.3,0.1c15.1,7.1,28.3,17.8,38.3,31.2c5.7,7.5,12.7,14.6,19.3,15.8c14.7,2.6,123,115.3,97,220.1
	c-26,104.9-177.6,109.2-177.6,109.2s-32.3,5.5-50.8,16.4c-8.8,5.2-19.3,6.2-28.9,2.8c-22-7.8-58.3-19.2-74.6-15.7
	c-24.3,5.2-232.2-81.5-232.2-81.5s86.7-83.2,214-81.5c0,0,201-140.4,194.1-198.4L669.4,170z"/>
<path class="st2" d="M669.2,169.8l20.8,20c0,0,15.8,30.8,30,33.3s118.2,110.7,93.2,211.4S642.6,539.4,642.6,539.4
	s-30.3,5.1-48.1,15.4c-8.8,5.1-19.3,6.2-28.9,2.8c-21.2-7.5-55.6-18.2-71.1-14.9c-23.3,5-223.1-78.2-223.1-78.2
	s83.2-79.9,205.6-78.2c0,0,193.1-134.8,186.4-190.6L669.2,169.8z"/>
<ellipse transform="matrix(0.7071 -0.7071 0.7071 0.7071 -106.2426 553.0656)" class="st6" cx="614.5" cy="404.8" rx="119.5" ry="65.6"/>
<path class="st7" d="M669.2,275.5c0,0-9.2,15-3.3,44.1c5.8,29.1-15,29.1-15,29.1h-41.6l-14.1-36.6l20,1.7c0,0,13.3-3.3,7.5-34.1
	L669.2,275.5z"/>
<path class="st7" d="M544.4,240.6c6.4,20.3,14.3,44.9,18.6,58.1l3,9.3l27.5-28.3c0,0-1.2-2.8-3-6.7c-4-8.7-11-22.9-14.5-24.1
	c0,0,38.3-2.5,49.9,6.7c11.7,9.2,8.3-25,8.3-25s-22.5-1.7-30.8-6.7c-8.3-5-53.3-10-53.3-10S535.2,211.4,544.4,240.6z"/>
<path class="st6" d="M695,491.9c0,0-70.7-32.5-95.7-27.5"/>
<path class="st6" d="M767.4,415.3c0,0-85.7-3.3-132.3,26.6"/>
<path class="st6" d="M725,449.5c0,0-67.4-16.6-103.2-10.8"/>
<path class="st7" d="M294.7,485.3l5.8,42.4l15-1.7c0,0,0.9-0.8,2.4-2.2c4-3.6,12.4-10.5,20.5-14.3c2.7-1.4,5.7-2.3,8.7-2.6l-16.6-25
	c-4.1,1.5-8.2,2.7-12.4,3.7c-4.4,1-8.9,1.6-13.4,1.6C301.3,487.2,297.9,486.6,294.7,485.3z"/>
<path class="st8" d="M336.3,515.2c7.5,6.7,41.6-7.5,47.4,14.1l5.4-20.5l16.5-63.2l2.3-8.7l13.7-0.6l157.8-6.7l8.9-0.4l4.7-0.2
	l-6.3-3.1l-41.6-20.6c0,0-15-1-35.7-3.9l0,0c-31.3-4.3-75.7-12.7-100.8-27.7c-41.6-25-57.4,59.1-57.4,59.1s-6.3,21.3-11.2,42.3
	c-2.3,10-4.3,20-5,27.5C334.5,509.1,334.7,513.8,336.3,515.2z"/>
<path class="st5" d="M336.3,515.2c7.5,6.7,41.6-7.5,47.4,14.1l5.4-20.5l16.5-63.2l2.3-8.7l14.1-0.8l152.4-9.4l9.4-0.6l2.9-0.2
	l3.8-0.2l-45.4-20.4c0,0-15-1-35.7-3.9l0,0c-31.3-4.3-75.7-12.7-100.8-27.7c-41.6-25-57.4,59.1-57.4,59.1s-6.3,21.3-11.2,42.3
	c-2.3,10-4.3,20-5,27.5C334.5,509.1,334.7,513.8,336.3,515.2z"/>
<path class="st6" d="M318.1,485.6l14.5,17.1l5.8,6.8c2.7-1.4,5.7-2.3,8.7-2.6l-16.6-25C326.4,483.4,322.3,484.7,318.1,485.6z"/>
<path class="st8" d="M318.8,483.6l16.3,19.1l7.8,9.2v2.5c9.6,2.2,39.6-4.1,46.2-5.5c0.8-0.2,1.3-0.3,1.3-0.3
	c19.1,0.8,89.9-40.8,89.9-40.8s77.4,13.3,114.9,10c20.9-1.9,26.8-9.4,27.9-15.8c0.5-3.1,0.1-6.3-1.2-9.2l-33.4-23.5l-4.4-3.1l-7.1-5
	c0,0-12.3-2.8-27.9-6.2l0,0c-24.4-5.4-57-12.4-63.6-12.9c-10.8-0.8-38.3,8.3-54.1,26.6c-2.7,2.9-5.8,5.4-9.2,7.5l-0.4,0.3
	c-4.4,2.9-9.9,6.1-16,9.3c-20.1,10.6-47,22-65.5,29.5C327.5,480.3,318.8,483.6,318.8,483.6z"/>
<path class="st6" d="M294.7,485.3l5.8,42.4l15-1.7c0,0,0.9-0.8,2.4-2.2c-3.3,0.1-8.8-0.9-9.9-7.8c0,0,5.8-20.2-3.3-28.9
	C301.3,487.3,297.9,486.6,294.7,485.3z"/>
<path class="st4" d="M306.4,516.1c0,0,8.3-29.1-10.8-32.5l-31.6,12.5l-36.6,2.5c0,0-9.6,15.6,5.8,33.1c8.5,9.6,20.5,15.3,33.3,15.8
	l40,1.9l12.5-25.8C318.8,523.6,308,526,306.4,516.1z"/>
<path class="st6" d="M509.6,401.5c4.2,1.2,21.5,6.4,39.3,13.4l0,0c8.8,3.4,17.3,7.3,25.6,11.8c1.7,1,3.3,1.9,4.9,2.9
	c4.7,3,8.4,6,10.7,9c10.3,13.3,25.4,20.4,32.9,23.4c0.5-3.1,0.1-6.3-1.2-9.2l-33.4-23.5l4.7-0.2l-6.3-3.1l3.8-0.2l-45.4-20.4
	C545.2,405.4,530.2,404.3,509.6,401.5z"/>
<path class="st6" d="M563,298.7l3,9.3l27.5-28.3c0,0-1.2-2.8-3-6.7C587,280.3,570.4,293.2,563,298.7z"/>
<path class="st9" d="M662.1,312.5c1-2.8,1.7-5.7,2.1-8.7l35.8,12.5c0,0,24.6,18.7,22.1,59.5c0,0-30.4-11.2-43.7,2.1l-0.3,2.3
	c-2.8,23.3-13.1,45-29.3,61.9c-6.7,6.9-12.9,14.8-16.2,22.3c0,0-23.3-6.7-37.5-25C581,421.2,513.6,402,513.6,402s35.8,0.8,40.8-11.7
	s21.6-39.1,15.8-59.9S561,303,561,303s34.1-24.1,31.6-31.6l21.6,25l10,3.3c-0.8,1.9-1.2,4-1.2,6.1
	C622.6,328.4,654.5,333.8,662.1,312.5z"/>
<path class="st2" d="M632.2,483.2c0,0-80.7-33.3-146.5-1.7l15.8,33.3l75.7,1.7L632.2,483.2z"/>
<path class="st6" d="M623.9,290.6c-0.3-3.1-0.7-6.2-1.3-9.3l46.6-4.2c0,0-3.2,2.8-4.6,13.2c-5.5,3.2-11.9,7.6-18.7,7.6
	C638,298,630.3,295.4,623.9,290.6z"/>
<circle class="st7" cx="645.5" cy="260.1" r="36.6"/>
<path class="st10" d="M672.6,269.7h-5v-14.1l-5-15c0,0-25-11.7-36.6-9.2l-9.2,8.3c0,0-2.5-20,12.5-27.5s41.6-4.2,48.3,1.7
	c6.7,5.8,17.5,15.8,9.2,43.3l-2.5,6.7C684.2,263.9,674.2,260.5,672.6,269.7z"/>
<g class="st11">
	<path d="M607.9,288.9l-2.7-0.9l-12.6-14.5c0.2-0.7,0.3-1.4,0.1-2.1L607.9,288.9z"/>
	<path d="M625.4,315.8c-6.6-2.9-11.7-9.2-11.4-18.3c0-0.5,0-1,0.1-1.4l0.3,0.3l10,3.3c-0.8,1.9-1.2,4-1.2,6.1
		C623,309.3,623.8,312.7,625.4,315.8z"/>
	<path d="M528.3,401.4c20.9,7.3,49.1,18.7,57.7,29.8c0.2,0.3,0.4,0.5,0.6,0.8c-22.9-15.7-73-30-73-30
		C518.5,402.1,523.4,401.9,528.3,401.4z"/>
	<path d="M623.5,456.1c3.3-7.5,9.5-15.4,16.2-22.3c16.2-16.9,26.5-38.6,29.3-61.9l0.3-2.3c13.3-13.3,43.7-2.1,43.7-2.1
		c1.6-25.9-7.7-42.9-14.7-51.8l1.8,0.6c0,0,24.6,18.7,22.1,59.5c0,0-30.4-11.2-43.7,2.1l-0.3,2.3c-2.8,23.3-13.1,45-29.3,61.9
		c-6.7,6.9-12.9,14.8-16.2,22.3c0,0-20.3-5.8-34.5-21.4C605.8,448.8,614.3,453.2,623.5,456.1z"/>
</g>
<path class="st7" d="M632.6,358.7c0,0,39.9,57.4,60.8,74.1c20.8,16.6,26.6-7.5,26.6-7.5v-53.3l-36.6-4.2L683,373l-0.4,5.8
	l-34.1-36.6c0,0-34.1-30.8-40.8-12.5C601,347.9,632.6,358.7,632.6,358.7z"/>
<path class="st6" d="M683,373c5,2.9,10.3,5.3,15.8,7c7.9,2.4,16.9-0.1,21.2-1.7v-6.2l-36.6-4.2L683,373z"/>
<path class="st9" d="M720.5,366.7l2.2,8.9c0,0-13,6.1-23.8,2.7c-10.8-3.3-19.1-9.2-20.8-10c-1.7-0.8,6.7-10,6.7-10L720.5,366.7z"/>
<path class="st6" d="M480.8,468.2c-5.6-4.3-11.7-7.6-18.3-10c-6.3-2.2-12.1-5.2-17.5-9.2"/>
<path class="st12" d="M227.3,498.6l1.4-0.1c-2,5-4.8,17.3,6.9,30.7c8.5,9.6,20.5,15.3,33.3,15.8l38.8,1.8l-1.2,2.6l-40-1.9
	c-12.8-0.5-24.8-6.2-33.3-15.8C217.8,514.2,227.3,498.6,227.3,498.6z"/>
<path class="st13" d="M416,541.4h0.1c-0.1,2-0.3,6-0.3,10.5C415.8,548,415.9,544.1,416,541.4z"/>
<path class="st13" d="M368.6,534.3c-0.1,0.5-0.2,1-0.4,1.5C367.4,535.3,366.2,534.4,368.6,534.3z"/>
<path class="st12" d="M303,553.5c8.5,3.9,72.7-7.4,81.4-9c0.2,0.8,0.5,1.6,1,2.3c0,0-73.2,13.3-82.4,9.2c-4.7-2.1-5.9-4.9-5.3-7.5
	C298.3,550.3,299.8,552,303,553.5z"/>
<path class="st13" d="M416.1,541.4c0-0.8,0.1-1.3,0.1-1.3S420.5,541.7,416.1,541.4z"/>
<path class="st6" d="M663.8,270.1h-50.6c-1.9,0-3.4-1.5-3.4-3.4v-21.5c0-1.9,1.5-3.4,3.4-3.4h50.6c1.9,0,3.4,1.5,3.4,3.4v21.5
	C667.2,268.6,665.6,270.1,663.8,270.1z"/>
<path class="st6" d="M686.8,261.8h-20.1c-1.1,0-2-0.9-2-2V253c0-1.1,0.9-2,2-2h20.1c1.1,0,2,0.9,2,2v6.8
	C688.8,260.9,687.9,261.8,686.8,261.8z"/>
<path class="st14" d="M663.8,269.3h-50.6c-1.9,0-3.4-1.5-3.4-3.4v-21.5c0-1.9,1.5-3.4,3.4-3.4h50.6c1.9,0,3.4,1.5,3.4,3.4v21.5
	C667.2,267.8,665.6,269.3,663.8,269.3z"/>
<path class="st15" d="M657.1,267.6h-43.9c-1.9,0-3.4-1.5-3.4-3.4V246c0-1.9,1.5-3.4,3.4-3.4h43.9c1.9,0,3.4,1.5,3.4,3.4v18.2
	C660.5,266.1,658.9,267.6,657.1,267.6z"/>
<path class="st15" d="M686.8,261h-20.1c-1.1,0-2-0.9-2-2v-6.8c0-1.1,0.9-2,2-2h20.1c1.1,0,2,0.9,2,2v6.8
	C688.8,260.1,687.9,261,686.8,261z"/>
<path class="st6" d="M622.2,242.6c-9-5.4-16.3-13.3-21.1-22.6c-0.6-1.1-1.1-2.3-0.8-3.5c0.6-2.3,3.5-2.7,5.7-3.6
	c4-1.8,5.6-6.4,8.2-9.9c4.5-6,12-8.9,19.4-7.5c3.8,0.8,7.3,2.6,11.1,3.2c8.3,1.2,17.3-3.8,24.7,0c3.4,1.7,5.7,5,7.7,8.2
	c5.1,8.1,11.4,16.6,6.8,26.1c-2.6,5.4-6.8,9.9-12.8,11.5c-5.9,1.6-12.8,0.3-18.8-0.4c-5-0.5-10.1-1.7-15.1-1.1
	C631.5,243.6,627.8,246,622.2,242.6z"/>
<path class="st10" d="M622.2,241c-9-5.4-16.3-13.3-21.1-22.6c-0.6-1.1-1.1-2.3-0.8-3.5c0.6-2.3,3.5-2.7,5.7-3.6
	c4-1.8,5.6-6.4,8.2-9.9c4.5-6,12-8.9,19.4-7.5c3.8,0.8,7.3,2.6,11.1,3.2c8.3,1.2,17.3-3.8,24.7,0c3.4,1.7,5.7,5,7.7,8.2
	c5.1,8.1,11.4,16.6,6.8,26.1c-2.6,5.4-6.8,9.9-12.8,11.5c-5.9,1.6-12.8,0.3-18.8-0.4c-5-0.5-10.1-1.7-15.1-1.1
	C631.5,241.9,627.8,244.3,622.2,241z"/>
<polygon class="st3" points="191.2,165.2 124.2,153.6 123.3,183.6 192,195.1 "/>
<polygon class="st3" points="90.7,109.5 90.7,303.6 177.7,319.2 194,322.1 217.7,326.3 220.7,326.9 223.2,327.3 224.1,327.5 
	224.3,327.5 236.9,329.8 239.6,330.2 257.4,333.4 277.8,337.1 304.8,341.9 305.3,342 338.2,347.9 385,356.2 452.7,368.3 
	452.7,174.2 "/>
<g class="st16">
	<rect x="242.3" y="208.9" class="st17" width="61.9" height="64.2"/>
	<rect x="242.3" y="200" class="st6" width="61.9" height="64.2"/>
	<path class="st18" d="M227.5,291.4l1.5,2.1l4.9,6.8l0.7,1l2.4,3.4l0.5,0.7l8.4,11.8l0.5,0.8l5.1,7.2l0.5,0.7l5.4,7.5l20.4,3.7
		l2.8-0.3l9.7-18.8l0.3-0.6l0-0.1l5.2-10.1l0.2-0.4l0.1-0.4l0.5-3.4v-0.1l0.1-0.6l0,0V302l1.7-12.7v-0.1l2.2-16.2l1.2-8.8l0.3-2.1
		c-2,1-4.1,1.7-6.3,2.1c-1.4,0.3-2.8,0.4-4.2,0.5h-0.1c-1.2,0-2.4-0.2-3.6-0.5c-2.7-0.7-5-2.4-6.4-4.8l0,0c-2.3-3.8-3.3-10-2-20
		c0-0.3,0.1-0.5,0.1-0.8c0.3-2.2,0.7-4.6,1.3-7.2l-23.3-11.3l-0.3-0.2l-3.3-1.6c0,0,0.5,2.4,0.9,6l0.1,0.6c0.4,3.6,0.7,7.3,0.6,11
		c0,0.3,0,0.5,0,0.8c0,3.7-0.5,7.4-1.4,11.1c0,0.1-0.1,0.3-0.1,0.4c-1.7,6.2-5.3,11.2-11.9,12.4c-1.8,0.3-3.7,0.3-5.6,0.1
		c-2.4-0.3-4.8-0.3-7.2,0.2C213.5,264.4,227.5,291.4,227.5,291.4z"/>
	<path class="st6" d="M281,231.4c-0.6,2.9-1.1,5.6-1.4,8c-2.8,0.8-5.7,1.2-8.6,1.2c-5.3,0-10.6-1.4-15.3-4
		c0.1-6.1-0.5-12.3-1.7-18.3L281,231.4z"/>
	<circle class="st18" cx="271" cy="208.7" r="31.1"/>
	<path class="st19" d="M220.3,317.1c0,0,0.2,0.3,0.4,0.8c1.6,3.1,2.8,6.3,3.6,9.6l12.6,2.3l2.7,0.5l17.7,3.2l20.4,3.7l27,4.8
		c4-5.4,6.6-11.8,7.4-18.5c0-0.3,0.1-0.5,0.1-0.8c0.1-1.3,0.2-2.6,0.2-3.9l0,0c0,0,0-0.1,0-0.1v0c0-0.4,0-0.9,0-1.4
		c-0.2-9-9-10.8-16.5-10.8c-3.5,0.1-7,0.4-10.4,1.2l-1.8,2.9l0,0l0,0l-0.7,1.1l0,0l-2.5,4l-9.2,16.5l-2.7-6.2l-0.2-0.4l0,0l-3.6-8.2
		h-0.4l-18.6-0.1L220.3,317.1z"/>
	<path class="st19" d="M224.1,327.7c0-0.1,0-0.2-0.1-0.2c-0.9-3.3-2.2-6.5-3.8-9.6h0.4l25.8,0.1l18,0.1h0.4l3.5,7.9l0.1,0.3l0.2,0.4
		l2.7,6.1l9.2-16.5l0,0l0.1-0.2l1.8-2.9l0.8-1.4l0,0l0.4-0.7l1.8-2.9c0,0,1.6-0.4,4-0.7l0.8-0.1c0.6-0.1,1.3-0.1,2.1-0.2l0.7,0h0.1
		l1.3-0.1c0.4,0,0.8,0,1.2,0c1.1,0,2.3,0,3.5,0.1l0.9,0.1c2.4,0.2,4.8,0.8,7,1.9c0.2,0.1,0.3,0.2,0.5,0.3c0.5,0.3,1.1,0.7,1.5,1.1
		c0.2,0.2,0.4,0.3,0.6,0.5c0.5,0.4,0.9,0.9,1.3,1.4c0.2,0.4,0.5,0.7,0.6,1.1c0.2,0.4,0.4,0.8,0.5,1.3c0.1,0.5,0.2,0.9,0.3,1.4
		c0.1,0.5,0.1,1.1,0.1,1.6c0,0.2,0,0.4,0,0.6v0.1c0,0,0,0,0,0.1l0,0c0,0.5,0,0.9,0,1.4c0,0.3,0,0.6,0,0.9c0,0,0,0,0,0l0,0
		c0,0.2,0,0.5,0,0.7c0,0.2,0,0.5-0.1,0.8c-0.1,0.3,0,0.5-0.1,0.8c-0.7,6.7-3.1,13.1-7,18.7l-0.5-0.1l-27-4.8l-20.4-3.7l-17.7-3.2
		l-2.7-0.5l-12.6-2.3c0,0.1,0.1,0.2,0.1,0.3L224.1,327.7z"/>
	<path class="st18" d="M314.4,314c0.5,1.9,1.2,3.8,2,5.6l0.2,0.6c4.8,10.8,12.2,20.3,21.5,27.6l46.8,8.3c-3.5-2.7-7.2-5.3-10.9-7.6
		L351,333.3l-15.7-23.9l-0.3-0.5l-4.4-6.7L314.4,314z"/>
	<path class="st6" d="M335.3,309.3c-0.4,0.5-1.1,0.7-1.7,0.5c-7.7-1.2-16.5,10-16.5,10l-0.4,0.4c-0.9-2-1.6-4.1-2.2-6.2l16.1-11.9
		L335.3,309.3z"/>
	<path class="st6" d="M312.3,323.3c-3.6,2-8.6,3.5-12.5-0.4c-6.7-6.7-18.5-5.8-19.2-5.8c1.2-0.2,2.3-2.6,3.2-5.9l1.8-2.9
		c0,0,26.5-6.2,26.9,9.6C312.6,319.7,312.5,321.5,312.3,323.3z"/>
	<path class="st6" d="M298.4,289.3l-2.4,17.5l-5.4,10.6c-3.4-0.9-6.8-1.2-10.3-1c3.8-0.5,6.3-24.4,6.3-24.4l0.2,0L298.4,289.3z"/>
	<path class="st19" d="M333.7,309c-7.7-1.2-16.5,10-16.5,10s-10.4,10-17.3,3.1c-6.7-6.7-18.5-5.8-19.2-5.8
		c3.8-0.5,6.3-24.4,6.3-24.4l0.2,0l36.9-8.2c0,0,2.2,3.4,4.7,7.7C333.2,299.1,338.6,309.8,333.7,309z"/>
	<path class="st6" d="M324.4,293.7c0.4,0.8-6.2,4.6-9.2,3.5s-10.8,5-11.5,5.8s-18.1-1.2-18.1-1.2c0.7-3.3,1.2-6.5,1.5-9.9l36.9-8.2
		c0,0,2.2,3.4,4.7,7.7C326.4,292.3,324.2,293.3,324.4,293.7z"/>
	<path class="st6" d="M302.1,262.1l-3.7,27.1l-1.8,12.8c-5.2-0.4-11.4-1.1-11.4-1.1s6.5-27.3-4.2-41.5l0.6,0
		C287.7,269.5,302.1,262.1,302.1,262.1z"/>
	<path class="st19" d="M281.4,259.4c0,0,19.6-1.5,27.3,3.8s18.8,21.5,18.8,21.5l6.2,3.8c0,0-9.6,3.5-9.2,4.2s-6.2,4.6-9.2,3.5
		s-10.8,5-11.5,5.8s-18.1-1.2-18.1-1.2S292.1,273.7,281.4,259.4z"/>
	<path class="st18" d="M194,322.1l23.8,4.2l3,0.5l-0.1-0.3c-0.7-2.3-1.7-4.4-3-6.3c-7.3-10-23.5,0-23.5,0S194,320.9,194,322.1z"/>
	<path class="st6" d="M194,322.1l23.8,4.2l3,0.5l-0.1-0.3c-0.7-2.3-1.7-4.4-3-6.3c-7.3-10-23.5,0-23.5,0S194,320.9,194,322.1z"/>
	<path class="st6" d="M224.1,327.7c0-0.1,0-0.2-0.1-0.2c-0.9-3.3-2.2-6.5-3.8-9.6h0.4l25.8,0.1l18,0.1l3.8,7.9l0.2,0.3l0.2,0.4l0,0
		c-0.3,0-3.7,0.7-10.4-0.8c-2.1-0.5-4.2-0.6-6.3-0.1c-2.8,0.6-4.8,2.2-7.2,3.2c-1.7,0.6-3.4,1-5.2,1.2l-2.7-0.5l-12.6-2.3
		c0,0.1,0.1,0.2,0.1,0.3L224.1,327.7z"/>
	<path class="st19" d="M177.7,319.2l16.3,2.9l23.8,4.2c1,0,1.9,0,2.9,0.2c0.9,0.2,1.7,0.4,2.6,0.7c0.3,0.1,0.7,0.3,1,0.4l0.2,0.1
		c0-0.1,0-0.2-0.1-0.3l12.6,2.3c2.7-0.1,5.4-0.6,7.9-1.5c2.3-0.9,4.2-2.4,6.7-3.1c2.2-0.6,4.5-0.6,6.7,0c5.6,1.3,9,1,10,0.8l0,0
		c0.1,0,0.2,0,0.3,0l0,0l-0.2-0.4l0,0l-3.6-7.5l-0.4-0.8l0,0l-7.3-15.1l-0.4-0.8l-4.6-9.5l0,0h-0.3l-22.8,1.6l-1.6,0.1l-3,0.2l0,0
		h-0.7l-36.2,2.5l-2.4,5.5l-0.2,0.5L177.7,319.2z"/>
	<path class="st6" d="M258.3,307.5c-4.2-6.9-26.5-0.8-26.5-0.8s-10.8,3.1-13.1-2.7c-2.3-5.8-18.8-1.9-18.8-1.9s-12,4.5-14.9,0.2
		l2.6-6l64.3-4.4L258.3,307.5z"/>
	<path class="st19" d="M239.8,262.1c0,0-21.1-4.2-31.1,1.2c-10,5.4-17.7,17.3-17.7,17.3l-14.6,13.4c0,0,5.8,2.7,8.5,7.3
		c2.7,4.6,15,0,15,0s16.5-3.8,18.8,1.9s13.1,2.7,13.1,2.7s22.3-6.2,26.5,0.8L239.8,262.1z"/>
	<path class="st6" d="M264.2,163.6c-2.9-0.5-5.8-0.9-8.6-0.3c-4.7,1-8.3,4.8-10.9,8.8c-2.6,4-4.7,8.4-7.9,12
		c-2.2,2.4-4.8,4.3-6.8,6.8c-2.8,3.8-3.8,8.6-4.8,13.2c-1.3,6.8-2.7,13.7-2.1,20.6c0.3,3.5,1.1,6.9,1.3,10.4
		c0.4,7-1.7,13.9-3.7,20.6c-1.4,4.6-2.9,9.4-5.7,13.3c-2,2.5-4.1,4.9-6.5,7.1c-0.5,0.5-1,1.1-1.2,1.7c-0.5,2,1.9,3.3,3.7,4.2
		c5.6,2.8,9.3,8.2,13.6,12.7c4.4,4.5,10.6,8.3,16.6,6.6c1.8-0.5,3.5-1.6,5.3-1.5c1.3,0.1,2.5,0.4,3.6,0.9c2.9,1,6,1.6,9.2,1.5
		c0.7,0.1,1.4-0.1,2-0.4c0.9-0.6,1.1-1.9,1.2-3c0.6-7,1.2-14,0.8-21c-0.9-15.8-15.5-34.2-10-49c2.4-6.5,6.8-12.1,9.3-18.5
		c2.6-6.8,11.7-12.4,13.5-19.4c0.1-0.8,0.5-1.6,1.2-2.1c1-0.6,2.2-0.1,3.1,0.6c5.2,3.6,6.9,10.4,8.8,16.5c1.5,4.9,3.4,9.7,5.7,14.3
		c1.2,2.5,3.9,5.4,6.3,3.9c-1.2,10.5-8,19.7-9.5,30.1c-1.5,10.2,2.1,20.6,0.7,30.8c-0.9,6.6-3.9,12.7-8.5,17.5
		c5.2,1,10.5,1.1,15.7,0.1c5.3-0.9,10.9-3.4,12.8-8.5c2.1-5.5-1.1-11.4-2.8-17.1c-3.9-13.6-3.6-29.7-2.4-43.8
		c1.3-14.5,3.2-27.2,0-41.4c-0.7-3.5-1.7-6.9-3.1-10.2c-3.2-6.8-9.8-11.7-17.1-13.3c-3.7-0.9-7.5,0.5-11-0.2c-1.7-0.3-3.3-2-5-2.7
		C268.8,164.5,266.6,163.9,264.2,163.6z"/>
	<path class="st17" d="M312.5,293.3c-1.9,5-7.5,7.5-12.8,8.5c-5.2,0.9-10.5,0.9-15.7-0.1c4.6-4.8,7.6-10.9,8.5-17.5
		c1.4-10.2-2.2-20.6-0.7-30.8c1.5-10.5,8.3-19.6,9.5-30.1c-2.3,1.5-5-1.4-6.3-3.9c-2.3-4.6-4.2-9.4-5.7-14.2
		c-1.9-6.1-3.6-12.9-8.8-16.5c-0.9-0.6-2.2-1.2-3.1-0.6c-0.6,0.5-1.1,1.3-1.2,2.1c-1.8,7.1-10.9,12.6-13.5,19.4
		c-2.5,6.5-6.9,12.1-9.3,18.5c-5.6,14.9,9.1,33.2,10,49c0.4,7-0.2,14-0.8,21c-0.1,1.1-0.3,2.4-1.2,3c-0.6,0.4-1.3,0.5-2,0.5
		c-3.1,0-6.2-0.5-9.2-1.5c-1.2-0.5-2.4-0.8-3.6-0.9c-1.9,0-3.5,1-5.3,1.5c-6,1.8-12.2-2.1-16.6-6.6c-4.4-4.5-8-9.9-13.6-12.7
		c-1.8-0.9-4.2-2.2-3.7-4.2c0.2-0.7,0.6-1.3,1.2-1.7c2.4-2.2,4.5-4.6,6.5-7.1c2.8-4,4.3-8.7,5.7-13.3c2-6.7,4.2-13.6,3.7-20.6
		c-0.2-3.5-1-6.9-1.3-10.4c-0.6-6.9,0.8-13.8,2.1-20.6c0.9-4.6,1.9-9.4,4.8-13.2c1.9-2.6,4.6-4.5,6.8-6.8c3.2-3.5,5.3-8,7.9-12
		c2.6-4,6.2-7.8,10.9-8.8c2.8-0.6,5.8-0.1,8.6,0.3c2.3,0.3,4.6,0.9,6.8,1.7c1.7,0.7,3.3,2.4,5,2.7c3.5,0.6,7.3-0.7,11,0.2
		c7.2,1.7,13.8,6.6,17.1,13.3c0.6,1.3,1.2,2.7,1.6,4.2c0.6,2,1.1,4,1.5,6.1c0.1,0.4,0.2,0.8,0.3,1.3l0,0c2.8,13.5,1,23.4-0.2,37.5
		c-1.2,14.1-1.5,32.9,2.4,46.5C311.3,281.8,314.5,287.7,312.5,293.3z"/>
	<path class="st5" d="M268.1,317.7c0,0,3.1,5,3.1,8.5c0,0,2.3-8.5,4.2-8.5H268.1z"/>
</g>
<path class="st20" d="M520.6,595L627,584l1.3,20.9l-48.6,4.8c-3.3,0.3-6.7,0-10-0.8l-49.1-12.7c-0.4-0.1-0.6-0.5-0.5-0.8
	C520.1,595.2,520.3,595,520.6,595z"/>
<path class="st21" d="M520.6,595L627,584l1.3,20.9l-48.6,4.8c-3.3,0.3-6.7,0-10-0.8l-49.1-12.7c-0.4-0.1-0.6-0.5-0.5-0.8
	C520.1,595.2,520.3,595,520.6,595z"/>
<path class="st20" d="M520.6,594.5l107.2-10.9l1.3,21l-48.6,4c-3.3,0.3-6.7,0-10-0.8l-50-11.8c-0.4,0-0.7-0.4-0.7-0.7
	C519.9,594.8,520.2,594.5,520.6,594.5L520.6,594.5z"/>
<path class="st22" d="M546,595.3l56.7-5.8l0.7,11.1l-25.7,2.1c-1.8,0.1-3.6,0-5.3-0.4L546,596c-0.2,0-0.4-0.2-0.3-0.4
	C545.6,595.4,545.8,595.3,546,595.3z"/>
<path class="st20" d="M606.1,476.8l109.9-1.7c5.9,0.6,10.2,5.8,9.6,11.7c0,0.1,0,0.1,0,0.2l-12.5,103.8c-0.6,5.1-4.8,9.1-10,9.4
	l-112.4,7c-5.9,0.4-11-4.2-11.3-10.1c0-0.7,0-1.5,0.1-2.2l14.9-109C595.2,480.2,600.4,476.2,606.1,476.8z"/>
<path class="st21" d="M606.1,476.8l109.9-1.7c5.9,0.6,10.2,5.8,9.6,11.7c0,0.1,0,0.1,0,0.2l-12.5,103.8c-0.6,5.1-4.8,9.1-10,9.4
	l-112.4,7c-5.9,0.4-11-4.2-11.3-10.1c0-0.7,0-1.5,0.1-2.2l14.9-109C595.2,480.2,600.4,476.2,606.1,476.8z"/>
<path class="st20" d="M607,476.8l109.9-1.7c5.9,0.6,10.2,5.8,9.6,11.7c0,0.1,0,0.1,0,0.2L714,590.9c-0.6,5.1-4.8,9.1-10,9.4
	l-112.4,7c-5.9,0.4-11-4.2-11.3-10.1c0-0.7,0-1.5,0.1-2.2l14.9-109C596.1,480.2,601.3,476.2,607,476.8z"/>
<circle class="st22" cx="660.8" cy="535.8" r="5.2"/>
<circle class="st21" cx="565.8" cy="607.6" r="0.7"/>
</svg>
