<svg version="1.1" id="Capa_1" xmlns="http://www.w3.org/2000/svg" x="0" y="0" viewBox="0 0 29 19" xml:space="preserve"><style>.st0{fill:#1d91ce}</style><g id="Page-1"><g id="amex"><g id="card" transform="translate(-1 2)"><path id="shape" class="st0" d="M27.6 17H3.4C2.1 17 1 15.9 1 14.6V.4C1-.9 2.1-2 3.4-2h24.2C28.9-2 30-.9 30 .4v14.3c0 1.3-1.1 2.3-2.4 2.3z"/><path id="shape_1_" fill="#fff" d="M5.1 9.9L4.6 11H.4l3.3-7h8l.8 1.5.7-1.5H24l.9 1 1-1h5l-3.6 3.5 3.4 3.5h-4.8l-1.1-1-1.1 1H6.5L6 9.9"/><path id="shape_2_" class="st0" d="M6 10h-.9.9zm10.2-5h-2.1l-1.6 3.4L10.8 5H8.7v4.9L6.6 5h-2l-2.3 5h1.4l.5-1.1h2.7l.5 1.1H10V5.9l1.9 4.1h1.2l1.8-4v4h1.3V5zm8.7 1.6L23.4 5h-6v5h5.8l1.6-1.6 1.7 1.6H28l-2.4-2.5L28.1 5h-1.6l-1.6 1.6zM21.7 9h-3.1V7.9h3.1v-1h-3.1V6h3.1v-.8L24 7.4l-2.3 2.3V9zM5.5 5.8l.9 2H4.6c0 .1.9-2 .9-2z"/></g></g></g></svg>