<svg version="1.1" id="Capa_1" xmlns="http://www.w3.org/2000/svg" x="0" y="0" viewBox="0 0 29 19" xml:space="preserve"><g id="Page-1"><g id="diners"><g id="card" transform="translate(0 2)"><path id="shape" d="M26.6 17H2.4C1.1 17 0 15.9 0 14.6V.4C0-.9 1.1-2 2.4-2h24.2C27.9-2 29-.9 29 .4v14.3c0 1.3-1.1 2.3-2.4 2.3z" fill="#ebf1f8"/><path id="shape_1_" d="M12 0h5c4.1.3 7.2 3.9 6.9 8-.3 3.7-3.2 6.7-6.9 6.9h-5c-4.1-.3-7.2-3.9-6.9-8C5.3 3.2 8.3.3 12 0z" fill="#0165ac"/><path id="shape_2_" d="M14 11.7c2.3-.8 3.6-3.4 2.7-5.7-.5-1.3-1.5-2.3-2.7-2.7v8.4zm-3-8.4C8.7 4.1 7.4 6.7 8.3 9c.5 1.3 1.5 2.3 2.7 2.7V3.3zM12.5 14C8.9 14 6 11.1 6 7.5S8.9 1 12.5 1 19 3.9 19 7.5 16.1 14 12.5 14z" fill="#fff"/></g></g></g></svg>