<svg version="1.1" id="Capa_1" xmlns="http://www.w3.org/2000/svg" x="0" y="0" viewBox="0 0 29 19" xml:space="preserve"><style>.st1{fill:#f27712}</style><g id="Page-1"><g id="discover"><g id="card" transform="translate(0 2)"><path id="shape" d="M26.6 17H2.4C1.1 17 0 15.9 0 14.6V.4C0-.9 1.1-2 2.4-2h24.2C27.9-2 29-.9 29 .4v14.3c0 1.3-1.1 2.3-2.4 2.3z" fill="#ebf1f8"/><path id="shape_1_" class="st1" d="M15.2 17h11.3c1.3 0 2.4-1.1 2.4-2.4v-2.9c-4.2 2.5-8.8 4.3-13.7 5.3z"/><path id="shape_2_" d="M28 8.9h-1l-1.2-1.5h-.1v1.5h-.8V5.1h1.2c1 0 1.5.4 1.5 1.1 0 .6-.4 1-1 1.1L28 8.9zm-1.2-2.6c0-.4-.3-.6-.8-.6h-.3v1.2h.2c.6-.1.9-.3.9-.6zm-4.9-1.2h2.4v.6h-1.5v.9h1.5v.6h-1.5v1h1.5v.6h-2.4V5.1zM19.2 9l-1.8-3.9h.9l1.1 2.6 1.2-2.6h.9L19.7 9h-.5zm-7.6 0c-1.3 0-2.3-.9-2.3-2s1-2 2.3-2c.4 0 .7.1 1 .2v.9c-.3-.3-.7-.4-1.1-.4-.8 0-1.4.6-1.4 1.3 0 .8.6 1.3 1.4 1.3.4 0 .7-.1 1-.4v.9c-.2.1-.5.2-.9.2zM9.1 7.7c0 .8-.6 1.3-1.5 1.3-.7 0-1.1-.2-1.5-.7l.6-.5c.2.3.5.5.9.5s.6-.2.6-.5c0-.2-.1-.3-.2-.4-.2-.1-.4-.2-.6-.2-.8-.3-1.1-.6-1.1-1.1 0-.6.6-1.1 1.4-1.1.5 0 .9.2 1.3.4l-.5.6c-.2-.2-.4-.3-.7-.3-.4 0-.6.2-.6.4s.2.3.7.5c.9.3 1.2.5 1.2 1.1zM4.9 5.1h.8v3.8h-.8V5.1zM2.2 8.9H1V5.1h1.2c1.4 0 2.3.8 2.3 1.9 0 .6-.3 1.1-.8 1.5-.4.3-.8.4-1.5.4zm1-2.8c-.3-.3-.6-.3-1.1-.3h-.3v2.5H2c.6 0 1-.1 1.2-.3.3-.2.5-.6.5-1s-.2-.7-.5-.9z"/><path id="shape_3_" class="st1" d="M15 5c-1.1 0-2 .9-2 2 0 1.2.9 2 2 2s2-.9 2-2-.9-2-2-2z"/></g></g></g></svg>