<svg version="1.1" id="Capa_1" xmlns="http://www.w3.org/2000/svg" x="0" y="0" viewBox="0 0 29 19" xml:space="preserve"><style>.st2{fill:#fff}</style><g id="Page-1"><g id="jcb"><g id="card" transform="translate(0 2)"><path id="shape" d="M26.6 17H2.4C1.1 17 0 15.9 0 14.6V.4C0-.9 1.1-2 2.4-2h24.2C27.9-2 29-.9 29 .4v14.3c0 1.3-1.1 2.3-2.4 2.3z" fill="#ebf1f8"/><path id="shape_1_" d="M5 15h4c.9 0 2-1.1 2-2V0H7c-.9 0-2 1.1-2 3v12z" fill="#047ab1"/><path id="shape_2_" class="st2" d="M7.3 10.1c-.8 0-1.6-.1-2.3-.3V8.7c.6.4 1.2.6 1.9.6.8 0 1.2-.5 1.2-1.3V5H10v3c0 1.2-.6 2.1-2.7 2.1z"/><path id="shape_3_" d="M12 15h4c.9 0 2-1.1 2-2V0h-4c-.9 0-2 1.1-2 3v12z" fill="#d42d06"/><path id="shape_4_" class="st2" d="M12 5.7c.6-.6 1.6-.9 3.2-.8.9 0 1.8.3 1.8.3v1.1c-.5-.3-1.1-.5-1.7-.6-1.2-.1-2 .6-2 1.8s.8 1.9 2 1.8c.6-.1 1.2-.3 1.7-.6v1.1s-.9.3-1.8.3c-1.6.1-2.6-.3-3.2-.8V5.7z"/><path id="shape_5_" d="M19 15h4c.9 0 2-1.1 2-2V0h-4c-.9 0-2 1.1-2 3v12z" fill="#67b637"/><path id="shape_6_" class="st2" d="M24 8.7c0 .8-.6 1.3-1.5 1.3H19V5H22.4c.7 0 1.3.5 1.3 1.2 0 .6-.4 1.1-1 1.2.7.1 1.3.6 1.3 1.3zm-2.5-2.9h-1.3V7h1.3c.2-.1.5-.3.5-.6s-.3-.6-.5-.6zm.1 2h-1.5v1.4h1.5c.2-.1.5-.3.5-.7s-.2-.6-.5-.7z"/></g></g></g></svg>