<svg version="1.1" id="Capa_1" xmlns="http://www.w3.org/2000/svg" x="0" y="0" viewBox="0 0 29 19" xml:space="preserve"><g id="Page-1"><g id="mastercard"><g id="card" transform="translate(0 2)"><path id="shape" d="M26.6 17H2.4C1.1 17 0 15.9 0 14.6V.4C0-.9 1.1-2 2.4-2h24.2C27.9-2 29-.9 29 .4v14.3c0 1.3-1.1 2.3-2.4 2.3z" fill="#003663"/><circle id="shape_1_" cx="10.5" cy="7.5" r="6.5" fill="#eb1c26"/><circle id="shape_2_" cx="18.5" cy="7.5" r="6.5" fill="#f99f1b"/><path id="shape_3_" d="M14.5 2.4c-2.8 2.2-3.3 6.3-1.1 9.1.3.4.7.8 1.1 1.1 2.8-2.2 3.3-6.3 1.1-9.1-.3-.4-.7-.8-1.1-1.1z" fill="#ef5d20"/></g></g></g></svg>