<svg version="1.1" id="Capa_1" xmlns="http://www.w3.org/2000/svg" x="0" y="0" viewBox="0 0 29 19" xml:space="preserve"><path id="shape" d="M26.6 19H2.4C1.1 19 0 17.9 0 16.6V2.4C0 1.1 1.1 0 2.4 0h24.2C27.9 0 29 1.1 29 2.4v14.3c0 1.3-1.1 2.3-2.4 2.3zM10 5.8c0-.4-.4-.8-.8-.8H3.8c-.5 0-.8.4-.8.8v3.3c0 .5.3.9.8.9h5.4c.5 0 .8-.4.8-.8V5.8z" opacity=".2"/><path id="shape_1_" d="M25 15h-3c-.6 0-1-.3-1-1s.4-1 1-1h3c.6 0 1 .3 1 1s-.4 1-1 1zm-6 0h-3c-.6 0-1-.3-1-1s.4-1 1-1h3c.6 0 1 .3 1 1s-.4 1-1 1zm-6 0h-3c-.6 0-1-.3-1-1s.4-1 1-1h3c.6 0 1 .3 1 1s-.4 1-1 1zm-6 0H4c-.7 0-1-.3-1-1s.3-1 1-1h3c.7 0 1 .3 1 1s-.3 1-1 1z" opacity=".3"/></svg>