<svg version="1.1" id="Capa_1" xmlns="http://www.w3.org/2000/svg" x="0" y="0" viewBox="0 0 29 19" xml:space="preserve"><g id="Page-1"><g id="visa"><g id="card" transform="translate(0 2)"><path id="shape" d="M26.6 17H2.4C1.1 17 0 15.9 0 14.6V.4C0-.9 1.1-2 2.4-2h24.2C27.9-2 29-.9 29 .4v14.3c0 1.3-1.1 2.3-2.4 2.3z" fill="#f6f9fc"/><path id="shape_1_" d="M0 14v.6C0 16 1.1 17 2.4 17h24.2c1.3 0 2.4-1.1 2.4-2.4V14H0z" fill="#f99f1b"/><path id="shape_2_" d="M0 1V.4C0-1 1.1-2 2.4-2h24.2C27.9-2 29-.9 29 .4V1H0zm13.9 3.1l-1.5 6.8h-1.8l1.5-6.8h1.8zm7.5 4.4l.9-2.5.5 2.6c.1-.1-1.4-.1-1.4-.1zm2 2.4H25l-1.4-6.8H22c-.3 0-.6.2-.8.5l-2.7 6.3h1.9l.4-1h2.3l.3 1zm-4.7-2.2c0-1.8-2.5-1.9-2.5-2.7 0-.2.2-.5.8-.6.6-.1 1.2 0 1.8.3l.2-1.4c-.4-.2-1-.3-1.7-.3-1.8 0-3 .9-3 2.2 0 1 .9 1.5 1.6 1.8.7.3.9.6.9.8 0 .5-.6.7-1.1.7-.9 0-1.4-.2-1.8-.4l-.3 1.5c.4.2 1.2.4 2 .4 1.9 0 3.1-.9 3.1-2.3zm-7.4-4.6l-2.9 6.8H6.6L5.2 5.5c-.1-.3-.2-.4-.4-.6-.6-.3-1.2-.5-1.8-.6v-.2h3c.4 0 .7.3.8.7l.8 3.9 1.8-4.6h1.9z" fill="#2d4990"/></g></g></g></svg>