<?xml version="1.0" encoding="utf-8"?>
<!-- Generator: Adobe Illustrator 24.0.1, SVG Export Plug-In . SVG Version: 6.00 Build 0)  -->
<svg version="1.1" id="Layer_1" xmlns="http://www.w3.org/2000/svg" xmlns:xlink="http://www.w3.org/1999/xlink" x="0px" y="0px"
	 viewBox="0 0 500 500" style="enable-background:new 0 0 500 500;" xml:space="preserve">
<style type="text/css">
	.st0{fill:#6EBA80;}
	.st1{enable-background:new    ;}
	.st2{fill:#FFFFFF;}
</style>
<title>patient-3</title>
<g>
	<g id="Layer_1_1_">
		<path class="st0" d="M249.9,500c-74.5-0.1-133.9-59.9-133.7-134.6C116.3,293.5,177.5,233,250,233c73.4,0,133.9,61.1,133.8,135.2
			C383.8,440.5,323.3,500.1,249.9,500z M226,384.2c-8-9-14.7-17.2-22.3-24.7c-9.3-9.1-21.6-9.2-29.4-0.9s-7.5,19.5,1.2,28.5
			c12.1,12.6,24.5,25,37.1,37c9.4,9,19.2,9.5,28.3,0.5c28.6-28,57.2-56.2,84.6-85.4c4.4-4.6,4.7-15.9,2.7-23
			c-2.6-9.4-12.5-11.4-21.3-9c-4.9,1.4-9.5,5.3-13.3,9C271.6,338.2,249.8,360.3,226,384.2z"/>
		<circle class="st0" cx="249.1" cy="85.9" r="85.9"/>
		<g class="st1">
			<path class="st2" d="M250.4,126.8c-5.5,0-10.4-1.2-14.7-3.5c-4.3-2.3-7.6-5.5-10-9.5c-2.4-4-3.6-8.5-3.6-13.5
				c0-1.7,0.5-3.1,1.5-4.1c1-1.1,2.2-1.6,3.6-1.6c1.5,0,2.7,0.5,3.6,1.6c1,1.1,1.4,2.4,1.4,4.1c0,3,0.8,5.8,2.3,8.3
				c1.5,2.5,3.6,4.6,6.3,6.1c2.6,1.5,5.6,2.3,8.9,2.3c4.8,0,8.8-1.3,11.7-4c3-2.7,4.5-6.4,4.5-11.3c0-3.1-0.7-5.9-2-8.3
				c-1.3-2.5-3.1-4.4-5.4-5.9c-2.3-1.5-4.8-2.2-7.7-2.2c-1.6,0-3-0.6-4-1.7c-1.1-1.1-1.6-2.5-1.6-4.1c0-1.6,0.5-3,1.6-4
				c1.1-1.1,2.4-1.6,4-1.6c2.1,0,4-0.5,6-1.6c1.9-1.1,3.5-2.5,4.7-4.3c1.2-1.8,1.9-3.8,1.9-6.1c0-3.2-1.2-6-3.5-8.2
				c-2.4-2.2-5.4-3.3-9-3.3c-2.8,0-5.3,0.6-7.7,1.7c-2.3,1.1-4.2,2.6-5.5,4.4c-1.4,1.8-2,3.9-2,6.2c0,1.7-0.5,3.1-1.4,4.2
				c-1,1.1-2.2,1.7-3.6,1.7c-1.4,0-2.6-0.5-3.6-1.6c-1-1.1-1.5-2.4-1.5-4c0-4.3,1.1-8.1,3.3-11.5c2.2-3.4,5.2-6,9-8
				c3.8-1.9,8.1-2.9,12.8-2.9c4.3,0,8.2,0.9,11.7,2.8c3.5,1.9,6.2,4.4,8.3,7.6c2,3.2,3,6.8,3,10.9c0,2.9-0.6,5.4-1.9,7.6
				c-1.3,2.2-2.9,4.1-4.9,5.7c-2,1.6-4.1,2.9-6.3,3.9c3.9,1.3,7.1,3.1,9.5,5.3c2.4,2.2,4.2,4.8,5.3,7.8c1.1,2.9,1.7,6.1,1.7,9.6
				c0,4.8-1.2,9.1-3.6,12.8s-5.7,6.8-9.7,8.9C259.7,125.8,255.3,126.8,250.4,126.8z"/>
		</g>
	</g>
</g>
</svg>
