<?xml version="1.0" encoding="utf-8"?>
<!-- Generator: Adobe Illustrator 24.0.1, SVG Export Plug-In . SVG Version: 6.00 Build 0)  -->
<svg version="1.1" id="Layer_1" xmlns="http://www.w3.org/2000/svg" xmlns:xlink="http://www.w3.org/1999/xlink" x="0px" y="0px"
	 viewBox="0 0 500 500" style="enable-background:new 0 0 500 500;" xml:space="preserve">
<style type="text/css">
	.st0{opacity:0.5;fill:#4584AE;enable-background:new    ;}
	.st1{enable-background:new    ;}
	.st2{fill:#FFFFFF;}
	.st3{opacity:0.5;}
	.st4{fill:#4584AE;}
</style>
<title>patient-1</title>
<circle class="st0" cx="269.9" cy="75.2" r="75.2"/>
<g class="st1">
	<path class="st2" d="M274.2,111.1c-1.3,0-2.4-0.5-3.4-1.4s-1.4-2.1-1.4-3.5V47.3l-7,3c-1.1,0.5-2.1,0.7-3.1,0.7
		c-1.4,0-2.6-0.4-3.5-1.4c-0.9-0.9-1.4-2.1-1.4-3.5c0-1,0.3-2,0.8-2.8c0.5-0.8,1.3-1.4,2.4-1.8l15.1-5.4c0.3-0.1,0.6-0.2,1-0.3
		c0.3-0.1,0.6-0.1,0.9-0.1c1.5,0,2.7,0.5,3.5,1.4c0.9,0.9,1.3,2.1,1.3,3.6v65.4c0,1.4-0.5,2.5-1.4,3.5
		C276.8,110.6,275.7,111.1,274.2,111.1z"/>
</g>
<g class="st3">
	<path class="st4" d="M297.6,302.2c-5.1-3-11-4.6-17-4.5c-6.2-0.1-12.3,1.5-17.6,4.6c-5.1,3.1-9.3,7.5-12.1,12.8
		c-3,5.8-4.5,12.2-4.3,18.8c-0.1,6.5,1.5,12.9,4.6,18.6c3,5.4,7.4,9.9,12.8,12.8c9.6,5.3,21,6.1,31.3,2.2c4-1.3,7.6-3.4,10.9-6
		c0.9-0.7,1.4-1.8,1.4-3c0-1.4-0.6-2.6-1.7-3.5c-0.8-0.6-1.8-1-2.9-1c-1.3,0-2.5,0.5-3.5,1.3c-2.2,1.8-4.8,3.2-7.6,4.1
		c-3,1.1-6.2,1.6-9.4,1.6c-7.3,0-13.3-2.2-18.2-6.6c-4.9-4.5-7.9-10.6-8.3-17.2h52.4c1.2,0.1,2.5-0.4,3.4-1.2
		c0.9-0.9,1.4-2.1,1.3-3.3c0.1-6.2-1.3-12.4-4.1-18C306.5,309.5,302.5,305.2,297.6,302.2z M256.3,328.9c1-6.7,3.6-12,7.9-16.1
		s9.8-6.1,16.3-6.1c6.5,0,11.8,2,16,6.1s6.6,9.4,7.3,16.1H256.3z"/>
	<path class="st4" d="M385.2,306.2c-11-43.7-49.9-77.5-94.5-83.1c-59.1-7.3-111.6,31.6-124.2,85.7C160,336,163.9,362,177,386.6
		c4.2,7.9,4.3,7.8-2.1,14.2c-18.1,18.1-36.3,36.3-54.4,54.5c-5,5.1-8.4,11.2-9.2,18.5c-1.1,10.7,4.5,19.9,14.4,24.5
		c1.2,0.5,2.3,1.2,3.4,1.8h10.8c9.5-3.1,16.5-9.6,23.3-16.6c16.1-16.4,32.5-32.5,48.7-48.8c4.6-4.5,5.2-4.6,10.8-1.6
		c68.7,38.1,149-2.7,164.2-76.3c0.8-3.6,1.3-7.3,2-10.9v-21.5C387.6,318.3,386.7,312.2,385.2,306.2z M357.6,295.7
		c0.3,0.7,0.6,1.3,0.9,2h-2.9L357.6,295.7z M276.2,425.2c-49.9,0-90.3-40.4-90.3-90.2c0-49.9,40.4-90.3,90.2-90.3
		c31.2,0,60.2,16.1,76.7,42.6c-0.8,0.3-1.5,0.7-2.1,1.3l-2.2,2.2v-3.1c0-1.4-0.5-2.7-1.4-3.6c-0.9-0.9-2.2-1.4-3.5-1.4
		c-2.7-0.1-4.9,2-5.1,4.7c0,0.1,0,0.3,0,0.4v3.1l-2.2-2.2c-0.9-1-2.2-1.6-3.6-1.6c-1.3,0-2.6,0.5-3.5,1.5c-2,1.8-2.1,4.9-0.3,6.9
		c0.1,0.1,0.2,0.2,0.3,0.3l2.2,2.2h-3.2c-1.3-0.1-2.6,0.5-3.6,1.4c-0.9,1-1.4,2.3-1.4,3.6c0,2.7,2.1,4.9,4.8,4.9c0,0,0.1,0,0.1,0
		h3.2l-2.3,2.3c-1,0.9-1.5,2.2-1.5,3.5c0.1,1.3,0.6,2.6,1.6,3.5c1.9,1.9,5,2,6.9,0.1c0,0,0.1-0.1,0.1-0.1l2.3-2.3v3.2
		c-0.1,1.3,0.5,2.6,1.4,3.6c1,0.9,2.3,1.4,3.6,1.4c2.7,0,4.9-2.1,4.9-4.8c0,0,0-0.1,0-0.1v-3.3l2.3,2.3c0.9,1,2.2,1.5,3.5,1.5
		c1.3,0,2.6-0.6,3.5-1.6c1.9-1.9,2-5,0.1-6.9c0,0-0.1-0.1-0.1-0.1l-2.3-2.3h3.1c1.2,0,2.4-0.4,3.3-1.1c15.7,47.3-10,98.4-57.3,114
		C295.5,423.6,285.9,425.2,276.2,425.2L276.2,425.2z M348.5,302.7c0,2.8-2.2,5-5,5s-5-2.2-5-5s2.2-5,5-5
		C346.3,297.7,348.5,300,348.5,302.7L348.5,302.7z"/>
</g>
</svg>
