<?xml version="1.0" encoding="utf-8"?>
<!-- Generator: Adobe Illustrator 24.0.1, SVG Export Plug-In . SVG Version: 6.00 Build 0)  -->
<svg version="1.1" id="Layer_1" xmlns="http://www.w3.org/2000/svg" xmlns:xlink="http://www.w3.org/1999/xlink" x="0px" y="0px"
	 viewBox="0 0 500 500" style="enable-background:new 0 0 500 500;" xml:space="preserve">
<style type="text/css">
	.st0{opacity:0.9;fill:#4584AE;enable-background:new    ;}
	.st1{fill:#6EBA80;}
	.st2{enable-background:new    ;}
	.st3{fill:#FFFFFF;}
</style>
<title>patient-2</title>
<path class="st0" d="M105.4,322.6h41.3c2.6,0,4.6,2.1,4.6,4.6v41.1c0,2.6-2.1,4.6-4.6,4.6h-41.3c-2.6,0-4.6-2.1-4.6-4.6v-41.1
	C100.8,324.7,102.9,322.6,105.4,322.6z"/>
<path class="st0" d="M186.4,322.6h41.4c2.6,0,4.6,2.1,4.6,4.6v41.1c0,2.6-2.1,4.6-4.6,4.6h-41.4c-2.6,0-4.6-2.1-4.6-4.6v-41.1
	C181.7,324.7,183.8,322.6,186.4,322.6z"/>
<path class="st0" d="M267.3,322.6h41.3c2.6,0,4.6,2.1,4.6,4.6v41.1c0,2.6-2.1,4.6-4.6,4.6h-41.3c-2.6,0-4.6-2.1-4.6-4.6v-41.1
	C262.7,324.7,264.8,322.6,267.3,322.6z"/>
<path class="st0" d="M348.3,322.6h41.3c2.6,0,4.6,2.1,4.6,4.6v41.1c0,2.6-2.1,4.6-4.6,4.6h-41.3c-2.6,0-4.6-2.1-4.6-4.6v-41.1
	C343.6,324.7,345.7,322.6,348.3,322.6z"/>
<path class="st0" d="M105.4,401.1h41.3c2.6,0,4.6,2.1,4.6,4.6v41.1c0,2.6-2.1,4.6-4.6,4.6h-41.3c-2.6,0-4.6-2.1-4.6-4.6v-41.1
	C100.8,403.2,102.9,401.1,105.4,401.1z"/>
<path class="st1" d="M186.4,401.1h41.4c2.6,0,4.6,2.1,4.6,4.6v41.1c0,2.6-2.1,4.6-4.6,4.6h-41.4c-2.6,0-4.6-2.1-4.6-4.6v-41.1
	C181.7,403.2,183.8,401.1,186.4,401.1z"/>
<path class="st0" d="M148.4,247.4c0,7.1-5.8,12.9-12.9,12.9l0,0c-7.1,0-12.9-5.8-12.9-12.9v-34.1c0-7.1,5.8-12.9,12.9-12.9
	c0,0,0,0,0,0l0,0c7.1,0,12.9,5.8,12.9,12.9V247.4z M377.4,213.2c0-7.1-5.8-12.9-12.9-12.9c0,0,0,0,0,0l0,0
	c-7.1,0-12.9,5.8-12.9,12.9v34.1c0,7.1,5.8,12.9,12.9,12.9l0,0c7.1,0,12.9-5.8,12.9-12.9V213.2z M339.7,242.6v-24.5H160.3v24.5
	H339.7z M364.5,260.3c7.1,0,12.9-5.8,12.9-12.9v-34.1c0-7.1-5.8-12.9-12.9-12.9c-7.1,0-12.9,5.8-12.9,12.9c0,0,0,0,0,0v34.1
	C351.6,254.5,357.4,260.3,364.5,260.3L364.5,260.3z M423.5,218.1h-34.2v24.5h10.3c11.2-0.1,20.4,8.9,20.5,20.1V280H79.8v-17.2
	c0.1-11.2,9.3-20.2,20.5-20.1h10.3v-24.5H76.5c-13.4,0-24.3,10.9-24.3,24.3v0v233.2c0,13.4,10.9,24.3,24.3,24.3c0,0,0,0,0,0h347
	c13.4,0,24.3-10.9,24.3-24.3c0,0,0,0,0,0V242.5C447.8,229,436.9,218.1,423.5,218.1L423.5,218.1z M420.2,459.9
	c-0.1,11.2-9.3,20.2-20.5,20.1H100.3c-11.2,0.1-20.4-8.9-20.5-20.1V308.1h340.3V459.9z"/>
<path class="st0" d="M267.3,401.1h41.3c2.6,0,4.6,2.1,4.6,4.6v41.1c0,2.6-2.1,4.6-4.6,4.6h-41.3c-2.6,0-4.6-2.1-4.6-4.6v-41.1
	C262.7,403.2,264.8,401.1,267.3,401.1z"/>
<path class="st0" d="M348.3,401.1h41.3c2.6,0,4.6,2.1,4.6,4.6v41.1c0,2.6-2.1,4.6-4.6,4.6h-41.3c-2.6,0-4.6-2.1-4.6-4.6v-41.1
	C343.6,403.2,345.7,401.1,348.3,401.1z"/>
<circle class="st0" cx="250" cy="73.4" r="73.4"/>
<g class="st2">
	<path class="st3" d="M233.2,108.3c-1.4,0-2.5-0.5-3.4-1.4c-0.9-0.9-1.4-2.1-1.4-3.4c0-1.4,0.4-2.5,1.3-3.4l26.7-31.2
		c1.9-2.2,3.3-4.3,4.4-6.2c1-1.9,1.6-3.8,1.6-5.6c0-2.8-0.5-5.1-1.4-7.2c-0.9-2-2.3-3.6-4-4.7c-1.8-1.1-3.9-1.6-6.3-1.6
		c-2.4,0-4.5,0.6-6.4,1.8c-1.9,1.2-3.4,2.9-4.5,4.9c-1.1,2-1.6,4.3-1.6,6.7c0,1.3-0.5,2.4-1.4,3.3c-0.9,0.9-2.1,1.4-3.4,1.4
		c-1.3,0-2.4-0.5-3.4-1.4c-0.9-0.9-1.4-2-1.4-3.3c0-4.3,1-8.1,2.9-11.4c1.9-3.4,4.6-6,8-8c3.4-1.9,7.1-2.9,11.3-2.9
		c4.3,0,8,0.9,11.1,2.7c3.1,1.8,5.6,4.4,7.3,7.7c1.7,3.3,2.6,7.3,2.6,11.9c0,2-0.4,4-1.3,6.1c-0.8,2.1-1.9,4-3.2,5.9
		c-1.3,1.9-2.6,3.6-3.9,5.1l-21.6,24.5h26.4c1.4,0,2.5,0.5,3.5,1.5c0.9,1,1.4,2.1,1.4,3.3c0,1.3-0.5,2.4-1.4,3.4
		c-0.9,0.9-2.1,1.4-3.5,1.4H233.2z"/>
</g>
</svg>
