<svg id="Layer_1" data-name="Layer 1" xmlns="http://www.w3.org/2000/svg" xmlns:xlink="http://www.w3.org/1999/xlink" viewBox="0 0 500 500"><defs><style>.cls-1{fill:url(#linear-gradient);}</style><linearGradient id="linear-gradient" y1="250" x2="500" y2="250" gradientUnits="userSpaceOnUse"><stop offset="0" stop-color="#336cb5"/><stop offset="0.47" stop-color="#02c1ea"/><stop offset="1" stop-color="#65c189"/></linearGradient></defs><title>psychologist-2</title><path class="cls-1" d="M92.46,370.24h-78c-9.26,0-14.6-5.45-14.42-14.68a92.42,92.42,0,0,1,183.52-14.17,102.89,102.89,0,0,1,1.33,15.38c.16,7.87-5.54,13.45-13.42,13.46Q132,370.28,92.46,370.24Zm-.7-237.84c-28.87.09-52.33,24.09-52.13,53.37.19,28.89,24.09,52.58,52.87,52.4,29.2-.19,52.85-23.88,52.74-52.84C145.12,155.55,121.65,132.32,91.76,132.4Zm276.69,19q-58.5,0-117,0c-9.48,0-14.46-4.18-14.07-11.62a10.12,10.12,0,0,1,8.53-9.65,42.05,42.05,0,0,1,6.45-.32H484.76c.54,0,1.08,0,1.62,0,10.11-.68,13.63,5.51,13.62,10.9,0,6.82-5.12,10.7-14,10.71Q427.23,151.45,368.45,151.42Zm0,54.71q-58.5,0-117,0c-9.48,0-14.46-4.18-14.07-11.62a10.13,10.13,0,0,1,8.53-9.66,42,42,0,0,1,6.45-.31c77.47,0,103.72,0,181.18,0,.54,0,1.08,0,1.62,0,10.12-.69,13.63,5.51,13.62,10.89,0,6.83-5.12,10.71-14,10.71C395.59,206.14,407.63,206.13,368.45,206.13Zm0,54.7q-58.5,0-117,0c-9.48,0-14.46-4.18-14.07-11.62a10.12,10.12,0,0,1,8.53-9.65,42.05,42.05,0,0,1,6.45-.32H472c.54,0,1.08,0,1.62,0,10.12-.69,13.63,5.5,13.62,10.89,0,6.83-5.12,10.7-14,10.71C434,260.85,407.63,260.83,368.45,260.83Zm0,54.71q-58.5,0-117,0c-9.48,0-14.46-4.18-14.07-11.62a10.13,10.13,0,0,1,8.53-9.66,43.35,43.35,0,0,1,6.45-.31c77.47,0,65.3,0,142.77,0,.53,0,1.08,0,1.61,0,10.12-.68,13.64,5.51,13.63,10.9,0,6.82-5.12,10.7-14,10.71C357.17,315.55,407.63,315.54,368.45,315.54Zm0,54.7q-58.5,0-117,0c-9.48,0-14.46-4.17-14.07-11.62A10.12,10.12,0,0,1,245.9,349a42.05,42.05,0,0,1,6.45-.32H484.76c.54,0,1.08,0,1.62,0,10.11-.69,13.63,5.51,13.62,10.89,0,6.83-5.12,10.71-14,10.71Q427.23,370.28,368.45,370.24Z"/></svg>