<svg id="Layer_1" data-name="Layer 1" xmlns="http://www.w3.org/2000/svg" viewBox="0 0 500 500"><defs><style>.cls-1{fill:#662d91;opacity:0.5;}</style></defs><title>psychologist-3</title><path class="cls-1" d="M191.45,228.18H136.94c-6.46,0-10.19-3.81-10.06-10.26A64.54,64.54,0,0,1,255,208a70.14,70.14,0,0,1,.93,10.74c.11,5.5-3.87,9.39-9.37,9.4Q219,228.2,191.45,228.18ZM191,62.08c-20.17.05-36.54,16.82-36.41,37.26A36.88,36.88,0,1,0,191,62.08ZM329,26.2c-2.16-.1-3.75-.23-5.34-.23H99.61C91.93,26,91,27,91,34.76V465.33c0,7.72,1,8.71,8.71,8.71H400.4c7.68,0,8.62-1,8.62-8.8v-352H344.31c-10.22,0-15.27-5-15.28-15.14q0-33.2,0-66.39ZM348.66,0a38.43,38.43,0,0,0,2.95,4.23q40.29,43.85,80.57,87.71a10.31,10.31,0,0,1,2.56,6.36q.18,184.52.07,369.05c0,20.27-12.83,32.64-33.1,32.64H98.08c-19.73,0-32.3-12.24-32.86-31.94,0-.65,0-1.3,0-1.95q0-216-.07-432c0-11.27,3-21,12.31-27.74C81.16,3.63,85.71,2.08,89.87,0Zm6.53,46.57V86.94h37.23Zm-213.54,269a40.4,40.4,0,0,0-6.78.49c-5.05.86-8.06,4.51-8,9.42a9.09,9.09,0,0,0,7.74,9.2,34.86,34.86,0,0,0,6.29.55q105,0,209.9,0a31.33,31.33,0,0,0,6.77-.64,9.54,9.54,0,0,0,7.16-9.29,9.38,9.38,0,0,0-7.35-9.11,38.34,38.34,0,0,0-7.26-.61q-52,0-104,0Q193.88,315.59,141.65,315.61Zm0,35.84a40.4,40.4,0,0,0-6.78.49c-5.05.86-8.06,4.51-8,9.43a9.08,9.08,0,0,0,7.74,9.19,34,34,0,0,0,6.29.55q105,0,209.9,0a32,32,0,0,0,6.77-.63,9.56,9.56,0,0,0,7.16-9.3,9.38,9.38,0,0,0-7.35-9.11,38.34,38.34,0,0,0-7.26-.61q-52,0-104,0Q193.88,351.43,141.65,351.45ZM351,263.79c1.63,0,3.26.08,4.88-.08a9.36,9.36,0,0,0,8.6-8.5,9.08,9.08,0,0,0-6.52-10.1,21.75,21.75,0,0,0-6.24-.76q-105.92,0-211.83,0a25.39,25.39,0,0,0-4.86.25c-5.39,1-8.5,5.1-8.15,10.41.38,5.58,4.44,8.79,11.31,8.8H351Zm0,35.63a46.7,46.7,0,0,0,4.88-.08,9.36,9.36,0,0,0,8.6-8.5A9.07,9.07,0,0,0,358,280.75a21.75,21.75,0,0,0-6.24-.77q-105.92,0-211.83,0a26.22,26.22,0,0,0-4.86.25c-5.39,1-8.5,5.1-8.15,10.41.38,5.58,4.44,8.79,11.31,8.8q53.7,0,107.38,0ZM352,406.87c8,0,12.66-3.51,12.67-9.69,0-4.88-3.17-10.48-12.33-9.86-.49,0-1,0-1.47,0H140.45a38,38,0,0,0-5.84.29,9.15,9.15,0,0,0-7.72,8.74c-.35,6.73,4.16,10.51,12.74,10.52q53,0,105.92,0Q298.76,406.88,352,406.87Zm-1,35.64a37.74,37.74,0,0,0,4.88-.12A9.64,9.64,0,0,0,364.21,430c-1.28-4.69-5.16-7-12-7q-106.4,0-212.79,0a25.56,25.56,0,0,0-4.38.18,9.45,9.45,0,0,0-8.15,10.39c.37,5.66,4.57,8.89,11.78,8.89q53.44,0,106.89,0Zm-1-250c-86,0,3.27.08,4.88-.08a9.38,9.38,0,0,0,8.61-8.5,9.1,9.1,0,0,0-6.53-10.1,21.75,21.75,0,0,0-6.24-.76c-70.61,0,27,0-43.57,0a26.18,26.18,0,0,0-4.86.24c-5.39,1-8.51,5.11-8.15,10.42.37,5.57,4.44,8.79,11.31,8.79C341.22,192.54,314.84,192.53,350,192.53Zm0,35.63c-86,0,3.27.08,4.88-.08a9.38,9.38,0,0,0,8.61-8.5,9.1,9.1,0,0,0-6.53-10.1,21.75,21.75,0,0,0-6.24-.76c-70.61,0,27,0-43.57,0a25.35,25.35,0,0,0-4.86.25c-5.39,1-8.51,5.1-8.15,10.41.37,5.57,4.44,8.79,11.31,8.79C341.22,228.17,314.84,228.16,350,228.16Z"/></svg>