<svg xmlns="http://www.w3.org/2000/svg" viewBox="0 0 500 285"><defs><style>.cls-1{isolation:isolate;}.cls-2,.cls-3{fill:#65c189;opacity:0.6;}.cls-3{font-size:21.48px;font-family:Comfortaa-Bold, Comfortaa;font-weight:700;}.cls-4{fill:#fbb040;mix-blend-mode:multiply;}.cls-5{fill:#24506d;stroke:#fff;stroke-miterlimit:10;stroke-width:2.39px;}</style></defs><title>psychologist-5</title><g class="cls-1"><g id="Layer_1" data-name="Layer 1"><path class="cls-2" d="M409.22,233.59H388.85c-1.65,0-2.52-.8-2.45-2.23a1.88,1.88,0,0,1,1.48-1.86,7.07,7.07,0,0,1,1.13-.06h40.73a2,2,0,0,1,2.38,2.09c0,1.31-.9,2.06-2.44,2.06Zm0-13H388.85c-1.65,0-2.52-.8-2.45-2.23a1.89,1.89,0,0,1,1.48-1.86,7.07,7.07,0,0,1,1.13-.06h59.5a2,2,0,0,1,2.37,2.09c0,1.32-.89,2.06-2.43,2.06Zm59.71-53.54H429.52V143.41a10.87,10.87,0,0,0-10.85-10.85H327.08a10.87,10.87,0,0,0-10.86,10.85v60a10.87,10.87,0,0,0,10.86,10.85h39.4V238a10.87,10.87,0,0,0,10.86,10.86h91.59A10.87,10.87,0,0,0,479.78,238V178A10.87,10.87,0,0,0,468.93,167.09ZM327.08,138.22h91.59a5.2,5.2,0,0,1,5.19,5.19v8.73h-102v-8.73A5.2,5.2,0,0,1,327.08,138.22ZM366.48,178v30.68h-39.4a5.2,5.2,0,0,1-5.2-5.19V157.8h102v9.29H377.34A10.87,10.87,0,0,0,366.48,178Zm107.64,60a5.2,5.2,0,0,1-5.19,5.2H377.34a5.2,5.2,0,0,1-5.19-5.2V178a5.2,5.2,0,0,1,5.19-5.19h91.59a5.2,5.2,0,0,1,5.19,5.19Z"/><path class="cls-2" d="M452.11,101.82H19.9A19.93,19.93,0,0,1,0,81.92V56.07a19.93,19.93,0,0,1,19.9-19.9H452.11A19.92,19.92,0,0,1,472,56.07V81.92A19.92,19.92,0,0,1,452.11,101.82ZM19.9,42.14A14,14,0,0,0,6,56.07V81.92A14,14,0,0,0,19.9,95.85H452.11A14,14,0,0,0,466,81.92V56.07a14,14,0,0,0-13.93-13.93Z"/><text class="cls-3" transform="translate(15.47 76.91)">ESXX / XXXX / XXXX / XX / XXXXXXXXX</text><circle class="cls-4" cx="467.72" cy="70.92" r="31.76"/><g id="_2mGeM7" data-name="2mGeM7"><path class="cls-5" d="M469.91,68.64a11.74,11.74,0,0,1,1.39,1.23q13.93,16.53,27.84,33.07a3.71,3.71,0,0,1,.81,1.37c.3,1.24-.85,2.23-2.23,2-3.76-.72-7.52-1.46-11.28-2.19l-.54-.08c.06.23.1.39.15.55l4.92,14a3.85,3.85,0,0,1-1.32,4.79,3.69,3.69,0,0,1-5.46-1.44C483.37,120,482.74,118,482,116c-1.14-3.24-2.27-6.48-3.43-9.82l-.4.49-7.12,9.6a1.86,1.86,0,0,1-1.95,1,1.71,1.71,0,0,1-1.38-1.47,6.37,6.37,0,0,1,0-.76q0-22,0-44.1A2.15,2.15,0,0,1,469,68.64Z"/></g></g></g></svg>