<svg xmlns="http://www.w3.org/2000/svg" viewBox="0 0 500 500"><defs><style>.cls-1{isolation:isolate;}.cls-2{fill:none;stroke:#4584ae;stroke-width:10.49px;opacity:0.5;}.cls-2,.cls-8{stroke-miterlimit:10;}.cls-3{opacity:0.25;font-size:37.76px;fill:#1d1d1b;}.cls-3,.cls-6{font-family:Roboto-Bold, Roboto;font-weight:700;}.cls-4,.cls-5,.cls-6{fill:#4584ae;}.cls-5{opacity:0.1;mix-blend-mode:difference;}.cls-6{font-size:55.48px;}.cls-7{fill:#fbb040;mix-blend-mode:multiply;}.cls-8{fill:#24506d;stroke:#fff;stroke-width:4.2px;}</style></defs><title>psychologist-1</title><g class="cls-1"><g id="Layer_1" data-name="Layer 1"><rect class="cls-2" y="136.04" width="446.11" height="104.88" rx="29.73"/><rect class="cls-2" y="265.04" width="446.11" height="104.88" rx="29.73"/><text class="cls-3" transform="translate(87.94 198.96)">nombre@dominio.</text><rect class="cls-4" x="407.99" y="166.63" width="2.1" height="41.94"/><rect class="cls-5" x="90.34" y="166.63" width="307.09" height="42.57"/><text class="cls-6" transform="translate(87.36 345.23)">***********</text><circle class="cls-7" cx="443.27" cy="185.9" r="55.82"/><g id="_2mGeM7" data-name="2mGeM7"><path class="cls-8" d="M447.11,181.9a20.34,20.34,0,0,1,2.46,2.16q24.48,29,48.91,58.12a6.38,6.38,0,0,1,1.44,2.41c.52,2.17-1.5,3.92-3.93,3.45-6.61-1.26-13.21-2.57-19.82-3.85-.27-.05-.55-.08-.95-.13.11.39.17.69.27,1l8.64,24.69c1.23,3.52.41,6.5-2.32,8.42a6.5,6.5,0,0,1-9.6-2.54c-1.43-3.4-2.55-6.93-3.78-10.42-2-5.69-4-11.39-6-17.25-.28.35-.49.6-.69.86q-6.25,8.43-12.51,16.87c-.87,1.17-1.87,2-3.44,1.66a3,3,0,0,1-2.43-2.57c0-.44,0-.89,0-1.33q0-38.76,0-77.52c0-1.89.55-3.25,2.32-4Z"/></g></g></g></svg>