<svg id="Layer_1" data-name="Layer 1" xmlns="http://www.w3.org/2000/svg" viewBox="0 0 500 500"><defs><style>.cls-1{fill:#fbb040;}</style></defs><title>psychologist-6</title><path class="cls-1" d="M249.75,499.38C110.66,499.25-.34,387.49,0,248,.33,113.67,114.62.63,250.07.62c137.09,0,250,114.09,249.93,252.51C499.91,388.33,386.92,499.51,249.75,499.38ZM205.08,283.1c-15-16.71-27.49-32.23-41.62-46.14-17.32-17-40.31-17.1-54.9-1.76-14.42,15.17-14,36.35,2.24,53.22,22.68,23.49,45.7,46.68,69.32,69.22,17.65,16.83,35.82,17.72,52.94.95C286.54,306.2,340,253.7,391.14,199.09c8.13-8.69,8.72-29.71,5.06-42.87-4.9-17.56-23.28-21.23-39.73-16.72-9.17,2.52-17.77,9.9-24.84,16.88C290.35,197.12,249.61,238.39,205.08,283.1Z"/></svg>