<svg xmlns="http://www.w3.org/2000/svg" viewBox="0 0 339.97 100.73"><defs><style>.cls-1{fill:#fff}</style></defs><g id="Capa_2" data-name="Capa 2"><g id="Capa_1-2" data-name="Capa 1"><rect width="339.97" height="100.73" rx="12.59" ry="12.59"/><path class="cls-1" d="M327.38 2A10.59 10.59 0 0 1 338 12.59v75.55a10.59 10.59 0 0 1-10.58 10.58H12.59A10.59 10.59 0 0 1 2 88.14V12.59A10.59 10.59 0 0 1 12.59 2h314.79m0-2H12.59A12.63 12.63 0 0 0 0 12.59v75.55a12.63 12.63 0 0 0 12.59 12.59h314.79A12.63 12.63 0 0 0 340 88.14V12.59A12.63 12.63 0 0 0 327.38 0z"/><path class="cls-1" d="M89.84 66.67a54.4 54.4 0 0 1-4.92 9.18c-3.2 4.86-7.7 10.92-13.28 11-5 0-6.23-3.23-13-3.19s-8.13 3.25-13.09 3.2c-5.58-.05-9.85-5.52-13-10.38-8.93-13.6-9.87-29.56-4.36-38 3.92-6 10.09-9.56 15.9-9.56s9.63 3.24 14.52 3.24 7.63-3.25 14.47-3.25c5.17 0 10.64 2.81 14.55 7.68-12.78 6.94-10.7 25.2 2.21 30.08z"/><path class="cls-1" d="M67.9 23.41c2.48-3.19 4.37-7.69 3.69-12.29A17.93 17.93 0 0 0 60 17.34c-2.52 3.06-4.59 7.59-3.78 12 4.44.13 9.02-2.51 11.68-5.93zM117.06 41.2l-12.8 37.67h5.86l3.82-11.57h12.39l3.93 11.57h6L123.44 41.2zm3 6.19c.43 1.68.9 3.43 1.5 5.31l3.45 10h-9.82l3.4-10.05c.56-1.65 1.05-3.4 1.51-5.26zM152.85 51a10.66 10.66 0 0 0-9.06 4.35l-.23-3.75h-5.21v.48c.15 2.33.22 4.9.22 8.59v29h5.7V76.12a10 10 0 0 0 7.79 3.35 11.75 11.75 0 0 0 8.64-3.67c2.5-2.64 3.81-6.43 3.81-11a15.16 15.16 0 0 0-3.31-10 10.84 10.84 0 0 0-8.35-3.8zm-1.42 4.72c5.08 0 7.35 4.71 7.35 9.37 0 6-2.9 9.75-7.57 9.75a6.91 6.91 0 0 1-6.71-5.29 7.27 7.27 0 0 1-.2-1.84v-4.62a8.59 8.59 0 0 1 .18-1.41c0-.16.06-.31.08-.46a7.22 7.22 0 0 1 6.87-5.54zM182.2 51a10.67 10.67 0 0 0-9.06 4.35l-.23-3.75h-5.21v.48c.15 2.34.22 4.9.22 8.59v29h5.7V76.12a10 10 0 0 0 7.79 3.35 11.77 11.77 0 0 0 8.64-3.67c2.49-2.64 3.81-6.43 3.81-11a15.16 15.16 0 0 0-3.31-10 10.84 10.84 0 0 0-8.35-3.8zm-1.42 4.72c5.08 0 7.35 4.71 7.35 9.37 0 6-2.9 9.75-7.57 9.75a6.91 6.91 0 0 1-6.71-5.29 7.27 7.27 0 0 1-.2-1.84v-4.62a8.43 8.43 0 0 1 .18-1.41l.08-.46a7.21 7.21 0 0 1 6.87-5.54zM219 57.16c-5.32-2.06-7-3.68-7-6.67 0-2.52 2-5.06 6.48-5.06a13 13 0 0 1 6.69 1.68l.48.3 1.61-4.76-.32-.19a16.52 16.52 0 0 0-8.3-1.86c-7.27 0-12.34 4.29-12.34 10.43 0 5 3.18 8.42 10 10.9 4.84 1.81 6.64 3.66 6.64 6.83 0 3.59-2.78 5.82-7.24 5.82a15.6 15.6 0 0 1-8.21-2.33l-.49-.32-1.53 4.87.28.19c2.15 1.44 6.2 2.48 9.63 2.48 9.8 0 13.27-6 13.27-11.09-.07-5.27-2.85-8.52-9.65-11.22zM238.84 45.08l-5.59 1.76v4.73h-4.09v4.56h4.09v14c0 3.37.65 5.74 2 7.23a7.31 7.31 0 0 0 5.51 2.16 13.42 13.42 0 0 0 4.41-.68l.32-.11-.27-4.56-.55.17a8.59 8.59 0 0 1-2.65.31c-2.21 0-3.15-1.4-3.15-4.68V56.12h6.88v-4.55h-6.88zM259.84 51c-8 0-13.54 6-13.54 14.47 0 8.26 5.39 14 13.11 14h.05c6.54 0 13.54-4.54 13.54-14.52a14.4 14.4 0 0 0-3.63-10.08 12.68 12.68 0 0 0-9.53-3.87zm-.16 4.5c5.13 0 7.46 5 7.46 9.64 0 5.71-3.19 9.86-7.57 9.86h-.06c-4.32 0-7.46-4.08-7.46-9.7 0-4.91 2.36-9.83 7.63-9.83zM290.46 51.23l-.34-.09a5.48 5.48 0 0 0-1.42-.14 8.13 8.13 0 0 0-7.15 4.59l-.17-4h-5.11v.48c.15 2.26.22 4.79.22 8.21l-.05 18.62h5.7V64.35a14.68 14.68 0 0 1 .16-2.21c.64-3.49 3-5.74 6-5.74a14.55 14.55 0 0 1 1.53.1l.61.06zM303.27 50.91c-7.59 0-12.89 6.06-12.89 14.74 0 8.36 5.27 13.76 13.43 13.76a21.86 21.86 0 0 0 9-1.73l.34-.15-1.1-4.25-.48.19a17.65 17.65 0 0 1-7.14 1.28c-2.48 0-8.19-.82-8.54-8.26l18.4.06.07-.36a12.69 12.69 0 0 0 .17-2.38c.05-5.96-2.91-12.9-11.26-12.9zm-.38 4.34a5.62 5.62 0 0 1 4.18 1.6 8.11 8.11 0 0 1 2 5.31H296c.57-3.3 2.63-6.91 6.89-6.91zM104 13.87a30.77 30.77 0 0 1 5.1-.41c3.45 0 5.9.83 7.53 2.32a8.48 8.48 0 0 1 2.65 6.67 9.94 9.94 0 0 1-2.67 7.22c-1.76 1.74-4.63 2.67-8.24 2.67a38.36 38.36 0 0 1-4.36-.22zm2.4 16.43a19.9 19.9 0 0 0 2.43.11c5.16 0 7.91-2.87 7.91-7.89 0-4.38-2.45-7.17-7.53-7.17a13.64 13.64 0 0 0-2.81.25zM124.81 15.08a1.45 1.45 0 0 1-1.54 1.49 1.43 1.43 0 0 1-1.46-1.49 1.48 1.48 0 0 1 1.52-1.52 1.46 1.46 0 0 1 1.48 1.52zm-2.7 17.1V18.83h2.43v13.34zM127.69 29.72a6.85 6.85 0 0 0 3.23.94c1.74 0 2.56-.85 2.56-2s-.69-1.76-2.45-2.43c-2.43-.88-3.56-2.18-3.56-3.78 0-2.15 1.76-3.92 4.61-3.92a6.2 6.2 0 0 1 3.25.83l-.58 1.76a5.17 5.17 0 0 0-2.73-.8c-1.43 0-2.21.83-2.21 1.82s.77 1.6 2.51 2.29c2.29.85 3.5 2 3.5 4 0 2.37-1.85 4-5 4a7.61 7.61 0 0 1-3.75-.94zM138.5 23.18c0-1.71-.05-3.09-.11-4.36h2.15l.14 2.29h.05a5.2 5.2 0 0 1 4.74-2.56c3.25 0 5.68 2.73 5.68 6.76 0 4.8-3 7.17-6.09 7.17a4.68 4.68 0 0 1-4.11-2.1h-.05v7.25h-2.4zm2.4 3.56a3.79 3.79 0 0 0 .11 1 3.75 3.75 0 0 0 3.64 2.84c2.56 0 4.05-2.1 4.05-5.16 0-2.65-1.41-4.94-4-4.94a3.82 3.82 0 0 0-3.67 3 3.89 3.89 0 0 0-.17 1zM166.27 25.39c0 4.94-3.45 7.09-6.65 7.09-3.58 0-6.4-2.65-6.4-6.87 0-4.44 3-7.06 6.62-7.06 3.84 0 6.43 2.79 6.43 6.84zm-10.56.14c0 2.92 1.65 5.13 4 5.13s4.05-2.18 4.05-5.18c0-2.26-1.13-5.1-4-5.1s-4.05 2.62-4.05 5.15zM169.1 22.44c0-1.41 0-2.51-.11-3.61h2.15l.14 2.21h.05a5 5 0 0 1 4.41-2.48c1.85 0 4.72 1.1 4.72 5.68v7.94H178v-7.7c0-2.15-.8-3.94-3.09-3.94a3.56 3.56 0 0 0-3.42 3.61v8h-2.39zM186.68 15.08a1.45 1.45 0 0 1-1.54 1.49 1.43 1.43 0 0 1-1.46-1.49 1.48 1.48 0 0 1 1.52-1.52 1.46 1.46 0 0 1 1.48 1.52zM184 32.17V18.83h2.43v13.34zM190.05 12.6h2.4V21h.05a5 5 0 0 1 4.55-2.43c3.34 0 5.65 2.76 5.65 6.78 0 4.77-3 7.14-6 7.14a4.85 4.85 0 0 1-4.5-2.49h-.05l-.15 2.17h-2.07c.06-.91.11-2.26.11-3.45zm2.4 14.23a3.11 3.11 0 0 0 .11.88 3.72 3.72 0 0 0 3.64 2.84c2.56 0 4.05-2.07 4.05-5.13 0-2.67-1.38-5-4-5a3.89 3.89 0 0 0-3.67 3 3.82 3.82 0 0 0-.14 1zM205.58 12.6H208v19.57h-2.43zM213.21 25.94c.06 3.28 2.12 4.63 4.58 4.63a8.68 8.68 0 0 0 3.7-.69l.44 1.74a10.87 10.87 0 0 1-4.47.85c-4.11 0-6.56-2.73-6.56-6.76s2.37-7.17 6.26-7.17c4.38 0 5.52 3.81 5.52 6.26a5.82 5.82 0 0 1-.08 1.13zm7.12-1.74c0-1.52-.64-3.92-3.36-3.92-2.48 0-3.53 2.23-3.72 3.92zM232.87 25.94c.06 3.28 2.12 4.63 4.58 4.63a8.68 8.68 0 0 0 3.7-.69l.44 1.74a10.87 10.87 0 0 1-4.47.85c-4.11 0-6.56-2.73-6.56-6.76s2.37-7.17 6.26-7.17c4.38 0 5.52 3.81 5.52 6.26a5.93 5.93 0 0 1-.08 1.13zm7.13-1.73c0-1.52-.64-3.92-3.36-3.92-2.48 0-3.53 2.23-3.72 3.92zM245.08 22.44c0-1.41 0-2.51-.11-3.61h2.15l.14 2.21h.05a5 5 0 0 1 4.41-2.48c1.85 0 4.72 1.1 4.72 5.68v7.94H254v-7.7c0-2.15-.8-3.94-3.09-3.94a3.56 3.56 0 0 0-3.42 3.61v8h-2.43z"/></g></g></svg>