<svg xmlns="http://www.w3.org/2000/svg" viewBox="0 0 339.97 100.73"><defs><style>.cls-1,.cls-9{fill:#fff}.cls-7{isolation:isolate;opacity:.12}.cls-9{stroke:#fff;stroke-miterlimit:10;stroke-width:.2px}</style><linearGradient id="linear-gradient" x1="54.9" y1="-3740.51" x2="12.63" y2="-3782.77" gradientTransform="matrix(1 0 0 -1 0 -3718.58)" gradientUnits="userSpaceOnUse"><stop offset="0" stop-color="#009eff"/><stop offset=".01" stop-color="#009fff"/><stop offset=".26" stop-color="#00bcff"/><stop offset=".51" stop-color="#00d0ff"/><stop offset=".76" stop-color="#0df"/><stop offset="1" stop-color="#00e1ff"/></linearGradient><linearGradient id="linear-gradient-2" x1="85.21" y1="-3768.95" x2="24.27" y2="-3768.95" gradientTransform="matrix(1 0 0 -1 0 -3718.58)" gradientUnits="userSpaceOnUse"><stop offset="0" stop-color="#ffde00"/><stop offset=".41" stop-color="#fb0"/><stop offset=".78" stop-color="#ffa300"/><stop offset="1" stop-color="#ff9a00"/></linearGradient><linearGradient id="linear-gradient-3" x1="62.52" y1="-3774.72" x2="5.21" y2="-3832.04" gradientTransform="matrix(1 0 0 -1 0 -3718.58)" gradientUnits="userSpaceOnUse"><stop offset="0" stop-color="#ff3a44"/><stop offset="1" stop-color="#c11162"/></linearGradient><linearGradient id="linear-gradient-4" x1="18.38" y1="-3719.02" x2="43.97" y2="-3744.61" gradientTransform="matrix(1 0 0 -1 0 -3718.58)" gradientUnits="userSpaceOnUse"><stop offset="0" stop-color="#329e71"/><stop offset=".07" stop-color="#2da571"/><stop offset=".48" stop-color="#15cd74"/><stop offset=".8" stop-color="#06e575"/><stop offset="1" stop-color="#00ee76"/></linearGradient></defs><g id="Capa_2" data-name="Capa 2"><g id="Capa_1-2" data-name="Capa 1"><rect width="339.97" height="100.73" rx="12.59" ry="12.59"/><path class="cls-1" d="M327.38 2A10.59 10.59 0 0 1 338 12.59v75.55a10.59 10.59 0 0 1-10.58 10.58H12.59A10.59 10.59 0 0 1 2 88.14V12.59A10.59 10.59 0 0 1 12.59 2h314.79m0-2H12.59A12.63 12.63 0 0 0 0 12.59v75.55a12.63 12.63 0 0 0 12.59 12.59h314.79A12.63 12.63 0 0 0 340 88.14V12.59A12.63 12.63 0 0 0 327.38 0z"/><path class="cls-1" d="M171.59 54.78a10.71 10.71 0 1 0 10.75 10.71 10.56 10.56 0 0 0-10.75-10.71zm0 17.2a6.51 6.51 0 1 1 6-6.49 6.2 6.2 0 0 1-6 6.51zm-23.45-17.2a10.71 10.71 0 1 0 10.75 10.71 10.56 10.56 0 0 0-10.76-10.71zm0 17.2a6.51 6.51 0 1 1 6-6.49 6.2 6.2 0 0 1-6.01 6.51zm-27.9-13.92v4.54h10.87a9.48 9.48 0 0 1-2.47 5.72 11.13 11.13 0 0 1-8.4 3.33 12.09 12.09 0 0 1 0-24.18 11.59 11.59 0 0 1 8.2 3.25l3.21-3.21a15.85 15.85 0 0 0-11.4-4.58 16.64 16.64 0 1 0 0 33.27 15.21 15.21 0 0 0 11.6-4.67c3-3 3.94-7.22 3.94-10.63a14.79 14.79 0 0 0-.24-2.84zm114.1 3.53c-.89-2.39-3.61-6.82-9.17-6.82s-10.1 4.34-10.1 10.71a10.48 10.48 0 0 0 10.62 10.72 10.65 10.65 0 0 0 8.93-4.75L231 69a6.12 6.12 0 0 1-5.27 3 5.45 5.45 0 0 1-5.19-3.25l14.32-5.92zm-14.61 3.57a5.87 5.87 0 0 1 5.6-6.25 4.15 4.15 0 0 1 4 2.27zm-11.65 10.39h4.71V44.07h-4.71zm-7.71-18.38h-.16a7.42 7.42 0 0 0-5.64-2.39 10.72 10.72 0 0 0 0 21.42 7.3 7.3 0 0 0 5.64-2.43h.16v1.54c0 4.1-2.19 6.29-5.72 6.29a5.93 5.93 0 0 1-5.4-3.81l-4.1 1.7a10.21 10.21 0 0 0 9.49 6.33c5.52 0 10.18-3.25 10.18-11.16V55.43h-4.46zM195 72a6.15 6.15 0 0 1-6-6.45c0-3.77 2.72-6.53 6-6.53s5.72 2.76 5.72 6.53S198.18 72 195 72zm61.4-27.91h-11.28v31.46h4.7V63.62h6.56c5.21 0 10.33-3.77 10.33-9.78s-5.12-9.77-10.33-9.77zm.12 15.17h-6.68V48.45h6.68a5.4 5.4 0 1 1 0 10.79zm29-4.52c-3.4 0-6.93 1.5-8.38 4.82l4.17 1.74a4.45 4.45 0 0 1 4.31-2.3c2.43 0 4.9 1.46 4.94 4.05v.32a10.4 10.4 0 0 0-4.9-1.22c-4.5 0-9.07 2.47-9.07 7.09 0 4.21 3.69 6.93 7.82 6.93a6.63 6.63 0 0 0 6-3.08h.16v2.41h4.54V63.43c-.01-5.59-4.18-8.71-9.57-8.71zM285 72c-1.54 0-3.69-.77-3.69-2.67 0-2.43 2.67-3.36 5-3.36a8.37 8.37 0 0 1 4.25 1.03 5.7 5.7 0 0 1-5.56 5zm26.65-16.57l-5.39 13.65h-.16l-5.59-13.65h-5.06l8.38 19.08L299 85.1h4.9l12.92-29.69zM269.3 75.55h4.7V44.07h-4.7z"/><path d="M26.28 19a5 5 0 0 0-1.17 3.54v55.7a5 5 0 0 0 1.17 3.54l.19.18 31.2-31.2V50l-31.2-31.2z" fill="url(#linear-gradient)"/><path d="M68.06 61.14l-10.4-10.4V50l10.4-10.4.23.13 12.32 7c3.52 2 3.52 5.27 0 7.27L68.3 61z" fill="url(#linear-gradient-2)"/><path d="M68.3 61L57.67 50.37 26.28 81.75c1.16 1.23 3.08 1.38 5.23.15L68.3 61" fill="url(#linear-gradient-3)"/><path d="M68.3 39.73l-36.79-20.9c-2.16-1.23-4.07-1.07-5.23.15l31.39 31.39z" fill="url(#linear-gradient-4)"/><path d="M68.07 60.77L31.51 81.54c-2 1.16-3.87 1.08-5 0l-.19.19.19.18c1.17 1.06 3 1.14 5 0L68.3 61z" style="isolation:isolate" opacity=".2"/><path class="cls-7" d="M26.28 81.39a5 5 0 0 1-1.17-3.54v.37a5 5 0 0 0 1.17 3.54l.19-.19zM80.62 53.64l-12.55 7.13.23.23 12.32-7c1.76-1 2.64-2.32 2.64-3.63a4.69 4.69 0 0 1-2.64 3.27z"/><path d="M31.51 19.2l49.11 27.9a4.69 4.69 0 0 1 2.64 3.27c0-1.32-.88-2.64-2.64-3.64l-49.11-27.9c-3.52-2-6.4-.34-6.4 3.69v.37c0-4.03 2.89-5.69 6.4-3.69z" style="isolation:isolate" opacity=".25" fill="#fff"/><path class="cls-9" d="M104 32.74V17.63h4.62a7.51 7.51 0 0 1 5.57 2.1 7.4 7.4 0 0 1 2.09 5.45 7.4 7.4 0 0 1-2.09 5.45 7.51 7.51 0 0 1-5.57 2.1zm1.94-1.86h2.68a5.67 5.67 0 0 0 4.15-1.5 5.61 5.61 0 0 0 1.53-4.2 5.62 5.62 0 0 0-1.58-4.18 5.65 5.65 0 0 0-4.15-1.51h-2.67zM119 32.74V17.63h1.94v15.11zM128.63 33.08a5.63 5.63 0 0 1-3.22-1.08 5 5 0 0 1-2.06-3l1.77-.72a4 4 0 0 0 1.3 2.1 3.28 3.28 0 0 0 2.21.85 3.54 3.54 0 0 0 2.16-.66 2.13 2.13 0 0 0 .9-1.81 2.31 2.31 0 0 0-.9-2 9.28 9.28 0 0 0-2.79-1.24 7.57 7.57 0 0 1-3-1.64 3.42 3.42 0 0 1-1-2.56 3.75 3.75 0 0 1 1.29-2.83 4.72 4.72 0 0 1 3.35-1.2 4.86 4.86 0 0 1 3.12 1 4.44 4.44 0 0 1 1.56 2.1l-1.77.74a2.63 2.63 0 0 0-.94-1.33 3.3 3.3 0 0 0-3.84 0 1.9 1.9 0 0 0-.79 1.55 1.76 1.76 0 0 0 .73 1.43 7 7 0 0 0 2.14 1 18.23 18.23 0 0 1 1.87.7 8.51 8.51 0 0 1 1.52.9 3.57 3.57 0 0 1 1.16 1.39 4.5 4.5 0 0 1 .39 1.93 4.16 4.16 0 0 1-.45 2A3.69 3.69 0 0 1 132 32a6 6 0 0 1-1.61.77 6.06 6.06 0 0 1-1.76.31zM138.4 32.74h-1.94V17.63h5.15a4.77 4.77 0 0 1 3.32 1.28 4.39 4.39 0 0 1 0 6.44 4.77 4.77 0 0 1-3.32 1.28h-3.21zm0-8h3.25a2.51 2.51 0 0 0 2-.82 2.6 2.6 0 0 0 0-3.63 2.5 2.5 0 0 0-2-.82h-3.25zM161.14 30.79a7.85 7.85 0 0 1-11.08 0 7.73 7.73 0 0 1-2.23-5.6 7.73 7.73 0 0 1 2.23-5.6 7.82 7.82 0 0 1 11.07 0 7.73 7.73 0 0 1 2.24 5.59 7.74 7.74 0 0 1-2.23 5.61zm-9.65-1.27a5.81 5.81 0 0 0 8.21 0 5.91 5.91 0 0 0 1.68-4.34 5.91 5.91 0 0 0-1.68-4.34 5.81 5.81 0 0 0-8.21 0 5.92 5.92 0 0 0-1.68 4.34 5.92 5.92 0 0 0 1.68 4.34zM166.09 32.74V17.63h2.36l7.34 11.75h.08l-.08-2.91v-8.84h1.94v15.11h-2L168 20.41h-.08l.08 2.91v9.41zM181.2 32.74V17.63h1.94v15.11zM186.6 32.74V17.63h5.46a4.44 4.44 0 0 1 3.07 1.17 3.8 3.8 0 0 1 1.3 2.94 3.29 3.29 0 0 1-.56 1.9 3.51 3.51 0 0 1-1.49 1.25V25a3.84 3.84 0 0 1 1.84 1.31 3.43 3.43 0 0 1 .72 2.15 4 4 0 0 1-1.36 3.08 4.65 4.65 0 0 1-3.22 1.22zm1.94-8.63h3.52a2.27 2.27 0 0 0 1.76-.73 2.25 2.25 0 0 0 0-3.17 2.17 2.17 0 0 0-1.7-.72h-3.61zm0 6.78h3.91a2.32 2.32 0 0 0 1.81-.78 2.51 2.51 0 0 0 .7-1.71 2.54 2.54 0 0 0-2.6-2.47h-3.82zM199.55 32.74V17.63h1.94v13.25H208v1.86zM219.31 19.49h-6.88v4.79h6.2v1.82h-6.2v4.79h6.88v1.86h-8.82V17.63h8.82zM236.23 19.49h-6.88v4.79h6.2v1.82h-6.2v4.79h6.88v1.86h-8.82V17.63h8.82zM239.27 32.74V17.63h2.36L249 29.38h.08l-.08-2.91v-8.84h1.94v15.11h-2l-7.68-12.32h-.08l.08 2.91v9.41z"/></g></g></svg>